<mxfile host="65bd71144e">
    <diagram id="TcHzhG9_mEMn4U1-0O-t" name="Page-1">
        <mxGraphModel dx="1857" dy="777" grid="1" gridSize="10" guides="1" tooltips="1" connect="1" arrows="1" fold="1" page="1" pageScale="1" pageWidth="850" pageHeight="1100" math="0" shadow="0">
            <root>
                <mxCell id="0"/>
                <mxCell id="1" parent="0"/>
                <mxCell id="2" value="" style="shape=image;verticalLabelPosition=bottom;labelBackgroundColor=default;verticalAlign=top;aspect=fixed;imageAspect=0;image=data:image/jpeg,/9j/4AAQSkZJRgABAQAAAQABAAD/2wCEAAYGBgYHBgcICAcKCwoLCg8ODAwODxYQERAREBYiFRkVFRkVIh4kHhweJB42KiYmKjY+NDI0PkxERExfWl98fKcBBgYGBgcGBwgIBwoLCgsKDw4MDA4PFhAREBEQFiIVGRUVGRUiHiQeHB4kHjYqJiYqNj40MjQ+TERETF9aX3x8p//CABEIAzYFsQMBIgACEQEDEQH/xAAuAAADAQEBAQAAAAAAAAAAAAAAAQMCBAUGAQEBAQAAAAAAAAAAAAAAAAAAAQL/2gAMAwEAAhADEAAAAhhAANAAMABNMBMAYgAGAgEwGAAAAAAJgJjEDEMENmRgJsy2CGGTQZNhNUCSsEV0IgXDnOlHOdAcx1ByHWHGu0OM7A4jtRyHWHIdQcr6A510CQLFsSoSKhJ0EwaIy26S1om9uXGgGgENIA1TTEDE2ImCjToAEMRDFQ0DTAAEwASMBQAAEAFE0MBEwBNANAwAaABRoRgK0gJVmgtIzrOzOs6XYEDQiTQ86Va3PYxEsWA0AADEDEADAAAABgJiGgYIAxAKADTBAAAMAAAAGgBpgmAAAANA00DAAAEwAAAAAaYhoYmAAADAEDENADEMEMEwEDEwEDE0xNA0gaYAA0IYBnQAAMQMQAAAhghpoRpCbBDZkbMsYhghhk0CWgybRk0GTQJaEWdi5ekZNBk2jJoFmgRdQi6MiVZM2yao0i6Mi6okGV0ZBMYgQwAAAAAYAAAAwABNAMEBpQaAAYAmACYDQAxAA0DTAAAAAAaBpgCYCYhgAhgAAAME0DTAAAAAGgAAaGJgAAAAAAIaAYAhoAYhoAAAAAAAAAAYmAIaAAAaBoAAGAAmAAAAAAAAAAAAAAAAAAAAAIBoBoGAAADEMENADENGReUeseQWekBKAADE0DedCAExiYAAA0AAMQ0wEwABMAAAAAABiGCaYAAANAAwQwE0DEMAAAABoGAAACAYAAAMEADQ0wEwTTAAAAAEMAAEwEwAATABANANA0DTBDBDBDQNMEwQAAAAAA0AADAEMAATQDAQwEADBADEA0wQDEAADQMATQDQMQMEMET+b+i+csQjU+lAxoGgGAACWShHRUwVsy4YmgAAFoCjSBGAoAAAAxADQWDCUEwAAAAAAAYCYAAAAAAAAAAAMTEDAAAAAABgnmZYXOdKzsT5aFhc50i809M4LnQoeae0SqAAAAGDTAEZNNCMBQAABMAABNDAAAFpAZ0JgR3z1LQvAL+d6IZ5+E9d8nWB5HpJU5cr2GNgAACJgACgCJgIGqYAAIAYAgAGgABgAmR+b+k+bsyM0+i0PFQAMzRxyoR16OjzZ+rM4F6rPJPWDyj1IJya7sHNumFeoxTu1wB6J5ovpPy0nrHkh6x5TPVXl7PSOBnccul6COipNpp5atJjAgEDawbcKmkAxFDTkAFHlg0DABAMQNoBoAAjTjZbmheum/H2RxFueu/xvZ8o9byvU8yT0dZ2p4/seQeptI0ebQ7Recen5+kVryxK9EO44Ovj6E6TjovQS5TvBDzrzR3gVTMqR1EqF58OjqtzdBnn06euIjo5+llM25kh6HH0q+TsgZ6uHsPH9nyPWM8Hp8Zvp4e0aGgCVgAAAAAAAAAAAmgGAAAAAAAABH5v6T5uzIzU+kaMaAYef2+dXR2JwAxSrGrgQMBc9uOzvMahnML0xrGyzTUCMls7yuNysCbJ5sq4qUscWe8POz6YeRr0aHknrB5J6wnj69Cx5J66PJn7XGed069BfOfejj10JJanQepZOnXEl735Wz0n5gemeYk9U8lnqnlo9U8kPWPKZ3789nXDDLdPnXWvn9nCndx25V9nye+Benl+oU8n0/LPV1hx48/aLOJ9NI8ztsKodIhrLPO9Dn5a6erl6onyd5ULgHF3Izx9rXg7s8kdHH3aPKx7ObNaRLz9DDMOlGMXEMbDzvQZU+fs5Il3Tsvi93RsfNfzUt3cnWDQACgCMTAEMErEwTEQCjQAwAAAAAAAAIfOfR/OWIRqfStLGtAHJlbs63hq3ljhaJd5YxAcvVFJdOYLDt58meuFku86V+R63nnoJqJ2hclO3CegDTntK9cV9c8vYARtOlkL+aj0wcQvAts42g4+ziDs5umgZCGEqxvSAgBkL896YEAFQvGwAQJonSVkytiyh2SrGeoOPPczgl6kTjPRDzH6QeZH2oHEemHmHph5k/XinEemL5h6iPNl7EDiXqB5Z6gnkb9Ch5h6gvlnqI8jffY8s9QPLPUDydd9U8teqL5Z6geTrvqeYemHlr1ZJwP0meWeoHlr1ZHnv1A8rl94PMfpROM9DjMa7Q4y1Dmd0Se0Ins08BtyR0b89L6R5felWnKNAxMQ0AAAEPnPo/nLMjNT6QDOhpnC3pKlQiWa88+yKJ2awLBKXTE1imUjdcJ6U85OjXNstPLWjiI7cdlvy7Zz9MqCvzXHwbwd2saidZUs5fL97kXq1y9JILHBe7Fw9HAW6cdSMTUAiNoXsYiVpqoXjcAIAKjbhuXAAFErQvQBBK0asJwAgjaVVaIaAI2iWBiaAjaVVAhoBwvAumCAJ7yWUBSsAjaNqAIACVZVBoBiJVjcQ0EqzKCdAEEbSsqBAAEqxrDu1AJJVlWgHKhhGsbohpQGkKytS870heXp87tSoEMBQAQMQBL5r6b5rURkr6UHmgg5R5O0TATCNoHQHKdL5OqHG0KshG/J9fzbDrjKO7cbDFKWoFkrRsomCzsOWubklYIlg5aaqRz0B53R0M4rOxB2Dl5PT4SlXYgXCaqjkvmxh6QPAmLclixIKkg4TGF9lwZYgxW47FyIXlCR6BztLkGtpKSdZEWxELSng7CIWIovFSOwiypBlpZknYSRYiLp+Z2p0uDLESUtyVqxFFyRIV5b1t4F0JGKwsaQQY1mnqdAAkJV5K6zzPQNgocqytqAAc8lNxrWgIACVZeVXtGNysAhaVbACF5vp+bXpCcDErAEAABn5f6n5azJo1PowMaBic0rc9eg8i6EwheKU4e/zltRSO+NZG51yLzfW4rLvbl4O+EjvhSZZpxC8L0Y3EsIiV+e9AEABOmKUCcCaqNpVGCjD0ErRtQBABUqysE6QI0pQ5+nj0dRzdCNoXzcU0dzEMAhaVhNBw25uxN7ng6BEqlLFdwEE6RrlqZO0RDBBKUK9IjYAIUqysumpQA4a4rXQBAKQWjWmBBz9Hm2dlMVMrYsygc1CqSKhLN0c1HUkUZHzPZ8c7c9shOoRn1TEVCWbkvj9/N22IsyDsjk4vT809IqyJUOWroSj188Qh63k16msblAYmmCaAAPl/qPmLMCNT6RhjQ0EOLu5LOssEDoDnn2wFnpDyevrS4xWBZYydLiiymh656nL055D1Hy6KV4qnRAmdRJorct12ZYxBik9jAGhErRsAAAErRsgBKAqleNUfH18i9WkyNoWHz3ZjaZ5Xb5/qIp389fSU+KOu/PemgPN7/O9IMb4k7zy+iHhctvsuNRwvGJUjaywpLbnvGKZ3Ozn7+LtWdRQSrGywEpl8pm/FWu8CJ8J20rRsJoiXHh10dXlwT3TxqnqHBE9CvjdB368boX0SeUl1SsAKM+T38Ves0hnL0Rueo1TflegVAl8/p5uizpE5WjJyy5Pas2mpQAxudKJVIODv4zopC6ACjTEAAAfNfS/OWc4Gn0qZmgBLi7/PPTacg0KStCrtMFnUOdJ2axpLQENARvC4pWmcXfLnOmsrBjaI0nc5alSJYIlkc26bILoCBdnFXVjnLsgWE466qRLMgXDiu6kebv5VoWDktmyZYjRNL5XocHqJzZ6mZlVLS3FcsRDl6pRO3jqic+6Yc1uE9pwZXz+qCRsqL0cPVkrnLTEa4Xr3EN74rl4qSdikLVT503VSXsIhrm6civybOgkHM83OCXotInSyPL3o5KUqYzUWhjnSvT5/UWzJnmPPWvdmYnD1Q6C2c4J9SFqTE87u870iyGoAeR6/j+wDRDQ6jWdAYQcnVzGevi7aAIAAAAAPnvoPBs5ANPpAMUaDHn+j5teqZ0ACOFolxM8v0eHvXU6TTeNJZ8/oedp1FzLjsrnNHr4rPQjZy8HfwXOgA5+jnuTrGyDQoDJ0nsABpolWNkaBQAlWVRgAASrGyLnrlboZC0bgAAB5npTqAAAyFpWATDl6kTrKoGWOVZRQxo1ydQTzaVlTi0vWY3GZcjr0WuaL7870QjbybPWI2UJeeetGvEdj8j0iyaMMDYAAEqToBnzj0wEnWVVAIEwjWdaI280n6Meg005BNKp1nZQYueHu8svXoSYVxYlknkehoUVwiWDkpuiRLCx5+7mI93F3CBwhghoAYvC93xLOAZp9GJ4oMMeT6/l2d+qhJWCEe2IOqOTqMrXGcFSGjo4Ol068Mo6+jislfP7OW3vfOQ5KhSvmdxPo5qitzWTZlqzLM7xsAAeWSrGw0AAE6SqDQDQStKiQtz9SjQStCwwBNMjaVQAAAlaFiVPLSes/M71xfyekl1clzp820zqn2cR1683uikq855nTxevZPreI8+3H0W+iBHk+t5voVvyPW8o9YIxM4+mu2esJLRJe4ELl6+FOm3L1KAEqSqQ4e7jPTaCdZVACAETrKtEqkLO80ayxgCnWSVAlS0BOk7KAQALKk6U0wACdJ0gEwheFR7OTrGJwAgAAAPG9nyLPNA0+jB4qGVny/V8pPWBqCYpWiWAMTcTszvBnU6mlnjrvzojyfSxyJ3efeK+hvjmdN42SXP18C9aj0E6qqYNi4zUOfetpIqLIqHJdVSRUWRUOajoSLBEsHJYonH0Q7ViVZx0diRYJFGctlsQ0aMIVeWycPVQObdpnLmvSc3Zja8s+2R08PRlIehzVWvLSKeT7fBM9WnB1r53dxdaXyciz9DzfRQ8/0uQ6Ky0ef6XB2rTk6OJKnN3lSTKc1YFqzFoTEVuWpuW0UcgK81CpNFHIFbksVJC1WAKc9ChNJWRI6XIKkkWxjB0OQVIi61Bl3ELEgdOaiUc9Lrm6OMfZxdoAQAAgAGLyfX8qzyRmn0YPNABeV6vkp64mo0DjaBcTMRvynblNI2h0Keb6fkanrk3mz3HCQOvk09Se8Zvn+p5vpEOP0fJ1Om75c3srGwAAAY3jYAAATpGwAAATrKoACBkaTEx0xso0EbRsMAACdJVAABhGsqjTAAIW5qJUGpjSBrQZ14568uLqLscLl6vGr0t40blmZXp8r1YI28WvaOPsABCVZKYXnp7LQrjaCXBKwCe8URZx5B7oBOkqgAoASrKoAAASrKqACkqySqYAATpIqAoAZW5FQAAJUxRMrYT5eyKx7uDvACAAAATBeb6XnWeOM0+jTWaxMXkex5KdxfS87sznn185veAosIq4CLo4Okt5nZiup85Dniq087eLOnBeC3LUp4/redp37Ws3j9DhZ3GA2ZDNJbTRlqzLSVoWGIVgGNyqA0ACSlWB07AYCwvC4xAwCVZUGJgAkqxorPHoenz8PSVxw0T0YdEV3bzO4prGjfkep46eqqzWkb8xDl7GW1WZTOonnex5HrD8f2PEPXomY4e7zx9XD2J1eP7Hkr6rRDjWVjnoLgLOmGnDx2Z6rTiVJ7rQCiaJWjUYACZOk6ABBKs62DQAlJ0nZQCUBDjWdVAACJ0nQACO49FnB6HneiAEoAAAABwd/EeIBvP0QGdAAeT63lJ6rTUaAjaJTSYZfGdoBy9XL1AGTQtELRsDOE7kwjWVkExcho581qcPTJlHQObdNJJWCJYOSrqQLhJXF5KaokS4QVw459UyhcIq4vHTVkg7hCPaHHXVCJdLIqJzbKHmY9UXz9dmU5NWZPobXhvcMbnU5vO9sJy6oo1cPO6rshLsiueP02ef03CHnexJODtuLAuHNjs5kOffWYzdEZ9UwLBF1DndskJd4sionNy9k1uqpMG2c1ChkbMtpZ0xo0ZE3N4KuWiimFMKZ0qQWUhayJnUSCpJDry1KqcSl+fScfpeb6QNEoAAMQAcvVzHgGjc+gAxWIo8r1fJT1dJygFKN4pTSakqpMU57ry9fJ1oc3Tg5uzg76jaNpSVkef6Ph+3ZK0bSvm6Q8v0eCW56FuTryOLtzLzdfjerTpPcA0ABKs6DTBMCVZ0AAQ0ctufsGNABEqyrYMJQTqdJVBMAAlWNkaBWmRKkq2ACpoMUxsAAlaJUTAAJ0kVBgAEqySoAASmKTs0wVABK0kqwVDQ8bnFAKACVJ1EAAxJbxQGnKAE953QmBnSFrG4AKMbwbAAAJVklQFAIxvOqObp5zoAjzvR87sqxz3gDnOgnQAAheR86M3PoAMViKPI9jyTvKtJOmQlWC9DjopHaHqQS6+G6XJpVeTMW5OhK8VuSrbjat247ZXgyvOfaaS7eW+btZUefXm9PUzfzezNsIGIMUjVGJqxBikqoAlaeDj7uLuBpghkbRsgAoCMUlQYALzPQM2lUaCGgqNue6NNKDCVo1AAJ0klHnSg0E6TSjTUAHGsiyCACidJlAQnnaE6TKgAmKSpA6AAASe86AYqYEqzogAoMJ7xsAYlydZimNoAKs7yNgAEE6TSgCgFZaZlZqMCPOxudddfOsWlbEY74XAAMbR8yBqfQgZrTQeT63lWeppNQGKdJmt42LLgdCno5+rl6xY1x2dwOWFpWQDnroAlnvO0BoACVM7UWkcHXRWQ5+3UsacnYGapOfboTVRZlGc1N6JFRJQ7ORc9BVJFRZqyOW5RJlBZOgcltbSRUPE7OfrHYqsnQJlMnj9/F65LVQkqs5LPI1USc+nBLbosXUSOOmYjcCpQXEemaIsLF1CcunAs2zEtbdk5dUgVgkVDm4+jZYoE3RLzb3hNa01wbE5960YVUYVBeemtpMoLwdGoJur2TexZ4vhEbDBsWc+iSaNpUAIMItrnO0mLxT30pvVSVAzLGCAAZ8+dZXcBADF5Xq+TZ6us6UaYTpkzTGg5OxHHW4cnXydZjh9Dgr0GiJWlVFwej5enV0/PfQGdzpk+Xq82q9nLcNY3LrzPT8nU9DPB1V07zrBcXdknTz6V1UxuUAGAY3nYgA4+mRSmNgNDAJ0lUGmIAzrGwnTiIdHJY67cGTtpC48bmeb6vleqgmCccL0ctWY6fP7xwv5B6dPO9EA4zsxyXE4dRz9fH3QsUlVUyAAM54a9DPPI73nUOVeSzrE1A4iXd51T0Dn6UBNeaLwnoAKDgk98/UtkBOvmdZbJzJ008/qN8nXxr10xsAJDOs2tpgAE6YNpoGnBnWKctkbAPO7+G9mujg7pc74O4YmAgBoydAcbQMAXk+t5dnfoYamiqnla75tJVT5F9I5LEevz+kuSCpETVOPpKE0sN7LNU5axXxvShoHN3VXfNvFvjDM8/XmzeobipJkuD0oVXo87qluINGWLWNDAOa3N1md40jAUAJWlRGAomjO8bI+d6fCX5/RknJz+kLdpjxoPK9XyPVTXleryleH0JnH0c3onketx+gpw9rPO7ZdCanQXkvTCcme9rOgSE6Tto0wBHNLu5UvxPJ3blWVeV63HZ2nB3K+bp82K9LK2AAB5PqeX6iaAU5+gOa/GHTUZw16QwtNOXrhdYxLGqY2AEGdZpgwEwxuZQATQPOsGKytCAPPDNluvy+1c9HG47cqZTfFo6xMoYCKCgAPL9Xyz0tY2AALSJ0nUXF28xPu5Os59bidJnQAE6ToAMQBOmNgDEAY1nYAzIxJbNGRswbCEOxnPWGlq9sg6aJK0zj6s3Oau9JF2FiVZx21QjqgTVUc9HQirhAsJyU3Qi7CyVg4Ds2kDoREsLwXpRIuoRdReSrqkdQ6ycurBg1zF1w5XuRZEzlXqzZkZ9WEi97JlRYz6ZoyrIcHqYMz6prlXCRZJ5XZjqXBXnKGbEKLZlUaTVAhRgiiPP7OXtOelGT1sWebIlpTKFQljoymSgsygTxeZGxRJqgvl7j6h5faMJ0pHFvosc/P6PnnoADEEQYAC8z0/Nr0NzoNAA0StGiZXJdb6zpJ7xtYarlNExSvLUqSCpMHvn2Vcg2YY9SoaMsaWUbiyriLZTYC2T5+5HJ2yqJ50Pl6uI6tAZ1nQxMEwxudAaBpqMbxugAE1GKSrYDFDkydO/N9IDzqnRjXCehrz+xKLkqvQ+Xoido2s8Xu5PWV8Pd5xqteZN8/ZxL6mIbL+T63Aegp1hJ8ddb5bGxiE68x0kCW65InpeZ0Yrs1w1Ok4OqKZ1mzfnejxK+mXRHl9EeiuoMmiGErw+jwnoGdy+Z183oVN8XWlhTWifnndw98DofP0Eob409UxtQCCF4VZhAAef28nVZRMlTzoTAWdghoQBIAYmHm+j51ddoUNmEVJMUmh9Pk9Cde/K9IVOaq0MCbcgVuS5Qlo2TApzUKrAaE1xqVQGkG8rmkaJoyGnlKbjQ0ZYwBaxpDkvJeoQi1jYNNQAlSVgAAAzrGwABNE6Tqg0L49L7IWrNIc3VI9Dz/S5F4/Y8z0U4vR4e5eO/nWOveWnn+n4/rmfP9HkOnk7fPX0fH9byz1owDv5ujmF2cHcODZz1sIwB8fZxHPLtZifo8BHr5e88+1KEu3nqcrrA7uDq516LcPcnCrpeiVgny98zXJ1QSloXl8/uhOxXpNa51oUOhGNCOL0PM9JF53p8Z1uVVAIIXhVwABRyXjSy4iXk6+O5ZGChLRoTAQTQDE6PP9DzzqtC4AAASrKpKPWEbATpnQDAAJ7nRGAoAY3jaACsTMbzoE8pxLkoelTG1TGJaCWjQmwyaCb0Jz0l1Lh6EhR6XD2JMojnprZhUFyaZChoxmwSKBy1dCZUJ5sjls6EioTzZHJfW0mUF4ddgclyiSdA5n0i8HL63Kb4vWgJdODPN3Mhuijil6Srz16TSetBmHVgy9hg1onPowY3sXBsTEujJjWxZ60EFeRQNGHrkSvJ11I02S4W2QpzUsqbwocnaS3pnH075i0+btRPYYehc8vXIoaIxO+TzaS6rJ7Qq05RbDoR6oVFaHQZGEkwTTpcPdwl+jm6BiYAEqyqNAABjc6DQDAI1nRGmKAjFM6AAABaxofLbzEgt6X0L8faMGCYZaYwAAECObr5uoBMxrOhgAAY1iiAyVA6xrGxgQAEqyoMAADG57oYQAVjWdgAABOsqAMgArOsbAEPG5m2nAAGdYrYEAMJ7mlGFqcOc784Cpy3hSv5x6eITq7VDT4u0z5Hr+OenVsODv4zPdx9YzEjj9Lzu01x9vInchy+b6Pm+lSa8xPUfP0LwdEmdYAARMWjYAAHIr89dgOFG4ZNBhbBaQABEAYnRxdnGb6OPrRmUtCbFTmumybXZPRikNlBI2ZRmnNZKGGuzCHrnolTDXRgHrnqmzDWTzg6NyCpNlDANy0UMhoyxTpzJS+NqNAnnSMBQTJ7nRBoVgGN40jAUAklWdLQAAIxvG6AIaHU950MQMAnSdBiAAFqexiBz3g28sYgc95TYhW8sMuaVE182k+k8+mdpq0cr1SfUS5u7mH1z0cHoef2lPF9jyU9lz1Lrj68VwdvP2C0BDN+U6+W/Kdm8aPN9LjR1nP1ErIOG0eksZyQ68uJ7nooIpiIxy9XLXaDgAAAEwQAAEWAAg5Ovlo6eXrGAABKsqgAABjeNgAMTJUnQABgE950MAADOs6GJmOfq406tIGMVDEw2KLQZegnx9/GdSoGDYR1sMPYYNhDZsWaBhUDnprRN7aTNi81NbJ62EzbOehsyqBPWgjRaMvQYKBz1VEyti4VA56mhGgxO+Uya0s3sMS6MInsMmxcx6JJo0Lh7CXJ6GEnvbXJoM4rgbYZNMniyTl6mKhhPRoQwS0EqLQhgs7Ce1oQwWKIytuOPqzQjvOxrQZNBPk7/Ps72EoAAAACGAAQYAAHJ1ctZ7OPsGAABG0qgNAAkqYoJgoIMbnQYAAGN42DTAAxvOhoYuPt4jrANAAAhl5XYAMCctaKicJgJNGgAAJ7y60BAAY3nVDAEwnudBgQAE943TAgAMvGq0JwNBOmN2MTlARnWdDADOlWd40MAM6yPSBiIcqYs2DUEDxuZQAAAxvCbAlAKSeU00KxMzrLGAABnWdAAABnWdABAmqHnUABLc6VoCAAPP8AQ8+vQAgAAAAAAEASAEwDk6+WsdnndiVJpbLCFXluUWA2YA3zVKEwoTZmvNUo5s2YA3CibcxdvOU05MqYa64urjO/KwWeA2YE0s4LmRdrLObo5ekoZY0AZ1MqIGIjGkWbE1BCZ3jStoHzdCPJ9fyfVG0DQRjeN0xEABOk6WMRKxFYpKiMQrEhbltNGBdmRM056lDKXeDBYlpNmA3NxOkyjbmLvKmlyYUc9GsqZZzZsyl1lTToMC7MA3LRQw00YRrUKGzLVmQNRoaMo2kkNwobMC4pChR4DZnJTz+3iPQAgAAAAAAAQRBiaB83Rz1Hu4e4AAaZKk6DEwAJ0nsaAYgnSdBtMTTMaTGAABlgjYKcPdwnbnSTQAAKTpkYwyayc18WBaZMojGLIT0GDYQV8oGxcmglrQZNtMc/XwEu/wA71TJprhUDn29pk2S5zQrnqaMa0SYeiuayoZWyMtqp0zsQNUwSVcbGIleNZrTBAaUxvBsAGmGN4NAhsAnTKNoViAzrJoAGBjSYwAAM6zoAYgDOs6AAAZPeKCAI0nUYAABwd/AdzCAAAAAAAACAOkDhQvCufv4e4BkAFRrGwNMBBOk6DEwTROs9jaYAGXnQwAGCTSaAU4e7iOxPJsBAHKsbzWgYk1GWytCAacLOlWgAAFnc0oBKACBVtMg4+wPn/f8AL9KzQErE6nvGxgQAGNJ2MCVDCdJ0BNAwSe87pNOVMKxudEGnKs7yNp0A4JUnVAQ2nBjWa0mobTDG8VoEMAMbwbGAIAQaAgArG8bAAADOs6GhwgKxvG4aaJUlWmJwAB5/oefXe04AAAAAABDCKAGAQtGuXv8AL70sTF2S0YtzWKE2bMYNb5qJYkLVx2Zpz1NvCKk0mnHRYmLQyjecYOkmG+Lp4z0M4wnSTa7MBpLBV4ZpCGjJsSNmSNY1OqvJGhA5UnZRohiFQKtgQAq830PL9VG0QxFudyoaMkaMKnuFE2Ta7MAqctUspOKGUacN1RzS1J6jFeW9bJkUwp2XcdFHIWsiadBMXbk0phzLGRdmEUwppd4F2ss1gmlzAujLBzCrmGzAPUKJtza7WQW40NGQ2sga56mzKjNIUrbwzRgN8HbwJ6DTlAAAAAAAAIAAAEbSOP0PP9GhgJiJ0nQBgmIxvFAAAAlSdQaYJhkGDAaAWd5NDDPF3cB6E9oYwAAxTIxhhAanVAtAhszOqQNEuFQJT6J1o05MGypY6Esywc3J6iPO6t7TBRkyhLzWW6RojJoJbWrAZKAWSrOisRA00nTGqYEACzpKtAODGkLWdUwIJVlVGmACGdZXQANEGd4rTAQwWKYNoIGmZGq0JwJqsaWgYQJlY1nYAQIdTpjYmKJUnShpgBBwd/BZ3NOUAAAAAAAA53jQwKJVwcHpeb6JpBACJ1jStCY0BjeNjAAGT1iiNMUAEnk2AAAZ3g2CDi7OQ7c6yaAAGJayaAibzo0hVoCAYJNGgAACVZlAYhoMmSoAAEt43WgUMAnvG6bRDEGXnQwBoCdZ0AAADG86AAACVZ0AaBMMbxsAAnSZR8fSmxCvG8VsTGggxvFbEwaAxrKbE1ABJo2gBoM6zoGiGmqzrOgGQAE953YZ1GXWmUmmAEHB38Ndmk4EwAAAAAACAAAh51ivO9Lyu8s4Bckgry1LEmUJBqvHQ6CaKkGa3y7TofO1sSRbMsHWpBVxaWzjB0E8rTjvynoKeToJBVzRTOcJ0ExTUxKrAtDDjTmVTCwlnMWhMKTJp0OTloTDfPWVm6RxL1EXWifmnsnPuKkQ1vn3ZYi1tPPIa7OO6dBFy1Jo3rn3ZYkRUkLrfPqyxIWpFo6ctVqSEsRY6clVsSCs84TNuexXUNLXOJnSSZRTRXPPQuSZQxkpnOEuYChNLTOclibKEtBuG0ocdluSY9SZVTEpPXKvTvkulIrSoOY7dS0bMIpw9fEd2s6gGAmgAAAQwgAAALWTzPT8z06YEA1U9zqDAEwnTGwGoBonpOtNAABimU0AoMDOkMAXF28Md+dZNAUwwayxGMlQylnaAcjbGZnbAzQZNOJy6J1p6IyaDGLZpPRES2ReP6nl16XRNxt83ST3nVjaJTzvR847tZaaMUUzpnneh53o2AOVTrymevj7EYCgBKkyypy3l2ATpOgABnWDKpz11oIM65a6gYgZydHN0mjOwEwxvBppgLEby1WgAM6M6TOLs4+5AJrrUKmhMJ0UcvVxXp2TicOjnrp1lwwBcfZx107xuGmgYCGgGCAIAAACaPK9byvVpoIYmSrKtAEAFZ3OghqBoMgq2DAAM6yaaBgQ8tUwA4u3ijtzrNaaYZ0oQKtgQAAmqcq5G04M6yNgDAWN4s2wlAAxvBsAACXkel59Wz28iT9Dh9BYa4PYNAQeb6XGdOcdBzX47l9efQl0cXomtphx9fIVtw9JYJm3zXMoVij0c0va0GKTRVoCeoG50nXUDiUs9NaAGJxxWj01z6hoqtUMPUhUmy0NMzWVSgmYYA1g5+3i6jfH0wKWlQhfk6CuViOP0eD0KAInCuSu86AAOTr5KrWVoAQMAAAEMQQAAAAR5fq+R6NWJBUjozbkuUcWVJodObZYmFDADxg6HFlSejWSZZ4DYsmsrJdY0Ph7OI785yljIujCKLOC5PRomzeVlKrLl0YDeVOyzwpaEgrNxs6TAtCbjeM4roIuKkmPx/W8ez2o6Dg9Tm2FoaLObl2sCcHp8W7TpmzXP0Bx9/LYoTcb8/u466qc9CkxJjoloHz1IOwVcg1vl0vQTcayZrGuXqLEwU6zS7wLsw4hVxspSLLEUt8YwdDlkuTYBkoJkL89gjSJS8aBGyHqeyF0x8nUkj0SorTI4+jn66xvO4QwzzdfPWrwsAyEwAAEwQw5xMAAAPK9Ty/UpgQAVOkajAhiKxTDNCYtJmc7mUYDQwxvJoAGgFrBoYcnK+Y6o6sdlAGAGdZNAQABnSpgxDIU6Ys2AAmpKs0o05QAWKZNAUAQQvGqgQToEqT0UAGJk2vNr1XKsAIzuVQaB45uges6BoGASpjaMTVMVTxTYwIM6ynP1SqoAGczquZXEqkTVM0wQxuJz6cVHHWjnfN3SYW3bPdAxvOCuZbKDxGzOjOsboaIB5panQyPljo0wzrGwADn6IVno5+gYEAAAAmgAIIBiBoDy/U8r1aYEABC0bUwIBFY1nY9IgaYp0nVWiGIHjWKoAAA8awUFmJeX6Ejm9HzPUq5zdMMToxuZTGyMDRTGsG2gZGZ1SpMomjn6J0HKsirTAaCdJFRMAAjaJUABaMyshudAGEuXq4zrrx1Og4+snvl6jQM4O3i7jBjmOhvRipzlKyqgPKhORasbAAIQmKyRrOqLlb5SlIWNGgJ05qu+XpjQTKYyFI25iPd5/ohKqoZkbWjMrZI56eA6qyCizkXTydcHN08pWnN00+Pr5I7EwxvGhgBC8an1cnWAOEAAAACGHOIAaAYeR63kd9dBBR0EFWrcVTofOyxAN05Np1EBbkGXliZ2EGWcEXxjB1EWVIhaeZF4c3UVyI578tEO7zqr2Pyus65YidOJ7Lz5OgvySym+vz9q940j1zpeznyztpES88TOwgy5Fy1xiVdZFFyDktEjXWRCri1rnEzoMTjqiSrFJVSkrRjclVZd3n9VXIuOfr5GX5aVs3iOJemWbJO3OrepQxHdGRVL8tUsSCpKBdSZ1kQ35/ZzL015tlyOhcvVA6dc2i6aJK8inP0QI9nL2RnFsUs1gUKMgr4FHpR59l0kqlTmpUMYsHD0uhHm7OcsVI5t73UXUiUuqdQ6uTrhtAAAAA0Aw5RMYmCA8r1PL9SmNQ0yoWjcHlwIKywTbTUQxTrEqwGALFJlE5m3nQTpM3zdPLEuznxWMq4mqlYS6DpxSZz0pqODHqo4o9caXc3EzWDmteda4fQzDfHSuiVZSVaagATaNsAACVZVUCBaQTpOq50oaWjz++dDQAAEqToMAXL1hC2KIsUktGmRtKtGdETo0TpKowA5umZme91sjaMz0zCsyF2xY3OqA4TEOe+SurlQb6OYjqwitxvmNABOkrNokq1O4942MFADJ7nQxmoABnWNgAGN4Obr4+wYAAA0AAABzAAAAB5XqeX6lMag1lkbRtQMjK0UkIo04TTCVY1YCBgE6Sqk6YNtOCdJVSVg5uhkKVZWVAV5A3KmTYEAmR5PRnYzZLjFsklXNN7ImUCcumCbexZuiIZvgHRkXUJS6o03QiZQJy6ZDe2SdAiUDL2yaozmoqpg2Lk0Et4oimYXoeQxWNDZgNmAzSNK2ZcAMhXFani6gWFVXPcNphOkzbCgZC5+iBDm6XXVoIc9TqxNRUkqrDWUzjp0uKhGNLVAyENE6TpQBDTRjeNDJ7HjeTj7eDupuVIDl6TQAAAIOZoBiGCPL9Pyu+uggFyAO/Dcu+cLuAVnnB1kGWJBWRI6nELEWVkpnVnAVcWViSOpxRcgy0VhOlxa0JZS2VJeokFXELZnNOo5w6FBLVQSdj5xeghlOmOZHac7LqDKZlhe18zOg5xOiOYna+cOg5xeiWJp2HOHSc+loTydBIiykBXm3ZYkRYgrab46pZQydb5mbpxWOg53Fzm3RTnDoMpdA059amU1iyzl0REt3OZ9JJzrpnalUJG9xCfXOpZ6w5TqDlz2RM6SNmuUtzrCdVOepQe5efet2TxecocvWRo6VIo4mqquHonc5ulViebI83qjujpzuJq3GdmssAAAOUGAAAHk+r5fq0AQNMheNqAYJgSpNKjFQwUrRLAQDQ5VnWxgmEEbSqqYgBKSrOygOUACVZVRpgCCNopUWgTyOFplWgYgcLRLAxDQRtEsAMAIXgXTQBg1KmCzTGDlMbwUQAjFZ3DaVEwMizvGyLk6uZep50kLRsGdYNayybzQUHtab5+glimB25+iDFAzrGSrzkplwOhNEb8tgMqrvDhgDnudcndydkSzWBldPMnRz35l7XxM6dyqMTOSmolnmNa6OLpirQTpOgAAmHn9/D3UwIOXqgapz9IAAAcw0AAAHlep5fqWNolYFQtKowcAFEqxLNOAEONo1YCGgHKk6oBANBK0aqNQwAnSSVAUaBypMo8ugQhOsCryGjIOVIl3kXRkTULQOgyxghxtAs0GhARvAumAICVplWEo0BLc7LCBoDk3Rm4Y0rpppzdPLcU6YXFpdKQBrPWbRi8apNxrRm/OuKS7EluViPTzdUoAYlWSZ1Wa6i0X3AFpUFi0KuqQNb5+mHjeCHTz2rfB3c0OHdyHXxdPGW6cVOOke2s0Sh8G8p00xS3g7pWhgE943TAgBHn+hwd9MCCVYEuzj6xgAAc6AABpo8r1PK7a6HzOOggVqnJU6CAXfOHRAkdhBliBF4kbO0gFyAt5KadSiLciF4qJ2HPpLnPpbSUk6yKluQZeOZ11HMJ1HMy88TOp84XOcOiOZnaudl3zheOZnaczLvmDoliZ2EEdKgF5ZlXaQIu4svJTOkgi5AOiWcHUc7OggG8zZTU2S1tnPp0JWGc92yc6ZE7s5qU0cdnUjDtDjtYOOrrXJarib2yCtskrOObHXmou7WDuEY9kzGegTm3YlnLqnWFcIz6lHNPfPVImy2q6iBHspFXHE+xHNvW6hujiRV1y0dCRZRNVDzvQ4O+mBBx9nmHX0Y2AAAHMADAMgeX6gUwIaAlsK1oIAAiFWAgAQiFXAUAgkFWAgACQVUCBgEgSqBQAJBZtgDAIgUYCYCkFVYQIBwAsAAAQAuwAAIAX0AwFIglABgBICoA0BhgbAAAlQBgAAQmB1gDAI1AAAAI2AYAICdgGBBkLXoJABSYGwBgBgDYAACkFkdgLQS8/YFm2EogJ7AYAMCewoAgAODuCmBHPEDtYAAAB//EAAL/2gAMAwEAAgADAAAAIYjEms6CM08zrmiLOIKGPuFWIBOIPJBjplsrrgrgumm5GGJS8XYvnlyqvp5qBOcFKBEDTAATDPdXdbdfDUPP16WLq9xScsiojhvAFmwto+2PUfLmJPHKEPLLlIICLHNqJjNPAOFG0kouIaIbHMEFIKMCDONhhlJGmKghPlsvrm3pvtvgomqqG6Z3vonjPnsIlugrp9lvAIitgvrmCHNrkiCsttjGFqmNPkumoggCJXQNOpPPPPOvCBDILHPAAENkMFFNCPuuBjNNrjWNOGNFjVx+rCrqpsplpkkhMtjuusqosHs8XJhhv7AADNvuGJEkqKohMwEMA0hNNLEcstKEPrLPHEAMALpMnsnjKHjProrLDN1SzflsgmkgAm80NlxiguvnYighvsskghhpsuOJIkr/APK5pi4o4ZqJIIiRC0ABCjhTybY6A7SJ4YMZoIGM4mGigjyDzb6skfzK6DbJzpL9NYcNikF18UDgmBhL6K5IDOK64J46KL5KDaiwtAKY7Joqo8b4RZybDIYR4oMb7rYI5/JIZZwQDhbA4YwASPG7oCb5z6q0soETsJ4pSCBC7Q3Nf+JJssOpqLNEHnsGmh+JiBi5m8aMuWtXGEx6b2Yoa+OHM56f+/68scYpP67D74whSM2YYuChyhTmTiVxTZpbu1rqV3OSpKDLJD7ow4Cw65u5CxgCSwASSUxRTy28ASIBQXDSASFWlWl0WuvsGFcl8Z2q4rTwoMEyjulzOgx6mevmj1Rp6RC4ExRTywVDYk5TBLgTTZjaAoby575K7D55ZL70YIz754abrbph50OsVzvFLJuZvlBVcIDrREAAwoigwSYAzP8ANK9AQUcMMIQ4Qc8AQE2AJdx524eWAAd8p88EYAM4wt18bpqmU/ZgwUaMw/pNP4Y/13/t+CtDFfkA8YXzWz7kYRE8YsNi0MiiAOE26wKU02OA20QQkMNkwkUwoV9C828Q2iMcqtWOcKKE2FdY4V9VRNplhxpSl5BXJtVTx24oQwDBmqrd1ndY2+CSSAIIAVO4o0wU488JSkhQgIIM98SMcoRbIMW/4yNIGdOGgCQQiUd1NlINNvlpzJJ+VqeNW6UueL4q88TwRd2rmigWRckcigAYEwqss+QICYNtJRHIQpBcv9sAQIc080da89M0MZUhW0cMwI35xLY1FFaRRZwNzYY8uY0iKMq+UINMSv8AmNWScOXEMIp2DCJC7OLPNHVPPEPNZEOAAMHKMCNLFAnnueIpDkvXLGPFMACNDJYCkuFOIxvSGGUBZGMGZFOOstuEcjkgxff8ZCLugp5IjrLI7PIMKOgNHLLJaJLAKIMICKZODPAAguQxJsLEnKTAHYIPALOMliEpJAMQogcwtEDOiiNChvtIQEtA0CJFMNIgBv5gJ4iMxHHznp+GLkEh2CHoutkADwfScFuVFdzB+FYSWkUXX/Fa5bRRZbRBINXYTaYTGJPISJBBonutfGFP3PFuEDeJTDzZGEXsNPFHKGuPIGPLXAPANGPMFGANcCMECMjDALvBPaDYJRAOZ0QaBCAFJXPUQXQLJAJAVWBGghkPfFDMyKpupiw/w3q1z+YEoMJ6Cb/AGNOd8UKjEJPMVGJDbDPHeNLPKLFEHGSOqURIbazQFKIGEMqOYgQhuEAilkTfvnvBjwPG1LNoEIEMCEpEESqunjNyyT74n8eV5VH48f0CX6vRcGoANQaVLEK8KMZTfTbTbHbHaceZMHQXXY2WMEBKMEfbvuqigNzB8tIYIbAf8Vor9ArdeqBtPJEIPmIJlPrfiFPKGXAvSLFPJNPLPPLTfgYJGaNGoCOKMXagsEEHiPIAFfPoIHtBvtuuDnyMvc9iAEF5im2dTzfaOmfsMC+BCZIOKGARBBPEKHkPdJLPBVNPfPHFuJPEaTePPDVZLCfMNCHNbAIBj0tECOgPBtvFg6lp5CGIKLPr2P8AU78e/wCCh4YFX8IU9Mfc0D0gxJ5gAAeQY0NlAhvRMNwoI6BrdtL9EPgBfVcx0NBgF109AM9RIjC64cIw+6rogQk0oe6EDhV3D/WFxhVtc8Uw8IQ0EUooc4UE8Q5pwIEUAAcYi0S2w0+h8Qo5I10x4ckZtcgLAoIQEKE2+5uqIMwyOC/FP+Lowu6XTGJD5V+6T3N7CQIEgEl88h0cwYh0AYBxtZQsFABQbwgAZx29c20AsT0oEwQVIQgCQwMEAsEy67AamSoM88isc0wsY2IAi4M0YiaY3jJhN0IoK8ZgI0osIoVtEsj18dJs7hxd4lQAlNQ9Jdo8VwEYo5JNBdlAAIcpUYkBckIauusA7CoAc0F0R0dQG8wUk8cINts4IUQcQc0IQIsWQ8W5wIQYo9cmpsQRcgIC8MxRWyIcmtMWU0BJy0pM8ccZQuQWC9Sogg08+eOuMM4prSxpLJFnNoMlsr1sM80t8NRoA6Q0Qw81ostFYFo4h9lkMAgEYdNdNtFxVZ8xQ8kxi18YwcFF4CgwGFOmWM0MeIAAAo8IYUwQTUwPcIAVbKoA8M8PMdmFFxwYEQccQkIQEpcYt5wkkWIWQJNhtZhAlJQkAE5Zey900kgpVcQCm78m6+w9ao8kYA4c84UAdQEg88EZ2MwQwU4QwI8so5y4QCCuCCMiAQ08syAIEAiCE26PgoIyaU8448ks4cNSUhYwU++GCcqSh8M9uIMz06/AMw8g10AbY8zwe2wE0Ic5wgZwIx8gpw/o86U6YwMQQM0IMYEMZIotw0FQgckM5+w4Q0IgQYE8E6OACs6CjQ8MiGo0EwU84IkIC8A4UsIIFHwRA8gUQEgk8IQ8ypM0A4UQgMMQDQQUQBU8Z1QhMwV4UEgYBk4ok8gUYY84q2WSyRmWwAwAjDcwQgswJxk8cU8I44gYU4QpU8gsKii2OkW2wgQUCC0SicSuVKGWSQk04kOJ4MUAQRCw9sYMw0AQ4g2geyYS2wQUggA8DyQz8caY0ew4q8kLilf4kSsFp0QooUUMKlItkgUsgeEO65O8ZwU14hNUgR1ttg5lFJhM9AE8xtNIIcMx9Ao8EQC4EQAMaiIiwowIc4cMcoo0c81gEdBcI8osIk4AQNUIkpdLoQ9yQcvp1bt5I11OM10ooAEMgRsMs0g488I48c8o4cAAgIi88YAAo68EiAcosIIUEAcIUQFAQoJ6Y468MqoUAhS+USCN+IcKSlW+6KjJO8Vi286IECI+qAkYwwMEe8k8s8a8+WIOqUyscYIweic/A4yAATYsI0V7cgcEonAEkoIU8GEGCRr28y0Rj8ACAh8wdbzdkSo61VoZgpx8ULkYBo4Es0NoQs8Yc2okEPy88IFA2Ce4gkUwkQIMYoQ4kcgw0Y0ckA0YsYZ2akPtQggdZC0Ka9iBoOrlnec6eUmE49AcuggwweqgKU4CQQCYAucs+t2+8wAMvsQAS2k8c0c4ZQkEwwAEIEk4gCeM+y6W2e62iCisGC0iGW+ei++C+OmGaGe+Leg4S0cgZ4w4csUuU8yCxG0UaS2+o0INP2MioA8I8O0Ybs0aGpHAo4wg1MlgSgB8MBKiF6MY2+d4UtKeV3q18541JIAJlMIQoQQExRE44ctYMwV0V40ksOWgUtow6y28KUMgUk2S0o8BMwY8S2cEpyogUgw064SCgiyUiiFO6zSqJ6iLCG1KGq2OkS4YoUYIUoG404gxIooGYK0Gus2Uh0xBmO+geKAKcI2uMAQss+I8KQoSsWeIQ+K+itmqaOuI1cky66WKiKKWCuNmmKmukSIUKIs0UUIwc84AAAcKoCCiKA6EhBFNGWuOoA6gEw0Assw0kEwQoF48MEURCChiml8GcOKHJ91yj0IoA6ww1dJFhIS4E8NY+ltQwwkQ0U+goQc9gSgiKIkwgAR9Pe6S+UM+MMAoskcQMsgwUc0AIWq4Yy9BI5CGqE+8qWuyK0q2CGCauCjCgs6jOyY8ag0iwg7Aw0s+6sm0ImSKqU0Y8AVNef7IeS4aMkuq8OOcQ8cOKE2IU2iGuOaOyu+W+a+2uaaeymSuSqC+22vy+2u3LSGSycmW+eC4UYEIE4KyYaSOSUo48wR9HXjmmkGoo9YwMIE4Ik48U5EQE8Y5sd4Yd59qMEPF5Qk2MFn60CeBqTYCk9ZpxFIsM4kUwUK484sY0o8cK4eYqges99lAqLS82UoKoVoY00AgQo4mEAIAgaywam0ikHO6m2+sGSAmWSCEWAuDmus+meCWcieOSISmc0KQW6FsAgG6SC+C6ieQ8gxwCCyk2qgy8Ii6AWiEgakkC9UYYSMtGeoC+H+iSq+0mG+6GCK4TeSLWC2OOUCqUK0S6i02akeIGEpIuUy2gCWGuawgxVgMumGQ88Qsg+IwkoQYwgQwMZgt0wwpL4ts1P8AdXKCR4VO7SJOkpcwE+afW7cZLZVHEPzGOsNPJNDNZfiRhqEiMNjrJDIXTex6uDqqOEHcNNMtlMJgMbmcglNMN21e5TSWda9Zb1dTyUlmtFeeIUMfeXbfMNNlsuvpviCpjMgs0rrinnNrqmupDKGQfRjyw4lEOhDKhgFnmPtqNpt3rngDY/deZBXXdYYRZ0TcRimVTfTMXaHcIm+SLeUlh0jrjmMMqmAgvhlPk8FktMltHbbQPWjwnrsGJJNAOtbTA1NCOSMdumrQ4632257z75/35Z5Sf+w21w0U1/28dSS1y1b71ezfEOJbhLLmFEnEtuDuCJjuMNqDMPonovnnPovAg/XPvAnnAon3vvYYf44/P/w3/wAOEF+HwF118EF131910NwGP2MMF/0MAOIJ6DwIKEH72J576KD74AB4DwD/xAAC/9oADAMBAAIAAwAAABBft3KDvJweIyQXdcX+vsGd5uoL8Js/Uwyya5I7ZqOzM42KU+Vm4VjvA1qdYgDOCY75ofDx/wCKpt1lTHO/qqlkr6STDkxOEQaXNjn1oR7lRmWSzcnarfL2X79izGabj5rUaWfDjro7nI5OLqh7WXTCmWCTzt5FvLhTMU6sKEkUVWFuyOhCppaJrhAMTs+4gWtNil+5k0TDpIEZIlTX7UVR6A9dNDv0s2bpck4kNDfGeB3p2uPXPlXDLfWsWyn6SMuuiqanIljkHe1FmrAUolYAGAdOJ1J7krGiSRaNI2eQwkYuFw+XMY4kPj3O4xTO2NYyTdq4HSTURP23r6xZm6KMSaXOu2iesr0MQsO+Mm8sSuqOEmKPDgxKfvECjHRqOQ0yi2F2SOiDupR9oe+tPOGosUGACJaskdVVVJx7yavPOv2H6CdRIuIeIcw/qMQHtk3zamSui+sNIeDCgqAcYOkoJHo39WiDzJfSON84i6y+SIruooBTWGvgSwK8UHPL9CwRGkZcEasQDyaGFsMpicuu++bAiSoi66CsyB5yCzD8HK8qyAGXxHyjQLWeekWcK62Tn5VQoF/xs4glH3/dXneRA4Q8C9bOnnJbB0F8CSTkzO3CknSWPbd6bLPMID6nSWN/CiGBvv1eims83sAvhaMGK3Vy2hdDuX+U7+gvCgT0ieMvGIUoWMpG4YfyCSWzZ2CQEKX+SGKbvz2KpG1NoKuCj9UrqGNHjwy/5o1j6tQy8HbQbSDSgkAIC/8ABFuWgyCt3+GhxPubuGAS4sLt5yBbKmkkgjVokMnpohq1PpKmb1dcC2aqL9qSTKx0AyanMmDJGDPsftONbmTpZjMNoNEkKdqXijijMrd61iP/ACRxaVg8Ry7CgJBgVVbVEpSzNMDRgZiwPVWfCyN0utXwT3/IuasOZ705dUgjc6RoUsR5moW1ohqbAt1YtrFoBbwjREhmAzVTckrTJQ57sLTqtLaScpTL2dSDtN2VFuHUcE7PG4Hl0F5N7qoa4INMYGdeE+aQCSiDLIp6exBR5E/7CyuJwfigLxltQJxzYVfaQYXAoHCYnK6Lcmy5oc2tP4mgOf2fn36+5K0a5Dn5dbD4Lz5BDxU6RDYVTgyzo55QrTL4x5KiLv59827pt8oHvI7Zprgarei584hwxiURvqa5sVPqEYcNkSX10i2GSASgjLvNSegroMKNZQgnPmRc6RbSWloC40QKaVVNCT4QCfxjjyzqBzDz3O2PZpXRZ7Yq+TxpBxjxA7Bkja7iTotKcTxcw2BTDdGQhqhQOvDuLdMdx/QYCgzV5jzL73Kzqa4x8BKCBeQgrjjpjC5eANEaT5IdN54gCr7VQQfgRyyyk4bRryRQXIy1sJCTAIORhK8kcMJvGEiwYwgBS7BGirmZTV7ZWSCVZaj+AFjrDRzThDmsE/qzcAHWjXBs8mC9mM0SNV+ePGsurK42vX0OcRbwg2QThgt3jELmBnCQR+DnYaLTlSYNS4zh7L6hTQqDBvwwawC5zD8BBvDjJTyoDiSJTBWYXwuRRu2WuRjqhhuBHX2NRCbwiCnDKClm+3LTi/qxzhRUm2U52f8AFqsWmpSzJc+OwRf9GcEQesBeyYXQaq/q4+yc+yEgHKufF47vj/40mIAOOEReleeWsuCCVTxDlbq/cE5Mog0YMHM6kGSXcecojjFDR5EfCX33ORN7l6DF4L3CkS2Lz7aiahuavbNS7rzq7G3eSJw+jfR/AfeukgoSFLt/Jxl+SMpygnsBADFj+s7eS0hcesCsWQgwkkkgCRqI4wUjcSVMs2omc86QEb9KDIIVg8KckqERdOW4QM68Sc8v0L08eIK3kNDBOFUfJQW2aFkQ63JzR4SOJgKeZkAzAcqAILwAcIYmeM/UIu8ryErIcceseAJNxQAM1T8o9Mgk4mvs88+nWpIwe6w7E/tBXHVxNusbUYlwJF8pRpkAF+2H5W+2/al+WJY8T5peumQ22WXHqvlF8v0Ga2x1XrxHGJShlvePSvzcnN8nQ4zlgpjIbfryv/8AcCErll9XjMdSkcY3MXE6V1KKQtAJNMIsUBrNNtBP6dDCIEOBCEsmiiOHlYKPmaL+NYuDsadEo0LFKOOgLujxjSy5/wD6ZlNVBdaZRzknDMwknZbfF/JzZ4o6idTQdDCrKePBAc2scjjdCc4OaiQeHrWRaTxDUiDpBDVy46oRjj4zyAJ50grJp8NDUByRKrQiDA7zmwqKigolvPc8YbIT7d5rqaqpL9cw7HWruXQ3vNf5cbLv/wAlJtuw9aayGLP3Pv8A9opok2hiEeOtEXNGQMp4mAMKVA1vWIGPQJLAqGXsADrAKlALiEMpTxGAr8MPAIGTBseMPeNqkpIDU/kpoOsUKviJR3sEaHDKBtErKjl0B456zHyyAMmuibWh4zT1lU2gnZge6JvPH6nf4AMICKLEE4Mp43n7uMZdXLBnJDHZQ13Y5QZTIQmNB2vdBLAPQzPnbYi9q3S8jV2V5fCOnJBtkLWLEYAFnYRIovoxkYj5GS0/MOuLstNshJCwpqxZPmjOJutbczWd8mYzEAsJ7wmj3OkgJZfOP7hQEqNO8UqXxGcJnGPnAN8HBjCLm5HmfFGJFMjIEEEctLkirvooKjEiJBsgMHNBvvGuj8OKChnJOFsLrLcuYqj7ANOgssiAZSjxw2hDme2JQENvEn+gkYnhejCFiitig8DCQCFdGN3M8INiPuPHJHhPFAMDNPVCG+It/rijKm6lFqLkuHqCKBKtnPuiUXG0fYQ6vkXQnFAKKUNKFgHtiGxZPajkpgKCCItMAEK/qNOGILDIAMbMPLFysMWdAxMFbCBDAISBHFECgFDGGNkjrhr9bT78/wDb5/5VxpXEPg/LDxobSLkA4DUjyFDrYoroBJayRihprQp4iY7XrrapAQgyB5HhQRCTXoBHyywwjiQSgpxZ5Reooft8sP8A6n/Js2UtOM6e8myR8r9WYwi9fQU0IY0wWr4dssYKES8GalyAN8A5MNfkcB57xIjVpl1wXw2yJZDwwgwXr0Ygx6VH7uh/rOsU8oPttm8M+ksa0+DgALNgAo4wYMSkATcUENVFAIfKMQXxzTlJAxNOch0uEMskk7EAwI88EAUYwUsYwo0cdW0DG3DPpHMW2ArpdmtUm8hu4wd0sc1a4AWcEjgwsBiScS+j2o0UuNi+m4nd+kTay87MkyI2++M0cgccWU4d4UKIyCIaSysSrnH/AH8ye/vvM9tbrnhK6TvHmvnQCLtBaIPvLgmZzhMtB5wOBiITEJT40ePtgkdSAwjV5ivXgm0sJjBEzINHGBlrEKBTAw96P6+uooYSsZOlMOjGOuEANNAGJMKNNDLMYkrLzVtsMybtNtiVldBs/W8qMGnEmKAenLpABFHqpD1HI0MBuKIhGIkwkczx8+GfNnZ7eVPNNN1GGnCMjFQmNIHorJumrirrlrkkqBkvDi3omrihvhtqoKotvmynOHgOMPXHFHaCvmePjhYkBLiOzby98sD9UNQYv+hJjBTkjEO1UkHngG1BRMpDxJD7jpcsNiisaGPdttT1hYHxuSThq8QNojuqrO8zmuuC4ANnTAxJFDVJ818lz4T5wryWISGNpirJH9JIBDhpNLVhCLLPPCuprvJnijnkbri9GHesv9uvVijuquBoAGKODLKDuPMMIZKHPuDuLk/XH4lwvmY7/wBMsSfEPeZix0IxMAjazyphKPSCo6YIGJZbZIA0wSibbKqqKcLKp2676LJTrjxrgRBBywQhEhjhxgLCW+cFXJ+fJ8JutcTWxTxIo7SJ7IKhDpBDvCwxCClrJ3LqcCZB7bmUl24u5jwBqBS0E8W0oaSZR2AYNsBqASbzwSzAaAVy7jYMez6c9LIpOYzbELawQiWZRiISyYQRhgASp4wg7kXwW7rZBLjIboRERogr54ab6saTxo9rIShZggYBzugzUxIZiJTiY5btzS4s/wCOfGaejOyO0wvzEjOvl8Ouu6a9oaaOmyOS+igxWCGe4YmoQKkQKKKewEDQuC+r3mS+SV+qWCSokEYplY+y8HX2iUErzPuAKmLpu8suwfGaae+SLGKAoL2QO48RIZ4oBKZSAAfXdwEO0V32A6Wpe7w64V1hrJAEEOoAEMeOIY4Uo+uC8ISkPIaDmmyP/Cfyv8si4TpUm9hmg0AK0KMcw6y4imY2wLiwauec6kYKE+Q6I2g7gYga2KCuoiu6CEqjI02I+250UQG77vvflATPzvM9z/I7hv13xvvr7XrJoKowu9EssUqdmeIuKPkgy2gYI6KCQU8Ktw83awG92UIi02wmmKkr28+Ia8/MGY2UA3TuGN1zeuPPhnueJMADmMyS6+u66ISuub0XSksjdSv+lxRp6iVhrCF1U0+KFDEF7PfXt/IxngwYjwoWQwA+A8mB6TmAY38wiSEHXmrwYEHaWFoAwbwAuOWIw6gdGdCGkEgBVTcDxjhwUbFBbbZ3e6WY/VED8yil9CM0wuKK8qeyUKy8KWru8ay00iPigwGjHy8wVQuh8h2bRUTuq+KMfHUOa7UuaIH9/HviDSp0elVVTHHWi7B5mYlJgXKSiroH3uufUaWKooCaYauC1c+3QCK0Q2qSSy7MD9dMqUi8ICc2zfeFyxe/aPeKkfAbjtubJ2MhgVosRX3R16tJt6gkt/L+/ctKq4dXrtE02VSI4q6ATNKSAKpeWiWPRL3DhhfAjfCfjh/j9AiiDD9++fc+9fDADh9DfCAffj//AA/I/wAOD5+OGMGOOEEPz918OH+OD/wIJ8IL4EGKEP2J8OGION+L+H3/xAAuEQACAgEEAQQBBAICAwEAAAAAARARMQIgIUFRAxIwYTIiQHGBQlITIzNQYsH/2gAIAQIBAT8A2PYp4L/Y3FlsWCyyyyyz3KLQmWostHuPdfwX8t/IixjfxJD/AG1fC/3V7bG4uL32yxsuLLLZZcWXCHK3NR0PdX7Bf+pr4GtlONOl6ro/49cPev2lful8NfDUrevg9HD2UihoaK/arY/i5inFWUUL9g4riHkVRVFba+X0lw4U8LJ730j3M9+o930i1/qXo8F+n9n6H5K0eSl/sil/sj2fYvT1Hs1Htfgp+Cn4exrYvlqtSjo05NOUdi7KPayjDKUPCKKhDxR0dCTtDzDS58nRQyuRmroQ/wBj6OHCjT5MwsSiymLK2PMW/LLd5Pc/J7me5nvYtb8I91dHv/8AlHuT6LXgvT4Zej7P0fZ+j7K0eT26byUv9h6V/sez7R7ftHtZ7Gexi0u0PS7KfaPHEUaSrLfg7umc3dHJTKuhqxWjkp7PcPYlsbEnY/ye+pa3+lh7F+H9/BVncKHlnUasyzuHCyOXmXmWNw8nIm7yW/J7mJuy35Pcz3M9zPdq8i1M978nv1HudHubPex63R79R72e50h62e9nuZ7me9j1Pwj3Pwj3X0i14R7l4LV/ii1/qj3LwXp8C9vgvR4L0f6n6PDL9Pwz/r+z9H2fo+ytHlj0uXs9HD2f4f2W5uFC02UrKKEmNOxJjQ9i6UPKhDc6sr+FLlrmKNWXC6lZUqV3uWF/M9KX1LhZlZlYZ1HU+J7YtTQ8Jrd6Pexfh/c9sQxZOj0bev8AlMf5bHmW3cJjbLLG8Fi//C14l1Z+nwxUP2+Y48jKK+0PJQkxrliTFdnPgp+GJMaZTKYlCwymUx4ORJlOhplMafEuFk7ZQsjULD3UuP426fG70nmLhfgJQjujoWVHo17+WPLHlwh5l7n1LWJfUuXLfLjpHbhdQsnbhC3PEIv9Kjo545Zz5Zz5HfHJbE35ZbstiLLYnkv6RZfBf0NieOC14OPA2rwWvBo51IeXt9J8uUjT+DLZexNWcHHmGucxTGuRL6KYxqGsS+pfQocuX0Lb2yhYULJ2/wCYQp6cIeJ6hLgaKKioeYXcMWXDHiXwlsZpyh5e30ss5lfg4QpWdmrLhscuy3DLZbG8F/SL+kN44E14HXgdccQqG1wcfZSGcCqqHV5KMoa5zCRQjLihRQsMr7QlFH9orjJW1lMpjTspngafiFZTKY1xOpYl9DFlGrL2+l+RShCX6HOmHhCzGjTfpeo/FQ8mjRpfo69Tyoal9Qtj6l9S+jra51ZlwsxYnyU4UqUOOp6l9SxDyhwoTFqZbLZfBbLZbLE+Ua/ye30n+uHGnGossVXg4tFoVWo0aq0a9PkoaE2tOrT0ymU46HfBW1y+pfUtYly5fZ42acoeFs6Qu4eI6jpz0LEdKEPasjhYc9S+hnaNWXLj0vy2acap052rRfp6tXiGrZ0oYtL9r1dFuLZbLqi2Wcl2Jl4LL+hvBZx4h14OB0cCodHBxRi1s4EuUZo4O1HAuzgdcCU1wcFI4pcxSHXHJxDUtcuFmKKdMpxTo5KY04WTX+T26PzWzThzpzsZ6X/j9ZfVxXJ6TTWpPxDND/6NaKtUPqX0KPELI58S+pcuXLhZUJHcMUo423xPUvqXCzK38+WJvyzX+T26fyWzR2WvBa8CqziEVyenq9vu+1RQ0aHpXuTwx54Gj0/w1/wcjwiih9S+oZWJ7UvqWsSyinKGIWUcCpIWY1ZNOdi29f2cKOp8S405Wxi2dKPBrzLGafyWzT3/ABOnK2OGalyLS3dIoxQmzmLZb8st0uS2Wx4RbLOlFsb4Rf0i/pDeOC14LHXEceB1ZZaOzg4HVloVXFiqyyxZLjiONlqsHVRxUcDaOIaRSFVo4jjgqOKZ/aiuMooo152rKhRoy/4FGn8ls7NDrUn9nqpL1NVGro02nk9bT7dSofRpdOzUtHqLT1qo1KmJOz1dHt10hz0p8S8KGPrc4Y47HCzKzKzK+HpS8Lc4UrdqzCGZO1s0HBwKrlJS227bKNOnNj49Om75KwaeNSbVj9T07v2P6NTt2LKPXv8A5GOa4U9KX1LwtzHDlwsysysjhbup6+F7VPU+P4i0OfdOjMrMKHk0emn6WvV4crQ2m11D6ixis1a9Wp3FibHdItlstlllsssb4Us42cDjjwOrxFjq8FifKLXg/o0vkv6RZcrsteC14OhNeDjwXwX9R0jjxteYUcCo48HAql8V/G6/pTozKHLyaH/1a1c+lytWnyero06Fortcng9LTbbfSs16ddW9NIZ6L41quWuDV6a0+hbX6m5WhP0fd3Z1PU9T0pctPidWZ7hDyzsWUMYsjEJTp7jOzitr2Petj/xGPZbnTmePI6uWUVNv2rS0Oz0dXs1W0a9VaNSbtt3wU+BWe/W9LTt2UymKv+Jp5scVDjqXhbELY4Q8wkOoQxizKldwtjxL29D2rY46Q1t5nRnY8vc5cWXFnNIbZbLOS35ZbPcyy2WWXwiyy/pRa8DLXiLRa8Qy/pF/SG+cH9Is/pFifJ/SLLLhdwmJxf0hsssbiyy4sub+hV43N/pRY+yxd7dOTty8uXL3Pc93U9bn1FMahcra2acnZliyIR3KhIUOFnahnS3LG7/Bfz8OnKGlbOIeZaK+0VDRRToplDTOSnDW5R1N8Ld4jvY+hyxHYinKzKyd7u1HU+BnW1oW7/BfzFcLfpyhy5buX1u6lubi3NlukWyy56LLG8RY2XDZZY5sQnyWWyxOE2W3mLZcJ1Nwosscuedr/H+zjY9mnKHly5c+Jyp63dbHtWBx1PS3PqXucdjhbVuWZ63dSpX4/wB71Gn8kPLl520eCijqGmdRRQ0ymU93U9bup8bntWZ7lK4woSxHUMWHL3PapX4v+V8CF+SHly5fUvCnqW9nPmbLZbLZbi2WW6E46UWdL4W3FubcciyW/JyLJbnmOt1v4XtX46tj2r8kPLly+oQ+p6HHXz9QtnShQ9zh70LP7V7dONXwIWUaqvJxD2VDwiijpFFHU06K29Ld1uexy/gd3iEmcwszTKe2nFP4aGq2ULGr+PhWUasy+t3S3dDYn8NvZbobnkWRjZyWyxMtllstl/e9OVn91p7/AI+FZRqzL63dTX7LqeoQ5vhbn1scOFKzKlb38Dlxoy/42PavyRqzLior7KHhQlsop7aZT3MUOXDwinFcIpxT8MplMafBTEUynDKcUyjSnaKZTFmK2JFbXuap7dGX/HwrKNWZed3X7Sy3RbLZbLcWy2Wy+EXHSl9fAjtjE/1KVne5Xy6PyGvgWUa/ye5qXhSsbl+y6npT0p6W5whx2v3Wj8kP4dS5yV9lfaivsorhFR0UUU6imUynFMplMplMplMqFZTOfBXDKOSuHwUyn4YsFMplMproplOkUymNMplMaZTKHpdntZTK5KKKEoooRW2p4pDWxJeRzwcGj8kPPw63zPjY4vib2oXw2/LLZbOfJb8st+WWx35LflinpQsnUvqXucLJ5hOe/wBk40/kh5fw6s7nCOv7lbUL5Onu04O0MeIWYopysj+BZPO5oWfkQxiwONP5IeX8OrMvCKKK4UpWslMrZTOYW3mKKiimJPkplFOmUymaUclMaKZTKGnHShZ2OK+0V9lbFUoc8HGzg4+BiNP5IeX8OvMv4VK+ROV3u6e5YnpS5e5ws/tXC/JGr8n8OrKnpfIoW9QkKVhyt3W7pT4HD6FDhZHlwtjhRWzratjhfkjX+ThzS2aiivtFfaK+0V9oS4yUUU6ZTKYkyimJM5jtDTKEmNPfTEnye1lMSZTKZzTKZTK4ZRX2or7moaxyivspeRrBUceSl5FQ0rY68io4OBUcHBxCo4+zg42cUi0WjxHHgdHHgTVrg1/nq+HV0/qXhSsblsUJysxe9Su5WHP+M9KelCPAxD6l7UOPA9qnqepZ1DjtGv8AJ/Dqxp/iEPC3uF3Khi3KELuUOKlYe7qeoR0pfQ4edqyOFK2OFiep6UIc6/ycscKWsQkdIoorgplFcZKKYkUyhIopmlRTEnZTKFpZ7WUxJlM9rFpZ7WUyme1ntZRX2iiuMlfaK+0dZno48lLyUqXJS8lLyUuOTjyUhpHBwOrODiOPAsysxxFrwWi0WizisDiyxOV/Br/J7HCl40ysL4V3KzKfMrMrMqVKldz0xjOp6npS5ctS4Wx7epuehw4R6n5fDqxpnrahdzplZlZlZhCzKzKld/xKw5vhylw5eNzhD6lrmXC3KFCLmjoe3XmO0dxTHLxpKEjooorgplCRTKYkx6We1i0s9rHpYtLsellMSdlFCXIkUJc5KK+yiivsSzyV9lfYlmKRxT5KXk48nFM48iopUceT9JSopI4K5Gl9nA64P0+DjwOvBx4OPA6vBx4FV4HXgteBNXgv6UJxYv4mkWWdIss6RZZryv4ULcjV+KhjwMQsOV3CFPcrIzs05FCzCFmV2Lc4XYo6c9f3CHhDjpQh9QjVCNWY7GIWY7QsihHWxZOlPU+plfxH+LFP/8QAJBEAAQUAAwEAAgMBAQAAAAAAAQAQESAwMUBBIQJQElGBYUL/2gAIAQMBAT8AXoXxvKle0Fww46YDQwUFQ0WjohHWXF/tigwwCCARQqUENQhScAGjIipxhwFDfVFRYIOUXDDEIsO1PfMBfzGR6RqQx65uOGm418YN+T/aSpYqQg05hiegLm04DEL7YoYB/wAsYRt9p8eWOHy82HiHKG0fWnojm3iNPzUjEudoUNC+P9p9eWmg5p8/tS0qQi8hyhw5LSxMoXKmktN/ycuOWHOI4cLxgwYUIQ4RYHWMICgUAUBvi+KAoCgKEALEIBQoUf8AV/qhBSaCn5cULmkGpz8XqgOKk7HqkVlS4Dhxw5b8tCihYBAKBWMASiwFJRKlfEYYEPIechgcCUHDjiv5Y+OajhwXgIVFvrhxxtGBQoEV4oCgWKhhUC35cUKGpNQhgNZuXNZh4LSpcueoeGDHlC0onKBn9p9R2+ueRmbHYoBGn5cXLf8AlzyGHC9qKlCw2LmxYjoDhjWF64Djiv5cN4xUKFFT9wHYm4uV4x7Xlfy4c4ywQYL5LBCo3ALh5uaFRT6vtReUTb5ieMvrHkOX964ccbw3rlhcMcfUGHFCjh6vtvR0hcV8crzoHrCvhUn+mLAWHGPrwoUDANCj/qhQ0IIBR0AiMxN/uIGBXtwig82GoxHGgaNBmdijWDaWlSw3GIqc47hQqUUUKCoRPF4c1iopC9zGcdP65ce3LHD0OUPakcL1eIL3MUAX3qf1QaHIYlHThGnClSjY0GI4Ybm0dQ1FDTywDxgbxpHx+UHCKDQ5+1jUYi5oaBg05nnsS4cbDEahzrFRsMQ4R6f9IIuNwi3twxyGArDG0bxTypRaGhiotFyGDnD4wRyFvsoOP2gz9t8t9uHHXPVNiXPR9RyHQP6GBQMe0Y+YlhUY+94Zmxc9EuX/AMYI8IbFT3g40lwxO/iGBsNC5wgWIc4QGCP6Q0GI/TiwcUHbOJ4QsKz1J2GEhSxsXNhmf1JUOReOgdhkahzQZe1H7g0GQUPHQkWNi56AtOs9IfsxieqMjb/Ci4zDnoH9ATgcAi5fy46hNzpLSpGB0Kg4DnMocZin3qlz1R0D0BxkLGp6PvbKHFRkMxwg465cn5lIQOYqDiOOoA31yEPN/X9/bi82FhxiEXgbGxsbe2HLi46ZwNBj53SekSwlSgVPTOg4rBc3GRY4Hp+oYDuheMKBhqKmxYuXORv4i5QsNCoyHFf5FvEecpUtLk7BGso5SdBhFxiAhfxFDmgQYoVC9CLe0LixQwLeIoc4jhg3q8oWOBRYcoIsGLBBFgg3/8QASxAAAQMBAgoHBQYGAQIFBQEBAQACAxESIAQQEyExMjNRUnEiQVNhcoGRFCNCYqEwNEOCkrEFFSRAY8FzVKI1RFBw8CVgg7LRReH/2gAIAQEAAT8C/tx/YU+yoqBUCstVhiybFkmLItWRCyIWQ71ke9ZFZJyyRWTKyblk3rJlWCrBVkqh3LOqf2+fGGqlyn2VP73r/s6qqqjmecbdGI4ulRZlRUVMZQVG0VP/AFmn22ZZlmVAqBWQrDdysNWTasmFkwsmFkwsl3rJd6ySyXesmsmVkyskVYKyblk3IMcFYKsqiovL7On/AKD1/wBtJpaiKdeJnWiupDHW8MWf/wC08/8Ab0VL1FT7GioqKiorKshWQqBWVRUVlWVRWVZVFQKiorKorKsqioqKiorKoqKioqKioqKyqKionNqFYVkqxnqrKsKyVQqhVFQqhVFQ4tCqq/8A3TS5T7fPjzrOs9zP9rXFX/0EjOrCsf8AtrVUVB/7avNGkr2946l/MXbv/bOuKfYyeE/+28+xfyR/9hp5ck0GijdbYHYppckAbBNVFPHJo07sbnNbrOAQIIqDX/0jCNjJ4UfsqovbvWVbvVtu9WhvVVX/AOwiA4EHQVDGY2WbVaaMWEYRkAOjWqa6rQd4xS4S2J9HAqOZkmqUTQIYVCSBXFhE00c1A7MdC9onZrxqHCGS1oCFOZQ2rFFhcglbWpHWFHNHJWyb7pGNLQTnOjGSAhIwnM4f2pc0aTS5hezHcVBsW4sIHunLAdMvlikhe49GV1NywjB8mBnqsCbZgHea4svhOWsh9anQo3vLKuZQ7kMMip1hHDYRvTHh7Q4df/oWEbCXwo4q3iQpMJA0Ks717NIfiXsZAzFNwV7hrFezTD4lkcI4lTClawodSy+ED4V7ZJ1tXtp4ShhzNy9tjXtcW9e0xcSy0fEFlWb1bbvVoK0qqqr/AOpTzthDS6udFwAqo8IjkcWjSv4gOgw81g1fZ4q8OLDmWoa7lgjGGNkg00z4sMYPaBTiGL+IBMNWtPdji++N80GNGhov4c3oscmYXC4gWqFSStZZ6ydAT6Smw8WZGn6IYOwFpFahS+0xVOUqFC+3G132FoVpXOsJnfassdQBYLJbjz6Qp8JcJMnGM/WUzCHtdZkUsliO0oXmRlqmKR4jYXFQSGRpNKZ8T42SCjgmDIvs/CVLO2PNpKjlbIKj0WF7LzUMcpbaD0zKfFRYRsXLARtT3gYg2iw3VasD+7sxQfemcziMbDnshYZGBYoOpYIfcM/9Cn2Mnh+wJoFJMXmy1RYNvTWgYiotBuUVBuVluV8lk2bl7PHwr2WLhXsUW5ewxqTA2NAznSvYPnXsLu0K9jmGiVez4UPjWTw0fEj7Y0VQkwymqvaMKHwL2ubrjXtzuzXt/wAhX8wj3L26LvXtsO9e1wcSGEwn4wstFxhZRnEEHN3qoVR9jI8MYXFRStkFR9jX+x/iI9x5qdzvYxTrDUGZKTBn8X+1h7egHA+SwZkthpdLUU0YsI2D1/Dtk8bn4sL2zeYxYf8A6TNRvIY4vvreZxE0aTSuZSYf0Glg51UmHRtAIFcyBDgCqOkwpzSVg0oLnstVpoWG6jeaGDxuwYZs9mqwPpSuJ+ELCRZfG8b8WFOL3hgVtkDGtXtda2YyUx8x0xgeadlaZiAme0Oe09KlzCzZkB7lg0QfaJ0LAzRzwq0whxpXpFSB81OipwRg47qLBtixTYXK2VzW0oCsNf0Yx5rBBSBvfnxPkc2Zo+ErCAMnXdnUDTNMXO0KGsctPJYTsSsG2eLCj7o81gmaEk8SY8PFRoxYSKwuWAn3bhucnGgPJYLU4SO4HHho92096wE+6I3Ou1/vcI2EnhRv4TJnshQQ0FzqUXXetDKi9Nq+d52q7kotRvLFQKy3csnHwhGGPgCiweIsztGkr2TB+Bewwbl/L4O9fy6HeV/LWcZQ/h5z9M6V7A/qlK9iwjtl7Lhg/FWRw7jVjDx1oOw/Pm0FW8P4Fl8NH4a9qwrsl7bONMJUuGOcwtMdKqHCsnXolfzEcBX8xj4Sv5hF3ofxCHvXt8G9DDsH3r2yDjXtcHaBe0Q8YWWi4wsqziCtt3qo3qoVfs54hNEWINo0N7lNEJQAeo1CwppyFNKwV1qCPlinrkX8lgkrY45bXEo3uNZH9EdQWGbVruWLC9r6J8zIm9IqN9tgdSlcT+jhrPFi0pkJdMWlQR5SYRu81gb7GUieaWTmU8b7eUYsFbk5za620WEgmNMFGAd1FBg+Se81rVEV04mkDC+nvNE5gdmIQc3LWGDMBnxSx5RtKkLI4T2mbmmw01nOOPCoHyEFqjbYaAmgxT6DQ1op6xSseNCabQqpSH+7GlCaSIObTOhC4tLgNC6UrwPJNFkADqxTxOfZc3qRAIoU1jWjMFJE4vDmp7XGIjrooAQzOKYpGB7S0oYGcwc/o1QAAACkfYY525PlD8GtVWAfi+SfUscBuUUmSe40z6Fg4e/3rz4cWGbHzWA6j/F/6FhOwk8KN55o0qFtuUlaLhUPXddoTxZlaU1wIRNBVe0NQwlnXmTTXQsI2Z5odWOOZr3ubuxO1SoNmzleh1T4jebpdzvR7SXn/q7hg90OawZotKwzhCycfCFkouzb6L2eDswvZcH7MJmCQF0nR+Jew4NwL2DB9y/l0Hev5bDxOX8tj43KPAA617w5nEL+XHqmK9gl6p17HhXbr2bDRolWQw/jCaP4gc4NV/8AUR1K3/EOzWVw4fhL2nC+xXt040wL2+Tsl/MN8RX8xb2bl/MoeFy/mEHejhuDOBaa5+5RYTgkbbLXL23Bu0XtWDnNbCbHBbrlhZWEuZJF0HtqOpYTMyVrSNNM6jlZk2dIaoWEMZJna8Wk3BnWhlHCnNBzd4Vpu8LDD72oO5WmnrVRvCqzuXQrazVTo4nPDyBVVaujVVCqqhVVVhEAl5qzhbKtqVg8WTabWknHVVVcdcUjLbC06CshMKi1mKjjDAixh0hDNoQYwGtMVftH4HEc7eioYRE2g88Too3GpYFmCc9rG2joWGTtfYa095WCNpCO/P8A+hYTsJfCjewp1IysDb7sG9FpdzvPHTaChWN/cj0mKBoLjXSnxMc05lgzy19jqWEbJyboGOLo4YcR0FQbJnLFLJYbWihnEleo44NDvGU4kDQnHCKVChkyjK42bSXn/pE0BUM7ZbVOq4zaTcxdwzZeawcZz5Xma8vO9Dpl/wCQ3odT8x/e6dB5KHYxeEKncrDeELJx8AWQh7NqnweHJOIYKo4Jg3ZhexYN2a9gwbg+q/l+Dbj6r+X4P83qn4BECyhdndRfy2Hicv5bFxvX8tj7Ry/lsfG5fy+mh/qvYXGSwXfDVfyxnaFfy1vauX8tb2rl/LW9q5fy1vbOTcAbV4yhFCv5c3tSv5aO2cv5a3tnL+XN7Vy/lre2cosAtxtdlSKr+Wjt3ei/l3+dy/lv+dy/lv8And6KTALDHOypzL+W/wCYr+Xf5iv5ce3K/lx7cr+Xv/6gp2BSNLB7QekV7BN/1K9gn/6n917DhH/VfuvYsK/6n917HhX/AFP7r2fC7Zbl9AB0r2XDf+o+pXs2Hdv9V7Ph/bD1WQ/iHVN9VkP4j2wTG/xFza5RWP4lxj6Kz/Et7fov/qY6h9F/9T4R9E6T+INFTGFlP4h2P0WWw7/p/ovacMH/AJb6Fe14T/0x+q9tm/6c/Ve3ydeDlfzE9iV/MP8AC5HDmOBDoTQ96yuDV1H8l/MI+zcv5izrYV/MouBy/mUXC5D+IxcLl/MYNzl7fB8y/mGD/N6L26DefRe3Qbz6L23B+P6L22DjXtkHGF7XBxhe14P2gXtMHaBe0Q9o1ZeLjCy0fGFUfb4TsJfCjew7ZLBnDJhVCzXI9Lud6TXYnNqM6a4sNCpYnA5SP0TsJJboooI89pYRsnJujG9tnCAccGzbiewPbQoixhEfoccXx+M4pczHnuWCaHY2mr5BuOKIZPCyziTsLeMIa34K0xs20vknzxtNCUJ4ToeMeG6reag0kdwvR7WfmP2vRa03jvQ6p8Tv3vQbCLwC7hGxfyvS6YvHeO3b4DebtZuY/a9Bsm+f73ZdlJ4Tel1oPH/q8Nu7wNvQ6nm797s+yddzr8Zp+Qqp33M25QgWTo1nI2BnICY9802gBrTuWTj7NvosnHwN9FNFFkz7tvV1d6yEHZM9F7PB2TV7Lg/Zhey4P2QXsmDdmF7Lg+WIsZrC9iwfgXsWDcP1XsODcP1XsODcK9hwfcUzAonMaSXZ0cCe3PHKsvhEBpK2o3qKZkgq0/a4RsJOSN7DdksGY0xtWTCyXesl3qw7erD+JMylpy94rT+FW3cKyvcVlAnyNtMWUbTSui9ulBxZmKow56IKfZP5JuqMb42vQFMWD7MY8IiLhabpCbhdMzmmqjdaFSotMvjxZjmUrMgQ5nomutNBxN2kvliwiFziHs1gpopG0JCY6rQd4xM20vkprQAIjtLKQO0xUKa9z9VtBvQHesLPSYmz0e4gVzD6KPKHO70us2s3Mftei15v+S9Bqu8bv3vYPsIvALuEfd5fDem/C/5BeO3Z4Hf6vN2s35f2vQbP8zv3uzbKTwlDQLs34X/KL34/5P8Ad6LQ7xu/e7NsZOV522j8Lr0f4njKwo+7pvWDx2Wc8c+yfe/H/J/u9Dsm4tOYqbBCz3kGY9YWD4Q2Zu5w0j7SbZSeEo3sN2RWCbJt5g6brtApGirM3WjG2mhNiZuToGEdaBsvItFBhOh6lY+w7pprZbI6fUrM3EF77uXvtwVqbs/qrcnZlRSEN1Csr8rll27j6LLx70X4O7SQhJHTWCjey0/pfEqjenxOt24381kpHu6ZTRQYhtHY8NZai81gbrUDe7Nibt5uTcVBuxTSluYaSnMOVaHGqjja2R4puvM2s3l+16PXn8f+hefKYmZu0f8AuoZhKwO9buD7CPldwjYS+E3pvw/+QXnbaLwu/wBXm7WT8t6DUPjd+92TZv8ACVHqN5C7N+H/AMjb34/5P93ovj8brs2yk8JvO2sf5r0etL40aG5PsZOV4/eB/wAf+70Op5n97mFRGJ3tEXVrBRvEjQ4aD9nLs38inXsM2JWB7IXm7R16XSzxI6E3Riw1th4eNB0qF5aAn0dE7ko9VvK9FqeZx07lZG5WGcITI2WpeiNZZGPhCyMe5GCPv9VkG73eqyI43IRG2/pnqzrJv7VysSdr9FYl4xTkhgj2uq19E1s4zVamZbLS5m1oF7/c1Vm4B6q1LwfVNtWnOLCrTjhRNkprzlZDkzoGZZU9m5Zb5Heiy43O9FlW0WWYmSsy0ufcsrHxBZVnEFlY+IK23iCtDeoyMpP4/wDV7CNn/wDkesBdQllwaVg+wj5XZ9hL4Del0M/5G3nbaLk//V5u3l5NvRaH/wDI797rnsIe2ueyVHs2eEXZtDP+Rn73jt2+A/vei/F/5Ddk2UnhKboF1+0i87zNaXx/6uy7GTwlDRdO3b4Deh1T4nfvcIBBB0LBSYppITo0j7N+qeSN7C9i5YHshebtXYnz0NAo8JBNk5jjl+DmjqpmjFhpo5u4qNlqII1jJHUoSDG2m7GzWdjh1T4jej15fFeG0dyF4baTwi5oWC55HuTdvJ4W3mAZaTNwqyNyst3BZNnCFkY+ALIxcAUcEVubN8eb0WQjWQZvd6rIjid6rJfO5ZJ3auU7XNbr/iuUQcJY6GlVZm4x6KzNxt9FSfib6L+o+RYPlsizM3Qqz8LfVVm4B6q1L2f1U8sjWatFlJTg0loE9E50JnUFYnrLf43+iyw4H+iy7eF3ossz5vQqWZnQ06w6llmd/osvH3+iy8ff6LLM7/RDCoq9afNHlodPxdSy7O/0XtEfzfpKyzO/0WXZ836Ssu35vRCZuWfmdqt6ll2bneiyzdzvQrLt3P8A0rLt4X/pKyo4X+iilb08ztoepZUbneiyw3O9FlRud+krLN3O9CnO6bnBRTNybNbVHUsuz5v0lZZnzfpKyzPm/SVlo959Cp5mWBn+NvV3rLx7/oVl4uJZeHjCy0XGFlouNvqjLFlmdNuo7rWUj4wrbOIeqts4h6q03eFabxBRkWps/wAaqN6zY3Z2O8JUZqxvJZ7mFSUsU0prpBZdnTXWmg77jNpNzH7XJpHxkZhRF4kgkPylN1W8rp27PAVYInMdfizJgcGgF1TvuRaHeN13C+hPBL6/Zm/hOycsB2V4bZyeeiVCfeFYRHUWhpWDSWmcsUvVzTtUpsmbQVlmLDnh5bRQNpGFKyrVE4xjuQIdnGLVl544dDvEcdrp0xx68vO8NoeV4bd/hFySNrxnTGNYMyG3f4W3m7aTkMcp925MdhBFRQoTn44yFDI1z5s/xD9r2FbP/wDK5AZ8H5NuBYPsWXMMds281Zpgzh8hTdVvK4XBoqSpjVjT87P3uSmkblHFaYT1pj6mGunpA3ht3+Bt6LTL/wAhu2LT5h3FYG61Ay7PsTzb+9zMmTxvkcyzo+qLW5WPojVcrDOEeisM4QsnHwD0WSi4G+iyUXZt9E2GG3L7tutu7lkIezb6LIQ9m30WQh7MLIQ9m1GCDswooY8kzo/CFkIt31WRZ836isiON/qsj/kk9VhNbbqEo4ObApI7MoASKZRwosm/tn/RWH9q76LJydsfQJrJMrJ73h6grMna/wDarMvaD9KpNxt/Si2Yilpnoqvjc4ZtBCZ7RYbqaO9Vm4W+qrN2bf1K1L2X/crcvYH9QTpH5aP3TtB3LCT74OskaFlHdk9ZV3ZP+iyh7Nyyjuyeonn3nu3a5WUPZuRl/wAb/RST0AoHAlB7m5xb7xZKw6Vr4YyK6yGgfZuzG9hOycsBPulXHXF+MeSOcKUGOUPAzJ0jXRErBNBxTao8QROZM0KiwrB3SWS1MFGgI6CmNDoW8lV0J7k1wcKhSazDjh+LxHG7aDGzaS8/9XvjN4bd3gF4bZ3hF5u2f4Rjwg+7KhFI2jEIWOlmqOsfssi5mzkPnnWXLTSVtO/qQIIqMeEbN3/K5QtrkjuZcCwfYt8/3uYbtW+FO2TvAUzUbyRlLZQ0jMdBx4ZsR4lF91iB4h/+1yfZOWDn3R5pg6UR73XCnTuOo1ZSVjy4t6lFK2QVF2LWm/5P9XWVyzxvqsGFIWXDNGCBaU+xf5fvc6lgo97XuTtrF+a8zaS8x+16DZM5XXmsw734snQ1FwbV/IXcKHTcoc8MfhF122i5OU/vMJDfmux6ZPHjPSnpuGLDW2QQNGlR52N8I+zk1zzVLuEbJywNhLNKsO4lZfxKku9e97lWXhVt+V1epZQ8JTpGuFC0rJN6n5lE6KMUtLKsPWpXNsaetE5vJMOa4dBUGybyT2hwQLoXdye60yo6kOrFH8XPHLpbjbtJPK98Z5Xvx3eAXvxj4ReG2f4W48KOqEMTdrN+X9sZiLTaizb29RUbrTQaUxYXoPjKgFI2cgpJAzSo8IY400HFaA61g5GSFN5/e5hf3hvIJ2zd4SmajeQXReMxrjwymSHNR/dW9zx+9ybUKwbZnxJw6cPM/tcn1Exoa1fi/k/2ouhO5uJriXOBGOPWm8f+hcL2D4go3ty9ScygIyTMcrwxlT5BQxmR9p2hYRsJD3XJpGhhzrBntaX1OlSzxtfHn3oGtLrdpL5ftitNJ0i4wSlkdl1BRCu/G80Y49yZUyx+K9+OfAE6VjTQlDHhW0HJYL93i8N3C32bPI/VYFHVxmPIXW6ZPFjApM472jF/EB7iu4qHZR+EfZz7R/iN6fZuWAbM87343ljoNysNPUslGfhClhjs6qyEdMyZCOJ3qsjm2jlkpO1+iDJe0+ipNnztUOWyYzBe/wCEeqflXfhfVHKx1FlMlNkdA6EJv8b/AETJh08x1ll2U6/RZeM9akliI1k2VlnSFlGcQTHNykmfcrTd6qq4/wATyvfinwi9+MfDeG2f4Rjkz4QzG3azflvYVtCPmTczWjuCzFYVmkYRponPsZ1F76bPoWDj3Y5u/e5hlct+VO1HclHqs5BYNmlkb3FSTSZmgrB8JJOTk1lhzKsDutNgOSDw7rUUVgY5tm5YLQMcO9PPSh8R/ZEgaV7RGtKnpZQNQFmE1TwKHpyOfdZtJvF/rG4VFF7KzvUcQc6ihgzWq9apmxYQQZs/UmyRUFHBTUMEnhuSR2a81HE3IucepRBgIe4Zs6tuylsk1QleH2rRQwqW0CdG5SYU+vQGbeml8shcTozqOQtkc9e0vcyijqH6aKQTRkHKEqN9tgKeJbXRKh2Y8/3uTzMyZAdnUNLfpifqu5LB3Z6Jz2jMUDUJ9vLdGmp/tOt2+lpUYc3MceFbQclguwZce6jSVU4ROwE6dKa0AAC6zXl8X+ruH/dXeILBzWGPl9nhOaeTxG9Ls3LANV147Ucr0mqupMuwbMY5mhzCmExkbigaiqj1pOeN4q0qKhYMysM4QhGzKv6I0BZCHs2rIRcAWQi4VkI+/wBVkW00u9VkBlNZ2rvWR/yPWRPaOWSf2zlkpO2PosnL230VmbK641Nysz8bfRWZ+NvoqYRvYhl+uyvf7mqs2VPRFbO9Wp+zHqi6Xs/qrUnZq3J2ZWUdTZOWVOWd7t2qFlfkcssNzvRB4OEWisvHvWXi4kJYxNLV3CstEfjCysfEFbZvCtDeqhSm1K7vK9nJpakKdA6M5SOp7l0pZhmosI2L1gWqVDqfmd+9zDhnYVWsNflUeozwhQ/eXHmvZXZetc1arDW2HslH/wAosK6WDk8ioD/TO8X+8Z0KTKOtblHA54TY3sdCC7NbP/6p1bJospZNHxhMdaFQpW1ao5WhtHHOpXGSQBvCmNDW0xF9Hhu/GzaTc2/tccbLSVgo0lQbMcz++N8TH6QjgmfWUjQ3B5AOE3MMp0EGH2Wnmum/Jx0zV/dWayWQpsGJ1U7BCQ2hUkQZg5aEw9GwwadKGDHKkV0BQwOtG2EcGb1I4O46XpjAwUCc4MForBzVnmcbhUUU7bMhATISY7dc1RicKtIUYrJRezt3pjQwUR2w8KmjNuqY6oGPCDWYrB9iy7H98bzN5u0k8ruG/d3cwsENYh9nhf3iXxXpNQ8lgGh3O8ds3ljL2g5zjl1CvhUejFUY4Nn545dQqwCxMfkX2XaEwi2/nj6lD14htH+V74/K9+P+S9+N+S8NsfCMcHSe84qJoGWmzcKst4QsmzhCyUfCFkIuAIwRcKsAz2RxLIt3n1Xs7eJ3qsgON3qnYPaFLblHg1gUyhUMT7O1drO/dZKTtj6BZOXtforE3afRTRSvYekCsHMhjc0EaCo2z5NuduhMimYaiyvf7m+qkZJIyyWt9UI58lk6NpTemZRokbTOqz8A9V7/AIWr33C31U2VsULW6d6wfLWMwCky1Yszdf8A0vf/ACJzJ3aRGgJwM2TVJ+JnonYO9xzub6LJSCZoDhqHqVmbtB6KxN2v0UzZLTOn9FYm7UeisTdr9Exs2Wm95w9SszdoPRWZu0HorE3aD0Tm4S/o1HomxzNbQSN9FE2exrt1ndXeqT8bfRUn42+ipLTS1Un4meilbPkZKlmqU3L0Gdmhe++Ve+3NWERTPp0R6pgma0CwPVSOlrF7sa2/uQa8GuRHqrU3ZfVWpey+qtydj9UC8fg/VWn5V3uzqhW5OxPqFbk7Iq3J2TvULKP7J30WEPcW0sEZ1griGHoOOdZX/G/0WWHA/wBFlm7neimktPJHWUZI2QWc/V1LLx7/AKLLx7/onWLZc0/RNnZ8T/ovaIeJOmjyrDa+ErLRcYWWh7RvqspFxt9UZGAE2hmCjBkkz9ZUOr5m7F96b4rzdo/yu4Z93f5LAdl9nhv3h95+oVgHx87ztqzHheumao5Ypdm5fCgKt00TmytB95ULBzIcpZI1lWamqFal4FFJJZ1K51lH9mU+V4aTk1E8z9zRiljthYO+y9zXeVxmaQ4htX8he+Pyvfjflvfjfkvfinw4iaCqwUZnc8bdtJybehid7Qa6Gm9Dqu8bv3uuwfp2mmih2UfhF2XZuNzCamlAom2Y2hS/hf8AILrnNbpKtNMrKcJxllXVxt20v5b0Wh3id+6qN9yTZv8ACUzVHK7J8Hivfi/lvRZg7xH98czqMKhFqdvdnUuydecBlY+RVFQblZZwhYZYaGsDRU/ssGgFKuCZBEQasGsV7PFwrIR9/qVkW73epWS+Z/qsJiML2vBNExoe0ObK/Oske1esk7tn/RZM9q5ZN3au+iEb8q73ztAWTf2x9ArD+1PoFYl7X6KzL2n0WFCXIP6QpyWA7L7PDtu7yvO1SsB0yc7z9qzHhY6QTNUcsU2yfyQ1VHoR0FYEenKMeDjoHxHFKKxP5LANWTnjeyrpKaaqGSoodOM0E2Ju2f4Re+PyvHbjwXvxvy3vx/yYpjSMrB9mPXG3byeFt5uvL4v9XodDvG7970Oyj8IxW2l1K58cxpE5W2cQQuS/h/8AIFhGFGJ1LKZhkTuunNW2cWLDdowdyweuUHc04p5ZI8+Tq3evbs46GPKzDCC0EVrRR5XPbpimdZicVg9sPDs9K0xWZjbsnNbKmjc0iqgNYmcsb9R/hKj1G8rsnweIYnusRvduCwSV7pSCfhrj/F/Lej+PxHHhbunRYKyjK71Js3crztePzxuc1oLnHMmtdPIXb00BoACb8XO7O0OjoeJv7qGFsQo27T3h5XcJ+7yclgWy+zw/b/lF52grA7duSm9e97lWThVX8KMjh8BWV+Up8otsrVCZm9ZWPiCno6lCECKIKQ+7cgegOSj1cWCso+UrLR2rNrPig1XD5zicLTXN3hYCHMdK1wxt2kvkpWWTaCjfabilzOacVffO8IvfFe/G/Le/GHhvfjfkxYQegmCjAMY27/C28zXk53ovxP8AkdijlD692lBzToIxwOGRjz/CMTvd4USP/lVHMHmyRRyc4DnuU2cuKGDRpzHQ9JjjTcmOtNBGOX4PGFhwIkPeE3BIpY2OzirQosDjYc+dblhP3kflUQsyNJ6wceFtAkx6cNFOPHhhpG3vKwQe4bzOKP4/GVhYqxp71gx91jdqu5IYQ1jWWgdCbNG7Q65LqjxDFhWbBpf/AJ1r+H7SXwjGdq3wm8zTJ4sbomOOdBSbN/hKGgXX68fnjIDhQoNa3RiZpf4rs2zPl+978Q+EXcJ2EnJYDsB9n/ENs3w3joWBbWW9JrR88Vlu5ZNnCFkYuFCJifF0DnKbFSMdN2hMjkptPorE3VIPRET72qXB3y0PRDt6E08JsyDzUTpKGjM1pW5OyPqso/snKXCnVoAhL0c7Xeiy7dzvRNmZlHafRGaIjSsq2N9QcyErCK2lM9hbpCEjKawVtuWPSGqFbbvCtDeqhVVUda8ds3wm9+MPBe/F/LiwjPZFwbd/gbebtJPK9F+J/wAhxSOsvcAqOhdHJVR4S/KttnouzJ7rLSVCxroXP3DMsHwkyPc0jQsK2tVhLc7XjSFA7KSPduCGePCQeDFhTnZhVB2E5mgAJjC0dJ1TiwkGw2hz2wsKt2+npWDfd4vCMT3FozCqlkcZrVM9dCy8rpYvdb8eH6R4UzUZ4QjmBO5YKLWEk7m4pbeam9YSwss1fVQwyWW+9zUTG2RRRaZPGVhWxPMLA9V/O5HNCYow8aGhR5C10dNybU/M398WFCuDyeX7r+HDPN5YztW+E3ma0ni/1ddqu5JmqOV1+tH4v9Xm60ni/wBXZtk+98fldwk0weTksC+7R+f7/Z/xEdNnhvHQsE28t6TXj543vDRVRTiSvdifqu5IbMckzRiDg4VGJzWvbRwTLcFstzstKKRsjbQUjqMKhoZS95FBoQew6DibtpeQxPjDhSiicGmyVK0FhzKNrbA6IWSjyx6A1Vko+ALJx8IWTZuVhu5ZGPhRibbHJZJvf6rIt7/VZIcTvVZL5nLJ/O5ZMidvTOoVYPEUI3doVYd2hVh9doVYfxotkymt1KzLxj0Vmbib6Kk29q9/1FqGV+Ve9y4zDUVZeEeqcXGVvRVqTgQe/syrbuzKEhy56B1Flvkf6LK9xWWaN/osszv9FlWb0yZmUk6Q6llGb1bZxBW27wqjfii/F/5DiETjN0t6wiHKjTnU8AyAaBoVcrg3f181FKBgob1rBejK7ksKHSaeSkbaY4DcsFjcx8loZsy1Mq08JGIUdPnKmk96wN6iMeESWWg2Tme0/VYQ+29zu9RCxGxu5oTpGggdZxVrhv50+mUi81UJsjSSKrD3dID5UwgMbn+EKTPE+h6lgb2tkkqfhTJmvJp1LMsL6U1NzUMwGLKWZiwdblhbqRgbysEbSKu83IWsdBHUfCmxRtNQLk2z82/viIDgQdBUMLIq2evGdrHydeZtJeY/a6dB5KPUbyuyaY/F/q83Wfzuy7J/hKGi7+IOV3Cz7ojesB+7M5n9/s/4jrR8jfwX7xLek0s545mkhQNAlOJ2qeSGwHJN0BSbN3JYA6rXj5v3xsDekKdehOGQlqNUrCz0BQqLBKtBL17JueQsrLg7wJM7d6YWue4g5qDE91lpK2zLdKEOoVlKtIKi1Avxfy3vjHK8ds3wm9+IOV78YeDFH0sIJ3C5T358A/e80DKSZtysjcrDOELJR8AWRj4AshFwBRxMrLm+MrIs71kW73eqyI4neqyXzFDBmV1nKDBgY2kk1Xs4qDaNQnQ2hQvJWTPGVkj2hU8Xu3OtHM0psZze8cnYKwmtSm4KxprUrJ/OVkvncpouiOk7Wb+6nwR9qrc6yGFnTX1WDYKW1dJpVhozqBlucnqCfEy3Hm6ysnHwhSYO6N5ewVG5NifPLUtoOtZGLgCybOEJ+CxOmoM3QqmYPEwUDUY2ZzYFUyAvltObmqsjHwBZNm5Pwa095ZxaPJDBpHu6WZZGPN0VkY+FZGPhWRZuWDRsyLcyyMe76rJM71kWd/qsizv9VNE3Juzn1WSHE71WT+YrJ/O5ZP53LJ/O5Oj95F0ndayfzuWT+cqx87lkzxuVh3aFNY7KSdM9Ssv41Yf2n0Vl/aINfxotf1OHooQ/Js6XUqSbwqScQVJd4XvflUuV6GjWXvtzV73hb6qsvCPVVl4PqrUnZ/VNe/KSe7PUrbuzKtns3LKHs3LK/K70Ukoybui7QepMlFluZ2jcss3v9Flmb/osszestHxIyR5VvTGgrKxn42q2ziHqrQ3qqwjpVG5qwD7uPEfs/wCI/hed/B/vcl6X4OeN5zKAZ3YnaDyQ2LU3QjoKwLNJIMcWtL4lJZsmozJzXTE0zKIOhwoxjVOKSNsjC0rBTZmMfdiwrYSUWAGuVUzLOcBQOq1fi/lvHXHI3jtG8jeO1b4TeO2HgRzBYPpebn/mf/x/7vDav8r0Wmb/AJP9XoNmLsmzf4ShoGOuKbZ/mb+9zCJWgWaqBrQwU60/TH4v9IvaNJRwqEfEosJZK6gxkjLjP8H+7we1rpa8X+kZ4uMJuFROcGg6bkGyb53Zdm7G17HaHY3a8fneG1fyF6HZtuy6G+IXhtHchdOg8lHqN5XXAW2Zt6oNyst4QsmzhCyUfAFYY4TmzoBosA+7/mP2f8R1Y+ZvwffZL0vw+LG5tRRNfk3UITXB2go6E0+6ahoxYPmwh45qh3o2tyjNHSZviWESdGihstYE1wdhxPUFabvTngNJWDtrM53dikbaY4bwv4eaSSN7lLqphcx6tVkHhvHXbyN522ZyN47VnhN47ZvhKmPQKh1bn4//AOP/AHeG1fyF6PTN/wAn+rzSRBUd6iktt71UY36juSbqjHhRcJnZ1GJwAW9YqpCTBnFM7f3uS1fLmWD7Jqk1ovF/pPwVjutSYMxsTjnzLA80p7xjwnbOzqGFwsuEh5XaAulBHX/pOwaKyaN6lg4/qGc7kGy/M797smzfyxYQaQuWC/eGY360fO9+KeQvQ6l2XM38w/e9+KfCL0OyZyuv1mXHGgJTB7k94K/h+w/N9n/ENmzxX2VGGPzLKO7MrLfI9Zcbneiy7F7RFxhSyscB0viCtt4laG9VRDTpQAGjED7tmNubDnY49eXxLCgbFQonNdG0jcoZY455covaYCCWprHTZyLLUGMypA4QrPeVZk6nLBrQwk2dyLXu0p8dQmOMctCq3Trt87x2rORvHXbyvHbM8JWEO1Qo9RvK5/5j8n+7w2z+Tb0etN4/9DEXAaSq5kHA6FFOXyUoontsFlc/SWDGjnNRjq6oKkEzc9tQPJBDupP1HckzUbyQcCcWGltt/wD86lDURRg8IU+yd5fvifOxmlHDfkUUtmS1RRy2/hKk0xeP/WKQVY7ksH+8Mx4TtyotkzwjFI6wwuUT8IktdPQnTzxOo6hULw9zyO5HQm9HCB4rkOqfE791JFa+IgoQyA7UnHLspPCUOpYZLmsBYMy3MM/fjfpj8V78Y+EXotX8xuzbM8x+978X8t6DZNuv1o+dyY6oWhlO5fw7ZO8f2f8AENiPHfj+/Ou0G5TsbZGYaVkouBvoshDwBZCLcsg3e71WQ/yP9UYXU2r0xjrLOnpVibtB6KzPxN9FYmtWrMdV7/c1Wpx8DfVRulrN7v4lbk7IqxKxxMYc3eOpPjkkzvaf0qJsMeiN1eSE7dzvRZduWOY6u5e0Rd/osvHXWUDbGEOcSKZ0J4T+IFlY+IKQxukFHDVUM7R0XO5LKM4grbd4Vpu9WgrTbQzqo3q0FVVVUdszkbxPvGcjeO2Z4Sps8jQhc/8AMD/j/wB3htn+EXo9efx/6TtUp8jpNKZIRCWd6heWWhvasGGcHvUdcqT8xWg1Ub7SwpvRDtxTIXOzhyZXI6a5lHqN5ICiLrIJPUqGWSnEc+KfZOxPiFq11blhNmyAAFg0TcmHEacUnweLEZR7wDqBWDiuEN7q45Kvl5lDQMT22muCjc6CQhzTQqd4mk6CwZpbUHuxFtZgO/FXFD8fjcnietWOHJMdKdZlMcmzf4SqVZTuU8DmVJ0LAG+8eflxyfB4lW7+N+S9HoPiN2XZuvHaDleh1PM3XaWc7mtNyxfw/UkHzfZ4f93/ADC+37+69Pq+YQx2m1pXHH8F6PXl8V7Nlz4MdBuVlu4Ky3cEWtyzeiNUqWAEVACjyeh7QsjFwBZGHs2+iyUfCEYY7TeishFwBZGPhWQi4V7PFwrIR7k6BmVZ5rIM7/VZBnzeq9nbvd6oQgdZWQHG71Rh94zpu61kvncske0csk7tXrJv7VyycnbH0TmyCZnT+Epoe6bWVmbjHoqT8bfRUn3tXv8A5UctlxmbqK1PwN9Vam7Meqty9l9VlJOyKktuoQJARu61lffHoP1AsqOF3osu35vRZeNZeLiWXi4wo5YrcvTGsP2T5WWXUcNCwcNyufcqdOiwhoymbcoH2K18lgzc5d4kymUUJsuslPo9pFU2QxtcFEaRuqd6je3JszjVCyjOILCXVZmcNKbK9jqjShNEfjCmmjML6OCy8fEsvFv+ieInu1jTkUJohotfpKy7NzvRSzDodF2uOpZf5H+ilaS4lgfn0rB2llSWOryWV/xv9FlOrJv9E9hbK0tDtObMrWEF7SWu9Flv8b/RZY9m/wBFlf8AG/0QeBoid6LLhr35joC9oFmtCoj07VCsqOF3osr8rvRCX5Heiil2nQdrlZYcD/RZUcLvRZUbneiyze/0T5o7DtOruTJmWG5+oKexIwttLBrMQdVwzrLR8QWWj4lJMygodDgoZPf1rQLKs4gsqziWVj4llY+IIysyut8KyrOILKs4gsoziCtt4grbOIJj29LP1q03erTd6tDeqhSEZN3JA5rp128jeipQ+I3ZdDfEMZNASoes4sA/F8X2eGfd3+Spe/8AP3p9TzGM1Vmkoxs0jG51nOgagEYo9pLzx+3xB5a6unTj/HPguBwOg4nbRvI4poq5woJaiydOM6zbztpH53jtGed6TM9p+UrBxrG6fvDPAb1PfOPyi5RUG5Na3KS5usfsrDOELJx8AWSi4AnQRu+FezQ9bVHDGWnojWP7r2dtpZKPhCyUVNQLJR8AWSj4Aoo2ZNhsjVCycfCFYZwhWW8IVBuCnAyMmbqvSjM3xi8/axfmvSRW3u8IQweTQX5k1oaM1yL8Txm6dB5KLZs5C7hA6GjrWDxWak46BURaMq3N1FWW7lZbuCst3BWGbgsmzhCbGzpdHrWTj4AsnHwhZOPhCyUfCE+Flh1G9SEUdNCyTNyyTFkm96yTd59U6IWmdJ3qsiOJ3qsl87lkv8jlkz2jlk3dq5Rsf0vefErEnaKzJ2n0VmXjHoqTcTfRSCazpbpC99uaqy8I9VM94bnb9U1zw0e6Kyjuyf8ARYBpm8X2eF/d5L7vv6F3CNmeYuSMrn60xxIz6cUWtjwptqF3qsCcTAAerNiZtJeYxdSMEZjLSFgDzR8R+A4vx/y45mOkcGfD1ohsOEix+ZNc12gp22Z4TjmbYNtqwbCMrUEUIxHWbeftI/O87Xj872EZizzUIoxt07ZvhN78U+G83aSeX7XmdfM3otkzldn2EvhN6XQ3xi8/aQ/mvfinwi9Hpl8d6PUbyuy6v5h+9520ZyN5us/nddqnkmaouu0tvM1pPFdfq+mOTpShu7HgeaTCPF9nhOwk5X3/AH9qF2fZG4dCizuOKI9LzxvFWlYAeg8fNibtZPLGVHI+Ca2R0Sc6BX4/5Lk0LcqbE3SrUhYVC6P3zHEZ1E/KZF/ca43gFjgdyj6DqhMkD9COlt52vH53na7PO9hFTJG1C6dszwuvfjflvN2snlej+Pxm9HqN5XZtjJ4Tel1R4m/veftIebv2vfi/lvR68vi/1eh2TPCLsup5j97x12ed4azrp0FM1Rdd8PO83XfdfqHHFnc52PBfvGE+JSyZNhcsHlyrK43ztGhRSWxdn2MngKoL0xphzCss3rr6LLR70Jo+MLKs4gg5u9TubkX50Djc1x60xtkYojVx5m5HC2NzrOg4mbWTyx4NOZZZxu0LDQMgeawWvs8fJfjAfLjne5jKtChljiBqCS74lNhOVgstac6wdhjZC06aE43aruSwHpZTyT2ujNpqD2us3n68fnedrx+d4dLCR53jto+Tr1Pe1+W83ay/lvR6X+M3QBU96h2bOV2XZSeEoaLsmqPEP3vP14PEf2vfi/lvR60vi/1eh2TOV2XZnyvO12ed4azrvUo9RvK67q53hrvuv1ShoUhowqPUGODNhmELCXGScRjfRGRkNI2jQmysLLQUstaNamtq51dDVgtco83ZNm/wldK9P99jQVFQblk2cIWTZuCmhiyT6MGhCFlBmWSb3+qyTaaXeqyXzlZJ3aFZN/aKFr+JWZ+NvoqTb2qkvcvedy95uTTJlZOjuVX01VlJOyKyEjZS+OorpCkEkjLDmnmmusMAslZX3w6LtXcsqNx9FlRud6LKsVYSg6HuTpY8ozpb0JGH4lbbvRe0td0upYC6j5R3BWozpITqMdVrlHM1w0q03eqjeqhVCeRaj0aVUKqqMb9aPndeaNKi163nH30XJ178T8tyWV9vMVG+2xrkNq/kLzXtDn1PxIUpdi2bbsuzf4SmareV2XU8x+96TWi8X+r34g8OMHGzXl5/6u1oK7lg72ujAGkXZdQ3nDO283Xf5XI5iHWX+WKPVF13VzvDaO8rrtU8kNAU2qOaaKAY4/v0yHRwt3dU/RWiTm0lYO3MG99VFBYeXE8kYZLebQetRso9266dB5Ky69hH32NC7JqFN0Y2uDtGOHSeZxHMKlMla8Zsbdq+9T3gPddonAW2qgVG7lZbuWD4Jk7VuhWTj4QnRR9HohOhEZrTMmCN7dULJs4QsmzhCyUfCE+KOrBZ61ko+ELJR8KyMe5ZKPcskzcfVOhbWPTrIxt71khvKEdPicsl87lO2y3WdpWTpkukdKDHcZQY+u0Ksv7RWZONWZeMeieJctFnHX1Kkncvedy953L3vCPVVfwovkyo938KtO4Vbd2bllfkci73iwd9GuHemytyr9OgdSyre9ZZiyrVlGLKs3qR9p7j3qGVgjaCVlo9/wBFbasqzv8ARZVnf6KGZuTGn0WU7j6LKfK70WV+R3orfyOUj3ZN3u3aCmPdYb0DoVt/ZlWpOz+qrJwfVVl4B6qZ0lg9DrHWqy8A9VWbgHqqy8I9VWXhHqvecI9VKZbUXRGtv7lWbhb6r33C31Xv+Fvqvfbm+q95uC97lRmbqrp9dE63TQhas6F09wVZeEeqaZcpL0Rp39yrNwD1VZuAeqrJwD1VqXg+qnc7JPzLA65Qouf1MVp/CrUnB9VV/CpXPybuh9UHS9n9VV/CqnculuVXbk9zqs6PWrT+FWncJVp3CVaPCVaPAUHnKP6BVs8JVruKt9xWEDoh24qOWrAaKF/u28lb7iratIyNqpJBTzQcCrYWUCtt3rKs3rKsyjs/UFlGb1lG71aG9Wm706lk8k3VCk1mc0x4doxj/wAQf4VbY3C3F2jOoo4wKtGlMiaytMYFL1gb72Ffe4fK9Ls38kzVHLEdBUOs4J8oZpVatzKHScUgqx/JYJmtDccY2jsR0KOUkgHrx/FeOs3HUY3dXNEVRa+F1oaCmPDxUY3jPHzvO0t53Zjae1qdpZzvOHTYd1bxHTB7sZ0FR55hyJ+iwbWevxXeEXXZmlRNDpqICl2MUanzMYQHG47VdyTNRvK7JqFOcGtJQwplc9Rck0x+L/V7pW89NGJyGjG3aS+X7XcLPRAWCxhrbW8XX6jkJm3XfDzvDXNyYe6fyWCn3Z7imaLrtF6yMqfCqBUG5UG5WG7gjGymhMjZYGZPia4KCLO7OVk+8qweIoAtw7OfhQwZmVMhz/ZdayDr2GfeYb0mo7kmareWNwLH21R0h7lHVuZRa7ueKU0jee5YBnEh78Y2zvCMRzgrAn1dI12s1PwlrZQzEdcY8JmEcZ4qZk1krWwm0fmGJ2s3Hgpe+RxrntZ1M6zG4jSoX22I9XPERUUVHQOr1FGXoWgmOtCqk0x+K87SzndjzzJ2Ys53na7PO8dccscppG5YNtJHfLT1URaxpPemPDnnfQYsqytK436juSwXbnljc4NFSgQ7ODiCw1lqIdxWCPtwM3jN6Y3zRioqoiCxtD1XZNQrKtebFFPG0wuzaFgr9LU406sT/g53jrDkrTd6dcbtJPK7N05w3voo6Wc13Ctj5pktkQgUz1tXZcIa00GcqOcONCKHGyVr9GLrUjrLHFRutMBxP1Hclgnx81Hq3XaL3x+V5uhHQodWu/G/7+zvaiaBQy264rbbVPsLHO9h2aaJDRdfqO5KPUbyvM2r/Fic2rSO5YHFMxz7QoMY2zvCMeEMlhny0eg6U8vtNkcKVNcR128seaTC3WtDP9J2GRB1NKY9r21anazcbv6XC6nUcppzM+jNACwLY1+Yo9XPG4WhRSNMddywOS1HQnrKd8PO874edyQ0YVg4zOO8p2lnO9JrxeL/AFe+JuPCZG0AUcthrgG5yjWxHMzzCL7RyjdIAqp5txzKCOw0b8cuzcsE27uWPSKJseTfm0FS4SGOpRRSCRloKcVicsCO0b31xxNtz2Xd6wZr2SAdRGPCGZ7QkIO5RZRrunJmonuD430PUsG13KY0jcsFHSdyxyfB4xdkkDGq1LM5ezjrcVIXQmoNeaBqAd+N0zY5ZK9yBBGN00jnENTTLI+g6kGYTTMVAJhUSeVzCpyw2OotUUBtg9Vyd9iM00qCLMHd6cy09jt2PB3hhdVCdhK+M8lKyQMd0qhRCUsFNCiEgHST9R3JYHoemaLrtW8dfyvM0KU0YUwUGOb77FyWEmkdN6wTScTM8hd9hQd17D9pEhNHxBZRm8K23eFUb1VE5jyUeo3E51ASmPa8VGPMJTzvDau5XMMjMkOYVIzrBXl0LatpQURHTae7HIHe0zM63puDwsiJc3QsCpYcRoJTtLcb42SNo4VQweNrHNaNKwQlhfE7TWoTurncwrYOULXCIOCbLbY3fXPed1c7mEGgCYKNATurnek14vF/q8dZuKW0aALCAG5k2L3IHXZUTwInxu6j+6wXO+TdZTh07J33HZ2kLBs2E+Rx2nxYQBXMXAeqlJDapjcs9ywN1mR8Z686wl0rRm1VCZRIcmmF9npDPiwiB1rKRaetQ4Y2yA9pBoo5A8VGKSJsgofVMwVo0uqnikb6bkWvhfaaKtTjJKdCiZYbTHJ8PjF3Coy5tQoJW2GN0EBVanDKydy6OjEakFRgPlpIedyajIzT4lgbTZc7eUzR5m7hT6zGvUhcwptYjTqULrUbaIuDRnKY+31ZsTo8nJas1amsDs5joviT22mOHcsFPRPccU+aFywQe75lM0ed12i8dYXmqT4W77mEn+qwdYRnla1YLmtc0T0SVg7dYq0K068T3WWE0Ubw9tblq9h+vCgG7grDNwWRh7ML2eGtQwBZCLcnYPHQ6fUqOEWBnd6rIf5H+qMJptHKJr7TqPoo3SSV6f0VmTtPonNktE5tKGW4mqku9q978q9/XQ1f1HC31VZssegNG9dLqCrJwfVWn9mrb+zKyjuzcjMbbfduQeeByyvyO9FhDGTtGZ4eNBosnhL+g95omOYxoaAc3cnTNtN0rLM71lmb1loz1rKs3rKRF2kVCfMzo9IaVlo+ILKx8QWUZxBPLHMLbWlQQiK1V9aqQWDUKOZrhpVpu9Wm71Ub1UInRzVcb+lKBid1c70mmPxXjrNxP4tyEbpJanRifDG81IQYGPFNFlOiY9wJGe7MDFMT3ppBaCDpxTQ2nsI3ivknNDhRRRZMFSdDCGydVvP+ye20xze5YK05SS4yKN0bKt6kM2YXJMzHcr0mhviF6XB4nnRQ9y9lkbqSpuDzE530TIms0euOSASSv6jQIMwtpFCKY8LdV9kdX+1G0NY1vcm6PM3cMbZeTvzpuqOV18Ba4ujOk6EIZHnp6EBQXOvFkQJC4HTpGLDHdFrfNQikTU267Qbx123mdfNaZT3XMLoJYHbiojlJnP5pxpGw16yrXuM+5Qy2Rozb0ekXOBTXgjSspW23uULqEbipXuL7AQ0Yq3v4jpiQ0XToKi2beWODXKj6OEHEW1tqI9G78flecOmw87ztLblAqBPaDZzdast3BWW7grLdysM4QrDOEKSNmbo9afDZNaKLJOGqFkouALIxcKyMfCnQx8KEMe76rIR9/qjCwdbvVRMDnuNSsn8zvVSQno9N2srB4ysk7tXKw7tCsm/tCiyTql+ifHLWP3nxblZl4/oqTcbfRUl3tXvO5e9+VOytpmZqrLwj1VZetg9VWXsx6q1J2f1VqTs/qspJltmdVW5Oyd9FbfXZlZR/ZOVt3A5ZR3ZOT/eOkbk3VzKB8jGlhidmKyjuyf8ARW39m5W3dmVbkpsiqOlY9ro/iPWg6eg939V7zgHqve8I9V77c1e+6rKhy2Tbqqk/E30VJ+JipLxN9FSTjHopWzWHdMaD1ICamu30VmbtG+i6ei22qLJHNLS5vomMnaKWm+ikbNZHSbrDqQE3G30VmXjHorMnGPRWJe1+isydp9E5stuP3m/qRbL2n0QZJxj0ViTtPoqScf0VmXj+isyZV3T+EdSszcbfRUm42+ipN1vb6KNr3zV69KpNxt9FGJul026x6lZm42+ipNxt9FZl4x6KzJxj0WF1ylK9SY2Ww3p9W5WJO0+isSdp9FZfxqy/iUjZKZndao7iVH7wqScQ9FSTeF73e1HK2+rQun3L3nXRdPuUodJNZ3L3m4JmWz9EaV73cPVe83BdJdPcn5SyaAIZWmqPVVfwqsnAqycP1VZOFOL7begqv4VV3CgX8Kq7cqu4U17s/QKjfUuNCrXcVbVsLDXtdYAUMTsnUJx6NFJsAgP6ccqqLPG9MtWs3Us7iXUQacl3qE1nx5738S/CTdA5XepQ7JvLEdCgbpRHvsTdJTgWOr1JrgRc/E8rztdt46RededoxPhobTSo5s9HYzjlNGKAdGuI3nnU8V46ReO1HhN4a7/K83r53otm3EMNitUNQgQdGJ5oxx7kx7XjMVLJhAr0fNYI1z5HuPU0+pULKy2arJzN0PTs7BXeFJLk6ZlJhtkZmoaByxnSL34x72jGdCYxrK068TKdIfMbvs/vi8nNpTNAxOwljX2UJ4z14nPaNJQNbpItZyg9u/EVHM0OdUZygQdBQunQnSNbpTcJDnhtLh0tvHMHKMdG5hlbaa2jQO5HBmlxKLXhlnSmguYmR0ZZUUVipqqDE0WcLPf9j/EtVnNM0Dld6lDs24nyNZpKZIx2gqyK1xN1nI0KLHNNWpkgOlVGL8TyvHWbed1c7xu1Cc4U0rKtWV+VPFakNUcpbmOJ2jHhBzBRijRidovO6ud52lt47RvI3vjPIXJXFsbiFBIZI6uQ68VQBnQNdBxxagxBrXYWGnQSVFgxikq2Q2d2LDT0WtWBiltYUfd+awMUirvKjzYU3mcUmr5j91RYWGh/dcPVe/FPgF6erZS5NdaaDdZqt5YsNb0mnuUcMb4mnromNstAqsJ23mEKxSU6jdkjDyKoAxTt543gDCW10FNisuqCrYbpTZGu67h0Isa7SFK3JyhwQOKa1YzKB5cACeu9JocENFzDwMm0/Mm6o+wLGlwP2P8AEtSPmo9RvK9Bs2omgqmAyylxRwdvw9EptaZ8Q1nYy1p6lk2rJd6s+9pa+FWDvQa7eqP3rprpoukzVCtncsp3LKNWUarTd6Lhmz9aqN6qN6qN6tN3q21OkFFlO5Wn7l7xWTvWTCLWgING5ZlRZJpxO0Y39OQY36PMXpNA8QvO0s5/6vHas8JuS4SBmbpUWFVD7eYtXtlJSSOjiMksklGGibhIbmk0qfZOUOEMjFHVU0tqjWO0qIPDAHGveuhhO8UKEFnUNCjM+M+8b5hA1AIUWp64oelhYPiOPCOlM1qiYGt5rDDqqAWYYx3fuqtbhIO4lZd5Di2PME54fED3t/fFhrdHJQutRMPdi6l7T06Fq9qYmSNfouTSZN4NK5kZ2dSM7bNUMLbaoQi975qBydhNg0cFhNLFe9YLMNQ+SMzi6ywLKOkpnI3oBwz28yqEzUbyxYZoj81g2xZiwvWzKbPZPfitN3rCCRHUFYK8uZnOeqOkLC8zgU3QMWE7RnMYnCuFUdozoRNDrQxGZg68UzniXuQ0BYS2rOSwd1YxinlYGuaT1KKQByY+0K0uvzvAu4fsPNM1G8sZIH238R1Gc1E6rG8sVVXHFmZRYQTYWD6vPEXgODcTdZ14n3o8N52szHQblZG5WWp7Rm5rJhWGqw1WGqw1OaKXn6LztGKqizyE43aL0uhviF53w87x2jORuRjKYQBzKw0Bsld4TYQYCOstBWCO9zZ625lguu/ksKzuKfsT4Vg7GyWw4dSLTFNZO/Fgmu/FhZ6LWqEUjaNwUZq3zKeeg7ksDHvJHd1PXE99gK3WWrWklROJaKtosM1hyQzM8kc7/NBoDbKLWxtp8wxYUPd8isDPuqbjjljY+zaHWvYmcTlFCI6561uYVT6KFpe8Dq61J0HuHejg4yI4tKwTPI7uCwo1lKePcHmmx1iLxpa5YIfeHwp7bE4PUVSoUzQ3VKjmoxraVKFetYY7OBuCiFmNnLFhTKUcFFl3NaQRRDQjDGTWilbVhCwTS9dYWFjMFDniZyxYZ8JQ0BTxnXbpBTJmuag4OCMbD1Yp47bVFasNruThVpCwc2ZS3fiLGk1LVJ0Jge+9+Ndw77uVDs2cseE9SGgfa/xHZN8Sha3JszdSybNyybNyMLTv9Vkm73eqsd5ULOhru0lTxOe3M4pkpZmcvaWU1/omyOfKDVUdvQymUeKhUk3hUfvC6fcvedy978q97lxmGquluVZNwXS3IF/Aqv4U97rTPdq07gKtHhVs8BVruKtdxUktKdF2lZQUrQ+ithWwqovbvTpWWdKtt3q0FbbvVoK2zepJGU1grQPWrQ3qoVQqpxzYpDRpWDjMTjk1Tel1R4hed8PivHaR8jcggLHuJWEQZWmfOEBR/wCQLIua8ljqA9SkweVrg6M80+B4ZaOlHO3yWC5nPCwwG1aTDVrT3KBpbPLyxAOlkPTUXuZw21W1mUWj8x/dSgmNwCZK+MuDGZyhWgrpUmo7ksEbmkPeg4WATuU5rMPJSuoxxTIjLbp1JuEStzOZVUe+1I4U0UCJoKqSQOgJ71gWiXxYnyhrgE4irOaqFW5hfVyWBjoFx35lLg1t4dWm/E6N8T7TdBWTdaBonirZAsEGaQHeo4BHJUHMsJbVtdyifbYCsIAs6PNQyRsaN+9Zdm9YTGXUeNFFlHOAAQWFD3awU+65XGsa0kjrR1mrCdULB9k3FhDLbFC+RxA0NbpQ60YIydCAoMZ0JugJ7rLSUw+/GPCWVAIUZNkVuimVddw37u9QbJnLHhGsFlGtIBxOe1qbKxxoE51lpKabQB+w/iA9yPEodmzlej1cT4GOXskaZCxmgYmj3jzeO0HK87S28/QPEMZ0KbCCNCwadz3WXKQdH0xUCoMVBuUjQWnMgBuVlu5WW7lZbuVkblIxrm6EGNU+YUTIwGBWGqypWVYc5VgDrKsd5VnvKsHjKsHjKkY6xr/EFYdxqh4lR/EqHeulvUgf0KHrWdG31UXvd7V7z5V735U7K5SPV617zuXvO5e87l0+5e9+Ve9y2huqvedyOV6qIW+uiIf1UVmT5Vk3SZRrqaUGuAABGZWX8X0VHb17E3iKZgoa4OtGoUMbqH3h1nfurDu0KsHjKDPnKnBDNJUUNIwLRFdKLT7M3pE5gn2qtWEA5M51FJYid06OtaFFEQM7jU6VLG4xn3jupZPNQyOKdgjup6ZCGCgcVY+YrCW2bJzqk4p0SiMI4Cm5YyNFHac6EY3u9VYG8qzzRiGV0upZ3rJAaCVY+ZysfMVZ+Yqx8zk2MVkFo6c6ZC1miqsd5VlBgCsBRwMs0osjFwqwFk2blZCliDmnOVDEWMoVZVlWO8qz3lOZ0m5yp3WjQVzKKKywZyrPerPeVY701hBd0irPerPerPerPei3vTGmyOknMqKVTMGo+tVZPErJ4k9juj0utWDxKyeJWTxKneqd6iDrbjVUO9UKoVIH2HZ0S52DPUD3lrWgZgFaeZDnUUzi+hU+sp9m0qN1G59yYLZLyoNclPFWlQbMfYfxDY/mWD7GPw3o9Hmbw1jeO0HK87S3ned/vGcwUpzlYEfe+SdovP1TeOjFLtQLkmobz9Hned1c7ztePzvZrfle6zeZoPiN5o6IT8FBNWmndiGDxB9qmKTZuukA6Ueq98Y5XhpfzvN0XXaCmzxnrVtp68eESuYRRMeHgKgx1G/EJXNkdaTJ2ufZpikJDSUzCXVzjENGP+oB6kZpGPzp/Vzuu1SohcKkNlr2LBG0iHepIn2jZ61YMdk+qs22OKe+sYCkackO5RZ4lEbJIKe/olQaPsP4hXIfmWD7CPw3o9B53viN521ZyN52lvO87Rjwl9G0RKjkEcrT6p2EQEEWk1wcKg3XaLztGJnSmJuP1TefqoXXdXO87WZ53vj8rw1n+V5nxeI3m6ouv1Hcrx6ud47RvI3hpOOUuDSWqCYvzHTitZlldwqsrvFMbtR3JN1xzWRZyQFBiwwZwU3oyt77mEktlTdCLWkmoUfRmxEZkzozDE3Qi4DSUCDoxYWNBTHViabspowpt3CIgWOduCwPYNxEAqiMLS6qIqKJrQ0UCLGlFgpRBoaPsP4hsPNYLsGcrzNB53vjN47RvK87q53n6MUluz0dKmjnc7rKODPFKr2JzhUFRYM2OLPpQuu0G8dUo5mqD4jck1Hcr0mobz+rmLz9aPne/EHK98RvR/H4jeZqi7Ls38rzurneO0byOOSdrOa9qdpohKyyHV0pjw4uoppnNNlqZWwK6UdCjtNlACbObVl4onyClFBqJ7Q5tCo3lslknE7VK60MeF52hRgObEevE54bpQnroasJNo5woTWNvJfEpejIHIYn7bzxDQpQcr0iVGYm5m4sL6lDsBdl0Lruy7N/JYFsG/2OH/djzCwXYR8sVbkfXzvfiHledtGcjed8PO87Rcn0BQ52J+o7khddqm87VKlNGqAdC47VPK9KaMcbztHmL0mtF4v9Xjrjle+M+V6P4/GbzdUXZNR/JC6/q5i8dZuPDD0xyTW1wMeqj6TgzvQJhm7qrCK5UrCnuaG0NFgry5hqdBVmzhAHesJZVtVCLeZYPmcQnGyKrMX1r1pr69SOgo53edyZhzklRMc5ut10TGvGl1U6NrtKAAU7asWCuqwjcV8SwrqTM7RyxS7XzxNKdG12kL2ePhQWFnOAoR7kYimOlMlDik+Fdd2TUdyWBbLz/scO+7nmsFY0ws5KysmO9ZP5neqyfzFWPmKhael0viKsniKDHcZVHcSsv4voqHeqS5Q9IaFZk4h6LOqO7kbXcun3JxlyjNC6fcun3LpLp7kC/rapXPAbRvxK0/gVTwqp3Kp3K13FSvNNQoOzaCrfcVaUp6KhfQUT3iyU2VhGlZVm9ZRlNKtt3q20dadLHQ9IJr200q0FbbvCtN3qoRIoVM8ZkzMwDuuO1Suq7Ls3XnaLz6VZ4rx128je+I3mfieK8zVF2TZv8JQ0XXkAeaqq46pzhlGeaqqrDNcclD92Z4VB95b5rC9dS1LY372p7jIFgehyLGl7Xbk+yQRVYMyzU2gg1ocTVP6TCExwY41UcloJ56LuS0O80HtppVQqqTOwqDotNeJWgqqqdoUNWPcFaFvyT43vcdyFAKKqwhlekE3CejTrWDapPfiqqqSJzpNKNAxVFEZGA6VUKo3pxGUai4Whiqq4nap5LAtmfF/Y4b93csE+7x3ovj8V747ztozzvP8Ah8V52rcfoUJ6bgnZ2kIXXtBaeSDRTQqBWG7grDOEKy3cjGzP0QrIMgb3qw3csmzcrACLGlPjGTOnQmsAasmN59VYG8qz3lWO8qVvu3Z0G95VFZPEVZ71ZPGVIx1naHSFZPErLuNWXcaDXcVVZdxp7H1j6fxKw/j+isP41Q8Ssu4lZPEnB+VZ081CrJ4lZPErJ4irHzFU70Ge9JqdAVnvKsfMVZ7ysn3n1RZ3n1UcYDn6dO9WB3qyFZCyYWTb3+qijAjAKsBWQqBWGqSNpjdm6k1jbIosmzhQiZwrJs4QsmzhCljZZ1RpH7rJRcDVk2cIVhnCFYbwqyNyfGzKR9EdasM4QsmzhCycZ+EKw2lKLIxVrYCng6XRao2DJtBCEbBoaFZG5UG5WG8ITI2ivRGlWRuVAixp0hWWjqTmiycyMMbxnavZRXXNFZG5UCoNyc1ubN1qy3cFQKioqDcrAt1p1KgVAqBUCst3BMaB1daoqKioE9osnMgBTQnsBaRRYOdLSFZbuVPe+SIFRmVArLdyshWQnMBB5LAtD+f9jhn3d6wP7uy9H8XivfH5Xn67LzurnedouHQos0qOgoaLp0IXTmBUI94Tddqnkhouy7N/I3n6Lz/h8V467fO98RvN1n8/9XmaLrtV3JN0C7Jq+YvP14/O98V4dd4XTe+K8Lp0FDRiZGGk9+IbRyOkXsC0y8/7HDPu8iwL7uy9Hpf4r34v5bztZl6TR53n6pQxnQmbUI6ELzdAuy6pWD6punQm6ouy7N/JDRdfq3pPg8V46zb3xXm60nP/AFeZo87rtU8k3VF1+refrR873xG83rulDRddovfFeHXdOgoaLjNdyPVewTXm8X9jhn3d6wLYNvM0u53vxPK8/WZefo87z9UoaLjNsj1oaBd6k3VF2bQos0bbpTdUXZdm/wAJTdAuv1Tef8PivO12ed74/K8NZ/O83/d06Cmaouv1bz9MfO98fleb187pTdAum98QvDrunQU3Rcj1no9V7BttNz/scM+7yclgX3dt5ml/ivfieV6TSznek1bztU3OpDbNXUm6LzdUXZs5omaovM1Rdk1Hck3VF1+qbssLn6H0QtMna218d46zb1elebtJPK8zr5m6dCi2bOV2TUN5+lnO98V4dd5ui6dF46wvDSbpTNUXGaz069B95mH9jhewk5LA2AwN0oRDid6rJ/MVk/ncrHzFWTxFMa63J0zrKy7jVl3ErLuNWXcSo7erMmV1ho3Kj94VJN4VJa6Qun3Lp9ykt1j0aULe5dPcF0l7zhHqqu3KVzg3V6wqvzdFWncKtO4VU7laPAU99GnolNfUapVruKtdatjvVr3gVsKOVpAVoK21W271bbvRe2mlRyssirupB7T1q0FabvCqFWsoTSKaVVVVcVVHSw3lddqu5JmqOV1+obrjQVTOlMDuNbzjnZe+Pyx1xVQcLb/JVCqN6qFUK0N6Y4dLP1lWhvCtN3hW27wrQ3ovbTOVFLHk2dMaoQkYfiCtN3q03eso3enyMs6wWVZTWVtp61baOtB7SrYUkjax5/iVoK2ratjv9FbCyrbfXo3LKDv9FaHerXNWlaTZKud//Fb5oOVUSrXcUyUFo6LvRWuatc1aVruKkfQaCrXcVa7irXcrXcVb7ii/pDolV7lVVVe5V7kHm07olV7iq9ytdytdytdyjeS0dEq0eEq38pVo7kxxtPzJzs2jrVe5Wu5Wu5W+4q13FQn+ql/scK+7yclgOwHO83S698YvSaWc7zx0bzhVpTdUXPxW4m6ou0UbQGNzKg3Kg3Ky3cnBtNCja0uOZNjbZ0Ky3csmzcslHwrJR7lYbuUbGhoVhqDAFYCsp8QsnO7RvUcYsNznRvWTG8+qsd5VjvKonsq05yrHzFWM+kqx8xVj5isJzM06VFH7svr8QQZ8zlZ71Y7yrHeUWDvT4gXM06Vk29/qrIVgKyFk2bkYorWqg1u5ZKPhVhu5ZNm5WG7gmxRiWTojqVhh0tCycfAFk2cAQY3crLdyja3pZusqgVAqDcs2KIUjYO668dAoXXjU8V74xyvN1n87zdW6/VvHSLw1nXmaouM13p15n3x/L+xwrYSclgOwHO83WdeOuLz/AIed5+i87VKboFx20GIZxeYeiLj9UqHrQ0Xhd6kzVbyuu1ShouYYc7OSy9mNrKdY/e87SzneOm8Nq/yvN6+d6PUF1+qeV5/w+K98QvdZvN0XTovO6r3Wb0eqLjdo9G8PvruX9jhOxk5LAdgOd5p6cl47RvI3pPg53napQunQU3QLn4vniZovM0XCmpui83RdKZqN5XXapQ0XMLjc5oLepPNS3mLz9LPFeOsOV4bR3IXmfFzvR6guv1HU3Xpfg8YvEdIG98RvN0XXaLztLed74jebouDaOTtF45sN/L/Y4TsJPCsA2HnebtJLx123pNA53n6pvFN0C5pk88TNW83RcKCF4aL0Zqxp7rrtBTdF3DtKBzC6/wCHxXusXvxHeEXm6Xc70OzbdOgoXZdA8QvHWF74jeZo87rtU3nfDzvdd5mi4NqUdF5/3xvL+xwjYyclgGy81W60+8k8rztYXpfh53n6pQ0Xm6oxnQm6+JmrjrjbeBvN0Xo9Rt12qeSboF3DdbyTdA5XX/DzvHWF78Z3hF4aTei1B53X6ruSGi7JqjxD97x1m3viN5t12qULruq98XlebcGuUdCF2X73Hy/sZ9k/ksBZWKtTpWS+dysfMVYPGUI3D8Qqy7jKa12Uf0tysu4lZfxqj+JWX8Ssy8Y9E4SZRnSHWg2Xib6IiXeFSbe1e97l0lMXgDRpXSXT3BdPcFV+4KsldUeqeZLLuh1b010nWz6oF3CrTuBVO5WjwFOeR8JKjkNkdByt9xVrmi/NoQPvBzVvuTJAQrQQc1WgrQVpu9Me09ats4grbd6qFabvVpu8IPbvVQrTd4WbG1wVcVVXFFs23ToKbqi4TQVUptyHFVVCqFUb1I5vRzjWCtN3q03eFaG8K23iCts4gjNFab02+qEjOILKMPxBW271lG7wsowfEsrHlj0vhCyse9ZVnEhKw9athZRvf6JszLThn9FlW9/osoO/0WVb83oVlAd/orXNQydDVdpPUrfc70VvPqu9FlPkcrZ4HJ8hsv8Adv0JrzQe7crTuAq07syrT+zP0Vp3AfopXPsah1m/ug5/AVak7P6qsnZ/VVfwfVVdwpxdaZ0d66W5dLcunw/VVk4R6rp7kDJlHdEaB1rpbl0ty6S6W5G3uCYZKHMNO9dPuXT3BdJdPuT7dl2jQhbsjQunuC6fcvedy6fcpLfR0ay6Xcul3Lpdy6fcul3Lp5Tq0LOukul3Lpdy6fco8pnzjSulvXS3qj94TbVt6eHWTnQtU0rOqO3qjlnU1faYv7GbZP5L+H7LzvDXdecBabel1RzF52goaBej1RjOgpm0xRigPM3mileaoFQbkaBUac9FQbkGM4QrIVlu5UG5UCoE1jR1KgVkLJt3KwzcsmzcoYmWBmVhtVk2DqQjaNAWSZuRhjoej1JkEVgZupZGPcsjHwp4ZGK2VI8n4UMHpE5zhnWRj4VkmH4QslHwhZNnCFko+AKSNlGZhrhWW7grLdyoNyoNyoNyc0W2nFmufjfkvN1n870er5m67VdyTNUcrs2p5j97x0i98V5v+7p0FDRdd1c73xXmdfO5HrOR0FC7hO3hQ/sJtk/ksA2R53hrm8dZt6XV8xedqlN1ReZqjG7QVHtMTbwxvTNH2Au0UerdKboFygUuyfyvSaB4heOlt78X8t4az+d6PQfEbp0Hkm6ouy6nmP3vHSL3xXhdOhDRdd1c73x+V5vXzuRdZR0IXcK2sPND+wm2T+S/h2yd4r34h5XnaW3n5moXXaCmaovM0YzqlR6+Jt4deNyH2AvRavmb0edjeV2bZSeEoaLsgzeYvO0tvHajw3hrOvRjonxH97p0JmqOV2XUPledpZzvfH5Xh13ToKboF1+gc73xXm/FzxuNGlR6oR0IaLuGa0PiQx1+wLqEZtN2TZu5L+H7N/O9+K7ledpbelNGG8dBTNUcr0ejFnTtU8lHrYheHXjch9gOu9Hq+Zul1NKi2beV2XZv8JQ0C7Jq+YvO0t53jtByvfEb0fX4jdKZqN5XZdmVIXZVlEx1RcdXo873xeV4dfO6dCbqi67q53vivN6+eOXqCCKGi7hn4XiQ/sHapX8P0SDvvV975Xn6W3pdmbxTNUXmaPPG7VKj2mIXh143IYuu8Ovnej0HxG81psgsPkmydRzG5Js38kCKC7Jq+YuvfYbVZSV+cDQUw2mg3Tri8Nc3mfF4jej1G8rsuzcpqZSF3engjpBNcHCuM9Vxzg0Z0CCKhfH5Xh13m6LrtHne67plaHWUw53c8dbUnJSuIFQmSWghou4bqx+JDQP7B+qVgTLWU6RGdZN3auWSd2rvosk/tT9FYf2iycnbfRCOTKbTq3IMfx/RWJK64pyRbJ1OCsy8Q9FZl4m+ikE1W526ypPxNVJKaQvffKvf/Kvf/IpMvYOZqBnzdFnqqz8LfVVm4R6qsvAPVVn7MeqLpqbL6qOSSyPd/VWpOzKtP7NW39mVbd2blbPA5MkdTZu0ov8Alcsr/jf6Iy9E5neiY6jxpWVG53ohMM+Z3ossz5vQrLN7/RZRqyrFlWb02ZhcRVZRu9W271lYuMLKx8QWVj4gso2pzq23erbOILKR8YWUj4gspHxBCWOrukNKyjOILKM42+qykfGPVZRnEPVZWPjb6qOWOh6Q1isoziCyjONvqsrHxt9VlY+NvqsrHxt9UyRlkdJvqnvhOl7fVZUN+NpHNZeI/G31WVj42+qdNFZd026N6kduKZPHYbV7a0WWj4wsvDxhe0Q8SdhEdnWWWjArX6FZePv/AElZdnzfpKyzfm/SVhMoIFK/smyBkcQsv78yEopqSfpWV/xyeiynyP8ARW/ld6IyU+ByM3Tb0HUoUJD2b/RZQ9k9Wz2bllD2b/osoezf9FlTaPun/RZR3ZO+itu7N30Vt/ZO+itv7E+oVuTsj6hRvl6XuviPWrUnZfVWpey/7lal7MeqrNwD9SrNwN/V/wD8URmybei3RvXv9zPUr3/yL33yL33yKXLZN+poU2UsAmz5IZUgZ2KzLpq30VJt7fRUm4m+ie2bodJuncqTcTfRUl4h6KzLxj0T2PLdI9FDbLczgKdysyW9caNysy9oPRWZOP6Ky/j+isP7T6Kw/tPomtfV/T61Zdxqw/tD6Kw7tCrD+0KsO7QpkbqD3hVh3aFWHdoVYd2jvorJ4ipGEt1utWTxFT1zdJRglg6RVg8ZVk8RRZ0h0irB43LJ/O5BnzFWO8qeOlHZ1C20DnOlZP5nKTM3SalNioNJUrOgdKibvTGdAaVYHesmO9ZNvf6qwFhrQGNPem6B/YHQV/DtEnO8R7zyvOGjnel2buSGgXoxRovN68btBUY6eIaTeDek478dAqBZkGipVBuVAqDcrI3KyNyaxoc/ojOVZbuCst4QrDOEKwzhCsM4Qo2s6fRGuVYZwhWW7grLeEKwzhCsM4QmRtA1QrDeEKw3hCMLa1AzoWK0LQDyTmtsnMNClCwce5Zm6lmxyDoG7hed7RyTho7jdeLTHDuWDZpKc7sryxtQoX2nureZ8XivR6ouv1SnisZ5KA+6bcd1c7hUGZ7wvi8rw0m8NF12jFNnkTdAx9YuyirCsH0uVU0FxtHyxSajuSg60NF3Dtj5pmqP7A6F/D9Mt47Qcrz+rnek1Hck3QOV5ui8MbtBTdcYhpNw1xdf2Fo1uNOd16P4/FebouOaHaUS5mtnG9TFRNpG0dykfYbaoVFhLJDTQe/FJqG7P95Z4mp3VzTntbpNEyRjtBuDo4S3ndwrVasHZod3XmaX+JPfZpmTZieSa8O0Y2Z2i7IaMce5fCsGPRcNzrjXuc83Ytq5fErTQaVujScZKDwcTdGNxp1YnaMQNZfPG91FV1RVA9yrjKYbMi2h+X98b9R3JYP1oaLuG7HzTNRvL+x/h+tLeO1aO43n9V6TUdyTdUXm6LwuN18Q1jcKCGn7Cme51m834ud5ui7K8NapCmYK5wByykaY32bZKHQl6Q686qYzp6P7LCZSOiFg7Hiji85+q5hWadju9qcpWW2FYPJbFCM4RcAQN6tN3jE8H2jzRwmNvemOtCtCOePC/hUWq3w3m6X+JS6hUTRk6b0yrJadWOPM0XZKWH8kJGWdKwf4+eOV1lihBsV3m70sqQKLp1TXVkc7cmzG2ApHUkCJfZtWllc2cK30SUwnWTJLRonFAUfRGrXJmjGX00oOBT9VdShzuVVVOkLn1CY+1TEzO9xVcRICGeXzuS7NywfrTdF3DNj5qLZt5f2OA68t47ZvhvP0ed52qU3QLzbw0m4Np54viN4axvdeI3Os3hpdebo87uEDVUysGw1zNNB5rCXAuB9VhGuStaPPwo9KgQ0XMNZVgITH24mu5YoM07uSwjQD3pkQliLviUErqFjtIUji91K5qpkbG6BcnsE9J2jqGkoPmcQGCzmTGvGs+uJzXHQ6iyFdLygKCibrP5qXUKi1An7UeLGzVRyloUpTrxnQsnaZUqwwM0LB9DjvOOfpODV1Xf8AzAR1ghUFwQFJGKZhNCFY6FEyOyE5lLdE3PQIxkOqFZIcpBntUT85CZq4yR1oNAzp2qpTSJyibaCDB3otzKEVJVkNc2iIqmN6astCznQn0jaXdagFX1uT7M96g1U3RdwzYOUOzZy/scB2s1521ZyN6StnzF52gpuqLzbzdLudw7TF8RvfFe673WbzdZ/O8268VapU3Qp4coO9CGQuDSupGKMVNnqQ0XHAOBCiOSkdG7rObE0Uwl3JEBwoUxgYKBMYcu89SwiMBzKXcJaGuHeENf8ALjfIGEA+qOFQimfE3WfzThaaQmPMdprhyUYtyWupuNmr5m78KkNIlBsm45Iw/mqP6zmQzXJhnD1UGyjG0mt34jdstTdGOTXGKQ9B3JT6gUIozE7QVCdKOkYtEizKqlBe8bgoqNJFVUKoVQp3VcAmkAaUHt3q0FaCtDerbd6wtwMDhVQbJnL+xwQEzTZ6INfxqxJx/RWX8f0ViXtPorMnF9EWyZWPpjr6lSTeFSbjb6Kkm8Kku8Kku8KXK2dLUMv8i9512Ucp1UXT7l0k+1ZNAojJk25hoQMtdUU5qsvAPVVk4fquluRtblEXGvR61U7lU7lnVTuQceAprzacLJVs8DlVVUmug7N1q37wjPoVrmrXNBw71bA3+itBZRtvr0bllG9/oqhGVnf6K2Fbaso20QrYVVbai9o0rKNWVZbIqrYWUbvWXj3rLR71lG70yVhe/mrbQso1ZRitLKt7/RRyMNdOncsqzv8ARZRvf6LKt7/RZQd/osq3c79JTs6yo4XeiyvyP9E/pfA8HqNE2R2gsdVPe6w73btCD3UHunfRWncBVXcKtSdn9Vak4PqsIY57dnn31UUcjASc55qsnZj1VZuAfqQt7l09w9VLlDkxZGtvXvNw9V09wQynWB6rp7gp7Re3Mqy29VujevfcLfVe84W+qo86WtorG5jF7z5U3K25NTT/AKVJN7UWOdps+isv6i30VJeNvoqS9oP0qJstnX6z1Jhe+vS0dysv7T6Ky7jKsniKcx2fpnQnVIYy0hGe0d9FYPG5WDxuVk8ZUkZs6ztIVnvKsd5VjvKs96sjiKLG2mdI0z9aoziPqqt3ldCnWqM+b1KqzeVRts9J3qrDN59SpaNbpPqgwd/qsm1ZNqZG0dSshWQpGdIFWGnqUkTSxwopmijUyJlkZlk2blYbuWSZuTmCrcyst3LJsPUrDdysjcrDOEIMbbPRCst3KyFQbk5vvPNWQmtA6lQKiosywrYPWD7FnL+xwT7xNedtGed6TUvHQVFs28rzevneGk43YU0HRmUkzbRovaXnVFFV7nVqaqK1YFo1N34r3xXqe8dyvN2knMXmfF4r0QGTbcey1zGgom0xw7kNAuyavog5u+674Od0sBcDuVOn5XhrPvM0HmVANbnccaDyULakv9LrtCtLKBVerLt6yaMbahWWqjV0VVqqNyzV1VZ7k9rqFBwoM6tOVXoOfuVt1VlFbaqo6EWhwF06Re+LE40Ca60iypriF3Cdg9YNsI+X9jgv3qbzvP2kfnefq34tm283rvDWOPCmUd3IUQpRQNq+98V7rvfGeV5uu+8Ou9DsxdlbmJGlMNWi7Ls3JjSbVDoUTrTBW4/TH4rk8jg6gKjrYFV8Q5XhrvvM6+ZVLjmhwzqLZs5XC8BOLjVNG9BoGOqJNQukrKshWRuVAviOJ2qUzSgKhWSNCYcVAsm1ZM9RRc5ozpr24nGiBriOluKuMmir0/LE4VCizPIxt6+d3CNg9YLsGcv7HBvvc3neftI70uoULpUOzbeb8V4axxzMthEJiibZ9L3xYq4mnF8V78U+EYijr1xt2snlebpdzvQijPW67VdyWgNcPNDRcm2blg46UnJQ5gbklKx+JWhXTjwjXQ0BHXHJF4asrVBztyyhGkIEEIbSTyuVGKP4vEb0WzZyxOeAqFyDQE/VKF12lnNVF348UlULKGbFTSUCqq0MT9R3JZMUzK05hzozAk5kJAgap3UnPzFQ6Tjnz0Tdbyxja429d3CNi/ksF2LP7HB/vkt6TXj53pNQoXotQXm6Xc7w1zic4NGcoyu6gp2iloDSmD3gT3Wc6gmL3EG78fljcmYvj8scklBmUcxLqHF+L+XG8aENGIbV/IXmaX870Wp5m71JuqOS1XUuSnopsjWWt5TcIY3MRm3rIN0tcR+yErmODX154nutFo3uTWgaBjnHvDikJHom1e6iDA3QgiKiiaCx43FN2r/LGWAoxDeUWujIoojmd4rhNEDUKHZN5J7tyazfjkkz0TXjcmuBuTP6goWmtrHV25Wnbk3WxS1CYOmOeMdaonCqAAxHQU3VCIqrAEjmOPe3vQhIGfSo6p3SpzTo+jpUNrEVI1yYDjj2mMaTdn2T+SwTYM/sYPvsl6TWi8V6Q9B3JDQL0OoLw0m9+IeSfIGprC/pORAoVZ93RRMAkzqb/SwXXOIEYztW8ipGuI6LqJhlGvnRzhCrUCpXm3RpTZ5Wu6WcKR9BmRzLRQhTSO0glRSkkl25HCGEEZ0Dn0ppq1DENo7kLw0u53odTzN6LZt5JwqE01GKV1MwUjKN051g7G2K0T4mubSigfQmN3kpupMeWCyfJfHH4rk+Z6GhOHTbyKIyb89abwh0mkh7T3darZIBGlGZoXtI6m1QMltxs9QTC/4lI6jVE6rMUpzLB9U8zeh2LeSZnNcZcimaAqKuKSSg050M5bU9aq3erTd4Vtu8LKM4m+qyw7vVNkbb1hoVtnEPVTOaQM6bpasoziCysfG31Qmiz9MLKx8QWXZXSstHxLKs4kZ4s/STZWBjanqWVZxKXIytoToTN1tysQdZRkjFmiyzN6DowTRyyrVlG96MjNGf0TXhr+v0WUb3+iMg7/RRu6egrKfK70WU+V3ohJnPRcsp8jvRZQ8DlbPAVbPAVM85J/QOhYHsG/2LK+2yUKszcY9FZn42+isz8TfRBs/W9voqYRxM9FJlw6PO3WVMI3sVJ97FTCPkVMI+RHL/ACqT2jJv1NCb7RZGZnqv6jcz1X9Rub6quE8DPVVwjgb6q1PwN9VEZbGZg9Vam4B6qs3Zj1VZuzHqrU3ZD1VqXs/qmultO6H1VqTs/qrb+zKtydkfULKPze6d9Fbd2TllH5R1I3aFbeDV7Cm4Q0/CVbPZuRkFnVchKA7QVLMHUoCoJKOPRKfPXNZPmnWm0ItBMwirR0HeQWW+R/onzHKNox2g9SfhJb8J80JwRqP9E7CXg5hmTMIDmVslOmdaqKprxb6VVI+0a0KdI+y3on0TnVY3MVlKx0o70RdVB9l1KLMWk0d6KMN66oS0FLD/AEWW+R/ost/jk9EJPeuOTfoHUst/ik9FlT2Uiyh7J6yjuyeso7s3pkjrUnunae5ZR/Yv+iyj+xd6hZSTsT6hW5OxPqFbl7H6qJ0tk+6+I9atTdl/3K1N2Q/Uqz9m39SrPwN/Uqz8DPVRZfJtoGaN69//AI/qvfB/wZ+a/qP8f1TxNVpNhT5T4i3yTGzhooWehVJ+OP8ASf8A+qSCR5qXM9FYn1fqnRSuGdzM3dRZOUAHMOkFZm7QfpVmbtR+lWZu1/7VOySlS+vlRRZRzM0g/SnNlykfvN/wqzJ2g/Sjgtfj9Asg6u2PovZN8p9E2FzdElPyhFkokfSUk2R1BVwje76LJzObncVHudI9qcWj8Z/qhGZM5JUcI6XTfp4lkRxyfqKyLd7/ANRWRZ836isiz5v1FCJmVs9XNRQR5IZs/NRRMz1GdZCLhWRi4VkIuAKSMN0NzKNkLxma0rIwkajVkoezb6LIxdm30RghIpYCdABTo2kGjsh6IRtJ1B6KwzgCycfA30WTZwj0WTjyuoNCsM4QpmtpmAUbauCsN3BUG5NAtPzdeKLSbjNQYjoTG1cUzOE/q53jtByxPzNKg0nGNLrsuzfyWB7Ef2LPv7vO9L+H4r0uzfyTNUcr0ejzvN133qe88sT4WHV0oSPjNHZwrTXMqNCsh1ruUekjuWDa7uSefe+alzxrBfixHaN5FYSFHsfJNiJLsx0IWh0FLHZjCjYXaEY5C7QqZgE5jXNomsAZZTYX5TRmTmNdI2o6lQUojWJ6BBzjGNs7kLzdZ/O9FoPiN6HZM5YnDMgjnCmNooXZdVvjbcIBFFkZGOqwqhqypz58fxY/xneEYy1p0iqEbB8IxM0yeK63alQ6gVbEnccZNAqZiUYWuz6D3LJydogySo6eN/w873x+WKfOQAomODs6rTTibpdzR0KLruM1G4joUWs5R6TzTtHneOuOWKTVUTaDGNJuy7N/JYHsfP7PrvM/8Qfem/D8V0KTUdyUeo3lei0Hmbw13YnoaMf4vkio5AD0lO9jhmOdQNJa8L3gtNoVEwhwr1gprXxSVpUJzDJ3IjCKWaVCgjLcR12+aewPTG2G0xUWE6oWDa1w9HEdoOWJzGuGdWJ4ibHSG5NklP4dMX4x8NwpqGs69HTpeI3odkzliOhM0DE+NtHGmeiGi7LqjxN/e87Wj88Z1sf4x8AvM1pPF/q61lCVDsx5p7LTaKJxHRd1YqVTtm7khouyfD4heLzXrWUovaNyEsj7VG6VWcilFGCG503Xk54g0C5GegMUjk11G5utMFE/R53nbRvI3hrOuyajuSwPZef9iP8AxA3pvg8QujSn6ruSj2beV6LQfEbw2juQxOTdGM7UcsT4WOQwWOu9UpidtI/PEMQxO2kfndnaSxQB1tdJdJVKc42U1zqaEX+8byKtlB6tncrRVtWvenwqp3K0VbKqUHFAm25WiquXSXSXSUdrpc0KrpLpLpKhUVqwFRy6SAKzp9bLuSbashVcqlWirR3KVxsfmH7q0aq0rStK0nHpMVpBycc6qFUKvvvyKqrcbryc/wDWKqqqqqiPR8z+6qUW1VaayCdqnkhouyaB4heeyrhQ0ToaVcXLSmCjQMbdd92oTHgMCtnqQDnlNjAxP1fO87aN5G98Ruv1HclgWyPiNyv2v/8Aof8Azdem0M8QvO1TyUWzZyvRfH4jeG1dyGJwuHajledtI/NHEUDiNLTbxAtNuEA6UEdqzwnFQY6L/wAx+S4U1Ae9dei/E8ZvQ7Nt1+o7km6ouzanmP3uUVE8dKPmqIgtPcqWnKyrKp76nyKyrKsqyrKaOlJz/wBKishUVMUWqfEf3xkAqwRqpz+iapp6IuyaBzF6QG22m5PEhGdQRZ7RHLHaCtAOcratlVcrLlk1G0EVQAQGN+i87aM873xnFlG2rPXjdqu5LBHAMNeJArK56LqWdrk05vtP/P3p9VviF46CoT7tvK9F8fivDau5XjtW8jedtI/O87WbeOkXTpR2jeRvf+Y/JcKahtHeV6LTJ4r0Qoyl12q7km6ouzH3Z5j97z6VZzxFDH+OPB/u83Xk5qqtN3hW28Q9VlGcbfVZRnG31UUkYB6bdY9fenTtqLJBTZ46Z3BZWLjCy0XGEZ2EHOg+GyOkrUfGsq3jWWWW/wDlE6UUWUWUWVWVWV7kZOkNKyjtx9Fafud6K07c5V+Vy/K5DXcDG5V/xu+itHs3K27s3fRW3dmfoso7sz9EzCQMxBQmB6irZ4CrR4SrTuAqV7rB6BQc/syi93Amy105kHg1z8ladwp5faZ0VWThHqqycI9VWXhHqvebh6omTcPVNfI56OUsnQog6pcun3L3ncnCWydGhYO2sTvEonKQUdUJugKYZqqN32klr27NSq/qN7Pqh7R8i9/8i/qPkX9R8iny9jPY1m/uvf8AyfVf1G5i/qNzPVf1HCz1XvtzfVe/4W+qiMuTbRrdG9Vn4W+qrNwN9VWbgb6qs3APVVl4B6qN0tX9Aad6rNwD1VZuAeqtS9n9Val4PqrUvZ/VWpMseh1b1ak7P6qsldn9UHSdmrcnZn1VuTsii+TKs92dBzVVuTsj6rKSdifVW39kVaf2ZVt/ZFPc+2zoFW39mVadwFWndmVad2TvorTuzKe99tnunK2/syrb+yKyj+yd9FlH9k76LKP7F3qE6V1W+6Kyr+xd9FlZOxd6hZWTsXeoWUl7IoOlrsneoTpH5Rnuj19aty9l9VlJey+qykvY/wDcspN2P/crc3ZD9SL5crXJitnRVW5+zH6lbm7Nv6lbn7NvqrU/A31X9RwM9UHT5R3RZoHWrWEbo/qq4Ruj+qrhH+P6quEf4/qv6j5PqozPakzs1s+Zf1G9noV/UcbPRf1HGz9K/qO0b+lUm7QfpUIms7Tr3Kk3a/8AarM3bf8AaFZm7b/tCsSdsfQJ0b6H3ztG4Jkb7LffP0dysO7Z/wBFk3ds/wCiybu1f9Fkz2r1NGcmTlHrJ/5H+qyf+R/qsn87/VZP/JJ+pZL/ACSfqUkeePpP1t6yPzyfqKMIprSfqKbG13xP/UVkW73/AKisg3e79RWRYJgM+rvKyMe76lZKPcslFwoRQn8MLIQ9m1NhiyknQb1KzCDsx6LJx8DfRWY+FvorLeEKy3hCiaOl4yphoUIzYigOi5Qt6IPddkHR8xidmFU01xnXZ53nGhce5ZUUaa6QmzWnUCeaNKaJH1dazqR7v/6mQ29Dk+LJgEHQto0UzHrTGkDOcUmpiIqskzcqUkom6E7S26dChbR7syk1CohRuPqWBar/ABJ4LXVTekEBTEOi5D7N/wD4gL0+p+Yfvfh2YvR60nO9+L5XnbZnI3nazLz9aPnek1o+d5+1i87x2w8N78Z3IXotebxXahQ6vmbp0JmqLs590+9Lpi8eNvRkxn7w3wH98bk3E3aSeSDc6cpcyYatGKP4/GVN1KLRiKp0UzO0XXaMTtBUZ6WJz6FaS298Z5KLNLim1CoNRTMrUrBtBRLXVbVQupUd6qN6qpNQoY5wQ60FEcydrM5px6JUbieu58fld3rAvxfEqXJ8zqqM1b9m/wD8QZ5Xp9mb8OzF5mvJzvfiflvO2kfnefpZzvP+HmhdfrM53DiftI/O8ds3wm9+M7wi9HtJfFcIJQaAodU8zdOhM1BcLqKR1WO3KrgEMVVaCl+Dx4naFKNCaagYjt2eAq0FWqdjbtH+SJorYtKTVUJxR/H4yptVQXI9m3kspnVRxIOzlA1TnHyqMR0JjvVW0/VqhpYqq0Ln4nkhtvPE4VaVCepOzgqA9IhZMWrSG1VqjiSmz584qrcUlQTZXVjlFphUJT9LOakl0giiiezeg9pPRNc2P8TyvYJrS87uEDoqE/Zzffo/K9hGxd5IXodmLzNpL5XvxRyvP2kZ53n6Wc7z/h53n0qznefrx+d522ZyN78Y+EXmbSXneh0HxG9Efdt5XNKlioHFp8kJep4pikdnQbn6SsjcndVepwxPTjm0Jtt/crB4k/NIzkVn6VFEemU8ua5Z7QWZNplH8gnaU9maqa7oq2PgbnTcrmURzvB4lJSznUOsbkWo3kviKkbZoVp0Jjya1W9F2eiBqmbREZynbNNr0OaLQrATa9ZCDgcXx+SG0x9Jr3Cq94EKiQ5uvE40n805pdZ5qyAMytVrWiAkaOgfJMeX1NmmI6FEc4T/AIPFiNGyeaGP4/K9gm0m53ZtmVBp+zn++x+V7CNk5C9DqeZvN2snle/FHhvP2kXnek0s8V6QanO9Lpj8WKqtKqqpNePmqhVVpVVU4++Z4Te/HPhvM2svleiGt4jeh2bbsuzfyVA5udMqx9OpSjOCmmorilKZqBOVOiodJxZ6kacy0MTKZTNuTxUtTNYpwq0qHaO5BODrWhdSbmfRNFH+eJmvL4k7VKj03GaqzWk8dFREHQj0ZU7M7QjVQda0Sp4dpb6IDoUKbpHPFPq+aijBFSEABoxHaeSdQSAuNArQ4ggpBSRpQT9DvGonVaFMferBumCOsdWJ2sUNGI1pmRc8g9NYO3On/DzxUBdnuHXHK9gu2m53cI1Fg/Wfs8J++Q+V6fYv5IaL0GqfEf3vM20nleO1byN5+vFzvSaWeK9KdTxXpKdHnek1o+d522j5G9+P+W8zay+V6P4vEb0Wzbdl1CVZcetCPPUpwqEC+LNpajONCcOiDUZyEJMnmJCModoIVqOlLbfVWmCTWHqsrF2jfVW2Wszwc3Uso2meRrVG6Bo2ra80+aPqew+aZNFxBZeEfGEJYRK42tIWXh4voV7RFvPoUZY7dRa/SVlGWvi9Csuzc/8ASVHK0Pk6L87tyy3+OT0Vs9TH+ayx7N/osr/ik9FlD2T/AKKOU2B7t30XxWsi+vkso7sn/RWj2L/on2nfhOr5KR0lg+6NQml4/CPqELVa5E/qC6ZOy/7lak7L6q1L2f8A3Jxkq33I08SrLwD1ThK4UsN9U0luYqr65qL3u5q99lG6ugr3vyIRuGhrF77exSNkpnLUwv6iPNe9pLq6VE40zaa9adXKHmsjNUOa5oRln+Jn+02eP4owssHNowdKqpJxD0VmTiHon4O457QUUT2/Entfm6fWrL+P6Kw+1rqw/tCrDu0KsO7QosOUb7x2grJntHLJntHLJnjcrHzFZP53LB9vNdwl2cBQDo/Z4X96jp3L+p3Rr+p3MX9TuZ6r+o4WeqrhHCz1U2WyT6tbSm9Az8DfVVwjgb6quEdmz9SrhHAz9SrhHAz1VcI4G+qjMtDRg071WfgHqrU3Zj1Vqfsx6q1NwD1Vqbsx6oGbKv6A0DrVZuAeqtTdmPVWp+yH6lan7IfqVZuD6oulyjfd/VWp+yH6lWfsx6q1N2Q/UrU3Z/VWpuzHqnumtR+7GnerU/ZD9SrP2Y9Vbn7IfqVZuzHqrU3Zj1Ujpej0Brb0HT9mP1K1P2bf1K1hHA31VZ+Bv6lawjs2/qUpno2rG629WsI4G+qrhPAz1VcJ4GeqrhHAz1VcI4GeqkM/Rq1uneq4Rws9VawjhZ6quEbmL+o3M9V/U/InZerK2NK/qfkVMJ3xr+p3sVMI4meiphPEz0ThPlG9NvorM/aD9Ksz9oP0qxP2g9FYn7Ueiyc/bfRWJcrtercrEvbH0CyUvbu9AsnL2zvQLJSdu76LIydu/wCibG/KPGVcsi7t5FkXdtJ6rI/5ZPVZH/JJ6rJf5ZP1JsOt7yTTvWRHHJ+pezjjk/UV7O3if+or2Zm9/wCor2eOnxfqKjgjsDT6lezRbj6lDB4h8P1K9nh4V7PDwJ8EIY42OpNwaEtHuwvZoOyavZ4OyavZ4Oyb6LIQ9m30U0MVjZt1h1LIxU2bfRZKPgb6LJs4G+iybOBvosmzgCe1oc3MBVRgVOZUG5UCsjF+L5Xma8vP/WKlyPM267VKF1/w87x1xyuvicNUoyyUcD16UwkGqNMoanrTpLIzq20mjTVSjplNGYXX6PO8ddt6H71NdJMkh7yhmH2eF/eofJC7Psn+FM1Bei+PxG8Ns7wi87aM87z9LOd6QVs+IXptVviF6X4fFek0x870m0i873448N5u3k5C8w53870Opdk2b+RTNUXZtTzH73ptLPNQutPcbv4nleZry8/9XodTzN1+qULsmgc7x1heA6T+awgZgnQtfRDB2LQ6ikzvTNUXX6vnedrNvRfepbmEPo2m9YMzOTe//8QAKhAAAgECBQMEAwEBAQAAAAAAAAERITEQIEFRYXGR8IGhsdEwwfHhQFD/2gAIAQEAAT8hFCPQnDUjsLBvBYrB42yQriy5JX8NMESQQ8IZUrsKuDTY4DjFNYbtDaQ9jAe+c2Jy3KBVvh8BBocJwnCPbKlxGwsmCODYuJYzOgpIIwpB6YNCTFcQky4o6is4RyIVKkN2Q1aiWSFgzqw+RWNBDJqTwQ8SRpjrl0EVzLLGRiwRk0IyrJ64JrTA+JJlws0UkdmViIEsKHGBGpyMV3Y1qhLCgtuLqTow0wQ86uRgsVOOpQihb8D/AATkWNfwQRTBBBXCuFSeCpL2J4wlFWJ0DhQ2qyOAcBwFG2FTwobsLdJIT3OQ5TkFNgULCCIN3D0EtiGKleSvJ6M7jk9Brgjgh4Iw0oS8KE84+uSmEYIplvngZo/43gkJV5gkK6mCQ0LhiboQ9zojYXJKYNIYViQsbDwrjX8M5dMNBZqYrFfk5/BJ6/moUIRQjGqK74JaJ4GycJRJKJRK3JRKwoUEucYwhEDkJEQQig0UwaJIIwhEcYaEEMghsQg4BsNISEdiJAgRIECOFEiQIkDfhjhiRIEcdBc8PN4kiWFkU6lxSEyKTJRAlCqUWBMeDT2ETQnZqQ3OvCctTQqTjUZGCKFr4NmuFqYv8UZfT8SWDFkj8u4sVln8cZKYUIRA0QiEQVEKpBB1Ec4QRzhHLPVkckcs9Su4+pXc9RchytSXozqxKikqSJZL2J4J4PQZPBPBJOE4JWCUSigmiUURJQoUw7FPwRnjJBOKiGWDqPGcPT8E4UFrh0Kk/l0wX4NFlf5ozzi/wqfzvFZYFkf41/y0yQRljCEQQRjXCMII5IwggeNRtl2RThWcdsYFiyw1ljCMLfh0I/B6iI/NpnWK/wDEf51ld/wTjOecZJyTlknNp+OMYyKdaJvsPQTg5NM9MIrjrltihEY3/BOC/wCF/kj/AK4yPFY6f8z/ABqc6zL8ryTg8UySSSScEyN4Gg3OpBqPDnGSMYeS2Wc+n4dc6thGNPxoX4pNTQ0zz+OmeuEZNPxrLH4VhGbfIiPx+n/LrkYr4e9kESXGdScs4SLGScd/x6/i1/FsPDc2xjJrlbwr+Ofya4dPzTnjO/yMTSllErrCWkGiUyAnDauMIbKv1BwRpJuq5K5X/wBcGmO21F+FkMWCJwbGi1EnYcM4hxCLtgb5JJoSSSSyUeuWfxev4KDNs7yqrvkqafmoLCoQ/URnZbjvGFc0j12FK3RDXrhoipkVu4rp3JB7EpSlxhoeT9RSVORgjRaMUX9UVemV+wapWV0751902MVyaRBmnsmRnr+VTKOo0T0dsVl2tE+bghzaFu1Zxe04TNBnWRMnW4Etzeb4FcSKgosl1NV6DNUmzQwVH5SKlKSVk1/FChoW34JrjA8/vBCWRyKo2JRuXLi0tsexUybSiEU2EooNUjSFrsIlc10jWGCgLU7QxdirVwJxTNBND9wTrKJyojE7VENxTdBVXIE0NSSScZJxmmRk4LCcZ/4qfgRhBopoTM6bjgaFMcCnMsxYVYFhSNb+zFNQ0KtVgjCSkHctNXgofdGQrwJaCOzyXoO21G7wstsJto/fQYFmbqkkIiTQux9kQ3Yd1oWUi06iYGvFf8D3c0HGcoHGrGolLIYjIOxm72IqxasbjnQrpIkNCWyDpwJbtjc0oKuFc5fDHVuohvJOCxX6nq2harpFbplJAo9YobIxLe7Rf6aCpxNWJX5Yyo8r3Fc3M/UxIdyk3gdx0pfIp9Nrs8Jf/O/w7fUPbCK4PFckjPYEKtwgsIlDEVDfGEyGxxB6WhmmkbVYN+g4Q36MjSsOLDREFC1B2htEncaYShK5UK0SKmN1TeaRLqHLEbnoVItipYGN2UW8hOdySVuJk4SSJmigd5hLwnCcJJwN/k0ySK9vkhZn6JDZzl7Biddn+wo2MVrBFycP3Ge0ZAiM73+xNR06TUeS2JNiCoafzhpGSgRcejhoV0WQsNmpQ450p1shc2kmezFb2voSLBIH7kniWlc1HbOS+mGgH8k7N0WiIWq3/wAIdpdgrUal3J0l7ckEur+BAvUl1FcCnJXlwhEYoi1Kk4qXAaByIBmFvJ1K+1DmXu7nhovBiSa0GON+aDsvq2wtXZot9cGJW6GmFVX0J9zJw942wvK0Mk8q0SPkJygYnEVJOlI90dSHvk1GicEk5J/KvxL3Rcd8iwa9WKmdSFhQaqPmNR3wY3Cknj2yUJI3bBWWWNbcSJBNocQm1/QbX6Sqk0rsybQOO81YT1HpFsA5SqIDNaGjkVp7iN2FtUTFUnAyC4bKkNcThCY6B96TQjqWsawufiSauxZN16C2XTBZrHNZvqf1BbHucQ5CFcPU0/A8DiWnIu7Qi6wNoagYtCum4O76Cmto9iorLSHDjHYT2D7mo7W2n2YyuPiiJrUSsOswmDYqUbe4myINbih4o+8DVRq/RA3myUoyuLqocXGREOB6lFJuGSnovsg0IKEUpOuEDaJqPYUVy2I5CRRq6YaQDmUVolVusUza8tiSSphWEpECE+g3zBIy1E0CVfOotCbCBslqzsKKi3bck3y+BV7WEnCF2UkL0wYXEJGqomiJRbl4qk+hQTL3EKkThYYfsS5Cs0pqKYSSUJFBZhZDulTih2JC3UbwX3wcGO5WybLfCF+0l1f0/DXGcs4Tmf4Wa6ouKCxsJY2Qx/VCVGKgsZo8kiyUc7FFCJBdi4xNUNxKyEtbPks6CYwTijwQq7Mq6WuaF3+mbTiMqW9uCWlR4QpsaQrSFofwCb6j+QG4Ww0G1hQXSJJdXce87j04+pQJ6ZVUl9pHOOG/7kRTH7SCqZ6iGCmhS6uCOaPkU79SK7wOoZTeRUJcTgtyCZcPKh8MEEzKU6rc4BXUTUMq96OUhoV0VXgneS0BhrrsdeC2y5uPwNHLplkf9wt69UKSWE5W4pjgf3Brd5Ci6VFVjEBL89RopKLEx1OcjBSkjdNELyQrThV3GlIp21HfVREpkq+CCIHMDeBCFAFBHmvOhG4vdlZW/QRIlYMKpLJQkJKbkrfCSmGuEELqMHc7WGaq25Z64S9HuJISShKiQ4NhLsRSSU+pYdP1f+E94ISQimSgrkTF2py3WaIQveBorEXQ7piCoSIJAS1xllUVekeww5EaO6aNBtLRk4OGFCyew0RqHTfDQfxdSVKRLdaBaNdn1xdwxp+ApjZDVEiQ3j4nYWR/bI28fDMyg4z2zN5+2Wal7xqwjGtO7L2K/LoNNnZH8Qbr9kbb9oUWdFVe5IdceyG3b6sOPSBW32rpE4ft4Wv+cNd3wIFBK4l6Eh/zzxFge8b9tuivSRf5qP4Q/wDBP5Qpl8Apy9KVE2ZQAo/QOj9GEV94zECanwnT+ht9v/T+QUv0v7EPqi1pSdzmdn9mwwe8wFs+4JstUJbUg0Fw+svo/vTafPQ5D1/whVIrdrSmxp/rEesYsDlHrF4hJ2T+GRXLd9wjVB5/7FXzew1OJEbv6NV948z/AMIykqFUuOdSFFCgVFYp/JR5SOnehq/bP4qPIjYYb6h/XHS+oX+pNCOT5xjP+0f3xNf7ROqmX/Dvmy94a4saCpX0JlcncSUJkSDTzlSSnOzgkBQQmqfcQibO4+LbEb5b6Y9f/kXUdh8Zw9nW5lzoRmQoOmPGx8EJ0wOT01UbCw8PgZ69ZNDUzKV4onKkVDUyx9b8LN47eIWLs+h5jYl5IV/Eiyw9H8PNHxLoVsYwikcnsxjBXQ/c+fLX5VBWWVEnT5bCMieJq8qo0aGyvdlRVePk6HOE8i5DlbxE9GjkFd5w8sRRR2E0JdFyKhxqVZSKUr4oW0RP9M/nhB6uWJsGz6I337OBuuP9pjpHSaU6yeNk2vuG3X3D0H7lJ0J5FtLSXD1G6bUaM9NYImX+vyrKXvLmUwTEUPYHFxhvlJLWc3BKlVXKdEJNxBqEyuSiqmXJqOcEojRbDxMkVJQoUIhJ1HtRkkbMyrMiRJNzd7/OK80oSSIO3AilcjQdSgRRftZzGpw22vwJHqNCghnPQQv0WM9n8RkG0vdIaEP2IH0RKuGJVk9ynbIRXB7IjqhXKiCnFRhR1Xwicsu0d2E479Mea4r3RfL4HDzeS3CxWHrpyiPB55U8/QeWbrLKuP4vLYmpccx54cBGPvL7EbY2wl4F1g8ttUOqvoRczNTx+F8nplp6stFUV+p84NJGiU7pjN2zqj0CkWecfMbFBTHXMksNxFPfGMOAkUA61A3UUZBk8oEabanRyz1KRSzQcFOweuTDXIIofQNMgu25dupFXV6H9EaDiVNmNRBIiRSKVYp2CrOJuwU4CFpOiUFC96YK4zo1CUta3oSRufwwbooFRCBLpdiepnE+oo1iCJyQ5vwUyyS5ZTkCmKHZOVk6DJtVrcjJUyUaWytTAvJ5vfKYi9P4ZVcsdvl4PFPA0NT5LLZLypleKWTzuZy+e2FZZXS3Y/TB5Npq+BEVU49SoM5dzqzKY7YaMEFFwWbyUL8VXhULimEfhHSpmlsCuYSG/oCZsaMwVm5utGNMVjxXKEVIDgdhvu7qh+Z0foSk/wC9jVafUUYXeCV95FnbhuP5SEutm0CSU2tcXY141EqlKOZIJOQiervDNPsRsxQqkUOaS9j5aUh/4pDZH9QXEvsU7vsxb4PjEmTPuP6hsp3Lx0/ElOMikVQS/wBpOVlKyWB/LuWHj4HYVlk0/DSzYeNh51zRhWTIQNNH6HgNsqejQymeK2ZqGmVr8Oh7NZUUmv1zeNwy+S2IQ6ZfBboVcmqJehYIwuAFD6DGKvZF+JO6+CnGoiSWSqFhb8YTyZZEkJwnI3ljwtoFybrU1xZORq1UYaDtpbs8fAb5dB2+D9MyVQWXzPORtI56lV62IReVcrSLBfwS6Cf6htv2z+KM1qW1OhREpNJNdGzYR6xTm87NFK5oQVys0K5rX1QtzNF9wQaoVdPkNTsSpluTkRSFHofQNd5uE70E7UZsKUVNIZYBfuzBfuytYUbk7inL9w0Z7hydwn17g1D4DFSha3B43HsE87lqgOHukkuIv0kSPt4Df0gmgf3J87s/vz+vGuJAXOlfFOXpuR5yhDh3WDhMnKxLFCfyL9CtUqt2iHLJ6/tY1FSn3yn+sPvtVIbo/oifZ/RCD6R/aK37EU8t+vCE/R3J3IlPUkpO/wABQdoEbMkFGufZoXyMm6C0dkTyMouX2ZGymPwLtzr0PbMrR5tUW1y8upGyhGMI15PIxYbdLujO8lSfQeNS4hZRwNS3u8upP0kyBnA2BpEYqEGV7tBQs6ZR0BaqBquya9ke5xT90pkXm7ri5MlYdlJxnW8mWNi524M9l+Fml6LNYeNcaCUvYQhYPLc5p4ixMT0JmI5FX6ndEFpc9uaqT0B08VXyFMJLrix63yyMVTwMeBqo9kyKkJSISVrLsKYzjiCPnGgqdR7AknF8EV4VXjpg5PB8YSMQlh/8joJZJJ0fJSk0JZehGwpCNqNpD2kHQ/hh/wCcfwR/KH8gXkUdFB/HH8cfwT+cPJ7Ow/4iChcvUR6koQsCsSm4bUtkDchZxCGZdoUfsU36vqXq/p9Dwz9F4nuvULvyQseLuReT5HpoOv7FP1TO1R0nnTAh+/8AR5j6H/O+j7pMFJLfSU2H1qTeHx0FW/R9iqebubft/Z/MR4m8ClqvmhCqghVmKFykCWgUph0GqLZfisLIucJwWHsSiLBE4JQlUCJiOXAFadCcvODR4lSp6ETDYfqqjqTRdI12zEi66GJD3IRWUZ6Ti/ajGh61wk9uzErG2aHg3ZGO2Dvr/tyVqWPA84wB0MGpVT+soFGgcUhasdEqFpiadnj5jgdxhPC+Fy6kPBZlk8Llmq8EVQbSoPf6jYmP2BdFVlRrPMan7tHtkaK2RQpuRrQdE9JOQlsjGoc/hkQnDkEchS+uLcKRtKmQ8mg1eLcM3oibcTe9D2v6vM1HyaZqE8cJJw6Hfd4JLLWpOECJMm9PplX1ENJ8oySLNWz/AIKM1ReiN8ZLHl7rFIYUn9RmtK6eWNJ8I/FdrqK0nkSEiMKCdkYXTUpqC9McRj4hV5QgYlrTDJydByubg1YSUUWgkVKWFTDG8JJoS6E/TKBRloZd9xKdgyDXQJoinXrwsNU5E8Fjz2ya4KlbTk0wUcn7HmVrwlkZZ+dqUwqK1Tp1EhJKyWE/WChR0aJ4yAY0dtU8JRz5olDu/iEqaNzYb3naeEiqKo6hrfKeNypHlJ4rYr5fiJnIg5XUg0Ly62r0HVR1/Yia0jGkq18vgUshJ6xcSQ0m6eqBarSWiSCilZ4Rg83gyUnvDzqqDHqiti/Ilum4xKtYfUeq8SNRir2stRA4lqCHxW1YuRaQ1UrI4Woy5pngUQnPaRoQ0b4AfRiwrI4EinFg9CsgrGgogkTFHi3Zf4GWhOF5uWoaqrBY63Vp9AzXs/teXzOFj0AHpgprro+p4rb8VKdRPM1PXFoQvaJZBGHThg1mg7pR3HYNHXGp4Neo2pifFBOxXNyxBJJyjDUqqmzJWr1WTv8AoEQ0/VAaYaHcbd6bUY2BWu+0kjRxXyFZe0olKNMcRlP9hKmtaa7C2PcS7jREpkiVTCJyJrzLsQsLYKJePyLKseDfF4Oy+KmuE/BoSTkem3P2QnHfEadGKltJPgxEGsM5tZNiV5VeSJGtkFfU/GCKFv8AsGr+r8jOpRcLkSjscPoNaWJr1gVebfXGdLYZwcVupadfmiCWoORVbE0iZIqdpFdEPQiU2+jEbVEZPa/jjI7qF+uock2J0R1V7UFBFhCnhUdCLQ4oPDua3gy5eLrVqhls/sS5l2XaQn9dJJPf6lFAKSVFxLUaIiTVslsIs3L9+o2FCb1Q6TUzpO0i9SGbxtVXIwjhWw/c+TFtK5BdKg0cuIcOXODNRB8ntFBrJUQhqqY0WslxO7bVIu2VTGvoflita9H84SsGKFLWhqhezgRxCShZdxo+GMJxxgkgzJbZ/GkHwk9cNsfbD0NmLLR12D65HU5P1Jw8jsxpm5+cZbXQmwopGUQc/bCEQiFYSkB/5A0huiAc0vsDaD43qyJUj0YUQlUvTci2iPUVk/5CIfigQRU+qlaq8HOyT++OVH8YSFUyf95wGeiT/IKdlYatXc/topv0ETrtPo2L+QrkqQhKlBbvs0TaR5pUqM9BWD/UTPvJlTvHCFBc2vB8CS7CLNkqK+3RRPoQqbKvqIk3m5T5L8nVia7ClK7v8E4Jt8BXvEwkprbDt1pvqGSWwRL2V+wVsJJnwMpm3uGFzQlZ9lUTRFMakW3TQQhEImqTFRQgVPrUkRhwfNZFpPXCRlZR8iwlHze3ItpohM88CwrxljGOtuaKg8ypCssYHuclEbyEoqCN31ElI1ghqISQk0qLlaWqbepOrnz7I0vJbfUXdGoocA9yDroRQ0yzoLp+bxl2E6KLAoXvEiUJLY6ECVNKq04J1d6CSswhKvNe5OKqMl3AsIltCJ1FWMkkU1Jf4vLBPglvbL43cvMX4WJqan3KCwUYl7vgslLOQsI8hMWGhOWwgYmKj4xWEXL5L4NFUgk1oNQzahiFp0fGLu6DUXZ4R9ATix0yvIiH0fYpl8vXN6v2peMYbo+pHBDYtx/BN9A/8Yk+ohf6Crs6D0wh2H67uP7YqUEhrxvSRkJddBlqXS3CRr9Q8SGwsFNtpVSjYpYNzkcRRa72gbGO31J1d8P/AB1RX7qEymg6JaTafDRScGnR3GTX8ghVCtjEFjl3ZedlV7jXRF6iCPcicmT0ZOv2BAaHQf60yilQtc0J5tBGfGpZGbp4FPy+43qEsoW5TwaugWqQzMRyAaXuvs/u/s5R0of3n2c1VCewk+4mjEvNnlbJapVsJW8FGx6esIKKbu4jU9XpF/IJdUdBZo9ELdPalaN4eVv3oWsR4f2El1qpcC9vtUiQN5J1Gj1ijgsXVvblNV9w16+4SR4btJQRpqTaQmf5ZRZF+2qJ7d3CCZbtDX+kSKElM7GXb++Fcda/CIySMo+BKxk938j5RfgZoz4PxjvhBH0Xld8O/TNMNZDtzvRh7ITUOg9ak3A50yFZqokbUIfKOc7ScfuSkXmvItkJXKcj9ymxbcSiEdcViy6qkLGgTfBcwV6caxm3zXHXBm7h85l7X5wmpWRUvEEkkPM1zKuW5n0NMYw8Huyoq7zJfeEZVShVj94ThCSx7tj3N0ql9H8HkkWKNE1aZ+dCwRJ2jH2vwyIR4rcNWjDTDxGx7Nlu87PNr6fliyNJ0YkDbHXZV0QyaqSb0ElPAng8NSQR5ohscXsP/JNZLuEqBlkHsSgPtIbQ9WcWCya7T4cYcyq9RxkkvKPMR5H0PNR4n0E4ka8LBS3eDyqcZmqbZtXUegzuzRkdj2XwK5Y+ke+EiyP7pKJRMzRVLDhhFz7z4Rm7NSvpEW4fwLphAqP64eoZ2CiWE8sJ8GzPGK5U/oZ4DnNac5vi85tHm5bLqpdPnCUiQ/cb4eE5xjGPoPhmg1rLrniNsE0VYaYSKqVYWh3Blo8IGJJWpZUub2BOUwKMedCvmLB8EYN0lF6BxRxmWVNSqyaVKD+1xh0wjuPWxubBsUdr6j8erRcNlXbFPI0Gl/H4yeotMFzDsdkak08GhUdvm+ajFUOxDnPd/Y96E6Y1JI42NgiHVT1vhGiAj5uXQB8kBnkhucsJNY5bXxU193+O+E8ZfZGjd0i4BAalvNQehzT6Cr4L6EETuK3USW1LISuiGVxW5SxWAyiSTZvBoBSiD1H8DcoLeay7kNlyvbCRVFGvwIucVJtfCnbyLQVFPg8FkdV6YPJo83zPw85bmrxfCKPJxUsbjyljys/TfGaPg1wTaXYZKJro8bFzhdaLbpBpYVNHwQq1WFTUSdTmcjRVhVmJtJ4KRqHrlqC7yOPrBKmcbSQ5g/Qi7lA/RgXthRqHYXklSExVFdHrk8WpeKReF/XBT0wtUTIps3jJo5/AurDX0H6SJemTtfnEPI4Xuhf8Hd4pW8pzP3uKk1qhEkklCSoeQ2PbZU9F/DGOsoWQsLCz5e+Vkn7Nu2DYkWGt4S8zJX3/ABQLU4Elcl/oe4FgxHQRWpwcUb7glKkegnZNeounb3GMaQsj9hBHcnRT9B9SGkjva0mPtS2ZzJTudEPBTEEbm1S+R9Rud+TnVFZbDQnR0Elm1SuCKEg5BEa33Cd9He5Ymv8AccIW8hLuiwsdMJxk3X9szbg0+2a3p/OCT5FTJ4zd5ve/DJpisoe6RMp95NcTq1wxWoOqehxqP1M6qLFdIkyULwQ+ThleSd/92boSgQg0JXQiplujYqS6xIzLKg9RplYUCxgyIxVGpUjoIg4OU7iEIpxObwgZNNDfYmPVfd4KyV2pqYyR06idcqkLmomM2+rk3AawHnhXGkPoV8iFVrAz0lkWsBEvFBUuP3x87uszebZlrVzPZicjv13yzeRwyp2PhiyMrHzfBYzHxXPB5IFT+ak8CyVt0PeiNMng8YyIRBKHcTimWRtJS7E8JWD5MTJcmeuhol+Ca8EMKw5LbvCczGFBS4RFW1ijcfZ1KDZJG9vJD9JNd8cDYUsdxerKPlKWot+rkSRWnkJdu4If6E/9B1A1PeINckJqdjxkJUpOIR4UMoo0eHHOEKhPCY1R3Mm6vRI4ud3rzgZf7rTsNDpL1GdD1RfFBrjgvd4Ikj9Y4krvCZr3CFw4dypYJ+AnWUvfIIbXgSnYYMkJSVKXwWWKW2GKgWnUnMnZ2CDlrTKw7v5EEHX5kwq2CZqFBjqpJQYnY46mjJmE6DqSUFPmWDgRAridnYEqJZRLB1W3xQ1zr8DmQliUJEnMfIQEKIvwU1EzKA0pD6MQduoltRlsEL1Y6QVkkl6E8k4Jd7oTqPsIsT/AlFCVUg0cJ8FIlkkkjKXlTgq+UQxLWqrOLxyfqxlE4NqfyZa18hu3KZPL5YLIyj4T2WalSPjJA3Q55ehT9vyBLW3+Yh7iyNSme8Zpl9eVbBKgaKUUrh78O+WIpNDYmGdCo1pxtiapInLDIpzEuolRBt6EVeNxoFMqIxIZtbwU90Jd8BJNiqKGtbftkjB++zPqXzDnjmTldWeKjsSmf9Ml35yw0wvc2wES6C58BJ9I/wDEwS7HWGxfo2iGwEId3ziU4JdYZQ+lSiE2GjujijHxHiolac2l2El2dCRJxESXljZ6PRj3d0n9W3wJa6dthT5BNiXtWyHLaYVXU2mG+9BpsNjehaJFN7niINVp9CP45HZXoQEi5I3mBFR66icDNAzwqj0nBKycZQ6hmvgCZaWrZTTQhLf2Z4myV/YlNzVTl9xUn5M8TC3O8TrZ9xZgUI/aa9Tkc3+0bRHvjuS18E/9iQzoHgI8lEbtNphVoLe9h0YZegpr9DWy9CDRCxluhQ/UfxWL/BI3iGe33Jj+9kmMdvr6F7zsKwualseavst/pP4KGiqzMa7rTgw1G+l9Rzu4abt2ZQE7gvd0K2d6lKnbCbo7kNGh5UKjGn8eq6vNsNclkU7TnFYpL4m+EZrDd8NMGqcIoU9kUNa+Pk8GoQT9DTgdS3hekg9hrzwsJTJMKexKg6NqhMYkcquQ9FPtisbPMNpf5NZpx7/IsqO7b5HlYk89L2yO7pyti44zPdPhjFcFc+f8lclSPCD26xaJ1dxVG8e01xcLzVeg/ORsgvNcI5ShTNfQZFtNKcUJEVYTW+VgNFFfQIqZOlR0CWhUxV0T9b5ZUmfYViUqss88bzn4ZqeXMtPQyo3wPeaz5Mqz1x7dGKKbDztgbtA337B/HHdq7wWleyL8l+d4J4Fhrg7FEJpgh4fCFhNidegTTYLnQoukFjBa+9hHYtsMfU6/oUCJqok7fVi6UQ/UmshNzQ3hSeohi+7R7Db7HvlXujVmKgujn75rKLs+MUPBvC2zeQ4yoZdg7ogBYnvkp2sxte2ZV+u+GMYIeHVT9jKw7LlaJUk4e4nsFjXBCdBvVEd1RCcqoui5Gbg3LwFDZ8sN5khcmzhHcdILFklSGcQaTeUl5NNKegUpjTewjpN8Yq6PI55YqbeKyHQ72Gfqv4NMIpj3r2YoeVeNzl2EhFs385Xq+MBWy+/8zyuz6HtGVvXbydPC9zVd0PUueM/gWp4pjKNMHqNHScsjfujqqr0F/qBNmr7PAIZS5cW0KdgltJaSZSUgcQ5dDTLisuhJTepJI998exRyY0I2ouLEJdKajiC3rQZvZG7NuwPaoaLPRojd0huqEkxHOjSFEVEjRpgsJekNR5I8/wBeGmFRnuGbye6HLqCR0GRrIrYJ42+WcXrGIjVKgVtsmidUgY5YXqL1ArlTEkprsPwrq6lVXXX0H7AZEnbC87JSEu4l+x2z+IdhfVL2RfhuHIuZOnyU0KR5nLCCbsUep8Y+9KZb4FErIpJFQu5Iap3LFz/USWQ9yE6InDz28RWuCFN+qx0/kiEQJJHUiNEVY6zzDEklCySK7v8AM8NMl7xrl8zsNBZIu0o98upQjK/d/GT1Bkeor2LHlhT8MKuyOzK4UyUY9yKDddGSTS6E0p1uGFRxDqNmxx0V68OkItcP9Dsz7KWKEL1P9Eev6h1Bm+qYnGveIXl9jVRxlJ8Dgr05REPOtFyHXr6qKpyTcgL5opSGU1G9D1C2x9BSAKoObyW1vqXCt0Xd9ZGsCt36P6mDcQ50Ny4WZfo7nKiEXI7oiRujKRTCcIlb/pxnHwe6KaesFCyNZAgkfQ8XhORtbR8RnIrwXdVDpu1HqMN4QiFsQsfef9ioI6p0ZAlbVFOc9jqL3FFk3lfQ9n+BLTAqzklkHG6+g2JJq0h++EbfKodFhNWRhtvMvYSRf0/h4OyNc/YUytz2KFkPRutERJC0UdsObVQ1MScSJkG4pY1fQ2EDIxSgxJYvlJXQW9D6PSPFPH0JIlDZRMJ6GdEw7vFJnsrEjcJqhOKHd0fIsiJVvF5VlHlxZW7/ACPCwtP2ZVqbfrGSZ1NnphR4NMYzyJLeV8KxjXCC9oWCVMWpjyZbjyTChQk2ywhV6L4ywhUHD5IGlsV7D+AfziPelclZtshaHDm7R/Pwg2qHF0I+kitMEjrAnuhwzxMWhTiKZKs/McnoYbfvlK77kYqkUo1Fv78HrUV2PIR/ICI62Og8bNYKVMNqp9oty942t5avcuplhAtd0IP1tCvuCSogquhs8sWsoNN1duOZ9mIkI7rIK3pLuctRy3CZ1Izn6ilRWiazo5kS32of+BHg7EvqOOwsdptUqOiqu3AtZCndwWdcnBC6z9RUe8KdCmHQW3oSKR5wrdRpUv2MbKSfRibrfq1whIkkFSgf2ZFt9+QOs2VqIKmdYTI51MTVRNHVShaoo5iegtFAzOSqWzEtyemU6klJ9BUnd0UifoiLTNZEj4FJ/R4f/uBplfMVTCq7bDlVOwywGKiTmbrssCTNBN7oEbMclOaA1xQi5QJ9ig6f7ENQp3CX7DXXcP7BE5JxDgC2RzF4oKhXQlbkkknnOCScJEUtafJlaGeTxUw0Qk0bsSHtjl2/FQ8zklvjYjBOPOwsvLH2CKiQvUTz2UYhk/XxUkmIYFDUo6DemvxhZDThYhsFZPdThPafIsG0lWhNxPphCfX6sGyWpKQwmMLG8EYUxWtx+mRYcW2bDZv0jp0nbIjye6y6i8Co3jE6ECjYW56W4/gDd9I/8suaSTNQsmh0X+wSGcKG8OtqfQ/iDq0PQfcqaHAlW7YlfUfzD+cW2MLZCpi88tzsvgsyFnSy/VlNQXZEexQXknInrsWRRxhCKbElKOge66lkIhbI4EQ2RbDpdDgdif6j+Mfwj+OKOgd/so3u2TXJsJ1CFWRpoXdy1R9xLt7mP/bFNQVHABRf75Jf6n9yT+IicsqNoqiVr7I8yYIZyOqQ7UW7usq3ewhq1W4QisaNCW6+8/Zs7J7i/Ek9NfOE5GWcicPAbisWws1E1IwDNCMVrPT4Eil/owXwNMGk2QrLDTqrySMq2OmFm83xqeV7J34JJNRCTdMsg2uSUvD8CGNfoSzly8F93FY7vzGCyK5tvmaZWkcIPndcs/GusZx+D84rFavOaWnmrldj2nKs5iufGRiyeJxlR4HLKiGIUnu/wssDS/dMYxVGVmtp/rJyt6H6ZZeqJVdq5eweafQ/TKs+r5GmHDsCuikTo/GkpfmSu+Kx5+RJqfBfZi0wVh6mPgJX6sUIvVPGTyuCcJQ4voSjzlzW5JDTo7M8vXJI2p0vR2tWI0bIeu19SgWC1LuTr9boXC+mzy6G38LN7n4ZWQRas+pYslBqG/yLNNnX75vL4zeTyLImtyNLK8tsKyyId0vJPyUauj5Hg8ELG79WVI8Jtlpd5tH0IZqer+stfQGno5YTmEUvK+Mu1kVjQlDXwVyhXD9i4yXZLkbJVnGEo30xE9mrrKk9k9DnY8jFViKUIYoTyJkW7d0TV+8a0QWAsSJHqaEvpEBJMOITJJToMRnQphqxNRDCWfsVB2dWSC4BuOR+cW2RzsMxcueWw+6Ssq4qdpmpx91+CM75COqVKnoTtb2FiiT3EO2afrfDKxpL2Ctlp8K2Vj9g980fT+H4aPBJquJZZDyrFadMu0/izeZ35vP1xmpGCefbm9jyr3PlmWrrmNKNoyQNVdD2zF4LPTmKlzRls+CwewRUsDYpG/2eG5dlQxLUlVSYJLcttWFQtqeTqBZUnx6E7Xm9uiGgxIrB/wCOhR/qEoC9UCik0Ruxu1X1EyK1sG0jse2ch+hJcIpb0k/sCBX30Zwd49qddTRT3Ek1vkPeXsf0UNFquhPI9wMoKQQqlqjWrJLdqL/dn9yWL9h0sLsI2hHBO2thbUZXoorEl4q2T8g6CF1IhRqdBFcZOIcY5kLcLqhL4OQhucgmuCRu8+Ms6Fpfdr2FlpHlTKyaVyp65JFvoxa1XVeo7h2/bmRiE53GaSd8YFRntsvhNj2XLLw6M3u3yFlity+cG6Ejtj7L8MrRzWSX6DwKKTWVmn9PkVsqG/ZvM3m2yTau4YVUNL1tlpXQzNR4yGT9ce0LTcQLZYySJ0krtxEyuNTYsmYcgG1JmrGKRQ/BZakbsvY6OZ/ZLcrQ11UWLQxuBM3uwdiKqTgOn6BMsFRIduljGLTqawWmEUIbDb4tJxHEG5Q0Jjsx0XofyyYiRXREYo9Qrv0IsOGsBOoeBzMZEvjCuAVJvPI2f2BSVja8DUV7yX7RNnqMvb98ZCnbGJ9UbekoS/zFrpbNIe+7I4nYW79hwXwj0noEyfphpsj9RRO9ryQK/wBhTKfY+yi8PQkhGrKdOFKnI46OvDWl+jNCX2Y16vsysq16MaLmFHcVEK6s53cJ1VPYe53BXo7xYevUyyffDgCWhptfoOLlpsTLT7Fj5Ec/sFNWPow6jSR8gRNeX/R4b6HoefoTqlFK3/uC/wBL9Cf+l9C/pHjb6Fv7p62K73FtdxsHcWtCRbe4KpIuKf2Cp4/YUwr4OCE94ovuOnIhB3PUX9J4UH2u5tTGzAC1/eKGtfUnBatd09CheeEsKadYdMYVsite2T/yLv1E6iaYVKWFWGI/4ENn2EuzEkTnsJpezQTUIGcuE4YoJqEWkl0i2xxB2TOofU0K6tFUS87Yr4uo2XiaPtBKquReWuKJcuc3NwVMWUOm6+Qnl22sZeiwWQeAulB1EszXRL1xEA5ieArjv9Fg0M+GXg5NemLt6MjGhofOxkbSeKKeIgNOzGFMsqSQxkZt+uC/CUC7qTs/0xjF3mJWZD51Y+yPKzFxpQSh+6ezeV5fDJCW4pElosqlrl/JFilShVU4+/fBX0+VW1q9Pk00oZRATmzx8flmXAWYMoFCmcPeZaDdCRCqVlvuBlwpE5yQmWYlXWFkkQJlbgiSxkYvuRGELbCFsVKFZpyPbRxhQ2FSXMONuFkvSh5QpsaOjEqf7x7H6kAll6+hEyrR77/i0dTgWacvlxPtkZKnuPbDXBlRUFNhXTsh2lc0IYkumHbQrB1HyYLA3Q1QqR6Dsbx3KHtRYLVOpkUYY01NZrBl3cFuPLP2I14soPkd1QvwEOaxYVasfImdeqXcgRuPKIy0+W2RuJEmeiljdVDMreynLtlZ6GWKekETarD/AAmvB+oRdVKh7VJUS2JsUnwRhGruE9JsZcwtxdCa4wt9WSDg7jGnqPikhZqiChqGWSethTicv/RKKDSVTYnn0qhkWmddMLvG2ZkpNxWiBoFYQj3/AMcHCE5qmMpS0fsNDoFkRya2SJ95LxlRKA67CFNFKw0JudnhrItukSHFVh74NLXSBYy/OhZ5kYM5B4Zi+snGZMg9kXdWeCY06rPqjpzGTflxYq0JyLKORs4pJwuJJYWD0bDk9kQ+e63jCTyl4wqb0fwyTKhTwxOUnuV9ZjcF510FTHyQjOlG51xaha3o/oZNbNjt7zkFeAhMgvGrQXdFLoL2JisYTL+ycZDOg70j6FfB+pOVn66e7KxvtPF5V1K8DE2+gzOYTnqIYlULk4lyTJJlEsqpKVX64+wIXNWLSY1mhXqdc7jFVS1NKrb9CLcSU9hO7C8iE8hoSaa9rS04prC0O4nuyNy5XoVs2VPUTylA6XoxemWTp30RQU6b6IX6kIDKxVCNLIn3xQVv0EhqzRRiSShFClJe3JO2WkzsLUDh2koVauyftkYGSKm7bVTcnF+oKIW3Z2ehXT/ODhJzaDS9SBMU3Lo4HpUdSWgcOdCnrxXLykQoWjy3vQVstjMSBISBWNDTCYhnLasWbbOnSfFmaPvFD9x/WKVhCSZHIaamguoh5ZInAJ4TsbM5NCV7SJ439GjdakmjTJ4E9YJJFkHCO6dSbI0rO5JsAPcCwiFQiiJYfqKBj1FWG1YtRZ4YFjPWe4pjgTNqxbIhG508G9vLJc7N8s3yME0c2NYXEKCt6NR+0NsLhpEgO5ETbqHcWKtMrpldgUIraaLhiItGRpukTPLHUuqHVXKJqSrua0GofQcSJcSRO2SqIQWRRBG9xbCKulEuhqpkWliBLrgneYnKIeoLQSqVdXjau+V2EIdooJ8vckVyfVp16Cdhq1jQVErxQboEdzFGltMXXqlKpMnD0Rer/bKvRKewtFXTIx65pE7I4aJ4hDWbUPnhNrOmnJFICPYcwCZdpVg/oYKxgjl1ZUlzTL7LM0r1K3vPgS0xg6vwM9oViCM3EwIuEMc2rQpU+jB6uTSohKX1WSG2anqfsaX6ia/aG76SGRuDW+ZQcaaEvqC3kdANUe1URU9E3SJsOLbWlRG7DIzlxvQWEyLoVFY9R7RuR9WN+P8AoXHuUG1sv1EqZJRqW7ojrP0aNybahF7yexqkDuE0P5XMbHKXFyDNUWZdszyJlursxMKPaSuIn8hCLUUiZbvG/wB8kr7g3SqG5FkPoK+q6YsTUULDgdzjdzmFpSeghjfuqfbB/bzaLxDzeweFKQIaqHLILgO5HWKPuU4h3Fj6iJaI10JNiSUaDXKzvUkc3motZVbdyXBLdXI5wCzWohJGhTCMiYiJFAkrLI0vZ/gVhJYNpKW6E8nk98ya5N1DrYOpQWnAr3atd4wQ6j8i2646CthGaBL1C0aILDeFcvEhj2r4yx4qjE+f9mIQkoSssn6kiYKl0GEO8b7BasRSvqNR9csF0hWWVuw8yQk5EwtmSYqXBiTZvYgi6D7GyVvV3CkJtN+4VtiU1ApUTqVWUaaB1IKW+N2JCL8BHLyx6OmX2x7Ma2LFbxGho5wdzTQW0Wqywq9cz0EFlTuYbjW5UscSE1C3Q1vaP4Rwex/IG9y2eg8qFugmCrKFC9iYOKJGwa9Qm6OvUbHuCpuKK3FfDF5EqSj1JFUVBNRu0ehe/SL+eWfiRLsrpJvV9TFtBtQCr+oiuvEcLfIegc66jSqN7C8LEGuHN7BoRa9xK3P6X2FAUfqj0HoLausDVSXsM2EJQtQeRzbannfYtfqP66Ki5tKG82Jk9DFFQbhSzNbjkJx83sLcv1bGtv1kR4nGKSnJWcd0XPgZTrN43NtDFJ6sjGT5eps+Hqf5U7wsKBXWRNH+4M1fl6jkp4epbkvCPHO2uAOKXheeolXQVLQkxr/qFA58PU8j9kCmD53IMa1W1KNruPssCO7qeB+zzv3jJqOrzcEdM9BcwgdJKHoWKexCNNlION2FDVz6Dpieh2xrR2GUyTPiF/hG50QR4LQzhAPDeNSTppjvHSiYVTuPsluME43cu0dy3SN73nqxrgFqiqmPrh6Vw86OoyUpd1hoxVPsdfsxxcK5MX2SImjFtVohaoaAra3RcVihmEkpRU9wwZPPJTChNyyvpsriXQv74JNiObRS9Zw92KOsSInGbc2XdzLLORCyUpdVm+RESOWxepLwlXnG1dcZwdJtcLfVZJwidF4ezysq4RZYc8XusVilbViNcjYqXrZqUFk2NqhO7Fksmt1gtw1dHUpycXFMESQYJRAHPp0fsRpm4Yr1KfsxSSZyJudBm3tQ2jaxWqOWxWxQmlLsPRvFE2TKY8sGRyKf2ZZOlTabtnssHZplXwjNJKelMTY8iFUgVBhwkwoUjqhZUqkh+2W8J6q7CsMvxKrkCQsn1RS7QMVZ7GiiB1VfUrbUlsk2JdlchEe0k164M9cuuBezCJxdwsKjTCCJu16Y+Sw7hiUGibwh0PUm1JRXbBnCcfnZmSYIWDwjHqTgsOVC/UIN2PmESBSxjA4nD5MaV6lhaYPHqWZVpsoskFHVeZFJ5SvxZeSQqRTLRd1EjmGSQitDXGCuNY3fyISDS46JlQwTl8OrJfYn9C7kSqav2HXO+1B4m6MFGaOjqNcKJJsmW3koyJUF5G7zRhSvcUj1U5Ge2YJW/wDgMQmtRMuygk0UXUXrLqYTjw8ZKTpT3oJ4L5KvyVBpaoactEtwMoVWSEugjUTIyQpTENJ6YOjt4aK4JPm1y4sIslEqpajT0MYyvCqrB5mXBaegy0hl871JZrJGyD4hyrwWaERU1d8KQWKK01ODIbpU3PcsmFWZG6UkbxPiKOLSbCtXkKVHNByk4rcME4BHdMByFavVCnZnh6lcnu4jtnURUCNg02HKoIaPWsaFpNhWwSfJfNKjydMjw9/+WbwPGOpUCap4IlSp6iSoxJNrQTlJqzVGUUU0Fs8Tih7Me1XTKLcE0yqXJ2dewcTSb/bFTb+SqYtKgzUwSmpXqTh1+RME9m9xQLCnVan7OZVOC14fuRhy+QmHb4Qna7jEFcKt2GpUeL/sSxdrODmUL0FoeByJNMQOdr4o1cLVwxZTJ0KPafA5QluTZVdNoRFOzSvURlWsv7kBXkvUOCE19hNQdsnI3lLkcgrS5smHvh7bCtW0unyLHiSIarqUcnI31kY9kxOiIZNy2wpdt8ghCtRAQaHBMXGUYKmb/wBntCXYbNulDwqIHYTKs7DqwlpOVXoUyxZNXRKOn0WN9ZM/gWMY7MuBJsIE0JgSCVULRWrEVa1CaGSdXYkR3tsdRiKV4rmuuX8YQjiGqOIsps4XETaEGgjStULFYRv3XyLK/vWDgib92nHY3RGXxe+Zq5TQ8HwLCSYLSwQNrI0q/wBCOaO5k9GhCNqthCFyJQe34H3AXyxaZKSNPgVVRjU4uIpi7clS6pngVIlH6GRP2Yc9svcn9CFyRIpC7vtWhLn65KwrFOn6jwpaw7i0llQYWdG5L1WE6MEN9ysYV1FmOVwopt2ZS3xhUQmq8Y7jRt6ug9TCbxQpeugsp/0KOrELsLh2WozeM6Eu79hEJDBoxOzIeeZqpGqqSCgLACNcfeuFKY3ElgWYjobk1QzNCh2hQvoMHy+g8jAsQFbOCSAUG6PVDtFVMF1W84WW6VDkkJJI1QzRpd1giIN8ibbUKIyusNll9yNPS41tT234KHpk8bgSoFNRUbHkYy/VkP8A2BD/AGHK4C6ItBHM1GqLhO2Eu4KmGVkqcabn8fAIBLWeK7mNwHd68lu7qVNLqNqqTfUl19x5WI1lzzkU5mKVTVG0kqQTw3QaUaHqZwPthxQk0nAmonVSIluotqXHKOKIR1lryJKUhxjnRyIgK17EoSKLnYypXpBrkoL6Pz4zjGfK2WB455fbFqU1MSiLy0JkB6PcRSdEhelCJa8hqTMadQlo5cCTLcJJKHQ9tewveUYsn4klJNt0VWevioq3DOpCfjUXkGrDeLfZrUjmWV6kJvQdbw7IS2ozibcfURx1CeXw9yu5lSUJDTh3USxnRVIxXgpPSQXsSNer69SY+aM5CD1wWEp8qMfukehCUiVeoig3zugN8pVr3IHVn8HQh8DRarEKtWe0gxJsJe6mOB3JVuVXHJzmRYiT1EyLRmlhTBMsO4eOkz343vfJJbLoiU0Kovshk2vJMPYLUlZY3Oh7LByVq1bFg9QcyORYaWWbjjKym2hnsOTvakTJESyUFdikEwLS65JyVnZMfjF2I27v5EM5ah8F6rH01MIdxGXQhYrgjJ2zzLPUMWalsUeljLA1FHsTUrX5YcAtghbHGE0E0oQuUHFJlYS3DQmJdhElNWImorSnuQerOmjXkVp3zzsZqQtionsKxk3da5OUOOkGKavtIwkDbhJJZI3oSNQj/AxLyZ8XIteHFe8ttP1I2+8jUhEre4vWOvcjXT6iS+USPwET5ipK9rkchsrXHGgsyhFpscATKGtq0KkpXoVFRMkn46gb4+FD/iDBY/eGPWqoRdibbpcioyayiapnVFATNixJ7mYmHsNybZAfQlOZrkWdzdqsc/tGw216tkCAwhm5alTSglX3gv8ARGjV+4dROY8qW4kkkUuSn7sD5WSf3HBCq4JadXJU5tckd33LPK9RvUOY6iKtMbtAkwl8laYnW7kIIfUmBWXYg9WJUrvuNP8ATASOtSQqOtqOVc0WOsTZWUdE5ulkpvG+8lF4mWsY01KwtIzoIe9DGTbbCU7sBEq2lFVlK45xMSRaNQOU5SlEsLlxCjrUXquGaMxWg5FWpVqpJeVqCMLhCzxSJ8DTw4V3HjwSWeg9izPL+VczdjBZHUeraPQWM4N6sMIxRaugjB01uyRK7khfli/kQyDrFMkRhLQq6IVsfbkYsRPtfIsmorfp5p8X0Flirr9xZVmIwrxeKGk7mgiLSIJ/ap2ESmmqQdkC5wWUcZUcInqKtGuZ7OvB5FS5k+FmWFWVodspKCirBMUA1I9x4a7EkUxanDGgkLSBG64IZdFLnT2JpOI5hwPeELiX0Kl0MvtCFTusiSmmNiIlr2FN61SIutuHrSLh8tsbxJ2Et1EKoJuJpeoihsLW+cb5KidkTl4CFioPccyj0s0vx9aK/UsaR1wNPM9hASIiDW6xoMhKTTLcFoS2jI8O4FbKqfqWZzaM3v8A4Cy6M3zOM3kc5ptj2y2n5EZwafVml6+OjwKHZDEim6DWavQRTh3UJ64e8HshtphcSw9DE0KQmR3rs0NKvcayWLTXIiZluNDjWOmEgrlC6ldacK4ctxllZNR0y6+h+TgghqRIlCJb3mBMiwgIoi8oeoEQWXXG70HseZUkLfkjBR6KJFij34rluzXyrCokvRJUicUpiRrVqjBfHsIkrLMll9oPI+CbfJk9wFZZfjfIsNMbTLL7h8Zn7n5zK3wsyR6ruLLQvjL7iLTIyaXTzee4xklfYQbEjEDCSh2NqRs9R3bpVK3XA1yXQRfqBTq1dRk1e7GorIDYjaaFELMVSbGVsp2EIqhl6MU4IWEyuJS0QyzB4mUWh1lEn2FyZQTQ1BX1P2JZK1XIrOmVJVzHcD5/4JLHkGRNiBJODSq9eE4euCdPjjJoSXQThJPA8Ysjq56rH1LjYdJoXHLMp6ArZVbStUyBW5Es6uS+NfKwrLL0ENMtt+UiJybHV8s3o5/rLJy6Zkpn+MHupYstnDNeweNKWnzJbeTVWo1ZCHVM9ggTD5FfRgk9AEAqrYQze8E2+xOwmBxteTUCLWPbDuhqFjXKMzT7QpSAwTWwkhIWx7YACu6GwNL4YUP6i4i0mpQpQkJJHpAYu6IlDgtVSvhW05IhOmX3A+R+P0zJPTDarWqpGlWcneRUgdVsbiveoDGSmtU8iFNX0jhdi0QwuhJZojdC1WEjTuI3BRGqRIE9S7joQ3RC9xiaHrJUxcNRf3oT7sjkjkvGJLmqsEsoOHchMeyJdn2FvXTgUxt6Ccr0ZLV7BNojAjpQnB3EDiXuOWbG61gy2vc5S+FYgInoKsCTg7oXhicoThJJF9AVsZwf3r5Ex5GSVVs7MlZKHiOBYSsJFf4RJJOEjV6pOE4tISSSTgB5R8YSSSJDb0IhuQJRK3IbkIlVQhuQ3FrRcskj1lfV+BBtGwuiUTw0KWsIo9EdG5obTJDGaUZAXUoJqWhY0uKdSBbYlVlcJQ6CAcEcxDcijOhtBP8AQ5UQ3Gu5BsnqhGWzV+hXKVYVi6p0HQR2UEdyXRnUgnToiSpt1fwJ5IbkNx6bSBoadoFeMWE7jmKwc4BBMkqLkCBKPehlDy/HGbe6r5GXoFZIyJEOWbX0zLmS9iYTkWW9MizaRAXnk0QhYQthJbDS2ETCuIig4kfxhK+g4A4gQUhTtG25Vsi6J9x1O5qxQSm25QeryEr7TyMYn3tEOSJu9YwqUXl/9BV/QFuLVl6FW7shITqfohFV7Q2ukPQqeXSloypPxFT6ob9noQK/sNuteiEoGu1C4FuvY5A/5BI57j0FXfAeVnkZD/cJYmvPXbYSHM9zGy89xK37iTv3Y33fcECPXXkoRXuQnGcXuJlzhmusCkKkE7mEiNkwxtuwYXse4/lCTZXoRfQLZYJt3bH88q/rHSN/oaJjYSWq94JJUYUwLoMxDGzaEiXZDfQba+wItwdjhnEWFFSJBlELChBbSglJEbQ4Rxo4g9ONB/COAhsQ2OMVcFqOJHEjiRxFefaEzSS4hsQ2IbHENrhVEZQR0WJ9EqQaCD6MDnERaDhOARVRZbP+TjL62nye0FlSHXqzTUsE46DQmLt5FbC3oZrotMbh7Q9sWumW50LVleQ9ibYKhpks+RZ6YrFyssXh8q+c0e3mj1VmRW4ROXx+AsvyvL74Qp2jLYp/c0ysvBpm1dFm+bK7Msy6c36ZtXXNLGDcUzgl6QmZsPM/8PsiPfy6nV1Zpnw1ze8eZHCNmf2LG4fOLg9F0y6PoNLOMrQSJM3eW4NPQWVodzLXTLe9PkVskHwcz6W+Z/AWV+1+GaV275ypZ3HtctXqXzm90+M3xLMkerK1CxkoQSdRZXZ0yyXdWX2xayNLeS/KgpT+RrlTowPSfIssM+Fl94xZXhegimWVAsZGiO8lnQL2Mru6Dy/dLLQovoMth7TL4zYr6RrlCtlajbJmlYpdkWDCCuT2j4FlnD6vnL7djT01lZJm8sni8ZtfTjOMr8qxntstvrmfsZrsr2hYye6PmzUrn/iBrd3hJOM674dsJwkkboxTjKl1ZvkWZ+wKqxdxCxeaju6FnB4uzKehjTCk3EKG2V2fQZehl93+B56CyTgFihxLBXY1BPuLHXDtZFjOHwiys4NnD1WMk4WeKuM4VMuCp265XucfObz+Mz+GE5Lsp2ZbzSy7jTN7vLY+g93bJ74sXUWWlr/hWYg3G73Zxghf+0loEoNL1h7zEDZZlxCPEhLvJ9DxI4/YcB7HBilr2yos+olRUQWnVUm6ncTn+wT2omQKu3qTHuOSJftF/Scs5GEs2CNRRpqsBFK4mVquGQVezGtXEVZxaHhPcL0hNmEEWpRQZNxYFZyLCI7tVIVmpGUECG5DdEmoeitATpckkTPfBp6LGSRkKqTg2iX2Iltp6mxYThJBzN/AnhJI2aBOKSA6qVKq7EGqOIcyFuI1YGkf9iD7sKgaVbqKOiCNCkx2LqhYn+prQK1o9mTcgnySCtA7wWRmyymLK+kMk/g0W/ZiR79hqpHcOp2Y/tA4e+eRMSu3sOh9hps+whWHR7jo7GSpUfY9RCrP0RH/AAZEFjcKat2HT2C4PsXfoFvb0NDR8RP/ACOp2Jf4Ev8AMcud0JRcS2JbMluJzcNKtEynuJRMyUXErTsMIKgNv8RO1lxbj0jmE+4XMdQ8SFNBpUStfzSIYo2nrhZff5n7GRZBWKQhsnamZSb2ZR0MkVOTR9BVElSLYwRwNGrIWUKI4xpwOCSDa0F/CEhFU1tsKKIQUIjBUThJJ/tjjFM9BuVn3LFPcb9+41m7G75LUOMdVNQkIST/AFIL7DrYtaKmjFQtncsP0pPGxQQ0deglmVMfRMhc+lNB8hCZ9wgvvGNe4cM0NNXsKJfsG7fuQuak+HaWUsJWE91NSA2XUbfqIgtxoO+XVC/wT+KhCyr0OAIUIXGiB2RxCNhCWhTxUVdiEQsKEyeCxZZOiXtgxYtVOWVCQzeXtlktLFYJLLoLKnv5kqbxleUQ9cRRmop3K/O8F9++RZW19c3sXmvwFiiE8Fk9qz22LLpaM0HheabIaQRQ+slrJOFuV3HsGX2g1GSmLcOVrCq9xxl8zjIsEoFl2umTOHyCcVhV0cvuwsvtJisW1Fw8yzDJrmFbLd15k6XT8eluZkkFfmjDuj7yLBLBk6tmvjLI9LMJ7OeWCwicPYHssmkaFnNZ6vJGBIWC8s4yK2Sx9CbY9gsi9ktZFBTqWoxxrqdSZbjfL4XDze7YLJLjFDHjd1yaiNMfa5Z7iUCsstgFgsfQzzJ0fx90VllbwbZl7CzyywVstKF+PXHTDeajQ5iyUEsbr4Fl9o8zJS7TTLCvaBWy2HsiuDFTwWs2ny8tKFmK/BaHPiCyeyZZyrM+ETdDLd5WeZlGVPW4O4skCAjCMFioYhk6WxYsujxV+EKMz8z5xkkq6InTLfT5WbXm+R5J8MF4WV2vJYX5a0xi+tL/AFiEkkjO9fAkWNhlzmmE42dE0wTxbtFgWR2Y8ve2CZcJt9pwfZFXkSSWeuMvbCWOJJwnB3c9WSTkeXRpllR3HssZpg6YUz7JxnCEyRWX2LweReHu8GRhB7jLqi25+WEY+6FrK7TPFwweEiI9zCMijDjIsJ9XlaG8Fiy/KLLSe8M1nq8jneLMt2F/wVL5inR3OmhU59wUaG4R1B6wRPg4E60VruxXXthHE7Dgs7FcS1dnZBJqxdQlZvoKD9TGqIfaRxIB0UdKH/QT/sHo944VuOsCocVjuGlX3HI7nJFK1By4Fj7YfS7F4oNl9Ylbt2FRV2HSfAbw6x5daNp0E/fsNajXqJ+o4qoSsamf0CrEZOdD1kKS+Ycmm5yFXW6ieh4TI4n1IEo6sEjK7NCSUSSMvQGlvCJwkSxnRE80kTpchvgULo4hANcQX+1gn9Q/viHLaBiYf6imRSvUoTATXFYblUQ5iNVdmJ0fqxrf0Y0pL0Yma+xG4b7gwlY92x4HOHvHAJaDvFDVOwRDYO4od7oHaA2X6UfySJanRFH2+Pse99vs81fY959fsf3/ALHzsIMKqn1RUiUdB5EH/OFqw9T9mCf7jele5OxgbOpe5UCAdLudDudK7mmg2e4OTUmHR3F/7C+yFRVD18NMkWfsI2C7/ZHUIKdBCp3Fu41iAiIWponpOpYk1CjkT13mhG0ROw/hElZXRQySJFQRvRwjlRERFe3/AAX4fUhZOMPfy/1iypW6ZmG6qYERhGCp+FXN7LNNyNPbFe0POGBR/bGENIgX6g4EcAe8hWAcYnvc2OBEdlEvQcA9oloSrOIbLo4Q9icOoq+p1r6lxFRTIuJKiXdZaIIUboIFFpFoNwJCpOXCiotkJEUjuiVD4hs+og+lG2JtiCEu0QWU14FSw4QxCVJKbEbCFj+r5xkphG/onssqKKqfZl98KF8MurP8wvxmFPpjFcVieoWRZVwWsqzmv1zcOrJd84SxZaH8/kLBY+8lZ1l9msNMsWTQt0/oK2X2J7DLE5Qlj14NMxu8smrG3FWFMmrMRpaZbDZaYsqWElHMVsvlNxCxg95hBGLjq+2b2j4zV+TXL70ewWXy+H5LSfRCy6+ry3Ohay2YC/EOn0ti7CU3GXCzLtfDLP8Ag9zPM4zJ2HoFl9+LK6ke6LCuNCHpjJtW2aEcfaDXaThr6vDTJf14uRgYrvNqzQdPgyMjsNI4ZgWssi11uzFlbuZkqcvnJGHvf1kimDkCRFZxudD24rkq63yFl8TjNr6cZxu6svsD2WVOxzOzpmWH1MZhwIlEXB6Mt3w+SGLRNL8DkwTnJ7n8DhTwnFK0tJXXL7w2ypda2+RWFk9se3ZUQ0xV0wdFCdMPSoUUw19czy+vFq4IFd5q31Zr1V/plsJRuNNVOi2bntllZeTXJP4AhLzzLMtK8tctj6HtWEVx0vHyJK1IuVHqslSHUaZdeY9SWS50N5plt6GbR0zXY1S33USFBYy1luYQhZXmjgoLF+yPxCmSiUSSKouJNSSRskZ0NxZqv1lsZ7PIsLnVj7ESjYXUS/XNGcSqViVGFlpYLLTS/plaoJQSl1iWjTt9CxRtG7idZJwsjPM5yqa/Yt/FB8koqJWVKvDzS9FZlhS8Xmdue8ZywqWgg6CMtm63FlMfmySSwWrDGayxnqyuzKV4RJJJI9HQSSSicHbhOMkOoh4hSHogrss6kxuh1AlEkokcj9jHXPTMs9EZJSaBRWvRFv4/oVKdkLXZ+iNtu0R18Iy9gC1EL0kdI1FRyeGJP4lD+SxXQxVX3njUe1dzLl3WPJkz1H9Z9YOgA9JhlKLFntaCbQ9URu7uhaq/VEf+RRn0qDDU6tBqX6iVRKexCXQ3CUn9aTd5vYmaC8bjXEt14OZ9mNCrARb2C2Rxxzw5ep/bEyEn+omrjQT7KaHuH9EtfOTNqv1KzXyYv9c3+wE507I9H4G+SA+scn99FOfYFEn8YQ37QXQ1PoEcdqJ/7ohJL4hX/UOdDQSzVRpHE1qJ7hd/CvCmTUexlYPG4bU/DY8X0HH4OBbctU/kJjQau6iUF3mErCOhS+yNhU7QV16kCYeqfY959F9jX/j9njfYej5uooepCp/R4/2Kt/xyf2/sKfxO+AFBn0J5lKn0Dlp5eh/t/wCDh/UO99P6J8Z8C4dzOK7mR5MWr1dxdO60Mm2hsyJw6aY2O+Z/b/Z+4r7FzXX9n9v9lTxe45KkJRJG5Djvzep5H7KlFwh4kPGp+vPAv5j+IP4iP4CP5iE1eyhazfRHE9jyPoeUhMroj00Yv5xA1luP1oZ56wps6OtPwEghNVFIQ23JXHwZ4mJTU5CqITc1qIT5oRM2mdiJLdm5zdxUbnuK0z3DXr3NUkT23464a46bYRegNMVhQvpFfKrtZvchY6GSR65Za4fI8fZEk9cKermQuAIRBwHARsJNCqV7B7COMcPscIfVgduCr+o/mH8AofoP4Y9tUWQkW7JP9R/MP4IrnsEV9g/iH8ApCXQPIQmk6zQUmlskJsPQRsQktsJlxNhUVMnrVe7E+layrYahnL2/TLrEke7sXtmavWzJHTypK+GRkTcFO2RJzADtXLJBB7n9ZnyoKrjCTVGyEjoYt5gD0Bok22aBtGONOLnHYLdj8qxudD3KFXL6rNnbsNsvuR7BkjC3ObV1Fg0dIVpjvOCZSVhOrMrvB0IsfQ3+sqIL1H3zJ88iSP8AQkalA6f2SV4OCkJtnRsNte3qJHh4rLJabqPgiOSJZmTtkpUal3Fihu4UJtXyLK69UR7kjKWoCuWxeVlgbR2OrJbHWT74VwSc0TULK17kcQ6DmFX4ChKWa0TOpZxbGpicrD0LSFhQpXZBGkl1EJia42NCmbFeK6IJYPnjL7R7R+GCpBGRkvUQoy6hrds1nUjTLCe8Me1wSyWs1z64uqa4JYYdEWKyiwuZtcHkFmJzLMeW6vK0atqiGNCr6bCbAUmXuUqoUINU2zfz6FQKQKGJJfkqyyZ7lirqQCK3RMRRe7o9BOcVtpwSRw4UinS24RD9AxWesVrZjklbmmHQk2KqVJSPc5UeKQtsrMqVeNdAisecrcStzN6CyOFZN3EoJamCYKwGW9R7i2NxJtoJ4SddCxsWVVyVbRCmrkiyuxoc0LNRYKaBaGMJSZvRC1fUhuNEhgspYpcmpDfBZUadxcJUxeG8FWaJX0HtX4pw0yMt+f3mbuMslKU0YTkt90P2hZVheuZl6mLsNKq2BR2cjVBCP0M2rC7Is2+vrmvdXzlc/YNCfCFYSuWnUQOaooPRog94k32IUNU1dhnWuwtGRiFajF7s0fXCam5on2EoGpOH0GqgunKQsM0qjR/I6jakm4ETYlq3I9ba+2mD2rRUdGbApSWSg8PhYZzaYm7BYO3XuxVc7aTvjOZWNltDko2Fxizh+vqNQsaQLFDo7l/BYbplQNRrj1IANwKScSYTczcbA9KUEawiqig0TVmxiROodOLYWkWCkbhk0ReJ1xHceyKciSie4QmcuiJTB64CUqKkp1NwTaRyM8OWoupLtpXIySAsYRZEVQ9s/BpkrkrsUJ5/YsKY3WUkdEi/7jTLu9D24str65vG4yUw5EL4CcdBGrphpmRkXxZqfLbNQn1eWeRUWegnZWzHE9eiElRwJFonqLAiMHl1Q+0u6w9cGhoTKYjrohbQE49SJtG8rqXILZwxo2J+gYI79qxg3n2QrckT7QnL9RiOg5bxdPwXyOCk+guCbpCR0J74ShZeEGul0IkjI9LKzJjrWSldRJQsZE12SmEouJTsR72SiR6YrEDpD0eRfWqTyVL4EB0KaITOWekgK4E4+ZzFCZOZEN6fsVaDazkFvo4Bwy/I4oew/ipmkhp+RuPZD0CWvPYUbe02F9RW1kv4Q/I/sUun0HBT10UKS+pDLY0ZR/0K/wBCJNh65G6BAWKh0eo01MUNS5CLW8XQ4YmKj3jKnE/USShVrIzqhIb2DTrJcMdNsqR7B0D4soZ8lNSwSUUoEK07CNVHYNTTsG5DXcKSdewqeJchL/oUpqIO/cFz9itf2ZJNqlsKz+hqaUkfL2KEp0E7hdCHUa3X2DRf2sk/yyrD+RAb0fA9YLf9mTTV04Y0iSFuX3BLHV1FKbJ3lOfkEx/cNenfwkZQvAoNXrHYdqaLZsNE1ViDnRvH2cc9/sJ+l6o5vdHgUqafQSlqkaGaF+9iHJMvngXlv0NqVepNRFlpf1E/630Tpm6nA+G+hvT3hVLVO1GU66ef0T/r/Rz7j6LBrqb/AEUuUn0LnHyPR2b7D+Yxdd9X2RpJNdf2eR+xz+L3JCn7pWiptDSFqrsPIR5yGFFFVIRV620p9RSOz/B4y+jykeSiwT7nJb+8cvvPGyMXdx/7gvFCQQW7o/qjdCe9ibqJKp7kinXUspCaciLVxajry5FSa92XZT7sQPkzhwFKMOuakTFiilQqrCbe0q2FD6mcQdwrOANt0G6/YF9nWhxBQxCOIJbyqBQWQqcKqnAQ2Qk2I2ELG34w7YbZffP5FjY0PUxijG91XzhTJWjgpTwzRsxJ4pDd8LJsuvVccdNqRrJKRLqV0REthd5Yu4yRhSXTKhJJumEEYx6vwCFkSPWwWRqVJ4PCkhxWBLO800U9IWRNe7e404S5Yz2ezwWLI3sNToFlXvL4zPW85IZvXIUybSJw6ZXzohBsEjoie5jq2zURxEWiKdiLQZoZxKaMWO4ix0/tsRHCVosIElJQmO4k3L/QkAiCcfe5tWDZhaSvUUjBr65VnokvQ/j1yMZPry9xZNcIQslwVkXyOiYkJmyjMnvzO49oxl4uqOlGrkFFxKp0zfpm/UWWnpsJJU3xSt0+M3yZouPn5wYsGu0134PRCpl9uMmZSmMZuiuTyeHkUm1CqO7bmh+8zPQ6fGaEeKokVsjCkKOhxnD09DSGN1FowlHFFKoabU5vCWCNLhYe3KqLiFSh1bEkzebEDddD2B3AcA5rgmAnB7wYkeuK7mKTpbXhILIh8p7XO0CzTjdEqfiROhceMpOWTlSTsEsljGmtoLJIznqzNS4xpquqojcjzQmLnMiPTg2Y00rk04NXzpm0PCXiRpZCwn6vw/JSEJb/ACwYpw98EnshdXI6csnsySXYhF1RKdmsbh5hibCGN5RoU9A9yL1cvRYbsxra5OkeZxjKRyYeNzi8HY9txRVTosOdEqcinCFhOlu+BPonjOEKXRYMs9BUhKKv5FhGDsLpkyHC+EmImjkJiuhwKMWgstBSpR6C6i6vUQnIdtrxqKhl28uz5MqC9t+B5dcWj5fyLK0V9XwIjJ6mBXCy6MVU8y5hDnhThLgbbdNMcWIruGUnRupathA1qpiyN0rDA9BKPCaFg0LkUjl6ZJNXR8mg2nqVGGo/BCGb3l5zgycHd0w5PgNUyKmpqx6rlwFWEmHO5xW4kwLXA57ZCNDMWP0hKiHKa3CwjjVsQUepIQxlQR0N0GNR4xXtGgR6kgKEzOWR2grFhBOmOgirUyMLXbU3QnVtkRR1dR+S2mGg1vBWbaVphMVbj8R8wkViEJMPYFfRFpDFF3apZ/hQbg0IjY6SD2D01Qjp1s8JNUFFIw0p0kSgdn0GTbH3uZvnE/hnHXGJgo9UTJJROG21fBJOHUbhELNpHts1Ksy90mmVTxQKDqMZHGhEOCp3qJLToal5qexJS1G7NYvQ8qFzgR2LuriK8W0NokF00BVT5CM3E2Teo07MMwkhWTHSWKiNHoVjVQxbZYIamCJyxGWhl5zldn0GlvH4J/dWOuYNTcHyOUpZVCy26j2iJ6E3Iad3wKnaVqw1LFGyaxwWHsCtXuibbjfsNW4dAJbImqBN1TKI4NIY3NJjbDaiKZ1MwOzFLYkmrjlNutcF0ajTjyPQXA1XQKndok9iuwiqVx61QnaEkYJFRJJG3ASqQQtDuHo3J/ADkhMmqk9SP5YiBfRl89xcv1NL2BI3O5N9w0xh1OANdWhESNtmRw2Do0DMyHUnsPaMlsyKU18NsTI8JOyRL/hjk9CGLffZmp8GPKXuFcK2lVhbXfIbp3hKZyTspwiIH36uwmF/GEK/4pox1PAI1/BBJOLwR1xPdqTx/wBnSvG5sd/9n3T+x6XefYkw+UijvB/CZRp2GLd946H2Eey72JUUSm4/Atwv7n0N/wC8f1P0P/Z/Q7vl9BVFBTZ8P9EzLeHX8PsP+eVi99lC1X2EC9qVh5V+V9jvnA7wNNB6qOxRVLsNifwCTJ9CBObCwBGwqtaaIgwTXRAtsnoTJtetSopkbbzwWT0kEpI4PpGqkwr3oV8RbEK6HCkkoHVEwcFpkJ0pKmBImU03VSRCiGPZIpWw5hNSthIcI6QqiEWZhoegrdcKi6hJfQ+yRSuwvsT9Hql9ngI8pfZd39XU/sfY8U/eAiIuZ2j3s3uPTX1X6Fr+DoeU+hO+99F3Z3/Q9SlCG2OnA0toXGhaY9RkcOQtH2KuHGsnyIQVUCWjr9slSZcbIElMaI+aRybR6qYqLx37PMfZwOwQjkswam0UiDIs1tXAnTl3pLih9AT0UPMCTct8QEUemCrVGtS49X0F9CSczROKkVNQ2UIW0k6fopgrrVijVJh1QL7QvG/2bzfz3EvwfJXCfqExnQ6yGUlE92cMkUREI6b56WhWpq+4/wBACsil+gNMPooHLwSdRKj7AUHB6Bf5p/AC/wAMOo7M/lITSqb0RWegv8Yi0FIJ/A0kmRZxg1RrgSOjiJ3KQ4Iop05IwSrhf0YtcggXvZU702e4vwxwbZvK4wVSNRYb3iBRk1EsbyHos0JLl84a5PeL4wlInFVHOle40modUUuS9o7TbA2jE2REcO4W9ooUHJegVMQ7UMEqhUTJOK3CCdAM6E1YrcanIEQt+sUOJBPC6ECCCt3KlsA6fQVWlE6CtMlPFKu/7s0Keye2bwu4sug24TI9nI0pCyEj0FossfAvkkBSndDsbe5BXrmLoFgvL3eNp+pDaUUCeTZZV+Yq9b5JrWvfY0wnWJiRCTvB0b+pLnQhYNHo5msCcwoMUXbUaLsJTGBcEr15PYYXibZoqHvRa6Mk4e5YJLpDeZ4+7Fk91H938qSmKRFz8YIeMp0U4UVT1JLi75jS/dMy2fJ5qa+2Gkt4tuBlDi8DamidWKqQ01HCs0o6lsrXI0QZIlZKYqlqRHNyCRm7wV+mF1RaFc4JJmEe6HqwbIm5Jp0E5Rd8/nCJKKkjXcz7UFYV3h8vI1BnUVc0qc1KPk8jVBYhc6DdrBtKo6ksfj0998DTGWC8zd5vE4ZZFNzea/IR8wQazUJG7ixBvGox0wtJbJoaK3KK8ubkUlqRKHVSNlFD3E5MP2HwsJGNXiyTpickCKAstqsjVLfQL8DF+De5mnz/AB+mOmDWxNVPIJETim6zMInBoYJPWHteZUl+E/hoSjBidz84aq0KI22EqUygdhNcN9pRkkYorGhMaYmmTAoiYeqBQaEmg9DUVLEvUl6QRmgqUG4mtC742OMm0Yp3JkOmzGhFaxo6kiwiA2yTRWLBARopPWNXSqhnZahSth7iHPQXjxTCTJ7CwZeu/giJiouAi5iE3wXuJCBK3JRKH7H4EohuQI4XJ6E4B9ck3SZxuQ0JuPcWOmM4V+JGWSHWEvqOWlIq0K9jhhYt3V8ZeQRGysTOgsDEVT9D8hEsqnc/BOBvEsQzVzMSr5xLCS42JZGke7HtubTxr4ywaUVEsd3rzoghJUECqnh1isYTgsFYqOosUrQocHmeCDgKYJNiKqaPnGFsQgRFZnamah4icE6ie984rD3M9rlu9fFCIbENhNBa/gib1CezQgQ3PmPfB1HUdR1FO4/A6xFEiQeR3YpKo1r0HKBFGLqvRCa3yea3zNyYciEK2NtcasJW5yi51EdiJLZE5LdlV2JpS0wYwX3oWWPo5kr0Vg4kpxe8C+aKiRShJySOH1DumIcs7xWDovmmE4so8uuM4SLO5DO1sNMdBK9TGuPspQYnjPr5qmrikmROp79/Gb5eVqSpu2Y8PXIlMDr0czd680Xyfzl90Pb5JPIdAnQkknB0n1eOxoJkOcC9BzsOVpg13Z8ENyO6vVH88fxB/EEp9BCEbvDkYob1TZ/bGr7ROws4HKeYRBb2Mg/wyO8+jNrT7hytwpQqBxun2IbMU9H2JTf2HW5Q4UMl+wVrvqJp+IlH6yP4Du0KUWFC3m6ih9ih432Gv7fsVf3/AGFNXl7CanSoL+KeMip9BUFxbbmyfVCGruhoFWulPIkVPeUcuuuLOeC+iTkVPm9CkY6aDIx6dGPwF64XE3DeKHumHTA5oPJSxaCnTLQgbyMSGUiV6qwlu30QSH+xLf7yPFnnUpIQ0JuEaf8ASyafnE/6BP8AufQ3B7G/6KySscvosfN+in4fY879Hl/op+H2HFKg88juPm2H6NpTNI8qi6bUgW/1DpJNbwJUNl6og+oPS7iO0iB716CbR9Av91CgseqK/wC1GqeXFivb9UV135Rfjuoqz7wgt30QrU3VT+siHV9Uf1h/UwIVemtpR/RFCSE4hy/sQlJuDhhBQqKJV9p4FKf0YNfAgvwFm4vLfo8Z9H9/9En3/olbdz9ELrbg/rYMUbBwhO+PQUPPrN9lWn4bnlf7PA32JavF1KImLaqpF6nnQWqTmoPH/wBDO8Kf4lbWmn1P5n1KPi9jwvob/fX0IPMiKTyTwVQkkf8AWRX2yDWoTOlNBpvEg1bCpvK/2LxX5HYC2frG47Bf2sd75MYl/GOQ0acDg/bH80V/1BLt20VP0CCpVflFBCeMHoxSdETJA9cQJ4zJ5wyg0kEI0ELBa0aZjFimiRxxHWUC0KfZjXBRYHRF1XZBDyhKK8FU6UuRpOkXEYIm3oLQWsNYBu5Nx6SHrvCaiwWXXA1dsqIVvokfi7ujwKNLMVSsiQNJppkoeSpLJTMz4PwJEpYK85Nb4LB6iQlqyzRXf9suhFXT85rnzphGSvqvMtbb9WLJIneYbZPbZvvvyIeFRCk7QWSjy2weMeo7b+VRYIRcHnprJJB0l8idFl9h+Hgx3xM0yCM0C0wanHhEkxrIRuno0SyZpjlsCnCkpmgMm1aMr+9YJPSJm6YMhG031zUsaBJkt3gkmy7mL6IVIboHBzEV4ENxu4vksxSAsD3gcmK8FUyNfRgsIH8C5Q0dyEsUh3IjCSaY6k4LF/FqIpkbuL5FZZdxpbmj00+CMWUKeW+a6zEXS/TM1cY3TCB45f1yMSMvNpk1w89vjpip8jXNLxaLGeC6uBRYSPCrkRcHVHYknBd5V6tqKRaoNMNDcISwJw23RgwdLJ3RKhHmd0NLuJKkI5FZDcKR550VFuixJmLhokvJa6jUaFjtdA4vNjVSNDXZpbkgJnlWuCVdCC6/QaRyVIxCVcjRa4Ch4u7pJLCiPBCuFxIm5EKF0pwK0y1bE6laT2CILGQk67rfFe4gqLyxORX+hRtihCcW7oW0lam1oLBq7Cvw/QuLMkTX4dDQgjLKvg3LMug8+p85Fhbc/DM8TXcqVEfA+RJORksxWpLLSWq2v0Esiudu/gJ4Tj5PgWWcMmMNC57f8LCMnn9yMNcHZkjeGRpJDJf630MoJx7ToKIpYZFDpJW9tiiJ0yUj0Roh6I5zkVlHBC3wrYuSkmaKXI0VqhpvDsipL3qhtFUii1bhIpXEODlrXcaUk9dUkqk4H6onFbYlCQylV0yozpFdVoJJHWnFGO5atWJqmkkKy2I2jKGXI9bRXRwI3S09hhyMY5gbpstOMtbe+DUpiS0UomknyO1ombE5SYyg4pG6xdpYqVQ6FJbks1LrDZi8ecEq6EPUEr4WIpGgtEqBIWLtytc8F6sIwnMy72Gwsie18lqFkY+vyeRa4K1tuWZ+4wnGD33wweOpc8ckYSPhjnCmKdLEhEiMtS7CgQIQiBHRer7CeE8EvD4PzkkTR774Ek5IlXOSbLpnsME+Tcg99LKlQNvMgChKO6wlmvBL0RZgcOooUNTKIS4IViVW2IyStV1OZCJu2I9I0pe38iU1JSbGVkSgyEjweEJPQFiVbY6i0lQkek8FyehTPRsqluFaabj7xoZqrUruG7yB6e364Oo+4cLoSRgsFZyusUT5I790kVUiaFKh3QtfZjkWpUcMgkvdTXBIqujUEjyygpQgkm3RYeSZSUFtiy9YLCScEgSyNHUxK+hgssYs83k5w1xjUsGo6CJxsSibNOW54zGwbWdsJwvuXxmjZ8LJJJBPiPJqanbGF8YQyj5/BBBC/CGtXmuVFPX+BJJIlk6SSSuxP0MIexD2K7FEaqUkKbLkVwxEEkxCKxanURMmSSkhSS4aPms0hVTsxIrXQbnZjdCYg5T8EkWmzhF3LXcJZFTjNICDqtvkf9kK4sI3PL9B4V+hxXMtY+gaJxD1sDGjJUUPsiJXPKXKCR9b7Ez1PR9nl/Ykk/T/AENyvjep4X3FM2qnnUZSiBz9iQNKLyo+REq7JFdFN3BxG2lWoPMpJpXjgUbC/LQt+fsTp4egvSKifQ5HlbHe98NPKj3DmVPRkf4GPzoKqEx3jzcxp5KVsc+hQfhCeS+wcgBdSFDqK4XnvRUsQRLpAv8AffeDGzSTaIE7oU6RJV/Yw6a72QlfQj+cj+aiK6hNDxEeYikU/wDU8DFhXl8tB9WQz3/G73UQ6yN6O8ydPfZP+8T/AKB/UfQ7rrSYb6IiizSv6FB4/YUf7H0UX8z6N/vfo8v9G7znn2wvwvnguD8f9Yb9MR88KrVKtQT8h+ikpUKUFnG7CH3WFHBKGqTbX0i1vB0xm5awdkd7VRHPsahY8B9Hhfo899C8J+jZLNNTr2G7z/B/Y/R4n6P7E/qfo4M4hhr+4f1g6PzMtfzDo95FHlbEl3+hVZ7TPAn9kv3fs2u8+yoZYfmpt+brhb9CZ1aK/llEr9cccGNbzOh/F+h/A+g1GnSWol06C/1EfyAnAsEpWkqs6P7XBLdfhNOZX1/ea6+W+AWrGHlbPI2L8spnd6DJdlH80/kn8EfxwmkdFasX0Efzgl/QP4gp07KEQoh2UWI+6o1KdvY4CtMHqyKnrHH1wgWOn+BCIYpiqBbvL7UsypitJ6CWHuGRqSrekIJrgqMmlJK9SqEKoilZ3Fo51cYUq1pkZY6MEsEQe0YsswWNk3sPBcAsCyeuCwgvOHtfkWCZODLPdj2KFlWFikK+FGGIdMEJW4yIwTz7Yo0wgcGGmPGFDMgsPbTI3hDy6ZvO4zX6z5NcIK5BpYsl482zkkqO9msvn8C2Vra1+A2sZIJt4/JGDx9vykeBzkgTsliw0xo6PNe8MWSwuuk7vYRQFzOji4lCbbG0tFBWo9jkZrcPkVsqe9mo6H7Fi4SQqNcn/8QAJxABAAMAAgEEAwEBAQEBAQAAAQARITFBURBhcYGRobHB0eHw8SD/2gAIAQEAAT8QttbJQ+eYNhcWWLzF4eYq9j5QeyBA5K5nYJZUpDiKmzxxHmkqUzWFVYQBVIajoWTV4wntWSxH8gsMi7SpbZqHLOSULdjwYTPNxp5InNbkDQVlZm7Knz2yrOMQcEqg+yK8xwbgPmHkjg7Jw4Sg4IDgkoDzlGBl+VlgtrgFJt8TFII6bLNqWMVQrNx5VCsaOzlyxqlgGwPA0SUhm/MaeEsHT5i+q2Js0GOgqADUKwVErKWb4f3LBUdmzKSxGk+8DGu6ZaLvJKOrgmmU8wI5Co9FlEKOIW1MDbZyU2hj8QC7Y365m9XUSjRdM+HkQpatdSqjYSBq9xKAgy5hTk7U2D6RpWR6Ve4FYFFx9gg2vaCHl8EWs1iFbHXBijukQ3CiZZGoGBXIIlUVzApVWJSSApAruVSjxL5q5RfEBt2KEfKVYwhzPZiVzDkmspWMriCVzDJSbNayrojTE81Bh8y1jJRf8mu4jleJ4jL5MV5icbMZtVNLlF5m5s9rlcbArmOW2qlxFw7Gp5gGgigYKaKDEqQS4bK7sjzeeIrXiLSVlRQKOgKuB2MumWGOSlTkgULe4QGbG7jEQDsBX5m4DPwfqUB+I9S5TW1VkXlsiobJcByXyP4jdqu0y8CI5BVtmlJfHvm5c7ShrfuOWxdIOQ6RIv4dTXNkRw8y7X+YdRv6hZdy6+alvEPPtL26KlGbfv6PUqyprk6L2XxK3TyynAllR6gshfZ6DRuaeIR3gnzoQDmFeLlDWRG1KWwlHdtjgogTBZY77lNYwMWy2qvYg2XuLYlVDhi3ECbjDjqLAsBZKHZLdSKq7CWC6HRwTa8HiCNomqo8NkQVXEqbSLDVjMUn5xvy3G0/SoGtFFjpQJmyCGGHSBUV4ZprbKAksW0EwAlSAld5WNogX4aSFzgVyVMbX4S9H9ES+D5VFYuz65jya2WQZ5fFRoq35qOjGCONbnFxagJWVLC16loWASBnIb3L2kXG2pmVkMvQuZHRlW3GlJM6riUxuVqJwzHqsi+33A3YAGlicVKv6i1ilwuDp4ndRsk6Ewg0vMeibPvaic11EHPzBb2PgCbUvIVVsH2llwzqb2SzAj6YyBfJANbgHHtp+S4eTYOeZzbUoLrfzAiC924mniWy0SG70mQRSBhVRUZfywRq5SMvy2CcEUKQvFy6vB6Cdpl++9xUaJlqiA4yKVlcSkBX3Go4cx9z5ye97cLeWcOQsv5jkTP3OsbIWMQbWVGx4vMlo7GlJghSe0CgG+8sAGVVpgnfvU5gBC7+4gMtPE7jbzniW/8AZnZ9zjZ7PFsKu7glR4nOzwR3zKLIWQIBR3c6CF0449Lbl2+anwQs7g3BfO+gxqLVIG1R7x5ajHmHEW62XBqpVEZlcQgWlVSiFHGyu0+cA7epS5dVETGJzNQPIlbQuXssMQeIpeJqzspnxlG08wXljZXAYucz3ZZlM63UoXxAMBGVaUkpQ5cy2USsAVUAoJRhzVK6QHmUMo9pa67CGUIHyZCpKCewMpyCVTVRLBKeO5Tso3ZK00AQGWFxxERiCbBbMatI1CJQFJvtKi/BO/b+ZQXsfPDGF9sugRqzxsbuGfJMMZS82yltmVO2KcwITRud9sQLtgpSyvSzA82csFKWAcr2lPMENwLucQR3Pe7nNsFDVQAffIhBKRbN85DIydFH2BtolRy9oczxHGRr0geYnYO+IoOQdEIoeMpAlDdMx4ZTfMq+XqV+JjhUGuvUTgMWn1HVdRpuo7L7VFwcQojHqmLyZLJDsuW2GtsIOLmfaB1lSinhNq552Ur3PSnw3/Ji/E23ZvbH287F6OYcVc9ruHlycStC4ZUfjmOG7L49kWhnEvun4jRfM/2V7Q9/MsqL1LMg4TRcxkq5RGoLvzkssgrVyy+JsG19F5uCZLB1nce9yF5KqFYMP7x6CUel9y4Wam1zO9mL3KM8ehNnez4wlDEt3VUfmIeJzTRAvKgRRfESmS84PaAEqB4ggHie3UBmStG2FQudKZwJrCPC0osG53rngdgulGhKg+T8kdBMuIty0twQpdtcQXuWy1PC0p4ihPCINhfR47Lg1uv4l0uy2Fq0li9NmiNb4l9QhZwRh2QsOUFRcC8wniIo27GiWp8GIeLl1wREBGoIiODBP9gxw+YIy+ypTW4LfeXiCssnfMER2F8o7TK0+JVppKKfEralGypqV71PciSs9K948MZQD4gFRs4I3hv7ERafFOSjG+JwVbC+Zhe3dynB9RFxadzl3xDvbuY8std2WVssYc1iBErq57UzK24hWS92qvJr7RFQcgYg2mWwo6mBqIvqPwgFs2HxPeVcAqfcxjOsclGbkt2mJ5RuvhiOJ5faUszBNq5S9wzfRJzCrLvRnmmb52FQfqInLAPM75+ZuEZWS+2dEsonvpK8w9oXcFd5K5hdT6+ZRXptQxxLuoVOHc5sviVnVzY3FCYwjdQUbCF9QL4i1LyvTCdMWm5y8xnifUvWVtyy583KHluPHMx1KLnZMqUPMpUTKRlSqizGWglyz9S/MotiXK99l1fmNlJHcgQQM9G7mVDOZtE23xP1KuVU69NmLdlQNmN3O5tS85hKsTLLMleO2GLUpcB+IVsoPuAfiO1AVK8HoasqIrixhwcyUhmPzHg5leTOe4b2IIx8L5yYttNF7Msbj7mUvvmWvnIjXNzQ5lmyp4MaKwlkJ8s7L8wwlfcK/mhBAOpV3/kBfNERoSto/kDF6hynPjj5gYy8pOYuGvES1vexObhdaTIe3czb5nPjHqF1zEC5HV8yuXmFXMa2VXFegM6ciIn7jzxwR4Q5HmDxKxhbc6VLmVAqbs/aLDY8pV+T3h+fE3JbWkuruc11KyqncKhnct9OJ0nJUDUlVwcwjzOoPmUaHiPzFRAnPwQJQSnpmJsOdl3c5vIxsn3PzEmTaKnFwWDUupb3BscglFwq4pdTVjC52yzmM8MeSpW8xNnCU3LPSq24aQDQm/mPszsJ/anzUunn2hced9Fk253SQBZbylZLyocT5jOIIQEcxepvP4lvMqnWC+2sFeWWy0sqC81LDsX2llys95BGpbdy+/QuFeZe1Pkl3MXDoy9Gc1cGZcHojuJXFxpPaFwZz6Xsa0hTU5fiAGPbcEojwj5gEQnEd84i6j1ei+3+9njjzLqB4XVbG7+53zL4x+YJV3DDzAPMvVMui6uK1HavIhXHUeHoR6lU5L9lSrqJV7MDdThDTsdOiVRC6NQOblLMqd+1RB6l9ObOGqlotmsprVbDWpx9sNS5ZU8TahOLhV8w2vEQT/ZRcriVkBu+J2ekcBJRVNzoq58kOx9K05qLXU2l/EsmRsO1OLi9zrJkFV+OpaXLzfTI0w4Y8yvFzbLYkyiWi5H3jNCKTxsY7k7v0IWpWEr6gqcs5OINm6SpvCYxibDfiWcSw48cT69M5gWQ+clnbUcrMnjimd8wI2sxXiZN3zOHJqPrrwRys7JlZKi5rk2pt8WVOh49O4qWzvxLHbi+CIshKgXG43UtTPeDrGazz2zXSeILWkD0t8VOCY2niXKhwxtLOblObgrp4i+GdEzsWnBBZnoKEwpA64qEW9Pfwo9mi21PvCnRU8pd09wyKoQqq2W9HEpxLKkPZWW34nI7KAPxGjmJr8QcRy3JfmGJ0ReNjR6l33DjPM56nDssqOl7DQw8XBLyFcM4DYLqHURZVVKqGwHiU2F9woqF3MsJWYRWGVbPlywK28uFVXMBJ7Tz+I1ROG30zzHm7nic+85yUU71AV9SzxNlJtzxksO/TzMLjfmOFRDxcuMxDNTahPJ5YnJUcLIPM5TxKsgGwKgA3DvPW8jYRpRsvwRRfIQJsbUOpdGbBhXS4Yxmr6cVBxk+58yr0l1eXMi+Rn4nDLo4mfvfQ8yx5jGkI+Eujic1bMu5RdxK0j9XHzMpg2461w1H7SgNbJxUaOuYTubcVxfoTV+gAjpE9CuJXEZxLTxBrchw0mXHhuVjC2OvxOSVGU+Y3uzeyXfcMl1zOVBpnUa4gzknWMai6gJwwSvL5gENYCPaHpGStrjxK+GZRG9ZjPbkh5FtTpHiC2Fst0tn3GmeZw0nFwXT8RFe9xp+DmW7ZkQrvDLVhE3iJxROsSjFyLs4JWlSy53ifcechXTN+rlOHdTn/EeBucXXiXUXch8QUZf3KzINJM0wwfmVvMBg1twRxZS5C9Orldw1bGPIlPPc3vxAqzXELbMIc2QFsBhhzcJWNm3PIFxDzKLmHMP8g00Zc+JYtXFIWytvxLyPxPEuppPRwuwln6slpzLsCbu+g15m+JRceCMeJYAxeRI4lWS4eCVcMiRCpXFxnc81CwuTrCXyZKUuJ2QMlFehs9Fqm4HDCXTx6KYUky5sQbZW1GGf8mV1c29jwe2SyncLa4LnGQurwy/EJUTQlNX3B7ol7y1MqyDDv4haDulLpcDJPCg/JGPUdSmJyudx0WXLFKlo0xMlvTCtnHeRIXb6ZdTEyPnxNxhbHhx5gDE/M2re5ZtHph16Vk7jd1UTkqDRLHOzlfEvj0wimqQ81GKOncmeP7BMKHm4+P7FZdzuu5h0tjSrYzgZykKBBPLEOfZpg+797BeNIYEeGmB3jeoO1Fa2UB3kM3AJdwN1ZCzMrm5c8xpsIcJfNsE979XDKeLg676FZC7hku6c+J3AbHpGF+gG1NR+IdPd+nKU42AgBh1jkQqZcL6Yzaij8yytefEbrzNAJRPZONIfMdnDCNcpeEGM8Sx6SULzLb5j7Tsubu7c5nV1OoGNIlpSZmCsSMcJPKOGWsJLXGUqB/Ln5BZKgCqSDVIscbqK1AgIW0uiX2JBTta2cjrLT7SIZ4xosa2LGoLB90iILGgN9kuW3Lc53aHkqXwacRFWZPzxFW6lxfEuD9cDw21zC8bmB1zBDc4tgh36CsLbOIyq5llzubGDkJnc45ll8jMCqjpKyXyRY3pcT8zg5lK95QXBElOiJqzxeQ+fA24FKivDrHjUlSpl4Q97q4CvqxuhbCc31k7HUdD2PaBdpN8IO7NWytofqVR7vUb3s5ihYFOJcaKENqGWQMu5TsIbIn2MYykTiAhsCe0t6R6iB5ueZV3Aw2CVD2rZv1P0RRnCVKADohxD5nwQfdZZXMwZdS3LipZXMeJaaOd2aktmR7qeIFwfU/4IAnvL+Edonx8S+F/EoqKFveWrGNWH8Qmg3Yqrfw3sRq28rkDtZN7dOrctjsNKEz338ssuYlMNpsVg5yvioIaiYlQhk7bRAD9eB20SwA4bLpPbxgEH9o5xvzc/AGRgR4ocP03mIguCXg0eO5ybAtuN/sWg3ZGycEMzla3Uu2NUsOJeQVrXUGXUAhvGDVW3OJgOxVFVCKK3gy05Xe5dsopst7Yps3lhMRcyHVEZRy+JpxPqBxG3PDCF+Klnll6T48wdWsui+oIjFyCVU4PSosY25vBdsd5NPgjF0l4u4vUzPw1GLIJpU9yzaRRw5i894iwrT/ISj1TZ5aitJwrGxNA+wks2jXcakc6LrmomeTHVgC/RSic1Xgi/LH5qDtvM7lArLBagVyy4dB0j4FMEmKrqYLq4yrMJxc0mi2eMw1NbB5vkSUb4yKr2plSVLfjGrJwOy+Zca6hZMeoQYRODvNhQnPu3wQCda7l8LLsvAVroEp+1THODDaFIHhbLy0dew1cps1RCgc8Ag+hjWugZtGSo3mPPkGDlhU8JCmoq5UJ0LqWobrolvvtRBhTToKJW3KDHL5ulIjCNATAdW17z/qDYPKWjLahm/jIslwM15bMlooYhJ0RfulgwaoewuLhC2o8qWDxaRv8Ac+D0Ni8cR9Aaalw36lvzG+KgU5NLmwLeZ8MayiURseJmkvipcPdiyHp1F/NTaIeZ8QhsqN5vDcPI4OJTCBy3AU/MHi5XdRs6BBsVNCtXAedGstQNOpboi+mwV3O0CmZetnU1NGytukXKUO4KqVe7kiG23GSqOzpALo8x1ovCFMTWjYsCAN6uFgQ9jcM/bsqL7TKgrUF7honYeVVFkv2iF+yV4gFjfEeUvsGpUDZxkLNFCL/TjYJjkHSLoDfMQBYHFwYGr1ezbk+yCWnfJHONXY3UoFJVOREl1FJk7FZFqtIUqWff0Nbg8TU5XB9AKWWbLhVx2NRWsSFPiGNijuaBFoIPZN0uXXDLlkMWFq3Lsg9S8i62mHyORcl5xC6dxPlhFbZ7sBmf7U86eH4slODa5yzSBmEs6TtZbCOLAo8oKms5f2Lnb+wm0X6VgI2WdsyBoLIB8OB9JgyYKq9hNdIn5IEuKYk1dW1tF1B2d2npFVKVQXOgsuo8ti+Jjt7nVXIhKrzNhT4PhjbtXfi2Bc2C1aliINHi20Vfwg/IJV2AjPxLCzMXiDcuhLNlV+CBYqGwJRMWjl6qA3gXbVRFZBctVZrxGxWrcM/Myl2vMv2ucTMwB79MhzCgHlDKCWpL+GoJlqXNW2Nnhd0A82sIjY26eX9QnuC0YXUI7VgPBedmFH9loFr6kqXcbT2M4vLlqhQJzzTLQwteOUA/iE7SZ8N2SwHK/guJqUQf2cyq75J1lt/BKuwXtAACW3IFNFlX5Etvqbigh+RlzOJX1MS1ql3qiLBW6uuCoHUFrk1jCfNX2P8AkHYql+NzFJZ3LqK08QBTWEAe6ziWJKq5QJxC35je7ksj3DqcbCniUTOmObBgkzLJpiPdTJk6nZL4uVDr0V2b6JcjPM1iD1kd44lLspkuq/kuVbS5dCzqwIyU0DAQ2wm26rJehZQyAQL+XGROicKKl4oquVvuptDG7NlLKtcoMoPEtt4IeUoyPzHiFN7EW8gRjn7LIB5QW+8ovEoUn8eIYbXFDbHlSzTMiu2jQuBpbuTf0x6KvuKjYX1CdgpoPjHQw0iAI+6wJ1vsqadzLhN8IwbjDS1EvTL12EALLrKgIWz2YCgJtgp00bOYaOaAOIyr5oPrVWJLhoPqKpfKRFdN6yIVN9SKUqelzBKpr6uc5h8wDfxoYIAOvVY0dfgMswROaSXUAfYnQeJylXssOaebg8rg8Qe7l2Oz7nHeS+bYuYRB9QHSRktX3jCo5Q5RMmb3fkbRtVCM8T+c1KTjLATez2G4wYSsGtyP4dFdpw+6V6sonJBIq9qyzMUaB8wxfEVdvxHy8BO11cFbRnFqP2oxgNUSijQKj0Ks/OxDEe7lJFsNLRNuOUL6GOt+aqHX4Za6RaWW7uHKEVAt3LhisUObCClkAUK4bhwcWUd0guMegdosukheLqXT5laBdjLQB8QvG4AtgDgs8kBJwBf4GUw12I/EBGCeVl0SLhqW8zjcAvukvDBdZdsltRUkXnt8x3bsQZ4BDijLMjaou+kcsFYc5tkN7IYRwgWUHKsFE0IvBcAtNDdkBHER7lah7eZX2Cw9+KS9aBeYhGX7WAGXlsy/Q3tG2RxkMGfYeLgg3j4A8R7K7QOYfpYo6b0p9iXsV/o2CEolOVSdWCdKpyRao2pwTknhmTQLc/wynioH9SHBUOeZdDD5mvocsucLgzOCdBJWe8PSmiK+YKspYXtxq5TC+/QQJa5suadtejTc8VHHzO4zCePzPd7z0nYl5CwBYIGWN2wjBoYSt4R2Ya1kGGB5IGuwcaUQDosBVuJSbUBfdCInabe8NsN0wiSBY68xSixTFkrGkTsYiiqvlhix9ICzBOpaGtx8DVy1XfiFAFNgiXKq/KyVbF2o0Esl6NccR1dlPxSuGDG3ZjUtvgYj3WR30iOXJAu+IgcpLykm2EKtZej5pGrtg6UexHxfzejKLIuBQBbuQrVRNyXYvnYgal/kMXG/lhYr+PCEU6PvGH6/xTNJd4D2f9YtaPjiGt2psoDVUSpnvrIFxgxzxuBFQruyFMDTltINz+5ZBXyVuNHDNyAULspyYzkN66EKQh8hGgaHi0pqkcoLCwACqKV8yuqyXlsHYvelv9krpAWPuKIf+6FA9lqBwZKNdrmCNfoYFR222Yy4o9Da+BiVSanI4qKhQkxsKl9RbDdouHg9FiQPTfFkoRoCvs4zED8FaqKcteGh8RSpwGVhX8y0E83CIVCmuXAVZgJbB4nWj4U9o4K7xZFvpoYqa+GCVQ8G3E6YF0l5co0K89QUwq5sgZbMov5iiheDNqmEVhzHkjyhepY0S4g8RPS0xppdXX5nIqDmd7DhCTyFhKQzmAFsc5lqHalm3yHCdzUISlLXsbD42OB2MiasXVSiM1QZAAypQhwOS1zbAtssJ0hUXCnPvAlbLTyQbrZd8odFVCl7B8QHhLIvquQLUQpw6FcGHiPIzYb6+WVkhQ4AjK6OC8tBCIlUeRQZSilxfhzZSBAlfmYpvcvuVtz6h3cPEBe4UzmIi1FQ4l405DZrOX5hcOYMZ2V4hzL4nwQgx+Y8S6L94GkuiWSrEIbXaWe4wF4ncIhystj1lRVo3z7uzQ5l5zHxkNq+uYltzQ3pBX7hVIPfEEQjXMUGabq1ShDarThJWbKQ93F+toPCLDkuvePzGtZGvZH/AGBoNI/3KLCFxVPtEqhyPMuy1U+93LoPFk2erfqAKdCvykeGMQL6PKeYON48kwGXy8Sw27L3ysK2M6JwGoVxwhmKDT4E5pyOvEQitffCgrTOe2xoLIbeTzLC2oM5qPrp/R6Vi+9noVXmVEvkCe0APvBeZKclFVUDJpHENLflTUtDje5wS8hzK4gvK/8ABQaI9emEFRPMuXCUIPtJLOYAcnjJTdwozXw2wjAUv+TF8v8ALf0jhfL4S7F30mE0wemQ14YVYMUTudpupas/Ow/X8Alg52bUH4D4gRs2b1bn8SgvT5CNFiF8ksv/ABY+6vrxG/Z25YsL1uWDiIh3rwZPLV4owK0F+IyU29iX2NOTIPaETAJu/mcYO/ihqfKkYDLm0LOK28NY1nwWniCXGhVSgazrCdlIeAvf/wDcs0/zOCvo/wD1FFuruMOjWBLXVTqNyudyp/2NFA+V/Iq4t83/AOxHBHsD+YbGOXOHej2Sgyuua/5KNN73rX7Z/CbJdmF7ZSrd96IU73FN3VB8Q5zNYn4TIEp1ef8AGQf7B+wqJX9NUXFfHqv4kQekG1urmFrSFXQn+IBB+Qq/0TVfPNuOonwo/hIOWAHNX2sinuvK5fuNaqBo8/4Yuq+LuP0xup95AH6QEWfyGacKsG/zTOIEPY3/ACD78D/3cO2kBTfyEGO1lrvmVQlQDAIR+YAFtI8W2dg3le5iPoZ/sqtorksh18yyVg5nUaajztgdNXmQtWk+cSLCq32ZEtfqZmv3wwEr83O8p+aqHL/H/Znk1YG4DPcOQo8JwwrtK2X1c5cYS76nmpiznuXync3ioOwSIO7TFfJNitvjKht6wOIRjNT5+ZhnBOIOTLBPaksFkoFumMITFcQEX4lic7L5JaU+JYLK24RtFWu4T2F35JWUS7bFz5YG0ygVBiDRQAV7xlleMTJVnFsodq/z4RWdptqW0gQMG6EXy3FrayNLq2k5JdR2AKE44gjs9suX58mvXMsqJpM/CQ5JSM72WcfuGJWV+yxKq6RsMyHeUBr+kpLseBrLZv8A7ORiQKab/NTT1qsp7LmQhutyCPDyTwkAvgur8QDyV+uwpSTrcjk5qo7nMLlDh8KVhZ4jdURBCmNThKjA3oTXkunLNGAyqTZZf9lkr4OFKslvESHc3QaKEt2rQfFJgjBtGpV3KAyC/wBC/pHfB3FCoizSJwQ7+az7Nm/E5OYZO3qKQBV3M+Jd/mcbcplqav02k351l/kuiqnv+JbxkSmIO5GXZGH44hViHErPQrfMNP3D5LEJYdkCVvU+ScXGjSqjV8zDqciILxFCoBvmArVLp5ofTf167F0jzACLn42WATfJPhhE7KL57FJ0Ay8lYWlHnnmKrVF5PzHYNUtxa/2Z+Q3ZadXy3+yljV6HyidTD2Th8jh0yA7XmqMaiLNaOStWN5bb1iuf2/5wYBHu1wPU1LohpF3X8ZUerl8XLhorja4C8ubF+KI1mPFCiGuLhgIn55X1DfV41JTYjxnVzLkLItcFpABLm153yZKFk50teEncOYpBJkwIXKa5nV1PuMtbqeZVUCMNy4eM4JQUoXE9JFtVkduqpWQYUdglu7fTAbD6WXcOvfIBbKlWiUPEFxHz7ZY1dLeh8bHlSsq31B5D8RTWxXKlW64jjGUlMYJAGZ7eJRorthKABhGGODp8bPPxL+YoJhGJLDmVDShV/Ecg8MHVd/SkvKmcx4lQh5gYmzmMSBmyUBeCeOC6loojVWaRqbXtsHmAIccd0QhRyb5uSEMlZvNcVGLPYvsbc4tPg7CW4HmFLG2KpbOuo7J7s4fWxlvn3T8QqN3LIbaL2ORtiygYONolrg6pfEEllXUEqL7SsO7H4oQxLCoVOSKTia4E8N0swg0V1NgbsSsihphZZyz4hWL5RMEo0H6n+yyzKh8Rmp24fFbLVd1bzL95xW+l21ey9vx+4oXQRGpyzLS9Jewg7zjIfklTBi2o8ztf8EWVFI9BOh7lFIapWHzQ3qV5ZlXcIj/924RvAJ9kBl1Xo8wYrUFeyEOYOyiVsqKeRd+xN4ZvHUou9mkAshjDhvyKNTBAlQaVaVPylHlkNHYhHhAhHhQPkWNwXWTg4guZN87Hox0v5YWxr49ahP4u/qzCDDUE6jpB6/nCkvD6XsTqVUQe/wDjA5VYSr48w3IjDg+YyivXfZRh0DVqH5GPYhbpB4l6FD4XhqFosmzBjcOGC7k7jHUzyQ5UY2+1obPg/k+RByVTzAO2QdJZhtu0mPESqmrgvmIJSEsPAIb7SgspqISkiZxxFG6Tiiw5PBVmQYpG4qwOxim8Plq/MUmBcNVYN8XsnC7cXfJRAaR1VAtYF9k3vwLaizQcaIzZqMREYdDEyl7eVBATzZ0J3QDCnlq4RI675fCvdSFVQobsyKfTEs5oiypvuBxjlyGHJerLTovwwi8hlBVb/mpdmM4NiJNPmA5L73f/ADQt2Si7kofcgs3i/INSlAASxFgaujl1LjAd3e8AklNfctlgloLVQl2Q8Lk+I4Lv0upxcrPDO03d994WVk0N+fS5vUpfKWzi00dbyQgYbLzJnHcq7prhEL2fdy8w6qFbAnSd0For4mBl5EbAZa7ktp9oKlwLrKP9Z4l3BmlS/EuUMtevwksuXjN2MVIwjqW/0RKonkW2PzLKZoXfJOc5L+6DnowmIRk6P/XLVr/8ko9C5k4Krha8rA8kwZcqyxg4l1Suf5hvP7LLxLf3PFSveIKA5Q/L/wBTJ1zLW5dwcX/4x2EnxGMrId5Y/wBL/IMDc3mI83EvZgFG572GUgwJiDO1uBrCyRWHs/hGFwc3/d9BCm/Ra7Jjyrz4MK4yUVE2HcayuYEPEF+BBAViKL4lhK9CFeDfc3J/8ZOKvpVMCbDzM2bLqFZKWez/AHgceGV7vxEc3uFMicX2VKyghfhtivgamBcKUvmo/Gyl7GJzmSGyz6jibBu4vvFlUZakoyfSSnQsulWYVhGWyfYbhk6hTxsXK7BOsiq4cQnscwG4Ug3LHDMymJjXiMxVQKDJS1VxFuQ2xVVVvVCy9L7oWApQ0VYWYCBYquIrLh4qP0xaoldToqP3MZyhPr8TgFIFWK7heVg8M0G50CSJb5gPMYnCRQCA95QwuaC0HbQgkraSYGnWI4Ci63a/8sLYmgPDWX3vRENB4q5ZLImXuNLbS0Kgbgk405MEoN1VsFoJedv8idonGqI2z95JLyKiuqRJphqlD81Kun+DMTyeE/a+ERj1Ck46ZYi9ZcLg1s6yA/C1F5zO+MYNhLK54lXWwWHlyXWlWs8Up0lObhF2cCr/AOiePWEUrmYpU+CUkYSv/RnA3zHticbAlg7E5+58YmMtwMTPqIiPtEWOVj2wQ/2UXuSqdZ5gl8zJK/raX1A8s+p0nMhW3hx29v8A54JNleYhfUdbyDyyQfDdsfMYXbcU97tv1BrjPS7uU9wbd8ygBVfsqXoV6PoEBW83HOEWvFv1ArllbDlJeVNWq0yqblsU2Ve3EJX3y3Hl5TbcqN+ZVx0oaL+LS6jwT4SZb8S8EZviDWKSui3iVJFUb+GWx55lwOS+Se81Y+ES31E3ax8rqMc0+TT+SUoyHLkG51PLGuJnT9SiyuY1Y3L94CeaZ3yiC3k8m3KltxQ13zLEoYl/GRCkOL/yO9upTdRKrqWE7lvBRxPOxBysXKA7h075RLS2cGA5EqXbzzKkvg1PwUVAWFc9S2JgdK8CvUCCwg457GNSB0HwVHauOqq5ZuJrSfABM2/uV3u5ueoXey0LnCmy40EQD9GbWwPMZXFQJXst+Cti8csbeJ1EqX7xlFn7eRUEaYt0xapuLKMLL3UKfr9VqzoV2ZzQxfcXDIW7H2Im7C4u3Qr+c0CvtRHmVfCH046ssVxr8VjQGqqqoD48g6JUCDPQp5RPEBpFU5WzS+a2swMtV9E/slpRrsDRLYGiHGWU7KtJH4V93ALEerP5cDuzq0f7ABVNZgbhBalicnmpXVm5W0L2rfT/AORuKT4f6SllflAcs95fpeIZSXLlYHP+iK338Vs/cUtgDWlRoUfv/hLqa+Lv4S/HFwmJfuRDhfklVaua3/k4g14WY6vsxmgnw3YwakebTFVKQU25Sv8AIJ/+78TJQzia/io1o1a/4ZBxrLyb/IEfRCutUF9yiHkrJ43hKnWrzHUKfMuJODi+C56qVwLcSCyu8s/kGv8A+H6hq5PX/CWAq/8AltQz3mo1U8wQNEMoBCjZXVm+H/jFiADX/wAE7xXx/wDhE0sVe/6IQLQCwaU9QERx54PzU4NNuf8A5wxvF94OxhtUJZ0iva+YZXAOTa5tR8tZaYxbYz6mS7ni4Dcl9I0D65YUgzireKLZb4pcq5seNNmoA/EQVpvllRnCfly8hVV9EPJ/ERrxPGkxdjVlfekoQBUNyRbqpj1ROyy6lniFjLbYa5/2F/kahZewXuLUMFso+HZyogdo3jrs/wCc5ICLsrYvRPkJueJhgKlOlWaRARKUVcPRTdQjpFT5npz0qUrZZij5sAv0w7LuA9M5/wD4pjMycRcgTDWpXA6CpRCqQhiFrmDH51gttXFveWRb7l33kBuHMseHBAMc7nmyprtaSWLlLYJFha7J76xLVZKPtpHY2zgEqBKeQslEuFcpN1gLDvWIS7s+l5E9oWPCiGpdaPF9kMghYy95lKBnuk75iwABSv8AIwoKuWpijJbxatQ8LEeZqu+yQ5s7dIpUK5hzHwWjWFbsyslO4R1qZtsvepr+0EP5FXMtXAvknMqhHb5ieP3vudljZfpfHmVtwC2uQ8hSQSvPpQkS5NvjQdqeRgY66oeK8Y1VkVvIj6HiuYVUAOtg+86RnWvIXCVC4t4BS/xDBXmXLPEbUVzySmNtE1pe8QRvSGbot/Rcbrma/KsZg5iPxN4ubLpu9g6O4tayoSznN3KgGE2qhxxORtYry8Swi2tYRUkrW8gqeyOJV0svnzLWftBq6/hiQ+Mi8HYXi/RFaFAtG3nGxQ3xGkHySxSROZvPkWJ8sZdtUf76K2LOHIIWEKSxd6qCqwoGyBXzsWltDahU588QOnQgU7PEZclY15ZDuvfh0MfbOzWD2fFBeq+mDLKFVjk9Ef8AC9Bqor6a1PtO5tMdcU5l3WW1t3ESFGNKP/YXEv8AP/tAaie7X9zKIZXEWBp9hzAKgKpFNi1oq7nIgBgp8BYFfrhDpU6vP4qOgHbu/wDsBG/aVgxWETsWOjDL0HvMrVC7yoz6ht9N8KJxsF4W83wVAMb9EdQU6c7RkFSrp0MX8znx8f8AaOQfZgmvGYSBVZT1UPWOqbtj2Ywtx3xW/AxZ6Hk1DSq34lt1f/PcvgO0Wjm95R6ADmiPi7iXeHlpcsNNqynJ8XBXPMHMplEWOLl3efyltPmeW5SHNwleizbjL5LQctaR1CgoFy/dhZ4+GP4h2+4V5JYYdvKSa5lWjUwl8EpivPBKNZHa/HEMPekj/MTbmMg8OyHzUdOkK6zU+pRUJ2/9YTgutsILXLcXuz5lwD3aYomiX81KvWbvio+1gRFqW7/2JZW4EgrzFQWvkmgbUShpMsUs6g6RVA4EBOIjzL13zX9ib23H549ChissdbWz8xaAj7M4qDTEq58iIvVUkOUvJekqvZLqYngXzTF4D5n9mMOBuLSLOjl/YqDOYpjn/CKsUl/y3LgpTiPEP6AprMJgVIDmUr3bZYYmmsgbysOGfHpUB4qflg0S9Jw1dP7h7uxDUArJqyBZu9kNxWN1A5lKzo39pDRrEnqQN4f1LgqwwTwpwPkikS7SOh5u+AYKqHP+eNfAy6hWvE9risB6Pzc77/4kF4t3XtYcelkPRANtqIYP2uOSK/LompSkK6qXekdCWVe85KXXmXIHOXwrUq5hTFLLhD8xWjn036/EEjGrCi3PoUwkVZDz31gp9sf5H8Q0049MzZxsEV9guWZpSX3pFgr5L9ekzzMam9QN3C1EMphxL94pl+GXU5A/BUSypYDvIcCCCjkQvRz68h44CAtze0eDctbCCF8zzsLtdi5y3crbJ3DmC9vc+KmUm2nVguCEsl8ykJaQ+KGqsd3s+PS39EdWPLLYLeTCWsz7xfehmdxuzZdwpW91lfhiF75hjErepddRF+0/T0vxDupUq+p5l0sXxBWuYCI7BHHyWPnZ8MoGAevpnGGyqV7xmpPCFpaf2B2Gd1MYK9xEEV7jEFC2UgvyjNklOI/uDM6lCImFy5AbqCOngu3tlDTnszfi/wB7UFAEPKXnk1wdSy1cvYsWAIe3CdQO50jhKSkrzHWg0YsF3Y8+8M8bJ/IkhxEEwVFhZ+e5ZkeVwqTVHfNbURBOzqcEBIjbb2m/BCoIssFcdjKQuz3q2O7c30qotEjVN2F+pEKnvLCLwx+yGfuCGotGy7nJ/s7ogFzjwd0zY9Go7bA9wQG2APcJZUfZpy8TYLqIKNGsY4Jupl+98MXv/dCQG4qfLafBD8zqvBwI0kdUJ29k4U+SD79xEcwal61Lju/2v+RlzNtlNLyCmSz+6HPK/ReGmF4PsRKdH7A4iELhZS46OK9muhYZBb29ygY1tL2PTqXpLyTgGBD9JVnQ18p/yNlAxbeIoR2Fy3+F/wCQnZnNeYPog6vqzHshQC81wwWxopb8kOJpgrRm0L4h0yhqgdsoZULcM14yVj8Jd0vyy12bBmbBDGBQooXMAuMK17FiJOrdi01cSEvuNi95yHhwi55shnpWjdBq1j5avfEdsl7niX7wIuUCtBfLGCNfkoBviPDgFAWpZTBTkBQcHPzA7WFQpb5ggIg5r0aVNpomEcHlzO5emVkRtLsQ9ALOC/fUy1dmAXFgop2yMCdHcFcajPhYw2qBT2ZfcW0zhqXcI1s/L2oJQ/aQ8t76fc0j1c418B+FaDREGIpdFfum58R4FnB5o2RWlm/SUnUy4XsIRZ3K5nIMG1uIoK8D/afb8TMYDET0e5l5YLwpGDi7M/2Yw0X1CrRd6Igt5/vtQK2Vas+Is8B7RpV37S+bScUhk6Uuo8qIuLlJXIlZR+ERQ31hfuOJivJbgYmXTioA0LGk8ezLUoioh3PP+M/sIJXjjKtoWFPzL1FCmj9IUsHw9vzCEPwvT7EtEDyP9VKJ5ThQ/uFhK5TxiTr1F7OUVHsgxmqXBAkU2OHgMStFvjYAl1Fy3BpZVQNwtT9xNuzTUNJrNIoqLLnzBFVUXMOMZUGlw2CLjbwXlqGKQ6qakt25Y+Lr+mFg3B62n5VNitjhcIZXcSUrJqpgjBq7ZcYqU9tqAQOGrfiBsu4XXNQ4YVDzYRjm+bi1kBB4GwlQHkzwEC/iWc9Q7byNCpFXvGHDGs8XF77Ry/BBiC3TmnT8yu5SkcrriFaWEz4t9wZq9jKmeB97pX9iYGgFU8eI0tELyohitwsvYLBixJtdQPWzpEBKgXGsLhccSycydX8JGIbxGhi3XFLx+YGIVYUjVe8PD6FF2l6/bHQqAy+lAqrwxtTcqXl2I15jDuioDpTFW20VcDwQgwVGrLHNQeLVLrKzmVfnhPjZ3RxeS4rADTe41DZblvVhdyhAsFcMEeWKbF+E5Oe+JPAeA8S8Tsu8V4qBbtaqZTGFC0F2YTiShB1ofcGqVrwhUF8IdR5w8zgobFRVfEz9LHi7Eq0tKS7gO7g18BAoidw1UAGsYhOUPEY+z2yw4S4xWG1PhjXrHIwOMUQehYwlwNhN0CgHSkeAORYNACzr4j7E3u4wft+9wEVF+bcuviGmzsgfw2eUKV17PRLQQUxwGYHpQRKl0dwUWhavCzs44lcbFyTeDNnKNP2NQfDftoVEvLjz6XxL7uCS9jdkt8RFy6uN8p/K2V75zy2QSovgg2O8Q3Xm+oANaWp2xlVwMvJySuUydlqX7hBz7I+HxLwm5UB1LJq92FqO8ZVApkKSfsmiMzmOkdk+lkbTCVljKQrC1HwNiPtDOnLGZSbbvawTkCp5AlWu8LDkiSu7eHNxG8Pthe7guMjQg+aXOX4KOZSoS7T/ALxpB8CmEwbNMWrRR0EtZcUaC8d1+ZwBl82LEwqkdrWDlPZVRLyKBp/gqZCza1NSquFVDJ7X8YFxUzUW/mBGXeL1A6HssIUWoezP+wsephjbYkgoef8AoRSqLhDKZsuqA9yoW67rkjYI+eX7GAmlDBY8guCmjpcmau3LYRbQdQalRe0fP6iQsAtfMxzGYG5OwhrDCmmrqrUEFYc0YDn3DkWsVX4htbwA6UE66W8OSJ6wgm1Xi/JAtfAJwaphLXKo7DSUHNPubtnFcr9qS8xhWT4IIPb/AOVcE7R989yVODyfgQ+J/IJUFosx2DtEEZv7qmOtjr3/AM2B21X7Ov7gpHVyrMjAdJ/ELGKHgeCAetgLjyWoHdcNwgsuoiwwgGtXH8IYMGlvKQ6RJX0txDDsS8K2rxkp+EPsw4IeY2/K0Ym/uJ7dypXFQ+bPSgbnhqcA10QZylKgmdfk0l1KWqYkC5KYpBVl0s0ivYPzzDH4J7V3LDxGR/5CPyisjb5ho1eKq9FfRBSKRZPL3MuRD5UKuPUqLT2gkOh8nyxLHJWc7oPaW6DzM1QfiEENUG7vIxVYFdhIgECgPBLi0LbeVY/TIwWr4JfXxdfJuFhO4ZTHmXCV2YbWYZ5LHxcHYaVvLXcNqy1xEGBsFUIzJryuBctpYl+Jys2t7F4dM0t13A1eItVaGsBjOXmV9mz2QhAVB/erOZXzO3GdjqEvCrwBIhPE6Y0yoRroh7pGU56DqQ2WH8fsMPQwqvFZU5svnzOXfHpWGzghu1OQZeRURTmWL25VL9kHUDOevEQjfXmF38u6lW14gDTB1yS9fU9A1fmIoLjajPZNCzCCOQEIFzGcwVvb/wAk4N3Fja1K0TSpPJyQ1jVTsZB/EU6J8OQcS6o+Y7BXMiD7Vk5Gi0ZrpQzmbCod2gAef6Q0qNtZZd+5y4mkd1lKq5wBDG1dgv7icBB7CfCTVOkpbk2pxIvlvkrpByoj1K7gheRRTVNC/Y4yklOwGe8eNJTEqm/CiZXMo+p0HE/IsI9qQXKV8Q3ia5xajev3cRd3e90iTefwhYA2bVL/ABF2rjsxLiwsV4DjLW42woreP3SgUiqTgxSfuXMiYU3qmXEtWZBTNtIg4tzF+KgC7q5Bunpfb8kBhFarY6nD+4LoGIbAmuTFbzOdxKuC7yIJa+A/yVaa2jDKswgN9a8CsogYC/lVajzovN8ResflJjn+Pk/ka2Bdjl+xE1W67zfxE6C8Qhae5Cyj3C8JIN81eDATAK5io0a6fWxOgHyr9kogKo8EObY0gbl3aKCgHisQzcuEoXxcsC/R/wCpzqXcGYrFVkNPXCCm/ppcfICVf9gOXs8j/ZWa7ToYQ6W81b97hyMcSO3tG/MK+j3/AGh4C2+ej4jg8XG+vi5aV0zIJA5m1bi2MvY+9Sz5grG+dJ/szTf1kE+8Nj+LgYpa/wDxUbqBxWtT3CNQiwk6om+glnXVXjTVaW4ZpCaeW3UDK1t69Bu625U2geboig4f/vYFV3x+y2Vl1HeqHtQaOg5Qs3hFqVrsTS/lA/7Bq+0cEEJ5Y31GAInsQ9tnV+1XaqBpfbQi2/iJZ8p/xhkO1be+YDKSxSHvkUoP/wB+SDZRBVi2nmGldG0UloftBFlT7yX6DMFWuiX1rT8tstwrAU9DD8EO9uHtiJmwFw58wUiWPnLVBLGMDYYazu7mJbpTbfmyGGw9C0xzZ/HAj8rltE4iZpNrCc83c8bK2lomzkXZa2OwCHXa/SfUGDsWCFZDEaB/+iIUV2mtPtL8E1+IViNQAe8v6lWNiVW3LCTWs4sj6yty/EuFde/tPmWfxATaco6jdAtNobQyrlfZnk/UqSOKw63xkCdU8l4p6QOHQo1cYtk+S/0sS+e3BkXQJaRUwAHBDuEP5JYESn9BlWpVnLzNqdD2b+tJf4vJxVf/ALxu4HFsT3g7yRL1nAVrl4RgkwvqK+IBULuKTTG3oOUnwgv6nulUw8h93lxo76mYR4gN8/UAPZdP7RsbijLkyUl7YfAhay+oAeYsjun4hX8y7rfiVzU7Ig3cKOo9x4EM09Qz0YC4cNwN6rKN+hSyrg1uKcl0j9MSq7v/AA9M4yyeLnhg5OItX0mdTEeYkKv7AAiv3+SW2NEp/CwnQRaqPBDUSA1y2YUqD7EfyYFVDtjmnWNy7hUu4Ve9+ET8RLqIVEPCMvdw1Vc5KkXnUJ7iVPCYfiXxLsPypYNbQ785CuQlehCXtYHx0RLIjUsAL+JUvaqFDnL+mXCY+m8QegTwkalapucWn9l6Sq0BYbqf4Vf3GucTZ7CLGTFgP3BU4AKm0t2XBoG6zWDwp8r5QxWtz3WMLmvEh/1nVUbR5UoF6BgShT/CVdIb5LP7A+Bvx/2i9LhbgqTe22XzfmBAYmn+MBpLPN/pkOGn4/6itNae/wDzF6zpzP8AagTRI3V5K09pmcvcGkA9m6/1HAHx2sqB43ZBr4Ym3kIokMVsuHko146qFzQNnJzEmMVKneTmUxDuuv8APL8H8QbeIKl8eip1kKGjXjK0NFF+5qJaihssrmchTTKHvEMKOOJRcVNoCLjiuj6mGQABRsqKje1NxaamWdo/M0Gy0brsShRCUWdRmFwb6asJcFYlUD30gXC1fEDxhL4sJGFqG97J42N6xJ6VY8wrCp9D6VGOeYXkuKZNrmJ7pw+HmF03KqHRPMWryWy4f59LbWR5l+ibef4guLs2BSbsU2WzTJ2T2c7mj9TBAbrOLgD0i+CVPH++OSGh6KqymUXCuLPlzeFQrd9PErSOgAAT3HGpdQPaLNDvJH8FQeKEOCNWc3bIpYXKNxy4OK8lxWIovhFWgnsy7iHk7smO4wXYh+yZAJdedhbrLBDwp4WzIIWaRbi7Ve7hH3Qfywe0txGg2r3COEtpiNYdEp7INQGwE77KGRKiA99YJWkqpRQPlVNn+TtrJb5gdxZanUssN3xH3iqbafmtejDRr/8AZH88/wCQw4/kvj0fplQFvEyrho8b+6GS9r5V0oIVwlQMstf4JOJ0+nmECh7v5ZVckzm4uJwnb+gIprfcds5stly/CGkmu88PwSjYcBLOFK8ueIXqLTA8AmZQASo0q7091uG7+fTJW1cPBor7KMRdr923rDiKwKJubORWj+AWZPuVbZzNNhsHin0GWS6Tw0wlmyvMo6ZQTKlQOPS7hcO19EMu8j3UHiI7D31qvxBTR1SKWmp7GaFDubLYp8LIgGg6Q0fmrXzUz2G9qzI8OL85AAeypcp1aUuEGuB+CKAVVToq37vadVwKMqO45KJTdU8cyrFPFUQvI0NIweKim9xTXRJQ2YRCr4MRbxX2VbchspWQiOSNkIxFuyr3VQ8ITllNjVnxKhZ5LI2TzH5gKNbv0Xvv1BIWE0rvjKr8TVwb3iX4i/yOj3d/ED3CumPL3DNh3kaoXXP5n+ymF3zA5i2CuoPd0kbGW62xnl4Jq/CfiCTXqVLZSSfEcBUqyXcvbl8yn97njMCcGSqjxkLWAZNCchFw5mGL6B+4yihaAoS7u5554lHbGNl3RPZY+3HskJoeW7jsRZ2xw5ZVi2mrAvYALLVi45kaXwDuSz6kQeSLlkTN8yhOv+kd6tA5KjUUlcW1CzVXRNSgqmEdVqTOdGocCVzzQmWpd5USkCjRgciNQCNxFGckqi9ZfAqwDeZ3zCJ/5pKm0al+cyMJeqfi8lJJEPYJD5+JPEE8y4bNyP5RCHN8dUlgIULGeKfRHuBGp7Z1ZID7qAg1mfIIBaXQnwLAqdTntYJ5AwfR9Hq5djwH6Jk6luVBH4gJwAHAEF//AGajtOc/ybBhUS1dlj+6+4U9HAXqxJWzRCGr601eACQ5lerF4/BDKzYVDb0LlQENwgnxAnHHqODP/cp5d1nhr1eptxgVZfp7R1zLuB3/AAs+ZC0LgNToiz7tUVWef9qUqmcIkBXzBRDOVCUy51SgfGQADDiKLa35CHoq/aUkLPGCcsydMqZOpctr+WBHSwUSMaa3BrIOWE0sv8JAd4ar1qLHr7bzi82Crayx9eSCKFEl3rMC4deT9pCoUrNC4fplvNUALX2JaK4F3IJoL4mERV3QadismvPlsAiRBcrOaiV+grcGtlefDGiNBdgrIKoIixtcEoJd4BMx/bE7+wibgDsRGaH/ALl7xNPMsNGLBV7zfaPqKRKOpdmNQ3WKM7hmJdP3N3WzXubmzfPcZw+f1XnZuTF9uPLZtUkooqU1L7uJh8emymJcMiKa4Ufkn+TrJlP6ljOIviKr3v8AuQo7J07wvWBEapT5RORtwZld4Y3EUjKpjVUio8MDvagRnn6UwmVzWOO0XZ0/Qf4EDQtX5Md/rYxIU2aM8ZBlvLO6jJct8TSlx1IGThbBH2aJfBpKourP2QI6VrTXR5iihOhuxQVBdnMcGC2WQgUqYfix96WNO5Vfsxc6FX4XKvaS+UyHiCnQolHXovrqXOvPh9a5WSyhUkUrxdRCVuaOT/8AQTJ/GLXfKNUHxzCmR/XWmePEMchzOYq/pV0gP6nFFgg+IVZLpP2g7rOUg16riG+8RgNayiPMtIGgwH0avllTi3I/OSmdNfwnSVZKJnmE1o+xhcLr1AuFL3kfULjxVzjzLO5ZxYU+hicvmcz69ERo15W/kg8NzSS4NlcMCivJnwm7uv2tPqAoV6X5l+IDxz6dQJ5QhOX+X6NmMT0FOu0Hdi/7cNCzAMKol4mXA/vMHCaov7QpPj0dBbXETvFj2eIUuXWvtGJYZlzbtjpcapCZ3UH3Ia3twktTP9I96hGmwwW92pO14ZXvMPMmLdqho+XL2C7vMFo5X9Uwa1Fw6rtRojh4Wlh062Y21TwWUxtK1Vi6MUkBtrrIDD8ZiUBFZdokNcM9pbUC+dlQpSnDT52FXpG/KnmKurYGlr8gGWlE7Lv6sBqoXC5FzVYUzFBFmh+2UQUat0/wETw+WoxgdKgh33LcoRzUeEb4MCquq8TsVeLf9iZYuYVBjRvQf4nL1O0LTDATnGPe3kNfyMWjVBytsYPAso7A7dmj/hBaJ/KQL1CAHSSBR+S0sF58lrl/DZ9ERAa+Lgs2ALp/gi0FhZTTHyXDuFa4ibr2gSWAPmsqV9D4qC8ODv2xGZL5hNAMw6Ngk1ypb4j7hVuRLq5+ZikeIuV52h/EYf4fHajtJpk81KCC0W4Ui7SnO6u423mmH6ZYNbsOIMRaRhwzMps2FhyUuGIXKzl4F171LagRB8XBGLUv4lF4huYU1GN1Vl+3NLchsxvtv+6l2SCSXtte0E2eVeWxLvcNOgR2EWAl13KYTdHNlJf1lbwVLoiKqNN5HLuht+5EmOQOhUotw2ubm9AI5dK/AcwESBufpLuUl8hw5luEcmQ9beRKMqT8rtX4uI89QP1Kwy5eC+YW2/LMygMHU25K3JZka6jewH0M3BlDspcGWU4u+5d+SXOZZxCjGv8AOX8//jAtdbCZVD1LoZTk3v4hgCXKSmbc7lEcje65cS/S+oK9tPwRg3CI2LuS8mylNlkOgcpfwywv4n5gWVGUWK0fAnOv2fhQqmOSy69pkwrJddS5e1WS8hQQcXCX4j3UsQu6fMXWBVxqVN3zFRXbUexcOHifU4aI81NAhKyxGk+JRBVTN5nf85nBKc+epRSw2L4Jc2/LPaMI7krlUwG4XEWNIb3hdfqY7OKYzdNOIq2w2dSolJoRY+RIbnoPSJrr/SNEWbSqlZTR+DG3nhnSBuUII7ezifiCw0oc3KlbZSrLPMF/iWUczr2gZDGwqsYA5d/XUHCdEvY+ggqaQfDcL8xONidkb4PuX75Ge7f82VPC4ly8JYS2oG2MWSqUTWl6nmpT6OusrSFLxuV+INkDHEMPEqmLgWC/iDeje2vaLt+epkFB5sM0PJzmJN9mFLdb8RRBVhZQoogoabcQ0WjnULx03qDwG6yGwKLFe7KAoqmOXAsAxRBXfB7vogpGPLULYu7vL+RLLdA2rUxqUwS1D24uOrq8lZcUGDiEJApFcEV+FxWqnOoSQEpKMoC/gwSx8GrgltSqMdFhYlsAhpl/IOK5wZEelnsAUfDWSzvCjU8ykrYFV0FxSr5747UBNRWhDjBZ3PH8kbRrtqXlggcLscpxEFAhbw4qA3gL4i9D4GOCDFsxSx+Wb85Vhp5qAUFVGsEJo40iiPTRogcXLoxE1NZdPlmRYe4P+xZU+hQ4K+pp9jAiYvMq1NM6eQQS3COXMBSHiFWgHwlOD+CSl7HM0B8wi6o1+pq0N+Bn6jQcvbZcbxkdZ/hKH3s3/icCfgRKvMW7DjKQNd+FxDRjnW5VSlLtTv4grrHxIxcA82/0hScxzwJUObvUpenof+0Dy/wp/wDQzijCstxDDTY+Kv8AGV1Sfc++IBKc7bj/ACc1s9i/2EG/yhhx2nBLYcfbckHVZtCr52AjYp1Zf7gbhdQS1IqfByy9qFXxHMMeA7OC0130mn5ICIr4kFalPkYbA9zm0fDkeRA6CzkJLheI58INis8yg7DVvDUTgWBnzdwiKsPmeZmZHn0284nTzGFCqmqeajfBN5MxR8bcOX52eZyXfzM3yc8EEjwMWxU2LvcBF0X/AKqDy7l3sZW9mJFWsSgyBD5W544jXmrlg+25MJ1b+QNStX4tR8kXKriCr9tpXWIFVF0/nI9BRTeAyy1+L2F3KzYGOO8ivJGlscvvq/uDZhA7wFndIVIFzv7dZHZi6Tu3suGwvoMaSBVb94LSVmxZfcuZfMSec1/CFRrZ52NHvHRm2Uwg0a9//DuHECVUqVbGBVSX5KJl3A4nbHknAjqv/wAJhvoARUjUj9GXLZdVOT7f7zk5nUbGFy24zaNv/DMv0OZwvMqWq3Dr5WHdsq52DE95gL5mDSt/vL/aVAbCdwlMN/3R2iFt3zUCqjAgI8BaiAU3KglYm+yQ8iWNVHyHEE9DV9zpNC23Atv/ACe4r1+aAxfuxaNXg3cyOSJyXUymthNe4AWtoxHAfhuCzjJsLgWyKriaa08K36iGukoS5wE/eIQD0BXgc95V7OJ1CIs3fw3NG8iFQANVyXl2FoOyyfMzeMFPma2rmVNEi3OMuVx8j5oT069OoZCVZlGuMz0Pc9FqUtWC+GC1Pe8qKea9DGMNSq35s/yBiSr6lbkSGBLv8FSihp+NWTimBKYyk3Ri2DVL4uphL/UprieRMKw8Vi3oOi4vqATaW88dmHU6ZTHi5wS/ESWUTNq5XDLWch/KLzYS9uaysNvEU59+J5moKFAgtosxso3NCHEuH7cjsyXAute5UeXdcMegRU1N35qIZimvjWdzGpd0dcPxLQO6UfDctDf5EgePtUzfUta6aEfZWmoHMGX77HU8kxmQGq652PA80TzGoA0norkOWLFMKEvjichyv2o0rfIojdVNfRODiEe5/wCocVc+4PDAmaX3E3MWHw4/c5jbFtEtLq/eJRfOf3F38x25dceiy1lZq9mqc1KMr07JRhPK3PYh3JWioYLlMqwh6J9v0ahuJU4Kl1BjLg0L/Nwe5wQ9HYS7j/ThM2YWZxMIs3zKteUjPilE4+SCvI6vZjxGpfHsfyM47z/hAgTB4KvBGAJgWxDD9ldPMF22GXOSZ32zV4KO0uDdsxoSnWJsNXPzMOVrtA3+YTRmmisERYLKPNNy4OymtV5W/NQU58HNl162psyMMbUY2URyQXbeLg0qxZ8ig2FEMqfsEyC1QW/YCXCvMFZ1GjRBke6I+TwRtrYNfMFQv+aoPaXkatn7klQjc0iPoY/MbiZdfvcFW+i2ksphbhrZj+j/ABB6HpW6oF+EIijCJ2emwaq8g81BGocITiZDZ9qIqC8Jcy4c0zuIH0N+i4Qt9Bc6QfLMfT3a42n4NYRqFmd0x9OIXKnnZ2PGfmafP9lbzEMLuic29LV8JrvJRWhkDh0OFJFAaFW4/VxJxPuR+dI8KXu5V8h4VhW2uE8x46vzFQj2eS5dAbq+Z0u9JDgYW6J7YGC0ihgS9ixmqgBaCv4IcHg8S4/cvPgoPaksDu1035hgKkR5DYicp20HSj5lPT0YYsm0w1TAgIXqUdXZabj7/wDZtNxuzf2RnAoUcwdgO71RK1VhnvBaLaKeUZcruyByW5xET3jo35j8S8RELq2HN2RVOYzm/i1cUvoONZ4DLBzGh1n8ahcIE6YM1lnk8QqPuFJkF02XcsCpRazZCvUdqmFy45qUp0tX3N8Qxjd53LSf1DRVmz7gsC5B7ZyrV5HIB8coynQqROhci75xyPPSKdrFW81fEt6L3vbjsQOVpj7VCn2CXEUsTw1sGy+L/wAS7W5SZUenI3yBManh4o5HTXqj5Gjp1HwomwDNemyHjncr3RxBrYqWlBUQXi0cPcYN1cG9o/S2O9xpftZCXkIq0Wj6CBHZ1X8QZyscj3cJVS3ofkfiNqj2MFXO307zpz6grbYkspU4vNHDCg8IOkVB3/dIidGLSMEw6Ib9KqJ7iL+Ey25ZRSsN7ANq+WNaDxNaJfKzJVU4VL8sq0UQufU6nTzM3s/ShYD6LlwbTYucR/0+rG6hWvmznwkGznJNQ/MWMXXuy+LenUupfBBocQKXIO+1sIsvn0o/+LceCFZLIdG7el8lVKIGqA3FAzdfxAgzo8SgIyqnj0RjwSt4ljcj8qVyF21FQ1BrqU1PA+YsmKNwMsWpXdSnCwFDqfsYBmhbS2WxaqIUVNuGaA2VhUvJ3hSqJRZ+P9GVuw74rIe1jOMosX/djeQXhqi1Kzb9KtfNCIVX30H+y6q7iI+Wmc432X/IuWzyP/mDoUaJy7Ysejx0cP5nYk4xJb2bP+4cw9DrbzkBhn/xxLq7Iuu3K5h3chpP+keKPuIhU4M0VKung1Ky1R7x7+1SCU8Sq/tBv+KDcebkllLX8+IqfuuCaxob8T338JZfV4YPaiHOx14A5ucLYcTbo3l81NF4RTQtQRsJRQNWWBbDG918OIPvLwYCWdc1Pa47qrjX7YNUUA+WUD2qVek9p1E4Kp/cjWweIJKdw6ERDgbd8xfvOU7u+pdsBeAmFwtr51hVKDRPNRh24JWgbF3WkiuLE7a54T4ue/8AHxccIm8cGsFpIL4E2EbXYt7sVNgFOE5MpoC71ujYcbo+NGqpkoAsbIGp8R1ttjdWrKAB7B8RvhxvkMqinrGDUFVYi1xKFWBkPR+Qv2QAAAdUVUAKVxfmRxKlRd4k4QWrA/5hCFuWqBX6ipsWe62pxZED2FSowuP5kAOcpwXhK6hXXi+IL2a9shzxzHY14V7bAAOkorYXY6rVRflsKilvJ+5W/TlslD6XHf8A5OGOaLDizqWpRQf7PNw/vE8T4iIP/KSLEHkDxChrPe4pW+iwxv8Ak5acSslWQEBxcH1ep7+hGA44hb8BisHyeg+5ECe8UDpV+RPQ4nUBY3NPxEBGxR55wKfRLYkdH5/y4OJ3HuU0BzVy8RoFSymHzY/rM6llzy9PGw79GfL6AwCC/oS//qgjUpolNsWEdqdhrP03ISqG9gJyzBMnKFRipv8AjiHnhxHJhrNyFer2beORFi5W1CqheP2wKpjdSlYbPmYJdtb9Y8k1eMgPfEL24clbEDANq9pYlewqLxCe5FLKX7Sm39SfHfCHFr0KsG1FlErIPsCFRLQBw4bNBK0wrOJPBwl78dNiNO0X6uRvLgORtHYrvlmufQsWcZeXa5w24ptcUlsCCbV5peI7Ggoird5og6FHy8ops8sV6ky8yqoGcAXBzSWhReNGoWHyl/8AmAFfq/LiNJWPlbgCe3M5TYr3j7ySjsRsaL7kO9PZZf7iemH2CQHkoeRA0I+QBAwoRV2f9EHFoV1OjiMoMbAo1gip0GUT4iMUEywLpXKDFteSVf5CqF8r+XOGz+Sl2qD8MWaWYrUs7ezChyEQLqgI2yocFeQsUi5SUpZ6HJwfdHniVgBofIIwIK2nIsia9t3UFzSibsBKMMjhZBvRB3uav3DEp1gIObQytzBBtI1BPBNwa2ga1oF4hcbKV1pZZ91BBs1bSpOKSNXgYcLS8kLX4ZHP1DAXas+h3Ce6gIoPqOrh/wDeVctopqal5wuH+JYYN8bdi1uiOPRqnCI59sGFcCl8ZfKUdy9CoGmaxOB3IUtj7H/sUOr5/wAYRKPaKHt9IA/OfXQgW1Lp0XBchwLxBDvduXQYOr3KTHeVe4b8HY2mGWCeZHzL2sl/HNTZRxAVypH0pFXgaUYvA4jy2Lr5EImhap7vH+xDeIq6gav7ItR5ZUZfYSyYWl1VdzP8pEg3kC2rYEJzLZqIE5uBvEUX8Ti4fknaGXZHUc80qFeD5rAq5/FbmtBxi9XBvbN2Gn9yYa9jZvp/MdXzYtacJlglXiI4iGqYkbyH7inmVqCWbGgzlHaOPvzgnoN36JeYC+aVQ6YVFQoRYY8i+2AoecYdBQC/JEyVK9GXL9G2V2viG/ZVH/1YTtGVjZghUZisyv6lMplHWQLuMFjL+Qv4EuVZ3UUD+oxBSkbrEVd5g6e0HHLGGu9dXaS1AyGVDNA7XKiqAkOEZVF6iJ+Ke9lud37S+Tg7lwVXyw8xCBEAJojCguGjd/So9iIRGoByuBBUOUNhhyRN3AA9ltHqniAYhxx72SioHdvY8UyjlJVfrHsyIEJsBVkCpvmKXcr+7p6HFzIuGYwtNhfu4ycrO+psedg5Fyej8txbpoH9QxnMWu9mrUiDLcZjZAnfMy412mI4TfmOvZm1VtRCwbKCkjk9jghL7xWxWEX1c+MWt8F1ltftrDrNTkyOYJl85RpwCIeW1CoqFv8AUu7RaUpYABbXmKCFI3QGXQ1hRaxWe64zg/dawDD6TAwAPYEwxIkQOTYDpRVYQFqhF4L9FipdN8bON4nwx5I3U5CG7F/0wQnDD4jVQrviNKu8vILc8v4cmw3dhFo2BbsUUlQUVVt+ajwjSeipxBDTBp8kHG4L9RPFIhlhkK6o/EDFhr2jidA92tFSliQLOJb0fiNdSBb/AEQU38Es9Y7HYY3/AM07SfSebxXSLD344h1lfOJ2eqsllq/mVjarPFiQEHioeDkifJEOzT8pH2G02nuV1AL2lL/D4twNKPlorkfgJnkgun+yhKreH/tzWKfc/wBRw/ef8CVVVfhH9EDCkQ4YjAfTyNOxAT42SVt/ng9gmFj/AD/wxWBeFb/sdnuIGjZHW0fFkb2asRf4hU+jsuJp4q0/O1DfA2x/BATgGJ5sTQs6bZuf/wAcRxCbmMfqpWOxz5rL9mGJYcw8kqrSJ6Jne8P5ByhkuNHtLXG8iG5qkvxQZZP6gPui/iZnStBqbPpy+Yk05JUDabr7M4PedS2AahOpc2zD4OQa6gDnuQa8RUPJRc3X0PC7GazWHymkmt1coQGJ/JARbYok41xRxDjROfILA58CySohi78qLNmmCIgUOONqGUfkRvxCuZp7yV+p9/Ebi425tsrjYDHXE82QcS1T7l3UayKPwL+MEzVTL5Jd5ElGbH8mD7qCQpRT5bm1C6j3BrjuFJWYsqc2F5coWvp3zBorbt/aZWTKibqHzHJW7tv0ilc9zkxlXkI3cqqb/wDNKg1UMyFtbK4jsa//ADhkT3h7TiABHm/UW6gQ9PuKuZX756S2WxlGSqpI6qHU/q+jOoEGzaCuaCKypioglQyAOsPBzofLwWZKcmNRsIdwiDFh4Ejk5lLcjzOD2X9IUI5TcWG9R2C94Ce4wK5eyrPeC3EZYB0j80YhsKMCWymFAUL+Som+GqPepbD0Eht/L+z0AhOJwFRo32T2pC5s59Gc6u/BhdJjCN69vZdCsSA28ziai75LIVOepdEqXGLk9/R6h0hHftQZ8UqHebPkx7ngqNKWlH8lqINkWFKyNtKhsSrFr8WQZqVXUTplNjAg6XBfbWUt13EWCB9heQnbCesFXmyHWVp1fNQtG6la62184IUhVxVngXHde0T8WVVjaL7IBHTsKbHhiZztbIqgMr+wu5bpUQrv6Jahs1XtfaXfYf8A3qnALyNSwgfw5FbVir2jFVNDTzALkWIfVQYsOIXTsdjn+RHxcpUPmBZE95Rr7TK+Q/Po4Nm5KuIuBY7f0JMF4Kl8ziG3LDCLVH6UQ2cHORqXrpKni8m33KgxYAJ5ixrmJNYnF/qVkOJdVUI7y7+GFkaIuwfyRAnDhqcyKoHwFTYXpxMv0HfVfoje3Rfz6cRvYi6YdeefvcjeWBR//Firjb8/QKyNeudtv63Bc3qPeYXVQW3As1/1hQHrWyxgALvs+k9qgzIs+CJ+kuWTLhxxGBMlv6FXMIQy9nZMWW8BKfgQ9F4n3BS938iKW8X6VGWZDbesHyMY+v3CZNbOeB6XxsKjF2KU15phsfEWrXCg5Hfvj0VGUH4UrzsNBcCOVHNBS3SnM+eiUCwFB0D1F3JU/ULD0wis25wr5VavQhtEPTAg/LH2UGZbwkV+alr/AAgxW67EivhbYK/MGJt4LD8f2MZZRzfAQFC8G83ZL8xZbfNRAO9NSnlL2kclcvEYMbNPsy0u4a4jpGQzhUvaT3jV1VRKw4ofiYFnmcizO5nkMJ5G03bU/NaY6eaqQUO0Pwg2ksuMaTiBURlnTl11UIBVmh8KIJkA5C016UW7DYAXjbzSYNY8T4u47KkF9oi/bWuTIrqUR68RRQEBucYIuUHpYnvCyyXLefs1DnmdE7lGWynUfhRU+4S2vSzzxPMZVDzl9t4Vd1yYS5RKlLJg9yBDT0ecJzKLuFz30M+X0eIJUHzFjSVnKGOpLFbCYJJb+KgBKWGE4OYRzmXKmWv5RW/JnmDdrsYFqzjNv6w2WTJ49ONfP6p3KZVVUvdl+Jxfyf1K6FTgNiK1DpfUvCEH7Y0F+nwehzzGvB7fHEFuvR+bhcTkqnfeixWi4O1EbICpEdohDnCD7Ng+Q9OpVUykqFw6rfZ61cY7jtEW8XKr4YemqcMjheBlsSASvRgGrOvggywnUy4LAcylX2I6jlP2jheO+mirhUymie1Q8OAu+bgC3WU5V2aMaPI+Eg0HR5Wu1F/BV3UtVBy59Qbc6nT6XED1/t9DTxDCDm1xMyeYq9qCpXCoDTQpXMdxPojNb0q5dDF8UniObSVX45ZLYvJyCleKcjQ/blRfnzGWpa4Ef6ROt3x/zERt1YpH9TRJYv8A7TZbR4u79MP0AM03eu8ATMF2x/kUWFV3iwmFNgTgqy4UIwdDTA6Vt4P9WaM6YClwUywnI00qP/4hv+BGJVFixqI3PjRf5K0v9D/I0NTYtLGvhhtmt0WEvnxnCVG0DnyE5Kjw3ByJfAy4JRuxqyJxBmvLtBFnsIjslKWGU8TyXEC388a7+bTJi1+aa8uXzBJsutO1VS6wFk9tG7hPL/KcoF9mjV89gmbfUeAZRvMs4ZV7SB+2orbbemmVBHiZC5UESmqfRAysmEbxnKNTLzeHDYPMvKjWEDoAFOY8yrBVTwMSKyAsPZ5Sq2D+JzcL3Y2Nxn6pscUbBQEFiTiqlW5B1UoD7kfNyb+RmkJ1Gq1iNuNw+Uo9i/xJVMqOakJtbwkGhk62UzsiwthzTfiCuXkrJkeI9zx/gxZXaA3AuBSehS3i8+5X7wblRCXT2KPAubbSfJkrM9D0E1KYH4QtDlqErj1QnND7IEv/APi75/tn1eEhu5qcWaNhHKHJ4JR6VKeZ5G0vzLyECIz7iPgN+YTqE7Qoa1ojH4kq9kAheECM5jD82fOsePZfdqXgbnu+WoKy7fV3kVYAp0Pe9xAsVWGB5JzTwsbcY9XPMq5e1CN8Jfce7/8APuMf9lmUQ4yde8q2Ro/NLE8ojZT8z5NZ1ssqGc035EQ8tIQVcQK2VEYuqMaKgVFvzACChKd7UOYumC1hZ0FcfZg1C1RKqnX8FQu24hMVcaeYGR1jhJ023CwL0ONlujKvklMIUMV6XHOGnW+ahbdLllj+KLtApa35ItaKptHabK3+aXFmZZQHTCNpZS7IVGDFZXiIAgcFRsADpMl/LZWnUUALDrIK6o+Cv5Hq+TZSj+Z6ixm7uFd1pA/DWFbQvi+4Kag4RjKGD8OH0i/K/i4KianjX7IKCo0vmG3vCitLcesYaKSEVoex/FBEUB/MDgbEq5GI4PP/AFKv49tQUWOwDn+pQHTO1IKq77bLl9NHu7+ptYnGYkdXYdsThHfAxSw386/ClnZ7UoWv3AS2m0DiojGdAtKbAOgiKTl8jEhRfm6WJrHmo+lIULpwWTIv9r+E6caUEdqWWWzFuo1dYKpxBjGprP8AjDbKV5QQogeEiAsF6UM5htBrveaiMHPG0Go8Xk8yyz2N0uvmCtA1gj+jKmXPW0X3mHMFZrrD3gvmnHH+5sWQvMl0c+RJ4qrKv+slVvpTXH2mNSzq38I4pPed/wAjcqut3nxBavfKP9QU4Dw3/CD5cRx3i4nYHPJsKN4P/rEQM5fN/keb9GkXCiS8G/0JYVpfnRdzmNXT+En8hLdb6UPyJvmP4Ltm/iE5M4p1/CYWnvZWVVUAXD1qKsSL53n4gYm688z8Qu0TzWYpOX9FRRC7bPhjQA5tSPu6/SbY6vmAzFenHPiaZtC9Gyp/wiLKfks3/YBDnj8xHjv5lavaKRu4gHl6shRoZ5pPyXORYNXis/LBWsb6rI6gUbr2il+3SoV+PlixT9qHu9VKAYYuvUvZRysBw1ktLq2tUTpfpTFGfggJ3TNsReelri9glTXwkTBW7rieX9JWD59RAtDrcgSLq45uNAQy9ggBL40lG8IWvP8AOxZnf2EEy4LiENLyuV/l0y6u58MqM5av6jpLh2sQ9GXd7p2q6jSGm23NjxswPKL5Yp6vxG1ryJ+Sf/nkyquJRTx3KqXksJ1MYCh9ktilW/8Avp25nUQ8RPLcvg2kqWswU/Jcx75jGDpInEJtTJV3IStUpKQApfps3b/nBR/14QR2D3DxhrNYRjjRPxNaQoGHhGfDG493fIynmE5YsVpgH7UE+p1AwVMTxHiNnUUq02EMMIVKlCBeHqa3F0nhlXW+mO7/AKoUzgwGuJ0+mU6/4ZzLr0KN4iG7GwfNsFZNLfsXIcE5qY76hLciLWUp5ygk3ZtS2X3CCXXwrRhRX7gx0nAKO+eT1hNQJU1k8JHBCvvoQqpyNxBGBuEsKiqq+IOLSr7qcFwBAM9pQ3KuoNN7BPZX9UdC3SmkGowA47836h4r6/MNVh/xhhPMrjxDI1FJqvGFjlMOCHAC4pZAGCdJB2EddwcfdG51Lybx6EFAKeDlfLHYCvLGKdwhXKqA40/dQGFTqoVExh+78+JQ5dPzbLD0GUsqWDLxAGPBKggygh6dku1fNPMPBGyHpewKZSsfiJeQKlxKm9tfGwyWwb9zhAdTx6UMEvIF7V9wwXzAC5wYiC2h8w8b8QVLNGjyiLH8Uq/wJjHwVF7V5JCNOG4QSy7XmaCLOb4qUWagKSXYf5uTdXxhBaHaXLQgSCdhCC1i79av0ric5GHCQeFcE/8AvYXpOpbDI2wgPOX9Ra1ZrJVWEJkF7GEtZX+IbdeqCkXxLnDd86Ryik3xdRcbRcpScqKoTrhTP5rZMVs7SEObYftJcUG7QPlgrTOeS1NXNQlLR7hbZ+4woTlc8Iyi1iF65DAkK1RbouAR8g9rJfFQPwOpQIUe5kJYDl8wculnyzYvePZqaBsIgUbF21cBXvsmHK0r4VBrK8nuS5TQoL8qiA3Z5gxYQtHrXwqPm57k52CEuEYhVbPmGKv/ABLNKhrF4JzH6iWf6DHpmcxlXkESBekfmyfEqoprqwqFrYj7YPGROLaa5QUQag0ZNnUQqAO1ycz5TRS4YhrLSFlb9kvdveQoJdVAWtC90X5hlL4VZFqb8f8ApCo9QPgMWHT5K/5UfdIfEGxzyVH4mAnsVM8E+JU75jRSwJfyXDLiR9AQA6xwWMK7qqz2YNgoTlOdSvaZQDrfjUOJUv1E1ym9UkFodrzGOYmuEEXdR73zRNcMWigECoEmGNMfw6Ic67VNEqiE6nNwPrXDBSh7mWhwPtKLISr2Hfza6D4imGAeweS5fEsNPUNTcCJT6D3dEU9doPOxaC2hz5lLepd4JD4qDO7qz9wwly30VLa/6EGX6EYnMpLLmf3GmWqAnUFlSqUsT2IGeFpR7ly9lVKeGkuC24i3K4paBGxPQDl5i5cz/wDh5l0j5J/9khcYGTCKVAn9nihEo5cvklnl2cROGfGynNUj8Sl+nH4yCLilbzKLCXMAK+JQ8yoE38OUTaw5jjSPbusTD4gJLgpvDD4JhtwhxkC6XkPDAto0FcUIDgD8iQW/FPvaXOI0/TKeDXFi7QQBurjstCqnhE5GCyeSo96h7w69ozJL7F54fK5Qap6VQklaE9UxmfF/UuLS42CxjNAALDQlfeKbl3C1RLzYnTcpX9gSuNjPlAPlxGE5yaOVUvYDggK+J9MQivdPfR/voNuVfoECohY/C7/I3kvyR/EWLYQCc/rqcnE6tahQ2ysH4ztjFnVTaCU/UJ1alzQ/oleAAL7rYCKSeyi6g+/oVMa3DfE3l7RXEiyp1UOXYx8Gg+E/6l/NSw0jUOPY9doeGa9SU15JdY2l9s/56IgXWNfMHTH3hBQYD5LcWjQk8bO4UG4vACXEULG1rxDK5MnlRDYWFvlLX5r+6wnRon5ZZ4lyrk0/zcs9GvTLa7Lq2FQeWsCApc9cKj8fflFeGEKwnwLJdFy4yLdqnTW4y9gT4S4nJAQUE5lCaOPJRs/wAC6u4BQED8Eo9cLYnlVPg9MuK9iVRstRhjgQXLZwwtLbg+Y0KtbwPLsS+zW5lWFiKeBe2nEKqNrIV/EK22EA3LLl8YoCx7l8lu/jWPbUR9i5oe7ovSdhPJbUdtP/AMZeLlb8TgmIQ6nWSyvTNnn+iYE8+j6Kue1ZXvMiYQuvT4mH7s8MhCoqKKCbNLZV05AfVwUWrp7oQBS8hK0JXVko+FyJT1uWZ59Fp8rnsSqu1OKnsSqK3mNe8vq7vyMRRhMzxLg3XxiFBd3wluE97j3oIzr/AAl6E5uUORrOTBL9QRmMb8wHCLfEAw0Jb5CFga2paDO9ihcG9Q3XCYe4ty2kdl49y2qFpN2rl/ufDaapBMuec5suXM6GHzUKThrNsOnWWNWCvlKsMt/QqMtfP+RGsvJuMb3kfIy36KusM8JXcPSD4SEbUICU61k4hernF9T/AHUcgr8hSEW6lDSe8G0gzh9HhvJRssik1l7k2P5axnls18vMIL+Qgnkh7TuLdUy11LNjf2pDL8R3qcQS/eMMI5iCa1t+NiNLHOdwt5mKNi9YZge2XxHxGQX+0MBsKKeyqZzLPEvaqHxLQCIJW2Gkby1BGHK9jvhDWVv5cQPx/i5nGWu3VNpAn9Yim3QdKFlahOKXfIuLFm0dkOsAtQcps7IBkhTYxsFbSc/EFWriXXYwIkdqgo4/dwzUqsfEIFw8d7MHooVhflgwst8zO8mRObgfG+gOxZd1kO89TRtR1rsbAargAa/mDzpRPhkMBdCg8BhD7Rzabt4Y+U2Q83VUoCgUMeIPov8AKa91rAA1lCxrsfttcvxC5tQLgeBqJ7TQeqEMX1PCxV8nc7/XzqokMEa0GC8qV1FrQ2rwmEjdCDy3sHZvElRieWD5l66pp7S8nY/JqVnYkBbbb+WX6WelXvxC0Qs9b4lqxNcEgS/f09pe+yjrTdfY5MAD0NG8QqLqf2WHi7r+Tsp2FH6h3nCfxANlA8FEGzCrjZtPpMFhm0oWHDOEjGsnvZl+0b+p8v3KEC2OcSrkb5/Ql/Wb8WYDwyw1Of8ApMAvLAqcvKvNiWzbsEf2EzVZ0Ryp1fjDpwWzXvGycRMGCxVb5lASVqV+HB+4R6FbtVA3HgKmC7H8w1Gp0CEolHdrcNPYdn+Sw05Wa/cWCtax8DyNa7E8S62kpAoHIJgFbpJDR18WP2kHCnTDevnYBd6zLZXGxPhOwlIO35TmlTgJ7EDbXlNCDh1OR+zlhelfVyTcvXvIoSF/khFYvGpkLCIFpuPdiWQFtTeeZhJ+ISLFXVLgRH40PdODSx6S5xPD4BKMoSHmURh5FqFhH+GD1/NH/wAgzSq8eYvYIfbDyYEUcglcy9Do8jFsc1dgbfY+UZhywSD3GyFVC2oxc9yOOfQ5uZrdxNnnZrDJSq7X9lRlIRnGuYKyORXKRizxiweYILSQY2cMQBd3UqzIZmxFpEVBPbdHkDABCpPlWwUl9esDH4jWg7HJGm0XyDiHcn1hYHRCoA+TSW91O8lto/iJAitlN488RmwhQpuqg0AAHATuG3voN7qz5IVn44gKoD49G4gFq9QCCWGbS6r95J1BrI2S5aU+83cHqMrkjNmm0EjFTcoV+pVTbDmQyYke6S+cbTfxHNzlk1/st8u6jVETTNB52qcTNz5rYQD/AOEyzX1uOJTUymD/APilkHiPzGmx2yk9pVXklwa6YQpjku4HPBQcBL2Vfpu+op5mjrQ5JMJQBrD7VCFqxuPfUs4OVVD09/RpXxCH4CZAOfS7Jl5X+5OJ9yvQn/wBbcHdYQfLOJ5i5UsDRV+xOkb44oIKhahwWVDXa19m5yjC5aquCHsI6Js5UoRp8Yr4O4HWqofcivxdC6rE2MAt2LkpCvPM7g8xhbPGlX7JY5dIh7wNmNXtelsvJhoRsKmW45RQ20ELRBdtVzbxDHeSvdbIcNwkGAPuojrWjb79GrKn7a5ndzUBsLYac1L2Wpsr0C90N+LBmsnOVKLvGWo2TGCUVl7nOwBMEBAAkUpWKluXdS2KxLpAK/DBF1Vn4Sxp15xHR/Wl4d5RcT3PU0Cw+Y4c2mCrRRa05HnfjgK0fGVLNAHcWHHkL1ghwPYgN0Pmj/2Ul2HEVFOBOEcxMXVmkI366blMcK+cJyAm8r/ogyrfDUKeAmyTZvApBINMWCsoHV/kRuVXgv8AxnNyrzv+xqDbmL/cCCE+6IQ1L31hAK34UP5PlPAt/k5j8H/4mWsZeJe1188seYDsXzlAIhfX+0X0JOWk/DErDoDe/wBxqnGK7F+4VRXkz+2fMgga+eGo0S4HAVnKQcXsKIKXGvnTX7lJmPwv7lyUWxbQaDEIo3EmICHUNeILU6i+aeaGLVmvG2LP1H+QjFXZxe1+clB/7Bd0yxPZj/0hXZGsr/vCqIs8OFgAhq3/ANiydfMLz5lvY1u/+I0V+Rgq0XkG8PJdzbToz5N1nHYcs/HSFUQEBDdF69Q/NN73+oekZ46QJ1V3XL9xNa+CufGxoUDDp/2UUot0OQNhrw+ShN5ufw/cMbvOUpcKKs8Z/wBZcrp6P/3Oa+zdy7pWwFmsymV8xx/2QqFDnRx3yjgsNusE6jePyVm4UAgBtNh7yR5Di4swv+3c41R73/6zzp8U/wBhBSJRxZc2A8s+OLuHsnWZY4ePH/sQI05atwDwufOaIN11vagJyvI5/wBgvqhh+LicD51/2FHT1amE90wo3bRSGPPMoJe/vc0wPN2v3OQB7rDUlCpwDWWUKL3lEpCtdtviVGP8r/kacHvefqWRbqMLh3n4MSioV1w2byWH/wBycNPIfJ8SeRdwNw85Rc+6g18SUFZeDl7LjEsM8kUKp1huCVsv3Mlab3oshM1GXkHpnwszJcfY8Smw/tK+aENhrVV54INKjpPJUrQWjT54jUWo/wA+0E0iUPdnIbAWFq9IaOyWCjVIXZcMC9hO6eoitI9K4qEWM9iPePT1zKu9gA4JdtX9R+ILn4Izr/8AOHMpMlle8Eh08Wv8RaE8h7NS5QS9HjIlpEa3ydxbQBooXbsS8JA87tuqVwgofZAXOo71CrR1b+WGpBJY8ejwdQILyrkt8TuFa1NucLcuK8jhzCmXHTGGQ4iVhv8AtHiGMtlkS8laCHRKB8JBbPAXkyhHB57hg2Gw5YaZUoSkjkJLW5DDAvPggdy1Hob1MY2QnEWratfDpBiRvipelS25wwaTUt/U/wAQJXtEqF8krXL/ADCQ5S8xC4E4JsYRQoNeSoUaB7ziGkuolUTwG23ysOPS3zCHJzB7SO37suxFoXOYwaDlYPvUDPXCWQu9hAFBbhphNSIKHTV1L3a8GxjkQ6HY0QIJtTvO5ViY9ko2AVXFixJKVYWEv6KyW0XK+gR0paelMPBdXU4n7hAe04jzDsCUWMedP9hPmCnYkHuWhS251Pac66Vel29L9FqbYACXQyUT6CEqVR0pU+Li5QOi8gUDh494RsBl7sKE34hAllM5GRdsK6hE7yeGXcQnKhaJy5JvJDQA8jO/PL0Dz6HE7bgQ0cKway2CWbCmPMshBK87DxMuIKEy2dSnEmsLLDtdbKlUcRDwQcr3RnFGBFBoXMbLhExSG5xLejkIR+QN17wVrAexLSgtvvKCozNjM/KoE7S2b+I8H6lB6MFUd2/OS95xl81FOQ36YbeSr8DEtRVNjWFzHRdZCRLy0pjhzJz4hl7AijgP6CAUk8JOAPbUupwCGUMuFqh+ZUIIpG97FF3zdwDL7SH6ssdeYviM7dbfiWoE41i2B1HmrlvBUsPlB6B6WzJ0VGDfFPQMwwDuogt3EOtGhERQCDhwQEaT0oMG3gL8OZClgXHhO5UWjjeooWmLPCw7gBvJflCVQ2zKtlHpT2xA21g9pQIFej7yjGaHcvOQ92XT6KeFmXPJlR7QAjPB6bUKD7W/pB9ou1BplOaZV8aznoZUrWbu4UDbjoq7WglchF2rIDRctSmAoKP9cuA7LM6L6L9kCNn+d1PuYt5p+AQtGB/KtuKDXgeQS5oX9M8QLDgXyIwb94AG6f5iBog8OwFGjAi+QtXOI3Cct1sKtzzsv5lKekaHlWfqqC+juSwz0qAouJ4RCLCD8wCVs7gxfZgS51/h6Bcq4fdljK5jnzAtFfLFndC/KEY2qRMzYeUHMYPCQpsdhGK0acZtLiLFyZfBFIooxSHNI9ysL2S/M253GL3mGkQCmElDkgM1FnwzOIrtV2eI/BvVdSob65Mi5w4wfDHqkVRFiDaipEbNPmVbNgA9Kx31FPzDNOZ7PS22iJhUFyA1RAQBzFd/FStHUvEXSWQqrJ5RgxLWKqp5GFZbDLQUQvgHgSmy5BZcuxnPdHi5gLyj+oLeOI6V1LcaPkxjUbYKuU5ciQLdnijhA1Xq7ag3arfip2Yzjw/fo7IV8+ohX1QjCmUuDo5evEDpV7GWwcQxgWBnkHj8wfPqucQD8+YliInyQ5mWunFxV8yzMUsAEEGD6ld514QNrbfNvMpAKpBFEOofiLKpUOareHxty3E7hvo+YJd16XRtrPo3KE3RCPNGPoQu54qA8xw2bNVVX3GMoqYemnn059P/AG9A8E42VUZbgz/SeGVcAhvEUVNUahGqynFfa46LuY27DeCJB5HhgWotRdAeYFohsMTzMUllV9yxmxUQFkQOIpm1CDItfKK+zXdaHqAPI394Qj7cllfhg/BkOzUNB6/tlKLOoUfFZ/qcD0uYLWv7S05b4hfAQKM4b8v/ACEAar77S/7ERVSynlEq+fWq32lv8YYolxNVcJ46l90h2d3A8mPoyliGQjpXu6ZA+a7CPYLQHi4BUcSMrIKbFbglmwWFofzApRdBduGXP12mcoSvaCIOjl9mLjKIDfgFxq1KH0PEb8PJbvtkufAW+A9R/SuQfu4MXRyMGyJThah5h5OT+RHvzb/rA95QuJaeEhz1dUHuRWWzLDbXMtyLp3kuECN81yS2fGkUzlaz2ZxqI2ZUabd03zQajEG+SWGNALjXE4SBQOIg2wohRbUmWQNsFFOViUq9kY27F2dQnZmPj026XHMBs5CpGLvqopTzU6JdnoE//BSZOHo+hR0uz65yKxw/zgQ5qU2FsKLlw59bic+mvzCjhnHYzTzGzDm4Vah6Qxk/84BTQ2UrTAdWF+cQJe10bTuOXMr+CEFWi+cyAy5ig1HxGjAOpHEueJdWZba5i5b6lOTU+9n8bBX4meMnNbUu5xL0mCsqpXTRO3TzUBugXlqCVZ5lfup+EYVjcg/J3dwZ1O3bF3kHPcANGZ5P+0B0F1MIgkV3O6IO9XT7RUrxLPE1VhjO5R5f9IOS7VwHYbg/0ZbFeI3eP+0B6WktYrGCbwfbF4npfFsuHEAtu2hXmln3Ly6h5uMabELldIP5ge0WVKXA1nZDR+zdQD5gdZksU0Xsbf4l2AbcwNoJt+dMR1EsWR1q6JfgQbtABysJ7114TFYUCc+zKM+l/ATh9SxUtL2CFTEEDqTuNqSuvCozgkVHzUrVf1b/AIIuAQq0ngI1qA7EBYUEAqkB98gC1oDPKzYj/lFvqqt44XCYyx5mzxN5EmvN5Nrqi4cHazwIMuyeGUcPAOOLQx6WE0XJQ4FBLAqUmDCM1df97lbA4MxlQB7YUBLwpZL1dKlQy6B+VQ2cQPFwm3Yw+gXEvTHurZYkQ7/+kH4BqnAuTeINlpp9cKYOzxnxMyQfHiXdiL73HdykT30nMLnC8cXADBGh6zYMW1a8XDroNElsBwPKB78JeVdLFG7GHUen6ydR7Km4wjhD+SPraGom14WdMSuaXhTGHAKgEKbIlS6cuhJiGRBG2JAMYY8QGHg3FLj1ga32ZcUcrr07nPUC46R0MqUh6LkFr1U8cjLSN3b+JtvomyzxL8nSb6+I+76bEtdTsqOIPmK2nFeJW+2zP3DkIBAVzAAG33Zq1S+aUKKhKgIro9782ysFr8kC1wVKJjHqgMqbHQ/gQ/mUs9TCE4G2PCXbW+2sgx1WLaz7RrQy4V/9nh/AxvdjiYfcRjaOrB+4SvRxFXCDvT9EOQz75n1MY2YYv7YtBh5qwwHyUpN/UaaNtcECH8N/4Y7l51ZKVS7ZRA0faQsif8ccLoFjSXIDikfdQdyj5xFq232ZY5gYrcXEoICpzzEg126Y14xGacVAzCHzG6tzqy5bmtoa4Q6uezKb6u7h1fmjdWjBa0hboAV+4+Y2XF3n5jsdkGWduwdqchNL8oJw46ZfOsallS4sytSe2ZR7SwIWIJOpfaWgr2bE94NzN8MGrJjuOYqvcuIG7l1zDc0iz3Jb2yL52GVY17LyS8O3pVtmzG0cVrcrsgJ70HGualkrFDW0F3Cj4slrmgH2UZQB45+4EhOKK595ciNq8aUiQACnsQMc1pH4nSAKOFrKip3gPFcSC+8vZ9ofzAqM4Q0M03CjG1GG1Yj5OTR1kaN/+mZIFj7jONHt4pLxcM+2TheueF3x7lQAO9xq07qOTR2jTtQLwCmB+mFyaY27hC+SDhREetwfCKRbO51K5ukDFCFbKSwIbNZf6A/7KOUtccyBE0fOj1EqKx6gODKavmPRys12gh0FWBzdCrgJljZ73SiIEUg9jHHqODlIeDZo9yG7A4BxXTAIHnuVer4IG2KHNBjC4IavHEX/AAaM/Gw0C6FQCfEJwoR7XcEDmPujSU6QhKR+k0XD/jNX1d5fa+H4UTvtOK3rUqSDZymCv5ZyIpDE2XOKjYW4YEdqFSurlpUK7AEPsQwj55wHubcRRFOLiqh2HLCtahHlrue5CE7jUOaJkXJcsBudgkF+e/8AhLL12Wka5nBRFnRS31AERGC4l4Iywi3hNl0LROGgWXGiV8zcKhiOvmN+0pQE5YDc11R293YlGbGjOWVVxg1MCVGidb0iGPjIkb9A2JFdW9bgrK4WD9RMqjV9CjZt3K81MLQNexXx6Wu+oumdTPPzDYLV4X9krxFmuX6EqO5+Ezg1NgjscUtHEqjOVeYMor0A6qoLAWNx4DAKLCLJYgOBTOuldlRZt/AMpz6qvkYfBOqAIsdvnJ2fpjwB4a2Z6EuXq+O079oG3PyLCh3KOHVC733AcGuNTofkh0Ab4M6Qxx8AtgSpLXi+GOKu9uy5RVPJb+jCwDoF2Tggfeb0RVE8lEMEEoysLSl+oJbHxUu5isPhIVZLje+41ONH8lX+w43q+4T5fouXS3eN8VsTWGvMIB9G6QbkftQwQvdLG7VA43ZINThe7UOoXAPjbVMgVrm1/plId+6lJYvgr/EiBYqUvzObjNRTdKalxT2TTFY4shit/acvyxsVtHQ37RvPHShkOtFNBpIHpHQrQzxcQYdFZr+SOb3XUCv6nJU+a/wjtdvFKh+S8B9EtMOAoFRzvg7fD7QxAuSigIJWuwCWnJYwLyhKu3oyANIU1WqPtE8qpGv8JQOgnWYviKUPgqXLR+AH8lQoUbTfJL6ywqky+oFU29VFfxlDZHbxGbo+7EFbd8tlIS+ERVGwWFDXM49uBn9wBxPm8N19l2/uFeJkgbHDLbDZ7LYYg/ZmEB8AKmFKWj5UOQ2ttKWQfgqB+Req7LS9u7YWBAKC0r5LzNDfoiESCuWn4Zzp3bZS5EiJ/DTKAOe9ojKr9017HvHr4EtU+1AqzmQLQWb4K2xs3NBxfiKxqclR3qFLrweAgRfpyonr+KjgD94S7/NQPbM/UPvPGojpCrhmqWzLZcPVEcaR9RiGTOEsA+Si4Y9fOXGw8HFEpKu5DcqY4jrms7P6Rsz9Z7OM4FYopl39S82tUIyBY6xOjTaLA4lIKdPESjoeZXEEC4pMLE9pBbliDwwqrnKGFsS2q3BBVIpInmVC3IuT5Y8VLBNRFVL+zpUsry/hKyXgvMbage8sbiNa8tTgdcB9pcyVfM6fSw60ErOYMJZtEvqFDAPsT8KR6Nh7TkRbI4VX/mmHRNF3LNhRUpL89f8AWPAq4c1EFpCrBL7dexEBlfmBHutFm/ZB6uFTqUOpyqAFoUb42FAlbzNuGsRYipb1CVFr+y8eLIAEqAEdewGvOmTw9Gukv0dJUeFpp9xOkrZzrC89GB6SE83LZ9xYVhdi/c8p3L9FRihp1fUanywybXfMuEPOpcP/AOO7lAFB+RasOJXNztOFCe8atBURpollVVTjoI6KlRRVEeGUrsRsw8vT/wCIUI+qEbuCAllEvRsl21sxBblYX1Knctnvg2vikg3ATbqeIdRiDVP4oehAHmd+gRfpWm+gK8Iq8EZ53vkvrEHin0qqK3zHAcG+DFCRZwy/QqQfEfyqfAto4YvJaaVVkqUu0Xsd4gHIgk0SyHHiGTCW9S5/GKSPALQUGWwIQMb8MDj/APhAt1uNc5DfS7l9Qu9FTm8S/aLP3Yl8x9R4XGxSzwPbUWkFXtwldnEtEbokmYOc18FhSpbnYqmceoY6lRqKquZseYi0iGnX+pFbVwTpsRewOJ5qBXKinu/lfTsMv0zY1cYqdpccSXkclHSz3PGxNqar9uSFt5L9M/U4ZdpvNfFMS4DKz1IEq9vwwsJZzKKldpAptPhnUX+ZkNLXWVTHTPhLGdzYeh5IVsOEIfJDnmLvvLVeSACLASk58ZAeyFVO7lpXRbIceYN3CJ6Uxa3H4bnAjhdwGMbFgyUUEyx9GZL5u8X3lCX7Tq4VkWJ1fL7hhOJk6qpR5lh77xB8TZ16ZGp7TYKr0qj0vKWLDVCni/8A+O7hslajYI14hnfpVzg4jr5glR9brZXxp1+GkOJ3K2V6VX8Ur8SjzKlDV1X4lCtV2FCXOE4OBgqexRTv3h4PwwmglJLOSVLeNvhJRAc0r5lxfxj5hJlDtb9KvC5fDGUoh+ksr0NjzFs8s++z2aRKAVsPhChxzcs9wHwQJFd5P8TOvqUCAA/lBAAIeEbiSmpyS4nQG+b4hDJzOifRAfK1CBW7ExIlemUy9KMjt2zw8bAjusgAqAqvYhHY04bFvQqV/wAsI2Jr0yjhC54E5JU9pxAuzzPb3gSrc1NW73l4rIezdwSqqWV8TqmN7WVLGaub92dkvXniZ6iGU4vxcFRZFdz7JfGT4THPv6ag+rCpZ5lCzOn4htTlonJsaqFSwPir5agsWDDbgJWmYVG0+jfNVFFiDOrWVC9cQjRZWFBKLz0OOJZ7TVzQjHYVCYss8w5I7sctHvNIKOrf7gPmXUb47icaWXOfHMN6m5Gu5s6vIv8ABY8i5HYvhqZLUHgfi4GVRD07fiW5/wC/P0r/APiwl4nXvSX6VPgnkiRx2/mXN5jyw9iGxUXLN8QJ3K9EsZdTk9JcNOepzKXm1h8Fx2fEjkIQRJHgfhjdQgzg59FY73/mDiETcRPZFwrNHGeaGI4A2PUv9gP5CQbq1/wj2iiwEou0V5lcWz8MPl0OtxXUscjmH+tLgSFJnsxSheFnHiJyUbbazzKXZVJzFY8zvCfMEDtgmqYnvFE4Gwm0RJvl8zhizZe/ZFj7ENBALissshiBALnzbOJLtjebA0FtNr2SkmvN2/mIpOJh0TJTj99SoN//AIAL2Iy0fH04jkQzYXkIB8n/AHD1fW/S4J6UhPmN/FErDxzESvbs3nGPJeKQoNSy6THI40h7JYC8RdxqGk0Hhg+8tai8Mj46pb+V9LzIog1plM2PIPscdQSmQ5qAuKwhayqJ6NfNS+pfT9y/ePEJk0Dp95D5gA7LvIFVLEsUcUv9jBQ0J+C5Sql3xNq4ccy+CorF8QlDMz5lObAHzA8E6BEfKQxrvFEuWFfpOGMRE2WwUL0EtpCWxSvTTAQVfzN/1DlqZVXF7uPAzIjRf09FLJcusuXsTdRr98rIMsZc7l//ALLcFVOJdjkswhiGrbcocFzf3Hp9C5/8I6hWbHCbLjbDfwTu43D0pUpW/wCIjLwf/wAVONpavzvEOJc4ePTupn3tPxDidwu2BazVGwEFBtNsssaoo3OWpyOhQ5E05zYilsG6xoljdKLzSWTZlKPv3AIkos1DZw2GxXuFk8WM1vRdS8F5ArbhOE9ypvn5RgjeD3WAKpJ1fospGuHHgg6lPTDLsqV7gHzG8PhaEoCDxG/V1qeTWPp0i/HgsFLq25o3KfqHEd86MCaOLY0RGCPgwFqMHIAUEH2kG6amHoW48BnTR6ipQa9BJcou88YpHUU+Zd+os3hlvktHvzfpsH0rx6nco9L9kR49p1xBz3icbHCmpz3iPKMjRncDoAHvLxvbwyAAaPaagoTgYMTgRfk2AFpGJXmcAH3z/SKpuYEKCB8P4pANFGqAP3Ody9qQrDKxVfg2GVQvgX45jmLviWC0dYzG2+VRtto8A5AfznlpK/sx2fZhTW/KXT/aCshhaiOk2jyrjVTH5ibtj7NLqw8WMpaaPNkpK+msjlU/mKuEe2Gm6JjTHRUJnA4N6ieTr3R/XJ2iXE7ahfMDqbLR7ITUgG2IsFXxTFwCNCjzKKjNgx5ZReZ8ioL1aOMRLF7rURLy8rNX6xFuD+YTnhJsotbtZ1cHbwLgsC3su/eAtlqvF13CRzhOcHmNJXi4R3iFY+JcuUjVkqb9/wBJzbAKTCWSybmKnzu/kLC3ZjtwBpmFyw1cyun4uYQ7HriVdwYipUs8nXilgGpRTrzKYQRZS5d1Vl3wSnDLucoJFIahO/6ysB5nNJS4xvCtL+IWFSINHE9jsLVA+YDoEnytEKbRUoaslzyTfRxPbQi7qdteIaWIX8ffYdvIUndRttBTy3ZRd5cZ2OFJ1ZuumqhutTXgVDm1V14AlythcYQXVuNwWizNLHzUXXJ5DjW+J5DirlcPMblQwov4QgHmrWLYbnvdRdRUKyyAVlsryu+8HCowaW9nKwFBax5wSqbxsOOk4ALgr6khI3apxagmjGx8qSzeZDoUzsAN6Cpe8MmurwRxQNHLTNiAdUe4Yia6yusTfBG6UjFBMDHwkMKOCALHh4naCX0ovi4CdBbviIHSL+JuxkPKRr5Jd3xGO+b++cT2ihV8egwudS4vo1LZ9pdTEJVGHo8wLVWl/ELoOJLL+wsVK8TLsyG5+4LJ7X7birNqvFTgye1zjGA29VlCQePM1Q6mbh6NiW4/V/5Ecbg11c8yq7hFbjiZR1bClR4Kudc3C8hkrtfhhgR24XWbDXw2IRXFMtOq/OEPCOCdVRF+RzBq08XE8lK8RGPYaDKv0nR4n/KSKCLC7ipwAnsCKItnmo+tichTDImgvtzDB0VMQa9lP5GgQDi1YqXN6RDk4cy2p12V7YCBQt9z7lJX3N/sr9EFYg9Gx6l9pvNeYAblPMAoa8lXAUfoz/k4Cl95A1WeyY/BCAVlwviCCAWnaC4F0vDIYUXi5Sv3ru0n8l1anVGXJ6HcnxSwBnt/0jSRh4ldAvcCBAsibSPCbNqAndWHINJq/HUAOv8ARFcF8Fv5Nbs3yQ7EuKWi+QVdw3DLzUNW/RQgC9rNikz7YBaHwiXblwoEptLzEhvXtiVlvqiccv5T/ZZBz5kAFW/H/svgCrbe0xDhxqBMH8rBrO3uzrGWU6mdA1W4FlFCfe3OMFNdiVjZ2HzVU8OlaXDlYCL6AT4LxWpn/FAgJAx5KbAYDlUEy4xss0XO4VfmXV0cZlNgH2MIBo4JaZSAdaoZBHb5RWFhq1OfNErAhFOaiqblROCdeCXajcsiV1TutwM1VNO24X3+mez/ABCgRCAMOCpnLvlTw0F6Swww38eCAn+cql4aPiKoqDwQ708YlGV/ErTJFDRDo/BDlto+Fme/igL/AJQHTaezi6Vz3SB6CmHawUcS/rM+E47N+l8F+A8SjB0zxGZV3DXWFQZfBw1cVxMJMzWOvHCXUsKRAlBS9HUaYVBRXDUBotF//N8zuJtys9Kls6i0PaUyiqe2KcwNHHB7oIVveU/uLgubUOHPRu3eSMHWvx1LWWTvmCMxl/GAnzcPLKXjLnM4pfEUZNZ/Fx4loawyUgqN6Pe8Ttgz3lUQ3bhNuIsQzxbG/E3ecjcLQ3a6iPdtLW+ycnofq5c1f2smnvKJe5L2HHEOb4hKKi61pD7TmNJdzxsN4KQ/U5vshL69DuRVoV/IhFjwTqE0Y7GEavnr4ENfQFqprcEVDkhS3qn5BhxOvRJeCkdKtpPiqlbKrv16gDspPwLKQ9Mm1C6+P49A1C+pdxtiHC1zPzLjMqaRm3H+Uu8Rr4rITPTYFoDSfgrC/Rsqzn05F3U81A3Hj1+JTq5hAqBcCqnUoaluCLaF1vocxIfxTg+IRqZPiI/Mhwy2EufMVodSPGTefSpRfErftUHmak+YJX3Cc3Urj4IliRPklqwhSUAAmxbl5Lv0dvJdSrao2KgnF32YLIk79MhNgx6K9b9zZbFIVcSqY6odBUS+D+pficpZFniXiAKXTMCo9SnzHiXQbU0dIG/NrILYSu30tuW9xAxzV+pekKtlb6U5UW9LLb+ayDkNq4cx6niK6pRT2j8QqoRg3k44THwMsauY8VC5wM6ibXopV3YZYS/MGWRUXTWSs9/4QednNenmP8DBT5aHE4qN27PEJ6qH/UV9WOIwiU3czcmqPP6CEpLg+hq/zMLPc+KZ1Rk8TJWzrmFS2sq/iHPEqr2/Spwe0XsqkpU8QvmWzoiV3xV8WQ9RrX0sfFBo8Ho2WeiJ0toPeo+mswR+PRuNeIFAa1/AYOBDuz0t9E11Yj7m2HifPpyTpgVtzl8LA9MuZOpaya2PqsoXwxjpCvXhkfwCCuuoNT7j1BqXs98Gc36cRgh8j0KqY+hsvKlSvwErJ1DiMg+w8HMpb2SyHOvrpAgBP/lQwKlqSi4TqFXFD1zJfzGkNaSi5dFS4bOful5UJw/1EWK8wlHXnYlxOSKnmb+UINkrOCeS+PS+ImFZodVO+YdSveDcN0+9+JUqDc+PMr3hly2Vdg/bBAhA49L8sywKnDMfAR2t4lR4lIqsf1NkuXlQRfoEY6T3TMktU8w730spmbHQsrYoM4zaPTivTD9yK19suqjCsn1zKILQhfiEK8hIXCZE4lNEtgXx/ZkV4hfp7zb4YCAtTXz3DgjlwsIXc87K1LWs8ZkG5U0lhuWR/p/rBKQBLolS4jDyX9JTGHM7lkVi1+z8QOzmWSyK6KvL8RVrat+SXTDzLikdDBP7UPMGWeItdyjC2CCP8XhVs59Bvv0P/k8sw5ZnoOGXFfxOviDFly4j6mWfPK7LsizScedIKeqjMnid4J6vpj54Vvx6cZvpZKuVP04cxphMKt3ebYUVKnMIoQUVO4e2QSeI8cy4MuJfpWyrMmTx4mncD2ncymJo6hLxL+3eYU8JXPEBukIW62WC1Ea6n5QpzBQJRl9Xt7KNl8MtkN13+b9L3mIuLe1BGo6nBr8Kl+JdBVXct8Rqrg5KUs5+fmdG9emRfeDZKF8Q6fNE07l+gFZQBU8lSr5bSpT459LaEPWGp4GyplQpL8Ev7eJwZo4PUKNnbF40ltwuXUoU4TxBILBpirniVTRT8+oyc1vyeo573MTgV4hKJeQaJa9SAdoZWHxGU+UYNcx+8vxLeIMYXCql6T+Ip+eZeyzFjaku6hU+SbstrmWzQI+jDj0YQQnCvj8N0gFzJ4Q1gQnlEQFx/HAOYeiwLOAv8BhVHj0Il1KGKuXn9bhzO5kyDOCiBGAv0Kj85Fn4YF+okq+aLN8bBPW/eXE+5FgTuWHU8cThLIbXgLPNzPRmX6cF8K/Hp364vvlEWFKbPep1ElZOY9VYC3iAJ/8AwtQ7wbKgHpU314j1L8xcl+8wIthC2Z3EIguECnYagp9pQbWxq3wwBY462xC5dTfJUVpXvkhG/Ir/AAlIUhoo0p7T90qP3swPbzTnzLJBOMkNVEOFp8RclKwW8jzcpO7vHYvga5FEkLZxViHLW1tXVw7OB7zMEKUqbUdc/wAJtnJVVyK4geb3UlStgc8jzxLxiFX3C5oUNLjojdWUyUcT5oZNTjrmyHLtUDrlfIVGtbwAr8xjX6qBctqvxHFfGlYiKBwZLe1UWF8xY24asSXBaVqA9657JA6+2qgJRA3chNkB0xwRV21HZmNtVP0VNxG+rluX6fmiQRHDY3XN2zwSyD/cGFsznZfwN9/RKibKyh8KiDSxHzlLxeINSjpz/OfIoXaegS6ucuYS1ytjoKei/eChrvIwo27h+ARZBAgeovaw1DFdVz3q0BllwhFei5h2/sKZLe+JwifMquEbyR5hqCS8bEd4M5J42+Ga6f4biF4DnSNAInEmCqnCbPFLjU+TyQ1CFhSITQOxljwgVnDY6OUTAyOi5CsVbw3k42vi4HaCH5YCbClHl8jHsnvviEYgezABV+mD2WJzjAEq2EF4UOIv5Eyk+rRjQfY/sQF4T/8ACIl+cqDb2Pt+IO58/wDxIlWfhMKxryyA/wDRBP8AFQoWiOHRjZzEF9EgRj7ofwzZf8QLla6RlYDwyYgnlLQ+qxCxn6kdr98cghW3aK1l2q1W9wodnxwhp1+aRdDr4IbwJHQ/yQVdQZeDhp+TYW1eP/lQuqjPESAPNprKQvkmI/RUHdvlYCx1Hx1FbVKotrkLjRChOYFob3ME5AYIm86nkgSXBXt5lKsa5qWYfjjUX6Kmjh+VcK5A+G5Y4tNcjYXOTfWyfUd7/wD4+ozs+JbqG0+Yq7itflPfQbFZLz/vpWNx44gp6pf8wTVj1s9r4Zvofab16FwWCmWbNZ3V78YkLoYv5GGE03xMsk/1A4Ic8wq5wsLnEOl+SUBXWVDxOrmk8tz6iDhzBFBRXDiFYhM4ah7Br2iMxNhweJx5k4gX/CWDg+Jt9PEvagwSNxqCVmxlvA42vMB7UqsyN7c65JnffVLltk4eCPXgNUpVwbKptuLB0fKAUKX2n+yttNOUiLtR8MYSpSZWni5b5qaLklU+5Swb4zzgD3OW04hJ8ifAmdoAu8TYzvwNxatUwtKnuuywi1dujY2YtThKf3iUZs8v5QWsd8y+xPufyFIsPdwWk/hkw18RYsz3uB8Hh/8AeDUtb8iFYLfLKyU627UCGiX7r/YrOb3d1jBQoCLLSjffMLKXZbXiFlv5JRC3yIxeEhmN1BfwSwOfRXIX2W1zL9DwIqU5viB09s57yhv9URKL6hyb/EDMHwENVWuJc4L1HhCjQjyUQB8Si8E7rvtB9BC3mZeBKIwnYsIfIoA1Ut1OXM2WEHU3UfklVUs8Q9BKU6l+B/ksnU64l1CMi0CHUUlu30Ou5f0YMIGQK9bk8fo+pOJejKe5/hUar0qHcpTZBQGAARfS4RY2pd+KiBfkj1UPS4zJpyThPb08+nUyEvn02XLF+/1MvPOZCvMXFkXU67Ccm+f0wo7VG3OyVc883LTRh6rUuU0VsBohzAyeSWGsqqVbHkWeI53GXFGgNw4qfK5XmeJa4gzdWcfMLqcIPEy5cFh5qi1ea/yMJRHIKUot+52HKNhBOQgt36NVsERuA75l2LOGPMTEYhSo/UFacSsmxlDYzJGUzVqbGO/LTOM//B6ZFhzxLX2RsfE8QJ+IgUAJfyylRZvloWgA+y4e3pTc5Zcoatj77hdzvmXFZGD79MHE2bLyX+IQSm/yYRyXdSzNN1lVfmToi3xcKS4r6m3U/EYRdhKVjSnXCcCoSs9CBbnYfwwl0RSpUuPlY+BLh/ksGGS48Q0d60sqEVric8zhyMRlw4meZnpcUvSHp3vpTjy0MgTPTO5xbpTX13mYcyjV47h1EZUvUmWfyV/M/wD4LGPZFIXZQ+fVsqHr3L7mSo6ZkqiF4jFXcRlK3lZm3q1lKK9ENGHgmMYFHv74SpwFwtfubFqiIScfssv4SE6nfo6EZVWF3xCw2FRnXpjwVNGpYqDjHCmtuVx8zv7p/UKq9iUw4yebZiCYaKl+XUwPiEJ42MbL+JVqKAK8Uymu43kIFXqANZrxLovm2W4ly4H59MZbtywP/wCKJPlFYorv2egmHXpYD2yKrPBLnPHPpblhC6eZ5LOeAMYhXC2zIejC3nW/hle7Pqd+jLfW/siuRCXOZsNmpWqv3fo8oFJtgsXI3YoKviWp4vmLqGcIS3rmI5/A+oRyEa8wMMfyJfLij0eT1dZu6yn6jOmbKllS69wf00xjd4wWHVxh6LSmLL8M55hKLl6Wi28fPoDdx4hzLClWE/Qg5Ln3HxKx8o/Znc8MqdTzsp7mnoxWyvRuZJ7v99F1BjyDij8zuucG9elejsqrdp+hiEA7IenD6dejxPqXUr2hquIZKxrzKERSeGMLgAckgeZls6JdtXG3iMYKXhXkfE6ljsvMJq7gOHJNSbKqvTSGgTow2mDjc7SGQsQsHYvxGqCcGzSN1k5V8MueSBVbLZdEqEZmWv2i0adSyDqL/YcPxDh2VKutljBRA1l+WZ55legKJQKCEfsx9O0EqMN44tlDU6g0EYir3JZ5Vj8kBd+iXOiNz5JVb/BLCCcQqfCwvI5oDcLD+SUS5c8vUTm8j+EDZ1UfPfo8XDpWUkQsqoeleYlXAU8LfQVm9QyoQJSVbf0S3mU2eiiDQ67iu1Vpv5uGRR5qWDm5wyPjrvV5sGzzRBncvifECkqpn6YFEYuJc3Y7EvBl+8sOWHHo/EJX3L/EQZSPp2wF6jtl6fpX/wDAi4hBvUBPiiBROg9CMOZaD21sqdRlPoWN7GelwyPppX/8MOefTu4qdcP5hUiCgnx6bcqIPn8iCGHEPn0wZe+i5/8AxkLqbstNPPoByysNJxRrfxnAt72KppIYq7Y1Xdi94zV/hCSyVILzHLaJelclGxQ1AxhBCe6X9S2+OJvK+D2gtHLi4BLPsnY+0slNZompcs8egS4sCZ+Jj3AsqeGDxKG9iqzwxhOiKs/sRChdHzORtlkQULHUUGRK15tBZbHaEYUcRRfv6cwdwh7Is7ueSveEfKWwsKl0MAoFmg8enbLx2XGF1X5Aj5+z6XNWl5KxZYRfFyyxuDwpsH5lmehl1o0a+agfKzidy2LG0XzA6gv00jlSjx3/ADjxNQigZyu4Pi4RJUPECoZ8kKM6D8MleI0rZUqqiRQ0b8EXu4elSpxDUGm34BTqC+oLLJwy1Spr6pEGcydV62he0WTuY2dRJwYzAcf2b9UIDXMuDpv4lcisglTL5l31BypVr0/5im36WTu4Ae2we1CzvmFPcvZ9zC9JUdS6r0sBmHegSo7wRFZ3LjU7sYgYLSievQ9blk8y5pPthfFdRoqyd13Bu2LmXBbVMx0FVqlQ/U8vYU1lpHU0XnP+Q2qZ1wfgI3gw8EgWuUThbncsClXJRuaw6NtVNKAOltLwufJOhaTq+fhnBAA3QKXtg944KH72aH23/sXp3nq/spFb3oKlFfnE/lcN3rOHb4tqIlivylYVV3GMSXqsr9M49nxP1UEYKECN+oHePmLfNQqqN8UYKp9tIX1j5sj2Unk18UynjeQJG4HlVr8ylvbsh4VV5QXDFeHynMZYv4QeJTWjx5JYcgi7w1DOV9pbIvsYs31ltUDVA7uHni/Q1BnLBrgykIegsQoduIDgPuxFEB4UEqwqLLiZaPfYYj2FLlrt+ZZunxEULOamgBTKvwy2VxGY9tnuZQBuBIqOXwyjPc/cr2ymTn5y4h2AjtHUbOn8Sko0Baw2Nd69iHRpSXEuRUSC0r3YgF/NLyxfhIJEL7OuIg03/JEXSfSAKbfJE7G85KlXOc2+MujSowHRpihQgFqcgIJtHkYVNzobY0GjmBJRwjyy/wBhFL34gM/hP4Spv9M/ZE0EveomCLxv/CakTMe8PiC/9j/kL69j/wCyHkvH/wCcaKO+LP8ApkKpcs0aRxlo7dXe6jkPEsYJQvvapal32wek96wf1g2VF7QcfMfgE9SNxm6cxVzw3dyMgGvE/wBBMDn7IK5rSi9aCGLzORQ3f/Y2Q3lVK0pe+TAmW+iPClJxVlKTvh8DNtPzA6VfjEtH88P8lN3V5/8AxLFo5lXt/EcdIGW8+0tV+eHnXJ3F0Rvha0XzbUw2vuz/ABlSNHy2nniCqy8tv0VFqrl7X/IBS/lY6mz7Kn7IEVUd1eKj8BeVIcyD8v8AkO0czVgdVfm38mHH3NRXDuhb4ZqEPRFYHN+RqGLQ2Psx2NCm3luAq5Gir5tgbuKtn2jKzbbvGV5ftOIvSxlNcHr2tXN9/DDnU/ENfJBo+EuvYiRJTmpu7cvJihdOdfZogFSu5FweracFULj49LJWRmenHE8XH0F2f2XstvlnVJWIXMbNvz6TN43LI/M4qHFyqyZVQ+opqGsSUnakrmZ4ojFNfyQTDcbrmo0/HpdFV+yCkHmUSrIBHxA1e6D8AS6YZcPEHGNV7iXNg4EKhD0e0IA4GNG/mBcDQPm1xdJXULiyWGguBICQxYzgdnZ91R/8CHibxWXUobWeJcb9oMtBZdFGPtM3a/aHFPmgixQV3UuOEWOW5bxqrkL7qPmpbgRwFoChw9oNeVoxBbbdtKX27FXcvInaWQLc6t/mNipYDlj7hVF7mQxbNjbucwNBo5C0WbG4SrgXc7lbZeMb+NiCpcV4n+svg+3tu+dmwy+bIPF5w1uc0vyIbg/eVSCMAeagYABwAhsD5ogSi74Ibt/NEWS/wzqNLh2SuIPecFCPJVyioVfEV1fP63C+o1hUsyoGA0q1vYyzx6DA5i0feFQGMz5wm9zrj0r7v+cCkcB+CVpOoj6UOBTmXslZ6ZGMJY1ZdS4dQ9GFjW1gWxyN7eJVbGUja2v2twE49Q6BQ/ZMYZXpyhHn0qZ4MKIaTouoejwzZDZZ/wDwODT/ALyrjDEuUpd7feFbvEfVwS2Gemy1kl1IMOHJXhlf/wA7L2Pq4IL7IWXXM5lBCmwp+IbFwOmFTNv0bC7ahoXWyFMeFEu63nqexPMeDXLUsnMLy4sXSBwhGy3H81nFfj0OIINx6jT5vE6jyJ21A95rKA6jZzzKqvj4lQisE6bigHTtvqBhsIvwvxDmHLOO59yleZvB3NCp9EJAoEuOlONnvL8IK7MGX4lw+TCGVKNbjrEI7UAeln4YJ3cOImT7g3KF1KGTMyBBvBFLIu+ZmHMC0rXzAlZPEXmJMLNfuBgcwDK4gXcTM+Fd/iVt1K3EVAu5STAdrX7Yhc2bzDyy1ZzP/ivoX0S7rIcSyPV/8OGsO/S7hEkyh/EZywLle8yASm2wE/CQn8hVRhLe3b/IBTKjL2LK3u7QByy5fHpcvm//ANoelxjRTkU1Z4hD1I+wIGQcn/8ACtCs9WbTCXFAPAfmDUrOYtRvdf6yfry1L5mVNrPTnmCks5B8XCx8H/8AGw94+hU6b9DKZVtyub5lSkmgrz/FRZ1z+tINBMrXWDy1Ll57QU+C0+bnKvzOmovU8uS5SyuFF7y+4nEwZwRw2H7GpYsyopZfAQ7XEPmzhaS+mZB8+hpkA0url3xN2VE7vDKNZqVZUtV3xfECGRnoBM795VenMVMNRVzKnyQbj5qHGMup7XKj8vW+iV5JVRotn8H6AfMVtgy16LYtHVp69Qlsq/8ACIsOKxnc27l+gHxX4CyxUrfQjKMLt/RTAr4gXUqE8wfLq/AhK9oEokqpn4/8T3lFypiAqEiU2/lMFRy7Vk24DE68WmD+D8QbMXSWV6UD8n4xXW7UUz49LfR6HF/6nzB8Po0M5gtdZZfysL9KcTqLUbWcjhOL9HiXS7XBQeAS5Wy+J3TLNaqBgQYtzJ3cVhBjGESV7RqRy3pUBD/4we4VB+GB9HMvMPTZSHMseDd7gLJkblQ4Z5nYVnARUQuLCU5NlQApElnSEYbFZ8RrzAIXyf7SorvrLbl8Wy3Vzq5ecFxBOX9aweVBg0XcFJ0whzuSjhDuoMbyBLqwOfkVMgiJkKnUHJ5XUd18FHxWRncyEDeNQIt835TxH0b9/ELsbasuZGwiquk4SVxzC8yBLlwlxm66pBxgPMa84EcekD0rIbOIig8IgHHrwywjuxOKuOUvPTriJuQLBZgCWjzDhcXPeXNuDPOd/hKtHGX4l1KZt8xd1hrPH9SQ2m4N9x9FxhY8qvxL2eKZfvLIvMDdyU/Ck4r0+/Q6lTE6nQXO8nb62++aPgcLl3fozR+7niX/APo4jTNW9A8xIg7X6RQUaA85K6iPIcSvPpWTbRQqe1MtRsLITbjc0TNFEG5lTiXxF2EkO2GLbZfMpWJs0NcqBBbUN9Op3KjSqFcZCE8yo4NGvfSuGVKm8kS+MRKzPRJub9sIQgqgn6UtAqV6LzDXSgprvP16LLM9OVPocR6lpLPaViorx4i+YI9wsK1kUdmowlKfmcRZONvjmVXmJrWe7hL82+kG3fiYrYCUsKFXNCvi/EVS82ou5L8weLiGzeE+Rslis6XBxi5Lh4Z59ZKgUYJYGS24XsHHM8wDR1/Sc1GJseRyw9Er+Nlt/CVO+YyVxkbIRrZR7zcuWRSeG6goIXRUp8mLjyxuX1LlkyfNpyg3Fi4sVpVmSAf6uD7QbIOFku4DoGKqtZbX/ITHjdfD5t3FZBZcIhaP9QkSLharJstIMtDbKXevgwHC5U81G6GHrdYeSwKNvEKMVkW2ZqeGc16IXKl4+jftIVfpx6VrOTqoZsz0olxwjuPhaQ4g+gRCtjWaVL3r0K79LlT6AX8kSBqzb2ca/MGrbwYRzk4cR8My69Oby5yy5ZLOBlqqh0LgjF9H9sRcaPSiNXzABK5sy51BK5n3GcnUoM4AjmeVyj3sRC5ss/cA7KmLVw81+myoj36lk4BLLJe5GeBXxpFUSouCc3CE2t7XKjYNauxyCdpBjl9phEuXKu4kLWDdehT4shKeyHPpSBHrSHxGrjl+l1LtS/RxVzUy9m1UcTxcvPqpgBscqp4gPNmKG828fJA2jeb/AMYTCfOMv5DqrVVv+VRoX4E19+9qLLGj4Q/yFup2oF+7YMqLm/8AtLnADdWv5iNUfJ78QrWKBGVne7N0DK7/AFbCi41qCSofVkURovnLAH5djGOJAtI8wmFRSafqIZaj4r/aeR/a/wCsjeRXxFJabqp/SIJDS0fHwTe+8jyQVpA5/wDeOS55P9kikHr2l/2XKtpq73+4mbTTYEn7l48woP8AGWS74FwI6BeyU177lNVsKz1pYW+xAvIdUf0gTbTdCPnJ1F9X9JS0g4uxr5yMADw1N6bvErhQ9xJsgE5ReXHom3Eq9zJViDzSFP8Aki6YrQBWoSbTaD1F6enNOwJdByIue0/JhcRl4osBX2NbhPINEi3LngrHlB4WFKTAe+Pk4RHgb4S4j1LPDyPaHS9W5IrIB7whoE96QUso8wvYx0ZHdg2e5A+RpYJ8Req94AyZD46EgmEXwkeS+CFzZxOOWDbuZJVw81S6DfFGNib+1sEUT+f+EOljZXz+anyhw3+S3l8USrwzzMnzFEECn+MxHrKHl2UPLbAmNhUEe54lHqzhcOH6IVaP4/8AZasUeZp4+0V9EAwVo4+nf8iDY/PBmvMUIILESinOItzp3wtyKWctazSWSun/AHPiWNYsSuZuRZzXidku5pi4n3qHHJ/ktCh0pP5BhXvtAfhy8aRWW0ZtaJYbrOBQx4u9pSd49p/8iPh/NswNLes2K4EAGstDqLgNe8rXQJ7pfmZfWbQf2OFP5/1EU4s8wtacPgqx1igL+MTr7PXJJqaPnDIMFppU97irMCnS9u7IHkFM8X3ih1vxjlU/H/6jpwysFfds25p1JUR15hpPaa8UnZbvIS5dzd7DX6j1fJLGvvrf5Glt8zPPxE9UFVb/AEhOW9x/hLOPhD/pODT5P8CceGcV+1kNQ3WKOkQG1+3/ABL/AFxphT9RYoOCpW/r/wDzG73fbY4TAcyaqV1gg/k3v94/0Yt2/wCUf8lVrPa4aGWlklgVONHUGDtvdpZKAM7Pa9BPniCBA2lXzAONOgduXJkIrAt4Z5wEG3lxI6YNnbXlAyKC1XLud5vMJlRAJdx836dTm5WyoA8MUwg6HzHTNanLNpbldfEKIaQMwFza46lUZBkCr8TkdH+lwJriAhF2dSy/4zmNpJxc6ojdSveWXxK6GafiVYOsPiHCss6hSyLMXnEpl8Qz0uop0dmWNzgupO6R42DNatRACCbjeWw43mzGr2PWRWufmUZMtyEurSfor0AdBBOTNuM8RK9iBFdS8lltIl37yXn+ZLW/tpH9vwS2RoIXgVOZscNJcU0+EMw4/rNB+tHrs9jDws7bcMesTzhjzHo8GeM9vDOf+WDXo+MO3as4cXO9XxmH/i4zykKUzGSFiC78MWNaDjxKc3QuNvubNjm4EUSEtEWadwhvYfCQhcKMgbfc7pm+XOIucbT8BGVuz6AUQd2AdSshxBrsSj3NJ1iuPm4AucypV8TMlyEbnWu9dMKhXj0qcZUahXPrMyd+nb6ME18ReQ49Uorsq8wul1+IxHm7+9Q459F5gU+AwhzKr4mhDxKA3VlHwszu5L+4fMpnzPhCBv5L+hAZ3FIRlwl5No9bh8v6hKNtVVe4MpxwAl3vpQfGMKjQejBPmF/iCIedrtlTYDYjtOClUELmKDbIQzc2pelwu7JqNHUbyCy2s/xEbTkwKibGDM4m8Mb8+jc3ywf1GliojVlZ5iQ4m6a+CNVmgHFTPfJjC8ubAOjp8TxfZC6jA+ZX6gd35viVyuGmTxEhrALcH+E14eSFncUCC3xlQnzOANOYbKnfobcdoOoGXGJQLbTAhVqBWOZKKO0YUrT+YFvxFKqMGLUdnfmXDXFenF+gV6US+Lg1GDFXDVBc+I8ywqSk+bDDWDWToluRVAoqrd8xnpmUel7UopnPD5jdZ4gXXpR77MHwwc10Bx4DHfLi1UYGnrcSipRgjxCOYHxYWmlVQcF9zjPEGLLuVTu/mkhsv0sSDFLb4IHPYtSX+YbKINJkISgr3uFPQOS8Is0lFXN2Yml2Hn0AncItyhnJ/ImcStx7QCTQfnxHdimkh7svYY/CP9hx6VKIlcsq/YuFrG5jNYqh9BlsqxsaPg24t75hpbU5qEajqRAlr/uIU8rhAYuCJ4lhW7LKjfbzMe8n8gnmc1FSYS0ClPcoGobAYbLAEeUjBZU5/k/sEhmQ7uLifcf4L9ocwA1UWggzjveJfiEouMRGXyhoYV1sE0cvL7QAoIle8qz7LALt4MjET4gmXL9oyxeSqIUO0/JCo1UYdzYE2JODsqDVe8tZbwzNuVtXGz5lAreGMHdob9XUFBl7yzFj03GkiNjWHyP+wp2FSt4lM4iBl4kcJtcbcykSFJCrYgw0q80R2xwmOxG7hdZKyUIjxL81tsGHJb1MlcFRAhpbKgycwa2WmGqoa/fU60joVtP2Qbx3CvQkdmjRAW99w7YWsqn1FvcYGuuoNQ7/AFEYx+cuBUPQlc3La1br4mytfT/srYrkrKvhlZ61MmEBMIMaIvHhYtp8OxR3lyU13GLTzbHAyiW42Wp4+VE2ixdd2XFuUeUp4dh8zJ3BdK+ilGPSgVfmLSkH2G1BpRgvklvZq1ZfRnwXKLidQmoPBgXt/Eep0xdcEi90UxyEulfFpbOYT7X/AGFXO+PRI0SxsInmZ9xfsJWw0ZHmyC7XfcBU0NwWFkuDox62tftuXC0le8vIxSsdQ5JRcmW86qZoVYQ9qgeXGbAbhFXfUtQFLnAwich8zJWRA4W2NDl2H5ecnU2DZa89QiLEiziuK8xLHZBlIdrYFguEvKqr2yNVhND4JWQLEfMoYIWAch7kHNq36nUSei5RxDz1A7FgiXgT+x4tIv0SzWcphw0iBXCEI2sTgITyWEv3IvtxhbQJZVUxEr4PMwoHH7SrwhLYLnVfy1LrxCUDD8TfW5wtkx0uXzNZ1/Zc+GX4JsDVjXfovuDytnJQ57wBI1Oz+p44T+UQomXL269LOKlfAWL+SENuN3AyAY1eq/HfMeLnwuXi1OQqWcRj0VKlwZYJj0CVCKp5TPueIcQWKnEZ7NIcczLgLQ0s175IBjOL29TxzLqEuVMGQGOIncGp4Zd9TLgBZxFK4hsJOpyS4U6yz+TsYc9yoFEbYyTYrXthCpk52p36bp6P8UhwT29TGcXZ+YWCyJ0Kkt6TA8MsqaeUi4rRzw8wULTM+8DWlgu9CACAAUV4JsvqXE+Lej30lNN9ilBlnEFWoS/kYq5DklZZAQzTpt6CW6KreclPuQTAUGNKeXuoe3oLOLH7EPReB7wUg8vKM8UsedHoBlkdIywG8+JUNta2uWcPoHwQllt0uTcy+ITX4nM4lnWzhLthB5+Cu41jtWge4wW+IxhTmpS6TQ6MyLxje67rmXX7Up9jIak+GFKwoeB2YZaUgTWjHiF1ZFDcOUnhtS6Nr+JIaS3X1LxKA+w1wxulXBLOaUR/87RBkFKZy3D8VLfbKzkvm4Ni6PEv8BWPaMLeYgNQYehYpqgh8hcyEY+9ZHyql8ctMCg3u6j6pR5vjZdWE/sOALJokMUgFBI3snGAec7gyOVR9mbZ2wEIXEqKXwPw3DZ8sQrxbKbPMWPEc3kH0xWmbdXxCLk8zt9PEqyZDzMlbxGyU5K2Ds7im6shFxNFD6h3bOnYtLi8bLvuMpvBv2kEaT0uoNEIUjaD6pcGxnBOCCvZUusgncrU0LwgF3nYOCVhfmcFx9FdDwiMsgNTqDtxV25r8JTNI1LIuS8Vl/YT80g9GTYt+IJydIrOLQnUSZzKyDkbsIUxYKW8YLJzLYWSmXsvNqesT3ltwfMKqJ3sAcb5vlbjHkjbwQHzKYNET6mV3jRZ7ywNHH+QvTl/5sFIf6qyCACile3EsVRjoifoJ8oCoEpJpiXpgVeA1+yCZ5g3R0jzabD6mRGPOLqtt1uNwQBUl3iKppORVhoMqdnoRDVnbRgA8Bt+WFVMjwtnQ0rpSO22aKW81Bum41KiBPhkoXHI6C0HHwiKKudeF6d1FSXVH4RLljUXuWCPZFovThkHIf2B737OUyo4FQGiRYwanke6rUMh4ll1LJf4h6moT4bgwxDr4qAFKgeOJcuMP/8AtxA6kHITaFNMsJq7iS3j9DCwrfTbisP6xQHFBN3DLvJfwQojrV/JQ6Ewmq4VBwG9E4j5lK7Kjbk/6QRXa5XyhBC1gC5fbAgFBPlKgWBCHEa9OBQIfOXB6i1wJKSEcbrUWWNE7uAyU/wjAoVKQKONzZhD03JhHuFT4EAI6EOvNS9hjsfDYQVKrQbF42H5bxZRRdL4Qn9hcPyYr9wsGHXJE61hyFfiHBjlVMy+440VP4xfHNdLv4uCm33Yq/7CIu9Wv8SJ/M1KS1Bl2ey5gtv5JJA+XwPeyaVUvsLlHLe9SDG1E3CuunXURHHFdonPEVU/Rtf8if4P7uHtpt0hwh8kaBAwxcThqBR4Okw0+HslVKL8ZPIRS7/cT/WLqZ5QT9MewBFNYS6oPdAH3cVRagjW/mrIq4S77LlGKdRgGCOTS1xzqJqYc7/TFAFR2jmb6fZP2E0GHjXUM3eOiGQJ7/YntavDKE2eyfwiQT9kagO3qBYikusg6s38oLlhwG9YMEsg1Wn+QTV+DOc4K67iAe3FCzhUpYWidJf4v1DgGCWKpdVAzZVLTbZlNdRa4XWYNvw3+QWDZTZf5Cmz+FlICnX/AJxRbpWw7vshfNxR8vxUsdufjfxVwQVrB/8AOb19eP8AjHguXxR/IuUKRpK7l0Zjg2+LltEL80gGjmyfy3RjQqRhRfJaMW58YkJcSzMwflf4rCePW080QcXV3tMt0iLSzMIidMBiHRjKi0qhy1CLs67vKAunmm0/ghbarptb85krCO+NKE41NQzrmRrLq8sPzTHfH5Kfwidg+BZ/BlPKlERt+CagOYFMebi7gvvuS90PYb9w26U4WfiBACUC6A8ZE6B1baB0Okuc+jZr01x/6RCIsq2/xAZ0VQlfGYGF+9vZ1ADwcPzBuO4aPD3nuGKkQKWuduXqAOyy4Van1/zKC9vj/ieI22ufEDYepDKF8HUw1FZSoBRxIdW3/wB8QeQfn/iLPC+R/wCJsqAVWqR7Q72ffUABV8Vh3uyVAJ18Gd4SuOMqQWQIBaqVRSHloOts+zIIpxNdvzFB98f/AEmS9u2v3G5wMM/sArCv/rZSIUW8DmtyyWrgbz5LdnW3fi/sVsi3ZU0f8llYHE90h4YJM58SgQZphXT4YU6RbXuzCq1be7LVUW86wNRR4MWs/FD0uNnxOJsY0c8Np3BFdvNQbV8k5d/IYvhGaCyGN/igKCPFegVGlDRhU5LL2gloHCoeHKeCJ4KNS0yGkexGtvNblcelHrWcRKm1OKJnn8p+YXcVpvUK4uFVARNlgfFlezIjGoXOpZ8IsAU6Ue5UFhxzAXGtl1M3lotfAmcS8RS5VtwwxgEb17A3BhfFHpVxSbUcvZ7cW/NzIZyzyMJ8wfKBfoixCgupQkMCxcHfhlKgYeB2z5lY1Srun9Q5cNclMPiJKuIbZK2xpIgQupWVcYrZXDprAibO91nDBD0Tl+6XKOKJSjiAj4CVCVObHi6wHicJUruoCbEoqrX8we+/Rzcog1xzwSloCxS6pivoKolVuyh17PkYCwdV9QtluiSh6DAgKsAXHAosHJrxTzLuE8kXAJfehV/lJcgPMODfQvrgpTv/ACbijD5j6PutLH4wX0fQ2GCbDLwjsjVCP6Alk6lRd8weZVHk+ntIEzzGouwLW62/Dcq0xuqy3QGw4pOLWpbsQ8BBNf8AKwA0rlWVhQE6j4I4xD+f0itMoBkGaCFRQwLQryW5EL26uFwWn8hIA0q28gemqu0iEVQNYiSwRD5YEOlMKCYyLcZQ91H6heXBl1LtlS8q6NncYgthVNMHvMKZFqiXd+U3lKmpcfStVtY2jywviHpVzJ4Mlsrwy2fUL9hOKs6lrxzU2veaecqMASNG1yPabuQa57lUe85TbnMIHXWh+LZe4ZcuXUsLnJEHhicPMBxuMDIz2BGVtTb49CV5JXpW3K5ylSVdSi2US7iqDWEepRThEa7Wp4XkjWhpT4jTgUeLZthlQiXDzMqZ365OI36BO5w9jDMix9B8R1fZWW7DyjcOXNSzKhpBxG696HoS/TglbgUnoerT4X/acVB+YJUxaTW1Tyl2pEJXJkPHoem8s/7JYOKN6W1kfri+5O8ipFZWly/2lsK8TxDcOA7uK6pVvndJ2mHHUxQh6XLL2C/1nmas8RqHMOM/6KuE0Kh6XV7GzJSzAu/H8TgjzKlys7WJwTW8TeCBQQoCAQCVVuxYasqGiv8AIIcY2dYDAdIUVX6g6Sgb83ChgUffUoHPdFXxKerSKajwwAVVjb3YCWQLM9E+IW+HoMrq1XPUFDDButjtoW11LI/yf5LGywAKczFC/QMar4ZQzC102sPmBeS9sc7t8MOOZ0SzeUvQZfNSs5mqECt3GPskr4mWTJdqlSkI31LWxVG4z7IWc6w5C9nDnuD+Jrvt1HojSUA0e6YjfMgFL2ayBw8XCmmFAGqFCFK9PvuXXEKXnYgB2hH7iwo1U77hVRIN0EDVEuBSl+dgnCS20isREaXdz7OJTUOPTahfMP2JX7lTl7lsV3QJqIlwwKPYdJWFPrwx4mFO/wDcWK0FVGKy5t0zINYe5kZ5gJiweD2X8wq2IrZbvtylGz5i4LTS/BIECMt5nUbU1jM+Bl56cHEbhzjAoquant4jxxDis4IFS2V3/nNXbM9D/RBQcuVxPiEQZqV/pPEC4e7VgQPLWFa18Mv0ITNGm61CJCj2EKpt2F1GnYCoEHQJdqT/ANyXArpdHMC6KpLBQdRoGhA1VkELYkaj1xmvML6jyEI+JxLOmHB4+3lCM4S4tfDDXnB/U+ZhjsOtYAYXXbAYdEIVay8KSJaawkGRUqaD8WiCNrwy/E2rlJylRsB1y6yPMGYoEKsCRnOoIgqjiWRW1SY1sIWgJuhLC6qI6qd/qWzUqlkXg8iSwGhivMUjTV0rhgGVFQVf9ROBawjcpKgRKj59iGw5XB6jgzFb5WHETlTDg5w0hM87PapcU2XsvnXod5A8BBhs7J1UU5JU4bvI73O2zUl5z8z+lwh7t7/KYIcVDOWZ6JpV/vmA2EUDdQzvSHPM4F1wMZdV1K6z0Xgg1sW/gYQ9ZmdTJUsyBVbPqUeNsQrm4VD0+YjQF/rdTuveUSF4HlhBGhbEdoKddu+GMrsoI8QK30EIE3NCcn5iy5bDDuqfbGWteIiUeyFcdsGJ99b9ytihaYG7XmDWCloHZQigft+2QqzOofmAmiWZLyo7Px+24VDJvoTCrh79Ey4PN+mRSZwZ73eDxODAQ4lfbtCAX0gg8vP3OocSpXdQNeUFXD0UOJRR3+ZUO8IWeNJavZU3RiECVjSanR8kGy4NOG9gg4BSMOowFt8JR8UpFu33ypZh2WtRdzeWrD5S1UiWYCgGHhiYMvIczbyXTe8RJ1/TlkrxP/YzBsSPip1NG6eZTEbDzyS7l4wYJVaB5gg6Vt4I+6VRK6Fnh5YptAcKOGIA2rYEArKn3OEV23tXUM2gunS8XLVCZwZUd+GXJuviorVNAiU8S88bTU3SF3xCBAujvMETiXiHQPQ9F6jtXyYnOx/UttVS0v8A9gA0hvflS1W73wfUA+XY0yKJdWTgGwLw7gYKnqbxa8xVVU/RalULuVr7tPAG/MDNhM2Sczc9PdmPmx3tdH9QsnpwTFllszXY36WDKRE6jV1UptLlxSR9MYeqkPzGhOI7vYF8+J2ZzPGNWeTcLVDpccaio9INl7LrLuR8RFAmCCvoS/DLofiAxmrGuMYOFy4TLYuspfyGYxUGgg+WF5fmD5l9ocOvvmc9ut14j/aY8zJCukoVCkzADn3mxXNAeaEBeFVv7Yntoe8R1fDdwZcSqXbfQ2g4r276ZX0DE6B/sSUGzI1t5iKcEmxAYpvO1CwTUIlfIYIrIbuDm4jG9h7+Iq+hVAtlxdPg1pjGnRYqa2A9Mv8AltLhzc1G3Zh+4ExZZSDLnVQpnr/ggydzzH5lVDtXRX8O5lbEi7LWUrfKWc7/AHEpBzWvCTfRBj8wOJfJHknOwPaFQ0BBX96xbUPwdYHPiWSJJ8DmDrX8nmc8hW9PX1EDdj8NkN7gz0pZ5C5dVEBPB/Jo6v7pcatC9WeG4NLAHAOcMa0WuSOVisU8Btz4i0q8Wc04mVa+PKe8VjSoIs5tp9mKfUrr42cg0Jg+JcCnDkR5tBiH5lYcH8xf7TQnka54iaipuolHmMJcRpudfkEsEoF2TLWXG/SFIwWwvRtBw94CYx5CJxTV4JyfMxHTm9yhmkmUBv8AEUqFPqWP/DhcNRcBlSo0o3LFIDkrG8+hARh0zSQVQ74BeR+6vsRHf7QMDGCZcor2PiEAn3IcXPwkGGhHYuXq5q14SC6LNQg0QaSAVASce5Y9F3V/Ilo/+72gwjEmXKP/AIyASm15OuaqKMXzj/kLyddf3qG7mLdH4gcu94Lzm8fnKSe23qKYLGv0ovEfDR/2COfwhT55iQSVGiiJX92Dhupaal0QTx6Vkyp4lS3mXzOZ2hx6Ajw/EByy1QRtrj5/5jipLHLs/wBRvd3Ol/JuKsroL/aXqOHl38xlWJhAlzvErb/DFXnTzv8AuWxSo4nm7ndS4H24uo7QL2Bs6B03/wAIqXmfM/UGSn81/wAJc85fijBXvwEocapf/qN+hqobHTiAvh98Di09f/SPGY6uv+RoAnwa/YnwvgSEveUAzHvCi3vzbDW8/wCNgV3x8H/SFJRfKoH4hrtx6LzzzK5ndcaeeZSy9/KKnHgQfqXza3WYChQnKzIMb4l2enS0jKX9lybCJdhUoyg1zmkXFKfjoQKr72sAkakobU2UANriAnney5+Rhet5wEtUi6XSyJ07lMlbrLedZCrKuCDkUygKKpydCwgx6XmLKhiPyRETLWVsbWL2ncBPhBZ+8d7TLkwI1jNxLlEDxtfcGIuBwU8lxrI9+P8AaBjC6q/sX2UH/jpRCh/H/wBz/wDClSh1GrFZO4H7mNyr7v8AFRzq/wAyReKHcMbMd3eVzx5C29wVDytQfxTCfh49v+XNF2woHkNmFxl0qVjgxcUX24nEHtsWRBpw7JGwm6UIR8rjnYWwb8mCNabteaEGl/ESDMuXZ/NwRIuw2sDtjDSzdV1xpF457fdsTJh/CVIA5c8V/sFS7+Lq/cJcvoUeOGERV6oAM7ILU6DhVKVcTAj5eHQEuxrH4geFkFOT0ghNYqsL82ixzvGQ8hRldQVJax2ftECgDahXwAEo89Lj/Ys1l6GD8EMFMopSAxOuQ6NyFKs3n/Gzmr7IN7oPOPxLNiPe3+wxY5Kpte8ZdBK7bz8y7XQWG2/erE1ue9w5k7LV7v8AssuD6SaFIryMshd01uOR3X4xvWvzIABa0kV4qPTElZy6+RIpa+2hKXZ5rEM+ZsYFEH4gLueaGm/ENaGRGJGiOQ68QLVZk5nx5hU/hCAfm0eRGhD8QomHBAeOJRLOswdUMBkohFFHEofsEEbbeJeaYszJz1KlbM9AoG2Pob9LmKcc94i/4gGNN5IIhy2YG8T2qZvpedcwS3i7D836OPTk9OmFsr3l+gVVniPPmpXmKX7MZ5uUB8Uz3gAXJpjkKraU2bURasZ6vbQgPaAeZ5i4hBe45pESVJ/GFZ5/hDNnM+Y3UrqrhBCj97qGy30e86mEvf8ABKjymoWLIZ3BEgFIXQ+FsUkJ0lkYXEWB7oKhmlchzZLJKPb7gUUAuXK4+mq5a0q7S5cppYMqivEMSumXfMYuZwfiZ8yi4LbtJLjBExLZVW25CXW1r3l7JblRluIbpYH2YTBYLx0sUPlO+7LNWrvo2HBoT4umLKi5VezFhtYO0n/YJEWMrSiJtsMsC4/AMXVQGW56VUr7i3yqQD0D0SiUDLz9znaVdxLmjzG6qEA4YfFQ7hdwYf7ARZDFXBk2xtDjwRNPB6demQqy63/GBhOoZEVJV5IpvlVOq9nzB3entGGHoXRK2B6CZWzf0RPFSoPXwQwcAjjUAdSqp5uniR68CxOO6dfqIx5ivtFcOB2sGXBu3oVxtTz4CjLIALuqN5KlNbl91pYd11OFvoFr4pkKMCGxtIm7CqpuR++IOxhydteWVR3xVrLzYtzWQII2JZUJO+KfogUTxkT0VXFxyFCeQ/n0ZYwPiqg+V1hTxYR0nUDiEPQvFR0Y0cHniV1FgLCnYkQSVuy9PslJdvPonjmU/wDh4jJXk/DDmDCdmRlvpfTLJTL8pldpC/UvVkUqXKgPe+CrKH0KuyG9xTJsigu9xEqA+SmLRT2Ylt4IiwsgR3xLFC0U+iJ2635SLftKag5L49CCSh+eDIsWJLsho6f1yc9w2UTmWVPuc1DuALpufmV++CW2osChY0CsD1Lp1zxhQBKDPhgqVJXdFQzOcV0I7NXUwiKqOUbr5jrrzpKI16w3/EMnM4jmALr7zOpjLvNbK79s/UVpeD0EhgxQFXvs1KaYBuPWfScsvwzhOSIgOOB/8YCi35bQKL5ragOBx/iByPocMoex5ZYRR1+hBVglNS2uPS2ZLsPytpwS+JntLAkTcZQcBCFhNn5RBfgRCoDErBbLJd02iXL2E8QrQn/hh1Z6V6VEmRSN+ITDDqXAX6kVVz+uXek2PmVNlK/H9JB9CJA2SvHBD5nN+cdrNE7ES4VG9jGkMq0TqqqfxE+gnc+YhT0P0MwbFSi4PmHM7SyHZo2m+IFQF9uY0QiWMeQAWW69hjX4Ft+4YV9g4iaPikFzIa0fmfMPmfC5dLtrBFynI6ssQMLjq9pQY/8A3ZSiF6wb5jVcVDImnzf+SZcalCEfEs6eMnE69Lgs+v8AOHfhrC8hZCPLLsmt7L6nmcUSyVSrDXmX+JS04yHHMptp8Qg4z8QUSx52KvaUaIHE5qWe0n8l3Vywd4lfJksZQvdgC8h+pf31X7JU6qHBXEepdT3BK+VTLPqXzGV3d+j+G37bP8i5nmbaXIH1Q5LlLa5mhXP6oNSOrbfHEqzXTxCgADKiQ223R+qipUHbEGmArWFPMoI14fLCXeTCXUFdTl6QwAwRWxLcsfi+IDorI5UEDZwku4Vm0HPcSULagRaaJQWwUDK955tinBagR9319scI0alFEAW9yZ0PUItq3Wh595y04EujHHImtJnBxGs6lRqmnTEklAteYPY4WU3V5Cyxu8Ge4uBANbqC7ez4mqvgnO3zMk4bD9UE6AufqVqUhqU6ZsEux9moUFnPMqhEuIpktuWgrKviA6mVkt4l3qAbsrQhpOr/ALpFxKbCXMIchgt2DPCI+Ra97+h4Nhxx709yFz4pCvsIVn+p70H7iSkhQXGn7UHu6kvuSF8xn/qOvabEC0XxdRr8KXB2GNJ7wBx4b6VzxB4jvERKGaOLjIll3DarqCwQ75XggEC2gAvXCJdrUL716W9RKK4f5sQ2fB6WHcLuMfyjyNYuMmAqru5UPLKohHHF+7l4QtJuj6MorWmn4jOSGBkqiqjDGMWp2TqXlSsmD1S/DANoQ4HoINizjBucyjmPp8GDtxatZQE8WxXxE8l1KS5U7fmL4F2XwVMEWk/k4ZO5Lb7OziMukIPMKmqiITf/AKJvb/8AGXPFQsD5lzI6dMq+FuDwStuYDn0EaldgVYe+sauASmkmDcVyXbEmj/2J2TZ5lnmcXTGnPSU+glib3PYy6EMAiQR4jttQBKBspYO2BTcQBYYMGcofE+oQAiUytk44hfbsfm4qOhDkBKFROqIHgSmngfnBLmdkAeErbRGbRvc1tMJ8jmAEKl5LviO3LCte2Zl9xSMdQqdSoKL7HeocS5icRm1f+MYt1WmEybRKhLm8F9CckAzCPg9A16IMhKRrxeXvEsYLeJdFAe5zbGopSg1pQPhK/wCww7sPCOLpizItXSWsXEH5gmtgXFe/lhIyyAGEryJ0ESKAEYI6Tt4gaCqvriU+xLvxPBS9JUqhID/6+ETCZcHJlU76NF5b4xIUqT8kJfI0B35hmXN6REuSMV1sup7UmGEdkzi5DwSWXgboigLVafGwVoe8C7ogPa5qy3mdl8cylEsD1vTYy7y0/qX5l61OiNZsuFJbfB9QdYUDTABYXK1rqe+d6+pfhXh8weeOYtoTCCl0IaNZeeKgITzK95djMmwSsiofj0Kov7g5uNnme35ydkrtsOiwUNYOrZAVzjKKeD888M2yEZcKrMk6q/HcoGsw3kqdlk+UuckBK2rKPLl+CYepFSHLGVb5YXlSogewQv2j3EBeF8diRtePUbGmMao5Ir4JjsElIlI8EtNGeJa3o/NDnfUE9XiI380/EIcxa9KN9h8KD7al5kv05fRUC9VqabnXpchfiGjnzc5htz+4HHibKPPpbzEp06z5CEvxLCxlbjCrCblda/KYcnod7L4lUFoTX5Jj4Mydy69BDPX6ElQuUhCGdTR9g8buw2xxML4IN42FhpKfEIGuU/RDbwMpNtByvBVrYqFxQqHH75mVoI3Ptihy/wDyfMTzrk02/JCv9uCGKYaxBdCn4gNpeCVFr6eczzl4hDhYItvJWB8Iu+JcxPb/AMIcINdcf6hlT8OL+Roli8Un8INqB7RERhpQaTwxT+kmZD7nDAOfeyWUPypf0KPJXSvHVTTR15KJcZ5JFhme+eU//fLFWbHwv+wdBIYY+RYhCn0v/UGuWXXb+moVXt8wJL3+j6hMKB5SIT1RlMUtk5Qbej+s6i505+dhWftbf2HMGzlf8MuwQVb6jwx3IKy/8WFt11ylcdSgGpe4oh1uqhaN7NNg0tWKeZXmNzp7Y/yCl7Vx/wDmYZ9zjL2vL/kVus5BfqE678qapD/Cckf6EP1i19pW/wAImr/e/wDIkPKY3VQw7eI5PC5xhXL5fUUiLZ+IJFmZALgN8TPEvwJ2+ZYIzT3zJ5beOIZ3Eo1uSjkoUofAlN9gyPzsEFVt4GL5I+J5LfwvAqvL5kFaioVwCmUhnHN/1OE6uv8AnK7Ffd/4hLnfr/5Q3H26TXzGm51/4QlEdmJfnUEx7/8A6Q5j8yAQVPvBTaPwoR8Hkx+LhLQoHitrieYHoWz5hBabe6Z81AQuvdZpUeyYC+K8n8EIRzmba4vY3UVVzB4mJgq8ywD5CqX9wpad4rl4bqiiopbBBVoiB8K7mlB+Uf8A2Osq9/8AFjbGkeTX9y15Ky6zqpaD3i/5sUDKtwH7jiRuOL+4ghrW/wDpCtYezc/cTSwfNKSumX8e3Z/7GkmDUz/cLXL3av7OGvi/9J2/MUf7BEord7nVNSu//i+5x1HxP9nQj77Q1il6vqKHHnD+xtQOz8jY6wmrieb7YSvF1ef/ACj1D7J/kp1R8H/IFtEKd11UfV1sUR0+8/6BLSv6ZRqUvMBe4csO6qgm3H8yGv6rjc7+KctXE9hv9gGvttv7KgS6yy6OKgQq9JVLRq8Hv8yC5K+4b11uy8LquLM/9mRLb5byZa4I0tT4mrx74/1GZ1zknIZwCHOI5liwMs41+mFSi29VfySGjf5FgqUD4EggA3iDgvCAYtWb/wCYUE+KSz+c3OL3Th5hwOe6vhnW2J1Kb8HIg/Y/7y4qhx/7zUPgc/3AzPukL3HiRhqCCiVR27m9UXlv9h1p0vm/2BFfO9/3KI/K2wBU+0zQIUBKHNqX+rxcgNOLmdFPpgs0PiQeB+DKrI4AZHVlnfcopq2tQo3uUSMIVhVRx7YQARq5SK/Uojjrsb8CyqcQOMDZo4SdVEqVG4Hfi6hzAybsBZXMp4xacgZcIN0PfDTfxEkltvLPKkAKWGLK5MCFDKCw1trGXfjLlV0jFTkfIEjLAnHRZTrK37ETjIS3W2X5nHHo1BU6YNfaWj4JV5cH5J1xNU9FdQ/NolTAoXwwGL8oeOrLlzNl8fEfiXCTb3NRiXnTEQiJBocE3oHIL1qsF9RWL6hzGX3Li7SpV9wq4nR4uDdfuU4MSXFeV+5N1JkqKtBUwINWjlwib4F/AhZTOoLSpiPJkyL2lPg0ZxDvK2Xkq5sqMAKavuzsE9K92PEqBKI8X4UIUcTgIt/TDYXNwR8rAOwFxKjt1E4YRF6VfKQqHx6YczuqIz0lX8WS81bl0Rcxlu+YKy7h+Ieag+E44IV5gSl3P6uJfAy2pYczMZYcVKWn/jSK62oKh0xaQN7APdf8XKgc0zqoWRFlwW+PwGV+YKyFxqXQpdlhHpXh/DiK25yBKUwcLK68UwFFVIONjnpyma//AEEQs8Q3Z1CccVU5wuWeKZBRGU5lbKE9xfjxBUTgl3A36qEucrjUo1soT5eZebPvLIXzbm4tdwLX7jRnO4i33hL/AA/1l6BbfcJyis5lK8y4CGGlTlKFPQWFNS6sjFuL/vDrqMFhAJj+xLJVp1ZnMtijWJkpJYkcg5VRyI274tnt2xrrmVzcSkcFxhOalXBS2XymQ0zUb7lNhEIS85RXU5kDXE0qkIR4/wAUVH4nhZcbRLq/kYLlTOZxX7COphp8yjSbuxrJ1OYn9nAXe1emOpesBDYKeUtyMjAAkABRmBN09BD/APUnuEPQIUOJsK4VKMBtzqaiYM505lR3av4QuM2pQ2rniAI8/DOKzIWnF/4haXdk7xh6EXEPUxTzn3BLNnmHUfNBEsZl92fuC0NpubfvLQaRsTvVfEH4gkuwnXMHmGjdhT5D0uLCc5EutKp76Jek5Mr08ziNfl3/AInoOOZ1Jt1eTyZW91D51G8qFZLBmC1x4hTuVBpV/WCmXRLyawBuzPvUfQmJxLyWUjzdwy26mRZX+0XUH2gM6lvmDk1hT39JS9iqyKIQHRBAWin8fvcsgXUCoqn6DGKMr7ejFRlVdLg2NwqQhgHzAHAYSKwQV6uJ1dZAqllG/GMOJQ0qDqHJMt5MmuYQW+gJUBgK0T2iPjKljUKw5DeOfoCQCVlry+IdykNhL97cDAB3zE0q0E2OfQEcHLlwGiFT8Ri3DyhdRIGbsz83K1aGx4QxTEmu2yF17Khwb1Lt+xGdq+XQlPR8WLtRwnvAlDH75OXEG02MbI3Dn7gPfs/bBUDFX8AwYTHbh3bzS6g8tRICoYotdjDmy1HbBHyQCDMUAu9vMj2TpXPiDJowqy7s+CGBRVocNQ2ZAnokrzLLOUqHSBCo94odppYdl/pKKoJfNx3qQSCugb7iuFeYAb6k/CzmC3n0voieO5kPFGHz6cS9nYSFVDD6qGEx2FSyVnEOdjvUOVuUYmgsthWOXNR3Qy8YIhALJXE/M0/CKzUKleCdQiQlvaSfTmVKJZkTEdXuJHhZ+wy84hxPiOzOYqKuXvRsxmnExkB5CTwoia2bb4TxplMYpaDCtg8lzFrwD4z0uVctpi5Oz4v+klrIuMuFXHZewtma2xswl1zLGIJLfCcq2v2oS3qLALCm6hylRbXv6rhEYfPo86QBWe97Ww8pCAi8xTWwW2S52ejU9K8RsqJXb935zb4gQ9DEPZi2l3tL94bVzuPhEYpaDswJcgBwXUwiGCBdsD7jGMcwuhFloUgIjIQX3MKgixVSnXuWsAwx9RDwk5a+agNXhNbVW9aRmEGu2Wxb/E0wKFAId3lEtEqqTvbAqoBq0JX3FbMyZtjcILE/tEe0IEhtXbchQy1dwCl0LVS3myiHtFvl4jGspYFczGJru6BfxHwNPD2MHFHFXI0ajo1J94lTKDBWnMLsspUfkjh1Wh8r3DdGiyyIDEtQMW6WVzC4ukRh9EHzBuuwA82+HbhtU44LR4Ier49G3Jld+4XadfQATkk8gXdS+Qxo5LT7wDwreQiHGJuwDejjkwuOrUDGdJrxz8xWG4lApIna1Y1UMy2Z/KolwqVy0M12MNeVf8WiVLV1FKI7VWQgorOodz9S/Dl7fh9CiUfqBXWExBXLPd4VhcIGzYe7xLabIQUDbbl/JLymdDEDbhf36aKipw4f7SFlLeNiA5yWcXBc8s3xLa2n/IlPrIHSDp8RRahVhKI39xMcgfjUTCpbx3MCJdR6qbZgR9UzcmMupWVLdomMin8tk6Fh7iE248MirkpJJonyhSShKlFCHnVVH4ZQQJXGxUbmX6X9MHYNktwkPiYj6HD/ABl10u8RIXpF1j+Je4s5+cnKAaPXEusVs9oPdXOVLl8BjL4lyE/YukK+JbeEFHAS65iYdqfVoDACyUcynE0ZMe6yk0nsJ2bBblLd2kAnAPxsv04idbHA2ZHd18Y+LnmjqC0GVgoF+alIAoxmoW7RykpS5foASPtCRyNQV7ECg2FQUrpzHcrv+QCt0lc1L3Owbc8ykBhRvrsT54RKdUGlmmNZfvNqDSleSOg0CPJT/wBQpeBaQNhY4yvBKSAFDr8TIb6lq/B4kgKu4Aba+FQjfmGxQZWHUG5dvCe63GqtB9ow2tYq8hSjG+2w0/Qm8ixlO6o+5Ear1GlnGPdwVAinACWNTiwC/Wp+RssgLwuleFEtfLy8yVoAKgZzKUXvTyXOHATannwZQuw0AFW/YiV3QdQgQtHrYGirCoLSpqe5NlVChLkOmOjVidhsNcRE6SogAXae33Cb/EQRoWq5q6j6ICkoGfF4irlyT9M4bE51N0xAFINVF8std7REXMjAOmWWUygleVcWNegeJe3NW4NI6Mzz0QV3Ohcb9GkIALOFwd2XBbFXuP7Uhvy/UJdWcycGQteZfb5VlyjbSIIwPlyKp7EEFvWxi4V+1ShUFu8qCXLJz1LeI6/BUuuWXsvYU3c6yJ7dD+T0oQuRRB7uKpyWtyhc6/3jqWx2XBhEFbUeflFhDU2UJTahNLqnO7GCmoNYz7l0E50b1NkmzJ5hbUTsEwhUUuBMdHHFNnlRKGQIoJV1KJcY4qf1Kr0HzLOklnMdKZUvrFkQyctzuNW4xRgV5Uikp1MS7alVVTIUbJlrgxrL89RpXO8TeWbOKgug04iYIMr5X4mHKoGKUrtVge62oG7LHQX1Ka4Cz4YlZ4xssl9kA0aT7jBEau0uLOEgMt5fEFgbbcfSR3t1ptDurHjA54f7Fo1clGxLB35ijRVgZG6ekurlSxCKgUW5wWlOS4vbY0aJUr8ZKi+Xq/4mZwuLRb4JQf5gtP8Ab/kcasr/AExSdhzmfVRK3Ay/5WSgY1FR3eG40NoeS2faQtIj7u3iicj9VH7EZosdgn7nNP0xYW+OgHPuIAAWL3U38F5txITx5NjiVw6YtP6kBYFF0DwhaP1kW2P9YCY/DuMSg1HP4SCB9wQDuBY1R8RZoLOn/wAwCGCN2dPrBebebD2IDXFZVA+Je69q3r9Til3spVn7giKPkZASutTm/M/+7/2PqN0XLNNWK1rCon1SQQQ237i4eXC88g/EqwL1aZf3CDmMDVQSfeCFq8JsGtMcFU/iV4bCz30oYvW32kNrf/77xb5tto+osLuX+q5Vo4OsA1ueAk4UmsS6c5PuPdP/ALSNx1N2a/pl8DeBfEK4qGHR+XzkU39n/E4HbzZ/yNB+Ygqj2+H+E31a3eehcOYc8y5ebLlroYb3PQOS8JXt+43x3LZxzKwltTmoN2ISxZSLRirz/wCQ37U3ma66t/ksq7vb/nEGxf8A78ofqrqkK5MQT0eN0zvpEvX5ZzAdcKNlPNF8JcgaorgleS72vO0YdKnJDtPB5v8A7UKNU8VeFqZdX/5hyXb1/wBQgpnXP/5gnFThg75Ux6Nuun6luwFc1b/Uw0vrx+IDhvf/ANQF8jos+uka8tTIcJ86P+QzurumW1ge4/5Lqsfar/kQaGeP/JaQRY7vbIpKXxYh0q44swTkfJr91HuGzq9fqOJb7uv+TeaxNh8GoSvPdW/ydf3Wgsr7/wDcX7l8p7X5UNARaDDjI1wvlxtY/wAwN1DX7w/cW7+wP5Mm7/yQM0kLDXzkAz6E/wAgg38x/wAI3Bnd/wCZF+I7Z/k7Vwea3OcF29NPMaYGe8pEC+Kz/LE0NPt/vDUxO9WGtA1wjf2Brioiw7yNLCeNf2F0M/y/sHactR/WzIEPKH/WYdFVNLnljoXxU9rfaTdfycH8jlaTun+RzXy7U1KNHx+yGiIMBFxdwO7+EM/k7s6qj/hFh1yl1d8l/wAjerw8KXxUMvztSjCaBRIaD4R/wYb5nQY/uONdTFFQqy7buvHxB7D4w/strtef+0Oz8/8AvK6sf/PvNwlnaPmMLLzWwO+w7k/8TOA+mRU0/tJFJQNcQjCj9Ug6oPaHBDfMmhOerlwg/BR04W9GOajAyBVBalYFw6pkKCiHwThDc0b0PeBaXCv2tm1y11Dm7qN4McvLEF5Kl4/EpBmYVAESGcRCDeMp77mLVE47hVJKi7u0pV9oYaQ6yFFR/sK34D+khKy5SWIco5viGr//AIScIyveJVwwjwkDrKK+VTZKqq26qJPB5KsGUJN1t5sXamhoaO1HJElcXFAL1sPe+eGLrLjqEJWkCdTbjxCsIHiNU1B1DlKN/JX8ZFA/ko8SqvzECqYxrfT7F2RdwnEURcCsUAuj4cErfgAgMTPSmOWUxqAXUs/Uuw/P9jrKmef0mrT2u5szkwbIBqiH4p+Mhtf/AKqK2JEv8RTxLf3DMcK/luFJdSmmCyZ9jAnF8tvwL6LIiOvQze4y6nTCeCcKuBdQL0NQfNpgQDGCoYH0qfGr8Mex6DUu19DtOr6+Y9EDG5STkXErSID3GDkvmXoSiyoWX4jKI3evbUHnPRiaBP8AkoknLKqqWjG7r0qK2+Kg+kTh6FnlgI5iPbCg+P4sBzZbWsIVbFREF0v8IOL4lu1LudRaF9pcF5L/ALOJb62YP/yhf/m4mtwyVTA2NLX/AO5QKHoPqwoL3NCFkyXj0FC3RfBC9gQzI5hR+6v5UtfMNSCrSUVwcReIn4v4oNtdypgSuJyfmNKZn98OJ1Khh2AWec/W9Fw+mysPeDUOSGFS4ePaa7lH7JRvzFt9K7iUjSMSLBrEMYpBrwXByaViHFYjTw1ukP2GsIr7zUbT7f1kAuHRFAZwIaHQ/bSFRAyCcTCXZC92h+aj4htTupzOoA7yMgN8wfRWbvN10QUEsKIKMgXDQelE/9k=;" vertex="1" parent="1">
                    <mxGeometry x="180" y="60" width="1488.91" height="840" as="geometry"/>
                </mxCell>
            </root>
        </mxGraphModel>
    </diagram>
</mxfile>